<?xml version="1.0" encoding="UTF-8"?>
<!DOCTYPE svg PUBLIC "-//W3C//DTD SVG 1.1//EN" "http://www.w3.org/Graphics/SVG/1.1/DTD/svg11.dtd">
<svg xmlns="http://www.w3.org/2000/svg" version="1.1" width="1820px" height="2008px" style="shape-rendering:geometricPrecision; text-rendering:geometricPrecision; image-rendering:optimizeQuality; fill-rule:evenodd; clip-rule:evenodd" xmlns:xlink="http://www.w3.org/1999/xlink">
<g><path style="opacity:1" fill="#e6e5ea" d="M -0.5,-0.5 C 386.167,-0.5 772.833,-0.5 1159.5,-0.5C 1159.5,-0.166667 1159.5,0.166667 1159.5,0.5C 829.166,0.333334 498.833,0.5 168.5,1C 112.728,3.46629 67.8948,26.633 34,70.5C 21.9261,89.6493 12.2595,109.983 5,131.5C 3.14987,139.417 1.81654,147.417 1,155.5C 0.833275,630 0.333275,1104.33 -0.5,1578.5C -0.5,1052.17 -0.5,525.833 -0.5,-0.5 Z"/></g>
<g><path style="opacity:1" fill="#f1f1f3" d="M 1159.5,0.5 C 1159.5,0.166667 1159.5,-0.166667 1159.5,-0.5C 1379.5,-0.5 1599.5,-0.5 1819.5,-0.5C 1819.5,545.833 1819.5,1092.17 1819.5,1638.5C 1819.17,1638.5 1818.83,1638.5 1818.5,1638.5C 1818.67,1152.17 1818.5,665.833 1818,179.5C 1817.66,149.119 1809.99,120.786 1795,94.5C 1765.57,45.0173 1722.4,15.1839 1665.5,5C 1650.25,2.78432 1634.91,1.45098 1619.5,1C 1466.17,0.500001 1312.83,0.333334 1159.5,0.5 Z"/></g>
<g><path style="opacity:1" fill="#00005a" d="M 1159.5,0.5 C 1312.83,0.333334 1466.17,0.500001 1619.5,1C 1634.91,1.45098 1650.25,2.78432 1665.5,5C 1722.4,15.1839 1765.57,45.0173 1795,94.5C 1809.99,120.786 1817.66,149.119 1818,179.5C 1818.5,665.833 1818.67,1152.17 1818.5,1638.5C 1815.3,1706.77 1784.97,1758.93 1727.5,1795C 1707.39,1806.04 1686.06,1813.7 1663.5,1818C 1166.85,1819.66 670.182,1820 173.5,1819C 105.305,1812.01 54.4717,1778.85 21,1719.5C 9.1757,1695.2 2.50903,1669.54 1,1642.5C 0.830658,1630.66 0.330658,1618.99 -0.5,1607.5C -0.5,1597.83 -0.5,1588.17 -0.5,1578.5C 0.333275,1104.33 0.833275,630 1,155.5C 1.81654,147.417 3.14987,139.417 5,131.5C 12.2595,109.983 21.9261,89.6493 34,70.5C 67.8948,26.633 112.728,3.46629 168.5,1C 498.833,0.5 829.166,0.333334 1159.5,0.5 Z"/></g>
<g><path style="opacity:1" fill="#fdfdfe" d="M 209.5,46.5 C 677.501,46.1646 1145.5,46.6646 1613.5,48C 1683.8,56.3279 1732.96,92.8279 1761,157.5C 1767.93,174.491 1771.93,192.158 1773,210.5C 1773.68,673.501 1773.35,1136.5 1772,1599.5C 1769.05,1675.73 1732.89,1729.23 1663.5,1760C 1646.67,1766.1 1629.34,1769.77 1611.5,1771C 1143.5,1771.67 675.5,1771.67 207.5,1771C 150.664,1764.8 106.497,1737.96 75,1690.5C 63.6096,1672.67 55.943,1653.33 52,1632.5C 49.8683,1631.22 47.7016,1631.22 45.5,1632.5C 44.018,1629.74 44.518,1627.41 47,1625.5C 47.8728,1149.83 48.5395,674.167 49,198.5C 56.548,130.215 92.048,83.0487 155.5,57C 173.2,51.2259 191.2,47.7259 209.5,46.5 Z"/></g>
<g><path style="opacity:1" fill="#00005a" d="M 915.5,128.5 C 920.5,128.5 925.5,128.5 930.5,128.5C 899.523,356.944 926.356,578.278 1011,792.5C 1056.42,906.097 1120.42,1007.43 1203,1096.5C 1261.02,1157.88 1327.52,1207.71 1402.5,1246C 1476.16,1282.75 1554.16,1302.25 1636.5,1304.5C 1623.43,1339.71 1609.76,1374.71 1595.5,1409.5C 1491.77,1335.31 1378.1,1280.81 1254.5,1246C 1000.58,1176.23 747.912,1180.56 496.5,1259C 396.346,1291.41 303.013,1337.08 216.5,1396C 215.551,1396.62 214.718,1396.45 214,1395.5C 202.373,1365.61 191.373,1335.61 181,1305.5C 305.131,1293.32 415.631,1248.49 512.5,1171C 542.166,1147.01 570.333,1121.18 597,1093.5C 662.876,1020.14 716.543,938.477 758,848.5C 781.727,796.394 802.06,743.061 819,688.5C 833.484,632.057 846.151,575.391 857,518.5C 862.765,474.654 867.098,430.654 870,386.5C 870.667,342.5 870.667,298.5 870,254.5C 865.743,212.836 861.576,171.169 857.5,129.5C 877.007,129.83 896.341,129.497 915.5,128.5 Z"/></g>
<g><path style="opacity:1" fill="#00005a" d="M 975.5,132.5 C 990.097,133.696 1004.6,135.363 1019,137.5C 1015.28,175.749 1012.28,214.082 1010,252.5C 1002.85,405.094 1023.51,553.76 1072,698.5C 1102.95,787.739 1144.95,871.073 1198,948.5C 1248.96,1021.8 1311.46,1083.3 1385.5,1133C 1468.9,1187.52 1560.57,1215.35 1660.5,1216.5C 1656.91,1230.78 1653.58,1245.11 1650.5,1259.5C 1549.23,1257.24 1455.9,1229.07 1370.5,1175C 1285.88,1119.38 1214.72,1049.88 1157,966.5C 1070.54,837.843 1013.54,696.843 986,543.5C 961.579,407.036 958.079,270.036 975.5,132.5 Z"/></g>
<g><path style="opacity:1" fill="#00005a" d="M 155.5,1216.5 C 167.299,1214.84 179.299,1213.84 191.5,1213.5C 234.181,1209.33 275.515,1199.5 315.5,1184C 402.316,1146.85 477.149,1093.02 540,1022.5C 612.377,939.49 667.71,845.824 706,741.5C 750.655,621.559 775.322,497.559 780,369.5C 783.668,293.522 779.501,218.022 767.5,143C 782.474,140.105 797.474,137.272 812.5,134.5C 820.179,181.815 824.679,229.481 826,277.5C 830.716,428.202 809.716,575.202 763,718.5C 722.748,838.398 662.414,946.398 582,1042.5C 529.518,1103 468.685,1153.17 399.5,1193C 326.957,1233.13 249.29,1254.63 166.5,1257.5C 162.671,1243.85 159.004,1230.18 155.5,1216.5 Z"/></g>
<g><path style="opacity:1" fill="#00005a" d="M 1063.5,146.5 C 1078.14,150.493 1092.8,154.493 1107.5,158.5C 1080.65,358.692 1105.82,552.026 1183,738.5C 1216.26,815.751 1259.59,886.418 1313,950.5C 1355.69,1000.22 1405.19,1041.38 1461.5,1074C 1504.29,1098.15 1549.96,1114.15 1598.5,1122C 1624.43,1124.69 1650.43,1126.36 1676.5,1127C 1673.97,1141.39 1671.97,1155.89 1670.5,1170.5C 1577.87,1173.26 1492.87,1149.43 1415.5,1099C 1344.55,1051.71 1284.38,993.214 1235,923.5C 1153.88,804.547 1100.21,673.88 1074,531.5C 1050.76,403.708 1047.26,275.375 1063.5,146.5 Z"/></g>
<g><path style="opacity:1" fill="#00005a" d="M 721.5,153.5 C 722.833,153.5 724.167,153.5 725.5,153.5C 746.866,313.378 737.366,471.378 697,627.5C 668.916,731.506 625.249,828.173 566,917.5C 520.669,984.166 465.169,1041 399.5,1088C 350.044,1122.05 296.044,1146.39 237.5,1161C 207.894,1166.51 178.061,1170.01 148,1171.5C 147.055,1171.09 146.388,1170.43 146,1169.5C 144.107,1155.25 141.94,1141.08 139.5,1127C 216.463,1126.34 287.463,1105.67 352.5,1065C 408.813,1029.37 457.646,985.199 499,932.5C 548.048,869.115 587.381,799.782 617,724.5C 626.667,697.5 636.333,670.5 646,643.5C 691.085,487.643 702.918,329.31 681.5,168.5C 681.608,167.558 681.941,166.725 682.5,166C 695.666,161.966 708.666,157.8 721.5,153.5 Z"/></g>
<g><path style="opacity:1" fill="#00005a" d="M 1151.5,173.5 C 1165.5,178.833 1179.5,184.167 1193.5,189.5C 1180.12,319.462 1189.28,447.795 1221,574.5C 1241.85,650.845 1271.51,723.512 1310,792.5C 1348.15,858.533 1396.99,915.7 1456.5,964C 1499.72,997.94 1548.39,1020.61 1602.5,1032C 1629.42,1036.33 1656.42,1037.16 1683.5,1034.5C 1683.06,1049.83 1682.73,1065.16 1682.5,1080.5C 1602.78,1085.41 1529.45,1066.24 1462.5,1023C 1402.5,983.005 1351.67,933.505 1310,874.5C 1249.33,786.467 1205.33,690.467 1178,586.5C 1171.39,562.053 1165.72,537.387 1161,512.5C 1156.67,480.5 1152.33,448.5 1148,416.5C 1145.43,393.238 1144.09,369.905 1144,346.5C 1142.25,288.581 1144.75,230.915 1151.5,173.5 Z"/></g>
<g><path style="opacity:1" fill="#00005a" d="M 637.5,182.5 C 659.185,347.113 643.685,508.446 591,666.5C 562.834,750.849 522.168,828.182 469,898.5C 435.008,943.161 395.175,981.661 349.5,1014C 294.951,1052.59 234.284,1074.93 167.5,1081C 156.505,1081.5 145.505,1081.67 134.5,1081.5C 134.278,1066.83 133.944,1052.16 133.5,1037.5C 200.854,1037.66 262.187,1018.82 317.5,981C 367.25,946.583 409.75,904.75 445,855.5C 501.246,774.99 541.913,686.99 567,591.5C 594.654,487.609 605.988,381.943 601,274.5C 599.285,250.5 597.952,226.5 597,202.5C 610.638,195.931 624.138,189.264 637.5,182.5 Z"/></g>
<g><path style="opacity:1" fill="#fefefe" d="M 894.5,565.5 C 896.411,565.574 897.578,566.574 898,568.5C 917.169,666.669 947.169,761.336 988,852.5C 1040.56,967.498 1111.73,1069.33 1201.5,1158C 1213.21,1168.71 1225.21,1179.04 1237.5,1189C 1239.16,1190.44 1239.82,1192.28 1239.5,1194.5C 1181.39,1180.78 1122.73,1169.95 1063.5,1162C 975.349,1151.27 887.016,1149.27 798.5,1156C 767.784,1158.49 737.117,1161.49 706.5,1165C 656.972,1175.31 607.305,1184.64 557.5,1193C 649.144,1112.73 722.644,1018.56 778,910.5C 833.898,801.307 872.731,686.307 894.5,565.5 Z"/></g>
<g><path style="opacity:1" fill="#b8b8c2" d="M 191.5,1213.5 C 179.299,1213.84 167.299,1214.84 155.5,1216.5C 154.596,1215.79 154.263,1214.79 154.5,1213.5C 166.833,1213.5 179.167,1213.5 191.5,1213.5 Z"/></g>
<g><path style="opacity:1" fill="#00005a" d="M 869.5,1240.5 C 1061.48,1235.66 1244.48,1273.49 1418.5,1354C 1474.34,1380.73 1526.67,1412.73 1575.5,1450C 1568.2,1463.45 1560.53,1476.61 1552.5,1489.5C 1479.66,1435.23 1400.33,1392.07 1314.5,1360C 1169.91,1306.9 1020.58,1282.57 866.5,1287C 687.245,1290.15 517.911,1332.48 358.5,1414C 322.908,1433.04 288.742,1454.2 256,1477.5C 248.833,1464.5 241.667,1451.5 234.5,1438.5C 245.573,1428.46 257.573,1419.62 270.5,1412C 418.808,1322.01 579.475,1267.67 752.5,1249C 791.533,1244.37 830.533,1241.54 869.5,1240.5 Z"/></g>
<g><path style="opacity:1" fill="#00005a" d="M 867.5,1330.5 C 933.764,1329.8 999.764,1333.64 1065.5,1342C 1171.12,1357.32 1272.45,1386.99 1369.5,1431C 1426.25,1457.86 1479.25,1490.19 1528.5,1528C 1520.38,1540.41 1511.88,1552.58 1503,1564.5C 1455.7,1527.75 1404.54,1496.91 1349.5,1472C 1207.95,1408.29 1059.45,1376.12 904,1375.5C 826.779,1375.75 750.279,1383.25 674.5,1398C 539.63,1423.26 416.13,1474.76 304,1552.5C 295.957,1540.25 287.791,1528.08 279.5,1516C 322.64,1484.61 368.64,1457.61 417.5,1435C 538.486,1379.01 665.486,1345.68 798.5,1335C 821.641,1333.24 844.641,1331.74 867.5,1330.5 Z"/></g>
<g><path style="opacity:1" fill="#00005a" d="M 881.5,1420.5 C 1047.24,1418.08 1204.91,1452.25 1354.5,1523C 1397.51,1544.72 1437.84,1570.39 1475.5,1600C 1465.67,1611.17 1455.83,1622.33 1446,1633.5C 1406.41,1603.27 1363.91,1577.44 1318.5,1556C 1201.71,1502.47 1079.05,1472.8 950.5,1467C 801.023,1458.97 656.69,1482.3 517.5,1537C 461.723,1559.96 409.223,1588.46 360,1622.5C 350.285,1610.91 340.452,1599.41 330.5,1588C 402.416,1537.71 480.416,1499.04 564.5,1472C 667.814,1439.51 773.481,1422.34 881.5,1420.5 Z"/></g>
<g><path style="opacity:1" fill="#fcfcfd" d="M -0.5,1607.5 C 0.330658,1618.99 0.830658,1630.66 1,1642.5C 2.50903,1669.54 9.1757,1695.2 21,1719.5C 54.4717,1778.85 105.305,1812.01 173.5,1819C 670.182,1820 1166.85,1819.66 1663.5,1818C 1686.06,1813.7 1707.39,1806.04 1727.5,1795C 1784.97,1758.93 1815.3,1706.77 1818.5,1638.5C 1818.83,1638.5 1819.17,1638.5 1819.5,1638.5C 1819.5,1761.5 1819.5,1884.5 1819.5,2007.5C 1212.83,2007.5 606.167,2007.5 -0.5,2007.5C -0.5,1874.17 -0.5,1740.83 -0.5,1607.5 Z"/></g>
<g><path style="opacity:1" fill="#01005a" d="M 364.5,1853.5 C 392.811,1853.89 411.978,1867.22 422,1893.5C 422.667,1894.5 422.667,1895.5 422,1896.5C 413.001,1899.21 403.835,1901.21 394.5,1902.5C 386.997,1882.41 372.664,1874.91 351.5,1880C 339.305,1885.21 331.805,1894.37 329,1907.5C 325.819,1921.49 325.819,1935.49 329,1949.5C 337.169,1976.33 354.336,1984.5 380.5,1974C 388.712,1967.41 393.712,1958.91 395.5,1948.5C 405.088,1950.7 414.421,1953.7 423.5,1957.5C 419.284,1968.27 413.784,1978.27 407,1987.5C 378.238,2009.82 349.405,2009.99 320.5,1988C 307.534,1975.23 300.034,1959.73 298,1941.5C 295.348,1920.09 299.348,1900.09 310,1881.5C 323.908,1863.8 342.074,1854.46 364.5,1853.5 Z"/></g>
<g><path style="opacity:1" fill="#00005a" d="M 952.5,1853.5 C 982.635,1853.31 1002.97,1867.31 1013.5,1895.5C 1013.29,1896.09 1012.96,1896.59 1012.5,1897C 1003.57,1898.92 994.737,1901.08 986,1903.5C 979.15,1884.49 965.65,1876.32 945.5,1879C 934.255,1881.91 926.422,1888.74 922,1899.5C 917.272,1915.24 916.272,1931.24 919,1947.5C 926.039,1974.6 942.872,1983.77 969.5,1975C 972.63,1972.87 975.463,1970.37 978,1967.5C 981.631,1961.23 984.965,1954.9 988,1948.5C 996.772,1951.54 1005.6,1954.37 1014.5,1957C 1010.81,1964.88 1006.98,1972.71 1003,1980.5C 995.99,1990.59 986.49,1997.09 974.5,2000C 947.84,2007.71 924.674,2001.88 905,1982.5C 890.788,1962.8 885.455,1940.8 889,1916.5C 893.473,1878.53 914.64,1857.53 952.5,1853.5 Z"/></g>
<g><path style="opacity:1" fill="#01005a" d="M 1096.5,1853.5 C 1142.79,1852.96 1168.62,1875.63 1174,1921.5C 1176.46,1947.2 1169.29,1969.7 1152.5,1989C 1127.25,2008.49 1099.91,2011.82 1070.5,1999C 1049.49,1986.96 1037.66,1968.79 1035,1944.5C 1031.87,1922.05 1035.87,1901.05 1047,1881.5C 1059.66,1865.25 1076.16,1855.92 1096.5,1853.5 Z"/></g>
<g><path style="opacity:1" fill="#01005a" d="M 1690.5,1853.5 C 1720.87,1853.39 1741.21,1867.56 1751.5,1896C 1742.53,1898.6 1733.53,1901.1 1724.5,1903.5C 1721.43,1899.04 1718.6,1894.37 1716,1889.5C 1703.93,1877.82 1690.1,1875.32 1674.5,1882C 1664.85,1887.77 1659.02,1896.27 1657,1907.5C 1653.46,1924 1654.12,1940.33 1659,1956.5C 1666.41,1973.96 1679.58,1981.13 1698.5,1978C 1712.75,1973.24 1721.09,1963.41 1723.5,1948.5C 1733.09,1950.7 1742.42,1953.7 1751.5,1957.5C 1747.07,1969.53 1740.74,1980.37 1732.5,1990C 1708.47,2005.95 1683.47,2007.61 1657.5,1995C 1635,1979.16 1624.33,1957.32 1625.5,1929.5C 1625.11,1884.92 1646.77,1859.58 1690.5,1853.5 Z"/></g>
<g><path style="opacity:1" fill="#00005a" d="M 138.5,2002.5 C 127.346,2003.49 116.012,2003.83 104.5,2003.5C 93.6769,1987.2 82.8436,1970.86 72,1954.5C 63.6176,1942.42 52.1176,1938.09 37.5,1941.5C 37.6666,1961.84 37.5,1982.17 37,2002.5C 28,2003.83 19,2003.83 10,2002.5C 9.50001,1953.83 9.33334,1905.17 9.5,1856.5C 37.1832,1856.2 64.8499,1856.7 92.5,1858C 114.432,1862.01 126.098,1875.18 127.5,1897.5C 125.565,1920.94 112.899,1934.1 89.5,1937C 97.2941,1942.46 104.127,1948.96 110,1956.5C 119.275,1972.07 128.775,1987.4 138.5,2002.5 Z"/></g>
<g><path style="opacity:1" fill="#01005a" d="M 285.5,2002.5 C 275.347,2003.49 265.014,2003.83 254.5,2003.5C 250.799,1992.42 246.799,1981.42 242.5,1970.5C 222.842,1969.33 203.175,1969.17 183.5,1970C 179.202,1981.06 175.202,1992.23 171.5,2003.5C 161.319,2003.83 151.319,2003.49 141.5,2002.5C 159.895,1954.15 178.395,1905.82 197,1857.5C 207.333,1856.17 217.667,1856.17 228,1857.5C 247.663,1905.66 266.829,1953.99 285.5,2002.5 Z"/></g>
<g><path style="opacity:1" fill="#00005a" d="M 480.5,1856.5 C 480.5,1905.5 480.5,1954.5 480.5,2003.5C 470.833,2003.5 461.167,2003.5 451.5,2003.5C 451.5,1954.5 451.5,1905.5 451.5,1856.5C 461.167,1856.5 470.833,1856.5 480.5,1856.5 Z"/></g>
<g><path style="opacity:1" fill="#d8d8dd" d="M 480.5,1856.5 C 481.499,1905.66 481.832,1955 481.5,2004.5C 471.319,2004.83 461.319,2004.49 451.5,2003.5C 461.167,2003.5 470.833,2003.5 480.5,2003.5C 480.5,1954.5 480.5,1905.5 480.5,1856.5 Z"/></g>
<g><path style="opacity:1" fill="#00005a" d="M 541.5,2001.5 C 541.5,1961.5 541.5,1921.5 541.5,1881.5C 535.167,1881.5 528.833,1881.5 522.5,1881.5C 514.826,1881.67 507.159,1881.5 499.5,1881C 498.833,1873.67 498.167,1866.33 497.5,1859C 497.833,1858.67 498.167,1858.33 498.5,1858C 517.798,1856.87 537.131,1856.37 556.5,1856.5C 573.833,1856.67 591.167,1856.83 608.5,1857C 610.101,1857.27 611.601,1857.77 613,1858.5C 613.813,1866.08 613.647,1873.58 612.5,1881C 598.504,1881.5 584.504,1881.67 570.5,1881.5C 570.5,1922.17 570.5,1962.83 570.5,2003.5C 561.494,2003.67 552.494,2003.5 543.5,2003C 542.584,2002.72 541.918,2002.22 541.5,2001.5 Z"/></g>
<g><path style="opacity:1" fill="#00005a" d="M 634.5,1856.5 C 669.549,1856.03 704.549,1856.53 739.5,1858C 740.833,1865.67 740.833,1873.33 739.5,1881C 713.835,1881.5 688.169,1881.67 662.5,1881.5C 662.18,1892.08 662.513,1902.58 663.5,1913C 686.833,1913.33 710.167,1913.67 733.5,1914C 734,1914.5 734.5,1915 735,1915.5C 735.812,1922.75 735.646,1929.91 734.5,1937C 710.534,1938.43 686.534,1938.93 662.5,1938.5C 662.5,1951.83 662.5,1965.17 662.5,1978.5C 689.532,1978.19 716.532,1978.53 743.5,1979.5C 743.5,1987.5 743.5,1995.5 743.5,2003.5C 742.167,2003.5 740.833,2003.5 739.5,2003.5C 704.5,2003.5 669.5,2003.5 634.5,2003.5C 634.5,1954.5 634.5,1905.5 634.5,1856.5 Z"/></g>
<g><path style="opacity:1" fill="#00005a" d="M 797.5,1859.5 C 797.5,1899.17 797.5,1938.83 797.5,1978.5C 817.5,1978.5 837.5,1978.5 857.5,1978.5C 861.794,1978.58 865.961,1979.24 870,1980.5C 870.202,1987.55 870.702,1994.55 871.5,2001.5C 870.624,2002.25 869.624,2002.75 868.5,2003C 835.168,2003.5 801.835,2003.67 768.5,2003.5C 768.167,1954.83 768.5,1906.16 769.5,1857.5C 778.118,1856.36 786.785,1856.2 795.5,1857C 796.381,1857.71 797.047,1858.54 797.5,1859.5 Z"/></g>
<g><path style="opacity:1" fill="#02015a" d="M 1338.5,2002.5 C 1332.26,2003.46 1325.92,2003.79 1319.5,2003.5C 1317.21,2003.76 1315.04,2003.42 1313,2002.5C 1312.21,1969.84 1311.54,1937.17 1311,1904.5C 1310.41,1902.14 1308.91,1901.14 1306.5,1901.5C 1298.97,1935.27 1290.97,1968.94 1282.5,2002.5C 1273.19,2003.5 1263.86,2003.83 1254.5,2003.5C 1246.68,1968.71 1238.34,1934.04 1229.5,1899.5C 1227.93,1900.71 1227.1,1902.38 1227,1904.5C 1226.11,1937.5 1225.27,1970.5 1224.5,2003.5C 1216.49,2003.67 1208.49,2003.5 1200.5,2003C 1199.75,2001.27 1199.25,1999.43 1199,1997.5C 1198.5,1950.5 1198.33,1903.5 1198.5,1856.5C 1213.17,1856.5 1227.83,1856.5 1242.5,1856.5C 1249.88,1887.69 1258.05,1918.69 1267,1949.5C 1267.67,1950.83 1268.67,1951.83 1270,1952.5C 1278.44,1920.81 1286.94,1889.15 1295.5,1857.5C 1309.82,1856.5 1324.15,1856.17 1338.5,1856.5C 1338.5,1905.17 1338.5,1953.83 1338.5,2002.5 Z"/></g>
<g><path style="opacity:1" fill="#a7a7b2" d="M 1426.5,1856.5 C 1426.5,1905.5 1426.5,1954.5 1426.5,2003.5C 1436.17,2003.5 1445.83,2003.5 1455.5,2003.5C 1445.68,2004.49 1435.68,2004.83 1425.5,2004.5C 1425.17,1955 1425.5,1905.66 1426.5,1856.5 Z"/></g>
<g><path style="opacity:1" fill="#00005a" d="M 1426.5,1856.5 C 1436.17,1856.5 1445.83,1856.5 1455.5,1856.5C 1455.5,1905.5 1455.5,1954.5 1455.5,2003.5C 1445.83,2003.5 1436.17,2003.5 1426.5,2003.5C 1426.5,1954.5 1426.5,1905.5 1426.5,1856.5 Z"/></g>
<g><path style="opacity:1" fill="#03015a" d="M 1598.5,1858.5 C 1598.5,1906.83 1598.5,1955.17 1598.5,2003.5C 1588.83,2003.5 1579.17,2003.5 1569.5,2003.5C 1551.23,1973.39 1532.73,1943.39 1514,1913.5C 1513.33,1912.75 1512.5,1912.41 1511.5,1912.5C 1511.44,1911.96 1511.11,1911.62 1510.5,1911.5C 1509.5,1941.83 1509.17,1972.16 1509.5,2002.5C 1501.68,2003.66 1493.68,2003.82 1485.5,2003C 1484.81,2001.93 1484.31,2000.77 1484,1999.5C 1483.5,1951.83 1483.33,1904.17 1483.5,1856.5C 1491.51,1856.33 1499.51,1856.5 1507.5,1857C 1509.78,1857.23 1511.78,1858.07 1513.5,1859.5C 1532.01,1890.54 1551.01,1921.2 1570.5,1951.5C 1571.33,1920.51 1571.83,1889.51 1572,1858.5C 1572.75,1857.87 1573.58,1857.37 1574.5,1857C 1577.67,1856.83 1580.83,1856.67 1584,1856.5C 1589.09,1856.34 1593.92,1857.01 1598.5,1858.5 Z"/></g>
<g><path style="opacity:1" fill="#8a8a9c" d="M 1598.5,1858.5 C 1599.5,1907 1599.83,1955.66 1599.5,2004.5C 1589.32,2004.83 1579.32,2004.49 1569.5,2003.5C 1579.17,2003.5 1588.83,2003.5 1598.5,2003.5C 1598.5,1955.17 1598.5,1906.83 1598.5,1858.5 Z"/></g>
<g><path style="opacity:1" fill="#fcfcfc" d="M 1096.5,1878.5 C 1124.48,1876.65 1140.32,1889.65 1144,1917.5C 1146.57,1935.74 1143.24,1952.74 1134,1968.5C 1123.2,1979.88 1110.04,1984.04 1094.5,1981C 1080.7,1976.53 1071.53,1967.37 1067,1953.5C 1060.29,1931.22 1062.96,1910.22 1075,1890.5C 1081.01,1884.25 1088.18,1880.25 1096.5,1878.5 Z"/></g>
<g><path style="opacity:1" fill="#f9f9fa" d="M 37.5,1881.5 C 53.8502,1881.42 70.1835,1881.92 86.5,1883C 97.9033,1889.22 100.403,1898.05 94,1909.5C 91.8995,1912.47 89.0662,1914.3 85.5,1915C 69.5431,1916.4 53.5431,1916.9 37.5,1916.5C 37.5,1904.83 37.5,1893.17 37.5,1881.5 Z"/></g>
<g><path style="opacity:1" fill="#a8a8b3" d="M 522.5,1881.5 C 528.833,1881.5 535.167,1881.5 541.5,1881.5C 541.5,1921.5 541.5,1961.5 541.5,2001.5C 540.501,1962 540.168,1922.34 540.5,1882.5C 534.31,1882.82 528.31,1882.49 522.5,1881.5 Z"/></g>
<g><path style="opacity:1" fill="#f8f8f9" d="M 230.5,1941.5 C 224.705,1942.83 218.538,1943.5 212,1943.5C 205.657,1943.5 199.491,1943.17 193.5,1942.5C 199.364,1925.41 205.531,1908.41 212,1891.5C 219.002,1907.84 225.169,1924.51 230.5,1941.5 Z"/></g>
<g><path style="opacity:1" fill="#b7b7c0" d="M 230.5,1941.5 C 231.404,1942.21 231.737,1943.21 231.5,1944.5C 218.483,1944.83 205.483,1944.5 192.5,1943.5C 192.624,1942.89 192.957,1942.56 193.5,1942.5C 199.491,1943.17 205.657,1943.5 212,1943.5C 218.538,1943.5 224.705,1942.83 230.5,1941.5 Z"/></g>
<g><path style="opacity:1" fill="#797990" d="M 1511.5,1912.5 C 1510.83,1942.5 1510.17,1972.5 1509.5,2002.5C 1509.17,1972.16 1509.5,1941.83 1510.5,1911.5C 1511.11,1911.62 1511.44,1911.96 1511.5,1912.5 Z"/></g>
<g><path style="opacity:1" fill="#00005a" d="M 1779.5,1975.5 C 1787.17,1975.33 1794.84,1975.5 1802.5,1976C 1803,1976.5 1803.5,1977 1804,1977.5C 1804.83,1985.85 1804.67,1994.19 1803.5,2002.5C 1794.89,2003.47 1786.22,2003.8 1777.5,2003.5C 1777.77,1995.46 1777.44,1987.46 1776.5,1979.5C 1776.79,1977.56 1777.79,1976.22 1779.5,1975.5 Z"/></g>
<g><path style="opacity:1" fill="#dbdbdf" d="M 797.5,1859.5 C 798.499,1898.66 798.832,1938 798.5,1977.5C 818.34,1977.17 838.007,1977.5 857.5,1978.5C 837.5,1978.5 817.5,1978.5 797.5,1978.5C 797.5,1938.83 797.5,1899.17 797.5,1859.5 Z"/></g>
<g><path style="opacity:1" fill="#abaab6" d="M 138.5,2002.5 C 139.043,2002.56 139.376,2002.89 139.5,2003.5C 127.673,2004.82 116.007,2004.82 104.5,2003.5C 116.012,2003.83 127.346,2003.49 138.5,2002.5 Z"/></g>
<g><path style="opacity:1" fill="#adadb8" d="M 141.5,2002.5 C 151.319,2003.49 161.319,2003.83 171.5,2003.5C 161.326,2004.82 150.993,2004.82 140.5,2003.5C 140.624,2002.89 140.957,2002.56 141.5,2002.5 Z"/></g>
<g><path style="opacity:1" fill="#b8b8c1" d="M 285.5,2002.5 C 286.043,2002.56 286.376,2002.89 286.5,2003.5C 275.674,2004.82 265.007,2004.82 254.5,2003.5C 265.014,2003.83 275.347,2003.49 285.5,2002.5 Z"/></g>
<g><path style="opacity:1" fill="#a8a8b4" d="M 634.5,1856.5 C 634.5,1905.5 634.5,1954.5 634.5,2003.5C 669.5,2003.5 704.5,2003.5 739.5,2003.5C 704.337,2004.5 669.004,2004.83 633.5,2004.5C 633.168,1955 633.501,1905.66 634.5,1856.5 Z"/></g>
<g><path style="opacity:1" fill="#aaaab5" d="M 1338.5,2002.5 C 1335.74,2003.82 1332.58,2004.48 1329,2004.5C 1325.65,2004.5 1322.48,2004.16 1319.5,2003.5C 1325.92,2003.79 1332.26,2003.46 1338.5,2002.5 Z"/></g>
</svg>
