<?xml version="1.0" encoding="UTF-8"?>
<!DOCTYPE svg PUBLIC "-//W3C//DTD SVG 1.1//EN" "http://www.w3.org/Graphics/SVG/1.1/DTD/svg11.dtd">
<svg xmlns="http://www.w3.org/2000/svg" version="1.1" width="512px" height="512px" style="shape-rendering:geometricPrecision; text-rendering:geometricPrecision; image-rendering:optimizeQuality; fill-rule:evenodd; clip-rule:evenodd" xmlns:xlink="http://www.w3.org/1999/xlink">
<g><path style="opacity:0.987" fill="#415a6a" d="M 230.5,-0.5 C 242.167,-0.5 253.833,-0.5 265.5,-0.5C 314.722,5.88597 345.222,33.2193 357,81.5C 360.814,99.9762 362.314,118.643 361.5,137.5C 359.22,136.36 356.886,135.193 354.5,134C 351.77,133.272 349.103,133.438 346.5,134.5C 343.172,120.682 338.172,107.515 331.5,95C 306.985,91.7808 285.319,82.2808 266.5,66.5C 238.476,102.67 201.476,119.003 155.5,115.5C 153.697,121.411 152.197,127.411 151,133.5C 145.741,132.675 140.908,134.008 136.5,137.5C 134.024,109.963 137.857,83.2959 148,57.5C 160.396,30.4427 180.896,12.6094 209.5,4C 216.59,2.26914 223.59,0.769143 230.5,-0.5 Z"/></g>
<g><path style="opacity:0.993" fill="#fed05c" d="M 361.5,137.5 C 365.649,143.139 368.149,149.472 369,156.5C 371.553,174.401 368.22,191.067 359,206.5C 355.053,211.631 349.887,214.298 343.5,214.5C 335.849,247.339 318.182,273.172 290.5,292C 254.665,310.504 221.332,306.837 190.5,281C 171.724,262.375 159.057,240.208 152.5,214.5C 143.563,213.076 137.397,208.076 134,199.5C 126.636,181.852 125.636,163.852 131,145.5C 132.306,142.379 134.14,139.713 136.5,137.5C 140.908,134.008 145.741,132.675 151,133.5C 152.197,127.411 153.697,121.411 155.5,115.5C 201.476,119.003 238.476,102.67 266.5,66.5C 285.319,82.2808 306.985,91.7808 331.5,95C 338.172,107.515 343.172,120.682 346.5,134.5C 349.103,133.438 351.77,133.272 354.5,134C 356.886,135.193 359.22,136.36 361.5,137.5 Z"/></g>
<g><path style="opacity:0.994" fill="#f2705a" d="M 511.5,387.5 C 511.5,397.167 511.5,406.833 511.5,416.5C 508.675,433.297 502.675,448.963 493.5,463.5C 473.303,490.266 446.636,506.266 413.5,511.5C 405.167,511.5 396.833,511.5 388.5,511.5C 333.99,500.989 301.99,468.323 292.5,413.5C 289.437,377.341 300.77,346.675 326.5,321.5C 351.147,298.45 380.481,288.617 414.5,292C 468.901,301.568 501.234,333.402 511.5,387.5 Z"/></g>
<g><path style="opacity:0.988" fill="#f2f2f2" d="M 326.5,321.5 C 300.77,346.675 289.437,377.341 292.5,413.5C 287.561,423.045 282.894,432.711 278.5,442.5C 273.772,418.643 268.772,394.809 263.5,371C 263.667,370.167 263.833,369.333 264,368.5C 269.687,362.314 275.187,355.981 280.5,349.5C 270.214,337.712 259.38,326.379 248,315.5C 237.316,326.683 226.816,338.016 216.5,349.5C 221.813,355.981 227.313,362.314 233,368.5C 233.167,369.333 233.333,370.167 233.5,371C 228.385,395.503 223.385,420.003 218.5,444.5C 200.183,403.906 181.85,363.239 163.5,322.5C 217.777,312.306 272.11,311.973 326.5,321.5 Z"/></g>
<g><path style="opacity:0.995" fill="#415a6b" d="M 163.5,322.5 C 181.85,363.239 200.183,403.906 218.5,444.5C 227.972,466.916 237.639,489.249 247.5,511.5C 164.833,511.5 82.1667,511.5 -0.5,511.5C -0.5,503.833 -0.5,496.167 -0.5,488.5C 8.30758,406.513 52.3076,353.68 131.5,330C 141.982,326.671 152.649,324.171 163.5,322.5 Z"/></g>
<g><path style="opacity:1" fill="#f3f2f2" d="M 459.5,420.5 C 446.5,420.5 433.5,420.5 420.5,420.5C 420.5,433.5 420.5,446.5 420.5,459.5C 418.506,471.983 411.173,477.483 398.5,476C 391.333,474.167 386.833,469.667 385,462.5C 384.5,448.504 384.333,434.504 384.5,420.5C 370.163,420.667 355.829,420.5 341.5,420C 329.27,413.691 326.103,404.191 332,391.5C 334.205,388.96 336.705,386.793 339.5,385C 354.428,383.549 369.428,383.049 384.5,383.5C 384.333,369.496 384.5,355.496 385,341.5C 390.762,326.957 400.595,323.457 414.5,331C 416.727,333.564 418.561,336.397 420,339.5C 420.5,354.163 420.667,368.83 420.5,383.5C 435.17,383.333 449.837,383.5 464.5,384C 473.759,388.684 477.592,396.184 476,406.5C 473.137,414.339 467.637,419.005 459.5,420.5 Z"/></g>
<g><path style="opacity:1" fill="#67c6b9" d="M 278.5,442.5 C 268.781,465.606 258.781,488.606 248.5,511.5C 248.167,511.5 247.833,511.5 247.5,511.5C 237.639,489.249 227.972,466.916 218.5,444.5C 223.385,420.003 228.385,395.503 233.5,371C 233.333,370.167 233.167,369.333 233,368.5C 227.313,362.314 221.813,355.981 216.5,349.5C 226.816,338.016 237.316,326.683 248,315.5C 259.38,326.379 270.214,337.712 280.5,349.5C 275.187,355.981 269.687,362.314 264,368.5C 263.833,369.333 263.667,370.167 263.5,371C 268.772,394.809 273.772,418.643 278.5,442.5 Z"/></g>
<g><path style="opacity:1" fill="#425a6b" d="M 292.5,413.5 C 301.99,468.323 333.99,500.989 388.5,511.5C 341.833,511.5 295.167,511.5 248.5,511.5C 258.781,488.606 268.781,465.606 278.5,442.5C 282.894,432.711 287.561,423.045 292.5,413.5 Z"/></g>
<g><path style="opacity:1" fill="#f39c8e" d="M 459.5,420.5 C 447.011,421.495 434.344,421.829 421.5,421.5C 421.829,434.344 421.495,447.011 420.5,459.5C 420.5,446.5 420.5,433.5 420.5,420.5C 433.5,420.5 446.5,420.5 459.5,420.5 Z"/></g>
<g><path style="opacity:0.983" fill="#425a6a" d="M 493.5,463.5 C 496.482,479.355 498.148,495.355 498.5,511.5C 470.167,511.5 441.833,511.5 413.5,511.5C 446.636,506.266 473.303,490.266 493.5,463.5 Z"/></g>
</svg>
