<?xml version="1.0" encoding="UTF-8"?>
<!DOCTYPE svg PUBLIC "-//W3C//DTD SVG 1.1//EN" "http://www.w3.org/Graphics/SVG/1.1/DTD/svg11.dtd">
<svg xmlns="http://www.w3.org/2000/svg" version="1.1" width="512px" height="512px" style="shape-rendering:geometricPrecision; text-rendering:geometricPrecision; image-rendering:optimizeQuality; fill-rule:evenodd; clip-rule:evenodd" xmlns:xlink="http://www.w3.org/1999/xlink">
<g><path style="opacity:0.994" fill="#010102" d="M 94.5,-0.5 C 98.5,-0.5 102.5,-0.5 106.5,-0.5C 111.564,2.0678 115.064,6.0678 117,11.5C 117.5,21.4944 117.666,31.4944 117.5,41.5C 181.167,41.5 244.833,41.5 308.5,41.5C 308.334,31.1613 308.5,20.828 309,10.5C 310.599,5.40601 313.766,1.73934 318.5,-0.5C 322.5,-0.5 326.5,-0.5 330.5,-0.5C 335.564,2.0678 339.064,6.0678 341,11.5C 341.5,21.4944 341.666,31.4944 341.5,41.5C 352.172,41.3335 362.839,41.5002 373.5,42C 402.311,46.4771 419.811,62.9771 426,91.5C 426.667,124.833 426.667,158.167 426,191.5C 423.154,198.523 417.987,202.19 410.5,202.5C 404.153,201.911 399.32,198.911 396,193.5C 394.567,182.244 394.067,170.91 394.5,159.5C 273.5,159.5 152.5,159.5 31.5,159.5C 31.3333,223.834 31.5,288.168 32,352.5C 35.0746,361.909 41.2413,368.409 50.5,372C 94.8333,372.333 139.167,372.667 183.5,373C 192.52,375.504 197.186,381.338 197.5,390.5C 196.267,398.144 191.934,402.978 184.5,405C 140.167,405.667 95.8333,405.667 51.5,405C 24.082,400.077 6.74871,384.244 -0.5,357.5C -0.5,268.167 -0.5,178.833 -0.5,89.5C 6.74012,62.7651 24.0735,46.9318 51.5,42C 62.495,41.5002 73.495,41.3335 84.5,41.5C 84.3335,31.1613 84.5002,20.828 85,10.5C 86.5992,5.40601 89.7658,1.73934 94.5,-0.5 Z"/></g>
<g><path style="opacity:1" fill="#2095f2" d="M 340.5,102.5 C 341.494,93.3483 341.827,84.015 341.5,74.5C 351.167,74.5 360.833,74.5 370.5,74.5C 381.679,75.8461 389.179,81.8461 393,92.5C 394.436,104.09 394.936,115.757 394.5,127.5C 273.5,127.5 152.5,127.5 31.5,127.5C 24.1898,84.8102 41.8565,67.1435 84.5,74.5C 84.0712,85.2449 84.5712,95.9115 86,106.5C 90.8224,116.154 98.3224,118.987 108.5,115C 111.333,113.5 113.5,111.333 115,108.5C 116.433,97.2436 116.933,85.9102 116.5,74.5C 180.5,74.5 244.5,74.5 308.5,74.5C 308.334,84.1724 308.5,93.8391 309,103.5C 312.912,115.205 320.745,119.039 332.5,115C 337.061,112.044 339.728,107.877 340.5,102.5 Z"/></g>
<g><path style="opacity:1" fill="#125184" d="M 370.5,74.5 C 360.833,74.5 351.167,74.5 341.5,74.5C 341.827,84.015 341.494,93.3483 340.5,102.5C 340.5,92.8333 340.5,83.1667 340.5,73.5C 350.681,73.1726 360.681,73.506 370.5,74.5 Z"/></g>
<g><path style="opacity:0.999" fill="#ebeef0" d="M 410.5,202.5 C 410.187,214.913 410.521,227.247 411.5,239.5C 350.52,225.104 300.354,242.104 261,290.5C 239.684,320.423 230.851,353.757 234.5,390.5C 222.167,390.5 209.833,390.5 197.5,390.5C 197.186,381.338 192.52,375.504 183.5,373C 139.167,372.667 94.8333,372.333 50.5,372C 41.2413,368.409 35.0746,361.909 32,352.5C 31.5,288.168 31.3333,223.834 31.5,159.5C 152.5,159.5 273.5,159.5 394.5,159.5C 394.067,170.91 394.567,182.244 396,193.5C 399.32,198.911 404.153,201.911 410.5,202.5 Z"/></g>
<g><path style="opacity:1" fill="#020301" d="M 411.5,239.5 C 460.462,254.395 492.295,286.395 507,335.5C 508.731,342.59 510.231,349.59 511.5,356.5C 511.5,367.5 511.5,378.5 511.5,389.5C 502.983,443.857 473.316,481.691 422.5,503C 411.644,506.93 400.644,509.764 389.5,511.5C 378.5,511.5 367.5,511.5 356.5,511.5C 288.125,499.278 247.459,458.945 234.5,390.5C 230.851,353.757 239.684,320.423 261,290.5C 300.354,242.104 350.52,225.104 411.5,239.5 Z"/></g>
<g><path style="opacity:1" fill="#4bae4f" d="M 357.5,266.5 C 404.709,262.855 440.876,280.855 466,320.5C 486.528,361.669 483.528,401.003 457,438.5C 428.394,472.149 392.228,484.983 348.5,477C 305.274,464.441 278.441,436.274 268,392.5C 261.537,345.503 277.704,308.67 316.5,282C 329.328,274.339 342.995,269.172 357.5,266.5 Z"/></g>
<g><path style="opacity:1" fill="#010201" d="M 433.5,388.5 C 418.5,388.5 403.5,388.5 388.5,388.5C 388.5,403.5 388.5,418.5 388.5,433.5C 386.015,444.146 379.349,448.646 368.5,447C 361.979,444.794 358.146,440.294 357,433.5C 356.5,418.504 356.333,403.504 356.5,388.5C 340.497,388.667 324.497,388.5 308.5,388C 298.374,382.283 295.874,374.116 301,363.5C 303.559,360.469 306.726,358.302 310.5,357C 325.83,356.5 341.163,356.333 356.5,356.5C 356.333,341.163 356.5,325.83 357,310.5C 361.451,299.526 369.284,296.026 380.5,300C 384.039,301.907 386.539,304.74 388,308.5C 388.5,324.497 388.667,340.497 388.5,356.5C 403.504,356.333 418.504,356.5 433.5,357C 446.08,360.994 449.913,369.161 445,381.5C 442.161,385.502 438.327,387.835 433.5,388.5 Z"/></g>
<g><path style="opacity:1" fill="#337535" d="M 433.5,388.5 C 419.01,389.496 404.343,389.829 389.5,389.5C 389.829,404.343 389.496,419.01 388.5,433.5C 388.5,418.5 388.5,403.5 388.5,388.5C 403.5,388.5 418.5,388.5 433.5,388.5 Z"/></g>
</svg>
