<?xml version="1.0" encoding="UTF-8"?>
<!DOCTYPE svg PUBLIC "-//W3C//DTD SVG 1.1//EN" "http://www.w3.org/Graphics/SVG/1.1/DTD/svg11.dtd">
<svg xmlns="http://www.w3.org/2000/svg" version="1.1" width="512px" height="512px" style="shape-rendering:geometricPrecision; text-rendering:geometricPrecision; image-rendering:optimizeQuality; fill-rule:evenodd; clip-rule:evenodd" xmlns:xlink="http://www.w3.org/1999/xlink">
<g><path style="opacity:0.971" fill="#000000" d="M 124.5,-0.5 C 211.833,-0.5 299.167,-0.5 386.5,-0.5C 411.375,5.54436 426.208,21.211 431,46.5C 431.667,192.833 431.667,339.167 431,485.5C 429.52,498.121 423.02,506.788 411.5,511.5C 406.5,511.5 401.5,511.5 396.5,511.5C 391.768,509.298 387.101,506.798 382.5,504C 340.32,461.653 297.986,419.486 255.5,377.5C 213.014,419.486 170.68,461.653 128.5,504C 123.881,506.834 119.214,509.334 114.5,511.5C 109.5,511.5 104.5,511.5 99.5,511.5C 87.9797,506.788 81.4797,498.121 80,485.5C 79.3333,339.167 79.3333,192.833 80,46.5C 84.7916,21.211 99.6249,5.54436 124.5,-0.5 Z M 134.5,29.5 C 215.167,29.3333 295.834,29.5 376.5,30C 388.568,31.4012 396.401,37.9012 400,49.5C 400.667,192.167 400.667,334.833 400,477.5C 355.167,432.667 310.333,387.833 265.5,343C 258.833,338.333 252.167,338.333 245.5,343C 200.667,387.833 155.833,432.667 111,477.5C 110.333,334.833 110.333,192.167 111,49.5C 114.766,37.8908 122.599,31.2241 134.5,29.5 Z"/></g>
</svg>
