<?xml version="1.0" encoding="UTF-8"?>
<!DOCTYPE svg PUBLIC "-//W3C//DTD SVG 1.1//EN" "http://www.w3.org/Graphics/SVG/1.1/DTD/svg11.dtd">
<svg xmlns="http://www.w3.org/2000/svg" version="1.1" width="512px" height="512px" style="shape-rendering:geometricPrecision; text-rendering:geometricPrecision; image-rendering:optimizeQuality; fill-rule:evenodd; clip-rule:evenodd" xmlns:xlink="http://www.w3.org/1999/xlink">
<g><path style="opacity:0.994" fill="#1e81ce" d="M 119.5,15.5 C 139.464,12.7174 152.631,20.7174 159,39.5C 159.5,47.4931 159.666,55.4931 159.5,63.5C 180.833,63.5 202.167,63.5 223.5,63.5C 223.334,55.4931 223.5,47.4931 224,39.5C 230.355,20.5615 243.522,12.7282 263.5,16C 276,19.1667 283.833,27 287,39.5C 287.5,47.4931 287.666,55.4931 287.5,63.5C 308.833,63.5 330.167,63.5 351.5,63.5C 351.334,55.4931 351.5,47.4931 352,39.5C 358.355,20.5615 371.522,12.7282 391.5,16C 404,19.1667 411.833,27 415,39.5C 415.5,47.4931 415.666,55.4931 415.5,63.5C 431.837,63.3334 448.17,63.5001 464.5,64C 479.061,67.5604 488.894,76.3937 494,90.5C 495.654,165.456 495.988,240.456 495,315.5C 494.5,317.333 493.333,318.5 491.5,319C 487.756,319.929 484.256,319.429 481,317.5C 479.51,270.251 479.01,222.918 479.5,175.5C 330.167,175.5 180.833,175.5 31.5,175.5C 31.3333,258.167 31.5,340.834 32,423.5C 33.8333,437.333 41.6667,445.167 55.5,447C 131.5,447.333 207.5,447.667 283.5,448C 285.333,448.5 286.5,449.667 287,451.5C 287.817,454.964 287.483,458.298 286,461.5C 285.25,462.126 284.416,462.626 283.5,463C 204.5,463.667 125.5,463.667 46.5,463C 30.3333,458.833 20.1667,448.667 16,432.5C 15.3333,319.833 15.3333,207.167 16,94.5C 20.1667,78.3333 30.3333,68.1667 46.5,64C 62.8299,63.5001 79.1633,63.3334 95.5,63.5C 95.3336,55.4931 95.5003,47.4931 96,39.5C 99.349,26.9853 107.182,18.9853 119.5,15.5 Z M 122.5,32.5 C 134.308,30.8174 141.141,35.8174 143,47.5C 143.93,65.2112 143.596,82.8779 142,100.5C 136.705,110.723 128.872,113.223 118.5,108C 114.618,104.736 112.451,100.57 112,95.5C 111.333,79.5 111.333,63.5 112,47.5C 112.626,40.3906 116.126,35.3906 122.5,32.5 Z M 250.5,32.5 C 262.308,30.8174 269.141,35.8174 271,47.5C 271.93,65.2112 271.596,82.8779 270,100.5C 264.705,110.723 256.872,113.223 246.5,108C 242.618,104.736 240.451,100.57 240,95.5C 239.333,79.5 239.333,63.5 240,47.5C 240.626,40.3906 244.126,35.3906 250.5,32.5 Z M 378.5,32.5 C 390.308,30.8174 397.141,35.8174 399,47.5C 399.93,65.2112 399.596,82.8779 398,100.5C 392.705,110.723 384.872,113.223 374.5,108C 370.618,104.736 368.451,100.57 368,95.5C 367.333,79.5 367.333,63.5 368,47.5C 368.626,40.3906 372.126,35.3906 378.5,32.5 Z"/></g>
<g><path style="opacity:1" fill="#9ac8fe" d="M 49.5,79.5 C 64.8333,79.5 80.1667,79.5 95.5,79.5C 92.3971,94.9993 96.0637,108.499 106.5,120C 119.031,129.156 132.031,129.823 145.5,122C 153.178,116.489 157.678,108.989 159,99.5C 159.5,92.8417 159.666,86.175 159.5,79.5C 180.833,79.5 202.167,79.5 223.5,79.5C 220.397,94.9993 224.064,108.499 234.5,120C 247.031,129.156 260.031,129.823 273.5,122C 281.178,116.489 285.678,108.989 287,99.5C 287.5,92.8417 287.666,86.175 287.5,79.5C 308.833,79.5 330.167,79.5 351.5,79.5C 348.397,94.9993 352.064,108.499 362.5,120C 375.031,129.156 388.031,129.823 401.5,122C 409.178,116.489 413.678,108.989 415,99.5C 415.5,92.8417 415.666,86.175 415.5,79.5C 430.504,79.3334 445.504,79.5001 460.5,80C 469.598,82.7659 475.765,88.5992 479,97.5C 479.5,118.164 479.667,138.831 479.5,159.5C 330.167,159.5 180.833,159.5 31.5,159.5C 31.3334,138.831 31.5,118.164 32,97.5C 35.3531,88.9815 41.1865,82.9815 49.5,79.5 Z"/></g>
<g><path style="opacity:0.991" fill="#1e81cd" d="M 89.5,215.5 C 104.17,215.333 118.837,215.5 133.5,216C 138,217.833 141.167,221 143,225.5C 143.667,237.5 143.667,249.5 143,261.5C 141.167,266 138,269.167 133.5,271C 118.833,271.667 104.167,271.667 89.5,271C 85,269.167 81.8333,266 80,261.5C 79.3333,249.5 79.3333,237.5 80,225.5C 82.0223,220.98 85.189,217.647 89.5,215.5 Z"/></g>
<g><path style="opacity:0.991" fill="#1e81cd" d="M 185.5,215.5 C 200.17,215.333 214.837,215.5 229.5,216C 234,217.833 237.167,221 239,225.5C 239.667,237.5 239.667,249.5 239,261.5C 237.167,266 234,269.167 229.5,271C 214.833,271.667 200.167,271.667 185.5,271C 181,269.167 177.833,266 176,261.5C 175.333,249.5 175.333,237.5 176,225.5C 178.022,220.98 181.189,217.647 185.5,215.5 Z"/></g>
<g><path style="opacity:0.991" fill="#1e81cd" d="M 281.5,215.5 C 296.17,215.333 310.837,215.5 325.5,216C 330,217.833 333.167,221 335,225.5C 335.667,237.5 335.667,249.5 335,261.5C 333.167,266 330,269.167 325.5,271C 310.833,271.667 296.167,271.667 281.5,271C 277,269.167 273.833,266 272,261.5C 271.333,249.5 271.333,237.5 272,225.5C 274.022,220.98 277.189,217.647 281.5,215.5 Z"/></g>
<g><path style="opacity:0.991" fill="#1e81cd" d="M 377.5,215.5 C 392.17,215.333 406.837,215.5 421.5,216C 426,217.833 429.167,221 431,225.5C 431.667,237.5 431.667,249.5 431,261.5C 429.167,266 426,269.167 421.5,271C 406.833,271.667 392.167,271.667 377.5,271C 373,269.167 369.833,266 368,261.5C 367.333,249.5 367.333,237.5 368,225.5C 370.022,220.98 373.189,217.647 377.5,215.5 Z"/></g>
<g><path style="opacity:1" fill="#9bc9ff" d="M 95.5,231.5 C 106.167,231.5 116.833,231.5 127.5,231.5C 127.5,239.5 127.5,247.5 127.5,255.5C 116.833,255.5 106.167,255.5 95.5,255.5C 95.5,247.5 95.5,239.5 95.5,231.5 Z"/></g>
<g><path style="opacity:1" fill="#9bc9ff" d="M 191.5,231.5 C 202.167,231.5 212.833,231.5 223.5,231.5C 223.5,239.5 223.5,247.5 223.5,255.5C 212.833,255.5 202.167,255.5 191.5,255.5C 191.5,247.5 191.5,239.5 191.5,231.5 Z"/></g>
<g><path style="opacity:1" fill="#9bc9ff" d="M 287.5,231.5 C 298.167,231.5 308.833,231.5 319.5,231.5C 319.5,239.5 319.5,247.5 319.5,255.5C 308.833,255.5 298.167,255.5 287.5,255.5C 287.5,247.5 287.5,239.5 287.5,231.5 Z"/></g>
<g><path style="opacity:1" fill="#9bc9ff" d="M 383.5,231.5 C 394.167,231.5 404.833,231.5 415.5,231.5C 415.5,239.5 415.5,247.5 415.5,255.5C 404.833,255.5 394.167,255.5 383.5,255.5C 383.5,247.5 383.5,239.5 383.5,231.5 Z"/></g>
<g><path style="opacity:0.991" fill="#1e81cd" d="M 89.5,287.5 C 104.17,287.333 118.837,287.5 133.5,288C 138,289.833 141.167,293 143,297.5C 143.667,309.5 143.667,321.5 143,333.5C 141.167,338 138,341.167 133.5,343C 118.833,343.667 104.167,343.667 89.5,343C 85,341.167 81.8333,338 80,333.5C 79.3333,321.5 79.3333,309.5 80,297.5C 82.0223,292.98 85.189,289.647 89.5,287.5 Z"/></g>
<g><path style="opacity:0.991" fill="#1e81cd" d="M 185.5,287.5 C 200.17,287.333 214.837,287.5 229.5,288C 234,289.833 237.167,293 239,297.5C 239.667,309.5 239.667,321.5 239,333.5C 237.167,338 234,341.167 229.5,343C 214.833,343.667 200.167,343.667 185.5,343C 181,341.167 177.833,338 176,333.5C 175.333,321.5 175.333,309.5 176,297.5C 178.022,292.98 181.189,289.647 185.5,287.5 Z"/></g>
<g><path style="opacity:0.988" fill="#1e81ce" d="M 327.5,299.5 C 325.887,301.27 323.887,302.436 321.5,303C 310.172,303.5 298.838,303.667 287.5,303.5C 287.169,311.528 287.502,319.528 288.5,327.5C 292.98,328.312 295.313,330.979 295.5,335.5C 295.649,341.604 292.649,344.271 286.5,343.5C 279.37,343.517 274.537,340.184 272,333.5C 271.333,321.5 271.333,309.5 272,297.5C 273.833,293 277,289.833 281.5,288C 295.5,287.333 309.5,287.333 323.5,288C 325.333,288.5 326.5,289.667 327,291.5C 327.497,294.146 327.664,296.813 327.5,299.5 Z"/></g>
<g><path style="opacity:0.983" fill="#1f81ce" d="M 302.5,335.5 C 310.444,326.22 318.777,317.22 327.5,308.5C 355.652,288.25 386.652,282.417 420.5,291C 459.552,304.052 484.052,330.552 494,370.5C 501.282,419.422 484.116,456.922 442.5,483C 419.793,494.895 395.793,498.562 370.5,494C 336.057,486.196 311.224,466.362 296,434.5C 282.846,400.43 285.013,367.43 302.5,335.5 Z"/></g>
<g><path style="opacity:0.998" fill="#9ac8fe" d="M 327.5,299.5 C 327.5,302.5 327.5,305.5 327.5,308.5C 318.777,317.22 310.444,326.22 302.5,335.5C 300.167,335.5 297.833,335.5 295.5,335.5C 295.313,330.979 292.98,328.312 288.5,327.5C 287.502,319.528 287.169,311.528 287.5,303.5C 298.838,303.667 310.172,303.5 321.5,303C 323.887,302.436 325.887,301.27 327.5,299.5 Z"/></g>
<g><path style="opacity:1" fill="#9bc9ff" d="M 95.5,303.5 C 106.167,303.5 116.833,303.5 127.5,303.5C 127.5,311.5 127.5,319.5 127.5,327.5C 116.833,327.5 106.167,327.5 95.5,327.5C 95.5,319.5 95.5,311.5 95.5,303.5 Z"/></g>
<g><path style="opacity:1" fill="#9bc9ff" d="M 191.5,303.5 C 202.167,303.5 212.833,303.5 223.5,303.5C 223.5,311.5 223.5,319.5 223.5,327.5C 212.833,327.5 202.167,327.5 191.5,327.5C 191.5,319.5 191.5,311.5 191.5,303.5 Z"/></g>
<g><path style="opacity:1" fill="#9ac8fe" d="M 379.5,303.5 C 424.109,301.205 455.609,320.205 474,360.5C 485.895,398.132 477.728,430.632 449.5,458C 422.736,479.016 393.07,484.35 360.5,474C 323.87,458.101 304.87,430.101 303.5,390C 307.755,342.582 333.088,313.749 379.5,303.5 Z"/></g>
<g><path style="opacity:1" fill="#2182cf" d="M 440.5,355.5 C 449.42,355.893 452.586,360.227 450,368.5C 426.472,392.362 402.639,415.862 378.5,439C 375.697,439.755 373.03,439.422 370.5,438C 357.97,425.804 345.804,413.304 334,400.5C 333.333,398.5 333.333,396.5 334,394.5C 335.5,393 337,391.5 338.5,390C 340.5,389.333 342.5,389.333 344.5,390C 354.985,399.651 365.318,409.484 375.5,419.5C 397.214,398.118 418.881,376.785 440.5,355.5 Z"/></g>
<g><path style="opacity:0.991" fill="#1e81cd" d="M 89.5,359.5 C 104.17,359.333 118.837,359.5 133.5,360C 138,361.833 141.167,365 143,369.5C 143.667,381.5 143.667,393.5 143,405.5C 141.167,410 138,413.167 133.5,415C 118.833,415.667 104.167,415.667 89.5,415C 85,413.167 81.8333,410 80,405.5C 79.3333,393.5 79.3333,381.5 80,369.5C 82.0223,364.98 85.189,361.647 89.5,359.5 Z"/></g>
<g><path style="opacity:0.991" fill="#1e81cd" d="M 185.5,359.5 C 200.17,359.333 214.837,359.5 229.5,360C 234,361.833 237.167,365 239,369.5C 239.667,381.5 239.667,393.5 239,405.5C 237.167,410 234,413.167 229.5,415C 214.833,415.667 200.167,415.667 185.5,415C 181,413.167 177.833,410 176,405.5C 175.333,393.5 175.333,381.5 176,369.5C 178.022,364.98 181.189,361.647 185.5,359.5 Z"/></g>
<g><path style="opacity:1" fill="#9bc9ff" d="M 95.5,375.5 C 106.167,375.5 116.833,375.5 127.5,375.5C 127.5,383.5 127.5,391.5 127.5,399.5C 116.833,399.5 106.167,399.5 95.5,399.5C 95.5,391.5 95.5,383.5 95.5,375.5 Z"/></g>
<g><path style="opacity:1" fill="#9bc9ff" d="M 191.5,375.5 C 202.167,375.5 212.833,375.5 223.5,375.5C 223.5,383.5 223.5,391.5 223.5,399.5C 212.833,399.5 202.167,399.5 191.5,399.5C 191.5,391.5 191.5,383.5 191.5,375.5 Z"/></g>
</svg>
