<?xml version="1.0" encoding="UTF-8"?>
<!DOCTYPE svg PUBLIC "-//W3C//DTD SVG 1.1//EN" "http://www.w3.org/Graphics/SVG/1.1/DTD/svg11.dtd">
<svg xmlns="http://www.w3.org/2000/svg" version="1.1" width="512px" height="512px" style="shape-rendering:geometricPrecision; text-rendering:geometricPrecision; image-rendering:optimizeQuality; fill-rule:evenodd; clip-rule:evenodd" xmlns:xlink="http://www.w3.org/1999/xlink">
<g><path style="opacity:0.998" fill="#2196f3" d="M 232.5,-0.5 C 247.833,-0.5 263.167,-0.5 278.5,-0.5C 368.144,10.3879 435.644,54.7213 481,132.5C 497.695,163.971 507.861,197.304 511.5,232.5C 511.5,247.833 511.5,263.167 511.5,278.5C 500.612,368.144 456.279,435.644 378.5,481C 347.029,497.695 313.696,507.861 278.5,511.5C 263.167,511.5 247.833,511.5 232.5,511.5C 142.856,500.612 75.3562,456.279 30,378.5C 13.3053,347.029 3.1386,313.696 -0.5,278.5C -0.5,263.167 -0.5,247.833 -0.5,232.5C 10.3875,142.857 54.7208,75.3573 132.5,30C 163.971,13.3053 197.304,3.1386 232.5,-0.5 Z"/></g>
<g><path style="opacity:1" fill="#fefefe" d="M 204.5,109.5 C 238.502,109.333 272.502,109.5 306.5,110C 312.191,124.071 317.691,138.238 323,152.5C 323.833,153.333 324.667,154.167 325.5,155C 352.833,155.333 380.167,155.667 407.5,156C 412,157.833 415.167,161 417,165.5C 417.667,233.833 417.667,302.167 417,370.5C 415.526,375.974 412.026,379.474 406.5,381C 305.833,381.667 205.167,381.667 104.5,381C 99.4018,379.567 95.9018,376.4 94,371.5C 93.3333,302.833 93.3333,234.167 94,165.5C 95.8333,161 99,157.833 103.5,156C 130.833,155.667 158.167,155.333 185.5,155C 186.333,154.167 187.167,153.333 188,152.5C 193.41,138.099 198.91,123.766 204.5,109.5 Z"/></g>
<g><path style="opacity:1" fill="#2597f3" d="M 244.5,169.5 C 296.448,168.209 329.282,192.543 343,242.5C 347.374,278.404 335.541,307.571 307.5,330C 280.551,347.809 251.885,351.143 221.5,340C 191.555,326.602 173.722,303.769 168,271.5C 164.081,225.819 182.914,193.652 224.5,175C 231.208,172.826 237.875,170.993 244.5,169.5 Z"/></g>
<g><path style="opacity:1" fill="#fefefe" d="M 243.5,192.5 C 284.52,189.716 310.354,208.049 321,247.5C 323.811,280.393 310.645,304.226 281.5,319C 248.283,330.592 221.117,322.425 200,294.5C 181.342,259.457 187.176,229.291 217.5,204C 225.663,198.746 234.33,194.912 243.5,192.5 Z"/></g>
</svg>
