<?xml version="1.0" encoding="UTF-8"?>
<!DOCTYPE svg PUBLIC "-//W3C//DTD SVG 1.1//EN" "http://www.w3.org/Graphics/SVG/1.1/DTD/svg11.dtd">
<svg xmlns="http://www.w3.org/2000/svg" version="1.1" width="512px" height="512px" style="shape-rendering:geometricPrecision; text-rendering:geometricPrecision; image-rendering:optimizeQuality; fill-rule:evenodd; clip-rule:evenodd" xmlns:xlink="http://www.w3.org/1999/xlink">
<g><path style="opacity:0.958" fill="#000000" d="M 232.5,-0.5 C 247.833,-0.5 263.167,-0.5 278.5,-0.5C 379.371,12.3469 450.871,65.0136 493,157.5C 502.497,181.819 508.663,206.819 511.5,232.5C 511.5,247.833 511.5,263.167 511.5,278.5C 500.61,367.147 456.943,434.313 380.5,480C 348.466,497.292 314.466,507.792 278.5,511.5C 268.833,511.5 259.167,511.5 249.5,511.5C 240.546,506.158 238.046,498.492 242,488.5C 243.167,486 245,484.167 247.5,483C 316.891,481.875 375.391,456.375 423,406.5C 472.168,349.175 489.835,283.175 476,208.5C 454.605,123.105 402.105,66.6046 318.5,39C 229.002,16.7457 152.169,38.579 88,104.5C 30.157,173.535 15.8237,250.869 45,336.5C 52.5283,355.989 62.5283,373.989 75,390.5C 80.6553,360.902 85.9887,331.236 91,301.5C 91.8061,298.554 93.1395,295.888 95,293.5C 160.861,227.306 227.027,161.472 293.5,96C 299.314,93.8313 304.981,94.1646 310.5,97C 345,131.5 379.5,166 414,200.5C 417.57,207.365 417.237,214.032 413,220.5C 347.833,285.667 282.667,350.833 217.5,416C 215.833,417 214.167,418 212.5,419C 168.984,427.505 125.318,434.838 81.5,441C 79.7536,440.529 78.087,439.862 76.5,439C 31.6547,394.806 5.98805,341.306 -0.5,278.5C -0.5,263.167 -0.5,247.833 -0.5,232.5C 11.9006,134.848 62.234,64.3481 150.5,21C 176.892,9.73692 204.225,2.57026 232.5,-0.5 Z M 300.5,132.5 C 310.079,140.575 319.246,149.242 328,158.5C 328.667,159.167 328.667,159.833 328,160.5C 270.667,217.833 213.333,275.167 156,332.5C 146.833,323.333 137.667,314.167 128.5,305C 186.035,247.632 243.368,190.132 300.5,132.5 Z M 350.5,182.5 C 360.079,190.575 369.246,199.242 378,208.5C 378.667,209.167 378.667,209.833 378,210.5C 320.667,267.833 263.333,325.167 206,382.5C 196.833,373.333 187.667,364.167 178.5,355C 236.035,297.632 293.368,240.132 350.5,182.5 Z M 116.5,337.5 C 135.632,356.132 154.632,374.965 173.5,394C 150.635,398.811 127.635,402.978 104.5,406.5C 108.244,383.446 112.244,360.446 116.5,337.5 Z"/></g>
</svg>
