<?xml version="1.0" encoding="UTF-8"?>
<!DOCTYPE svg PUBLIC "-//W3C//DTD SVG 1.1//EN" "http://www.w3.org/Graphics/SVG/1.1/DTD/svg11.dtd">
<svg xmlns="http://www.w3.org/2000/svg" version="1.1" width="512px" height="512px" style="shape-rendering:geometricPrecision; text-rendering:geometricPrecision; image-rendering:optimizeQuality; fill-rule:evenodd; clip-rule:evenodd" xmlns:xlink="http://www.w3.org/1999/xlink">
<g><path style="opacity:0.999" fill="#4caf50" d="M 152.5,41.5 C 202.834,41.3333 253.168,41.5 303.5,42C 305.878,42.5112 308.212,43.1779 310.5,44C 344.639,77.1387 378.472,110.639 412,144.5C 413,146.5 414,148.5 415,150.5C 415.667,239.167 415.667,327.833 415,416.5C 407.735,446.431 388.902,463.931 358.5,469C 289.833,469.667 221.167,469.667 152.5,469C 122.098,463.931 103.265,446.431 96,416.5C 95.3333,309.167 95.3333,201.833 96,94.5C 103.439,64.5573 122.273,46.8907 152.5,41.5 Z"/></g>
<g><path style="opacity:1" fill="#b8f5c9" d="M 298.5,44.5 C 303.121,43.9927 307.454,44.826 311.5,47C 344.333,79.8333 377.167,112.667 410,145.5C 414.375,154.044 412.208,160.211 403.5,164C 374.5,164.667 345.5,164.667 316.5,164C 303.222,159.977 295.055,151.143 292,137.5C 291.333,109.167 291.333,80.8333 292,52.5C 293.305,49.0386 295.471,46.372 298.5,44.5 Z"/></g>
<g><path style="opacity:1" fill="#e5f3e6" d="M 246.5,322.5 C 256.619,321.428 266.286,322.928 275.5,327C 278.6,331.733 277.934,335.733 273.5,339C 267.428,338.927 261.428,338.093 255.5,336.5C 251.916,336.21 248.75,337.21 246,339.5C 245.202,341.259 245.369,342.926 246.5,344.5C 253.3,346.783 260.3,348.283 267.5,349C 277.497,352.826 281.331,359.993 279,370.5C 275.114,378.704 268.614,383.538 259.5,385C 251.167,385.667 242.833,385.667 234.5,385C 227.063,383.914 223.897,379.747 225,372.5C 226.167,371.333 227.333,370.167 228.5,369C 235.063,370.007 241.73,370.84 248.5,371.5C 252.2,371.657 255.7,370.991 259,369.5C 259.896,366.975 259.396,364.808 257.5,363C 250.896,361.484 244.229,360.15 237.5,359C 227.92,354.973 224.42,347.807 227,337.5C 228.35,332.815 231.183,329.315 235.5,327C 239.157,325.178 242.824,323.678 246.5,322.5 Z"/></g>
<g><path style="opacity:1" fill="#e5f4e6" d="M 185.5,323.5 C 192.841,323.334 200.174,323.5 207.5,324C 216.554,326.765 218.554,332.099 213.5,340C 211.722,340.704 209.888,341.204 208,341.5C 189.141,335.696 181.807,342.363 186,361.5C 188.128,366.902 192.128,369.569 198,369.5C 201.401,369.131 204.734,368.464 208,367.5C 213.212,367.559 216.045,370.226 216.5,375.5C 215.072,381.734 211.072,384.901 204.5,385C 172.468,388.304 158.968,374.137 164,342.5C 168.266,332.798 175.433,326.465 185.5,323.5 Z"/></g>
<g><path style="opacity:1" fill="#e6f4e7" d="M 290.5,323.5 C 296.386,322.343 301.219,324.01 305,328.5C 308.813,338.281 312.813,347.948 317,357.5C 320.667,348.5 324.333,339.5 328,330.5C 331.04,324.397 335.874,322.231 342.5,324C 347.648,327.334 348.814,331.834 346,337.5C 339.402,352.975 332.235,368.142 324.5,383C 316.943,387.246 310.443,386.08 305,379.5C 298.667,364.833 292.333,350.167 286,335.5C 284.474,330.239 285.974,326.239 290.5,323.5 Z"/></g>
</svg>
