<?xml version="1.0" encoding="UTF-8"?>
<!DOCTYPE svg PUBLIC "-//W3C//DTD SVG 1.1//EN" "http://www.w3.org/Graphics/SVG/1.1/DTD/svg11.dtd">
<svg xmlns="http://www.w3.org/2000/svg" version="1.1" width="512px" height="512px" style="shape-rendering:geometricPrecision; text-rendering:geometricPrecision; image-rendering:optimizeQuality; fill-rule:evenodd; clip-rule:evenodd" xmlns:xlink="http://www.w3.org/1999/xlink">
<g><path style="opacity:0.992" fill="#0dafd3" d="M 479.5,17.5 C 458.424,17.8213 437.424,17.488 416.5,16.5C 430.636,7.52427 445.969,5.02427 462.5,9C 468.912,10.6192 474.578,13.4525 479.5,17.5 Z"/></g>
<g><path style="opacity:0.975" fill="#10acd4" d="M 416.5,16.5 C 437.424,17.488 458.424,17.8213 479.5,17.5C 485.967,21.0443 491.133,26.0443 495,32.5C 496.122,34.4068 496.955,36.4068 497.5,38.5C 491.5,39.1667 485.5,39.8333 479.5,40.5C 467.081,25.3068 451.414,20.8068 432.5,27C 425.631,30.087 419.965,34.587 415.5,40.5C 409.267,39.7971 402.934,39.1305 396.5,38.5C 401.463,29.5409 408.129,22.2076 416.5,16.5 Z"/></g>
<g><path style="opacity:0.968" fill="#17a6d6" d="M 396.5,38.5 C 402.934,39.1305 409.267,39.7971 415.5,40.5C 410.381,47.6368 408.047,55.6368 408.5,64.5C 403.044,62.8573 397.377,61.8573 391.5,61.5C 391.431,53.4437 393.098,45.777 396.5,38.5 Z"/></g>
<g><path style="opacity:0.96" fill="#16a6d6" d="M 497.5,38.5 C 500.334,42.6642 502.001,47.3308 502.5,52.5C 496.741,52.2143 491.075,52.5476 485.5,53.5C 484.302,48.772 482.302,44.4387 479.5,40.5C 485.5,39.8333 491.5,39.1667 497.5,38.5 Z"/></g>
<g><path style="opacity:0.999" fill="#1da0d8" d="M 391.5,61.5 C 397.377,61.8573 403.044,62.8573 408.5,64.5C 408.552,68.1981 408.886,71.8648 409.5,75.5C 275.668,76.4996 141.668,76.8329 7.5,76.5C 7.5,72.1667 7.5,67.8333 7.5,63.5C 135.838,64.1649 263.838,63.4982 391.5,61.5 Z"/></g>
<g><path style="opacity:0.963" fill="#1ca1d8" d="M 502.5,52.5 C 503.755,60.692 503.755,69.0254 502.5,77.5C 496.591,76.5447 490.591,76.2114 484.5,76.5C 486.701,68.943 487.034,61.2763 485.5,53.5C 491.075,52.5476 496.741,52.2143 502.5,52.5 Z"/></g>
<g><path style="opacity:0.997" fill="#219dd9" d="M 409.5,75.5 C 412.964,83.3001 417.964,89.9668 424.5,95.5C 417.018,96.492 409.352,96.8254 401.5,96.5C 398.319,91.4722 395.653,86.1388 393.5,80.5C 270.168,79.5 146.835,79.1667 23.5,79.5C 23.5,85.1667 23.5,90.8333 23.5,96.5C 18.1667,96.5 12.8333,96.5 7.5,96.5C 7.5,89.8333 7.5,83.1667 7.5,76.5C 141.668,76.8329 275.668,76.4996 409.5,75.5 Z"/></g>
<g><path style="opacity:0.966" fill="#239cda" d="M 484.5,76.5 C 490.591,76.2114 496.591,76.5447 502.5,77.5C 500.483,84.9249 497.149,91.5915 492.5,97.5C 485.018,96.508 477.352,96.1746 469.5,96.5C 476.432,91.3118 481.432,84.6451 484.5,76.5 Z"/></g>
<g><path style="opacity:0.97" fill="#2896db" d="M 319.5,115.5 C 314.26,116.449 308.927,116.782 303.5,116.5C 303.768,118.099 303.434,119.432 302.5,120.5C 302.343,113.912 299.01,111.412 292.5,113C 291.058,113.377 290.058,114.21 289.5,115.5C 283.559,116.413 277.559,116.746 271.5,116.5C 275.056,99.7071 285.39,92.8738 302.5,96C 311.933,99.2632 317.599,105.763 319.5,115.5 Z"/></g>
<g><path style="opacity:1" fill="#2897db" d="M 7.5,96.5 C 12.8333,96.5 18.1667,96.5 23.5,96.5C 23.5,103.167 23.5,109.833 23.5,116.5C 18.1667,116.5 12.8333,116.5 7.5,116.5C 7.5,109.833 7.5,103.167 7.5,96.5 Z"/></g>
<g><path style="opacity:1" fill="#2797db" d="M 39.5,95.5 C 44.8333,95.5 50.1667,95.5 55.5,95.5C 55.5,100.833 55.5,106.167 55.5,111.5C 50.1667,111.5 44.8333,111.5 39.5,111.5C 39.5,106.167 39.5,100.833 39.5,95.5 Z"/></g>
<g><path style="opacity:1" fill="#2797db" d="M 71.5,95.5 C 108.833,95.5 146.167,95.5 183.5,95.5C 183.5,100.833 183.5,106.167 183.5,111.5C 146.167,111.5 108.833,111.5 71.5,111.5C 71.5,106.167 71.5,100.833 71.5,95.5 Z"/></g>
<g><path style="opacity:0.979" fill="#2897db" d="M 424.5,95.5 C 439.264,104.442 454.264,104.775 469.5,96.5C 477.352,96.1746 485.018,96.508 492.5,97.5C 485.109,107.37 475.442,114.037 463.5,117.5C 452.346,116.505 441.012,116.172 429.5,116.5C 424.141,114.988 419.141,112.654 414.5,109.5C 411.48,112.189 408.48,114.856 405.5,117.5C 398.345,116.345 391.012,116.178 383.5,117C 382.529,118.481 381.196,119.315 379.5,119.5C 386.833,111.833 394.167,104.167 401.5,96.5C 409.352,96.8254 417.018,96.492 424.5,95.5 Z"/></g>
<g><path style="opacity:0.975" fill="#2e91dd" d="M 289.5,115.5 C 287.399,125.131 291.066,128.298 300.5,125C 301.582,123.67 302.249,122.17 302.5,120.5C 303.434,119.432 303.768,118.099 303.5,116.5C 308.927,116.782 314.26,116.449 319.5,115.5C 319.708,119.879 319.375,124.213 318.5,128.5C 319.432,130.765 320.765,132.765 322.5,134.5C 304.5,135.833 286.5,135.833 268.5,134.5C 270.235,132.765 271.568,130.765 272.5,128.5C 271.638,124.547 271.305,120.547 271.5,116.5C 277.559,116.746 283.559,116.413 289.5,115.5 Z"/></g>
<g><path style="opacity:1" fill="#2e91dd" d="M 7.5,116.5 C 12.8333,116.5 18.1667,116.5 23.5,116.5C 23.5,123.167 23.5,129.833 23.5,136.5C 18.1667,136.5 12.8333,136.5 7.5,136.5C 7.5,129.833 7.5,123.167 7.5,116.5 Z"/></g>
<g><path style="opacity:0.982" fill="#2e91dd" d="M 405.5,117.5 C 399.833,123.833 393.833,129.833 387.5,135.5C 379.826,135.334 372.159,135.5 364.5,136C 363.211,137.802 361.544,138.969 359.5,139.5C 365.833,132.5 372.5,125.833 379.5,119.5C 381.196,119.315 382.529,118.481 383.5,117C 391.012,116.178 398.345,116.345 405.5,117.5 Z"/></g>
<g><path style="opacity:0.984" fill="#2e92dd" d="M 429.5,116.5 C 441.012,116.172 452.346,116.505 463.5,117.5C 461.196,118.163 458.863,118.83 456.5,119.5C 455.505,125.128 455.171,130.794 455.5,136.5C 450.167,136.5 444.833,136.5 439.5,136.5C 439.829,130.794 439.495,125.128 438.5,119.5C 435.268,118.867 432.268,117.867 429.5,116.5 Z"/></g>
<g><path style="opacity:1" fill="#3090de" d="M 183.5,135.5 C 146.167,135.5 108.833,135.5 71.5,135.5C 71.5,132.833 71.5,130.167 71.5,127.5C 108.833,127.5 146.167,127.5 183.5,127.5C 183.5,130.167 183.5,132.833 183.5,135.5 Z"/></g>
<g><path style="opacity:1" fill="#348cdf" d="M 7.5,136.5 C 12.8333,136.5 18.1667,136.5 23.5,136.5C 23.5,143.833 23.5,151.167 23.5,158.5C 18.1667,158.5 12.8333,158.5 7.5,158.5C 7.5,151.167 7.5,143.833 7.5,136.5 Z"/></g>
<g><path style="opacity:1" fill="#318fde" d="M 39.5,127.5 C 44.8333,127.5 50.1667,127.5 55.5,127.5C 55.5,132.833 55.5,138.167 55.5,143.5C 50.1667,143.5 44.8333,143.5 39.5,143.5C 39.5,138.167 39.5,132.833 39.5,127.5 Z"/></g>
<g><path style="opacity:1" fill="#328ede" d="M 71.5,135.5 C 108.833,135.5 146.167,135.5 183.5,135.5C 183.5,138.167 183.5,140.833 183.5,143.5C 146.167,143.5 108.833,143.5 71.5,143.5C 71.5,140.833 71.5,138.167 71.5,135.5 Z"/></g>
<g><path style="opacity:0.981" fill="#348cdf" d="M 268.5,134.5 C 286.5,135.833 304.5,135.833 322.5,134.5C 326.215,138.219 330.215,141.552 334.5,144.5C 340.5,143.167 346.5,143.167 352.5,144.5C 355.105,143.231 357.438,141.564 359.5,139.5C 361.544,138.969 363.211,137.802 364.5,136C 372.159,135.5 379.826,135.334 387.5,135.5C 380.833,142.833 373.833,149.833 366.5,156.5C 365.711,156.783 365.044,157.283 364.5,158C 357.333,158.167 350.167,158.333 343,158.5C 335.265,158.466 327.765,157.799 320.5,156.5C 315.702,152.203 311.035,147.703 306.5,143C 299.841,143.735 293.174,143.568 286.5,142.5C 279.876,147.788 273.543,153.455 267.5,159.5C 259.5,159.5 251.5,159.5 243.5,159.5C 251.5,150.833 259.833,142.5 268.5,134.5 Z"/></g>
<g><path style="opacity:1" fill="#348cdf" d="M 439.5,136.5 C 444.833,136.5 450.167,136.5 455.5,136.5C 455.5,143.833 455.5,151.167 455.5,158.5C 450.167,158.5 444.833,158.5 439.5,158.5C 439.5,151.167 439.5,143.833 439.5,136.5 Z"/></g>
<g><path style="opacity:1" fill="#3b86e1" d="M 7.5,158.5 C 12.8333,158.5 18.1667,158.5 23.5,158.5C 23.5,166.167 23.5,173.833 23.5,181.5C 18.1667,181.5 12.8333,181.5 7.5,181.5C 7.5,173.833 7.5,166.167 7.5,158.5 Z"/></g>
<g><path style="opacity:1" fill="#3a87e1" d="M 39.5,159.5 C 44.8333,159.5 50.1667,159.5 55.5,159.5C 55.5,164.833 55.5,170.167 55.5,175.5C 50.1667,175.5 44.8333,175.5 39.5,175.5C 39.5,170.167 39.5,164.833 39.5,159.5 Z"/></g>
<g><path style="opacity:1" fill="#3a87e1" d="M 71.5,159.5 C 108.833,159.5 146.167,159.5 183.5,159.5C 183.5,164.833 183.5,170.167 183.5,175.5C 146.167,175.5 108.833,175.5 71.5,175.5C 71.5,170.167 71.5,164.833 71.5,159.5 Z"/></g>
<g><path style="opacity:0.978" fill="#3c85e1" d="M 243.5,159.5 C 251.5,159.5 259.5,159.5 267.5,159.5C 260.869,166.632 254.036,173.632 247,180.5C 246.517,181.448 246.351,182.448 246.5,183.5C 231.742,181.541 216.742,180.875 201.5,181.5C 204.413,174.757 209.413,170.257 216.5,168C 222.538,167.529 228.538,167.529 234.5,168C 237.369,164.962 240.369,162.129 243.5,159.5 Z"/></g>
<g><path style="opacity:0.97" fill="#3b86e1" d="M 320.5,156.5 C 327.765,157.799 335.265,158.466 343,158.5C 350.167,158.333 357.333,158.167 364.5,158C 365.044,157.283 365.711,156.783 366.5,156.5C 368.385,164.788 367.718,172.788 364.5,180.5C 350.656,180.171 336.99,180.504 323.5,181.5C 321.837,179.507 320.67,177.174 320,174.5C 319.359,168.472 319.526,162.472 320.5,156.5 Z M 340.5,160.5 C 349.85,160.365 352.517,164.532 348.5,173C 339.956,176.322 336.123,173.489 337,164.5C 337.69,162.65 338.856,161.316 340.5,160.5 Z"/></g>
<g><path style="opacity:1" fill="#3b86e1" d="M 439.5,158.5 C 444.833,158.5 450.167,158.5 455.5,158.5C 455.5,166.167 455.5,173.833 455.5,181.5C 450.167,181.5 444.833,181.5 439.5,181.5C 439.5,173.833 439.5,166.167 439.5,158.5 Z"/></g>
<g><path style="opacity:1" fill="#4180e3" d="M 7.5,181.5 C 12.8333,181.5 18.1667,181.5 23.5,181.5C 23.5,187.833 23.5,194.167 23.5,200.5C 18.1667,200.5 12.8333,200.5 7.5,200.5C 7.5,194.167 7.5,187.833 7.5,181.5 Z"/></g>
<g><path style="opacity:0.963" fill="#4181e3" d="M 201.5,181.5 C 216.742,180.875 231.742,181.541 246.5,183.5C 247.116,186.08 247.449,188.747 247.5,191.5C 247.685,195.141 247.019,198.474 245.5,201.5C 230.5,200.833 215.5,200.167 200.5,199.5C 199.884,196.92 199.551,194.253 199.5,191.5C 199.315,187.859 199.981,184.526 201.5,181.5 Z M 220.5,184.5 C 229.85,184.365 232.517,188.532 228.5,197C 219.956,200.322 216.123,197.489 217,188.5C 217.69,186.65 218.856,185.316 220.5,184.5 Z"/></g>
<g><path style="opacity:0.951" fill="#4082e3" d="M 364.5,180.5 C 354.965,192.198 343.298,194.698 329.5,188C 327.294,185.963 325.294,183.797 323.5,181.5C 336.99,180.504 350.656,180.171 364.5,180.5 Z"/></g>
<g><path style="opacity:1" fill="#4180e3" d="M 439.5,181.5 C 444.833,181.5 450.167,181.5 455.5,181.5C 455.5,187.833 455.5,194.167 455.5,200.5C 450.167,200.5 444.833,200.5 439.5,200.5C 439.5,194.167 439.5,187.833 439.5,181.5 Z"/></g>
<g><path style="opacity:1" fill="#437fe3" d="M 183.5,200.5 C 146.167,200.5 108.833,200.5 71.5,200.5C 71.5,197.5 71.5,194.5 71.5,191.5C 108.833,191.5 146.167,191.5 183.5,191.5C 183.5,194.5 183.5,197.5 183.5,200.5 Z"/></g>
<g><path style="opacity:1" fill="#447ee4" d="M 39.5,191.5 C 44.8333,191.5 50.1667,191.5 55.5,191.5C 55.5,196.833 55.5,202.167 55.5,207.5C 50.1667,207.5 44.8333,207.5 39.5,207.5C 39.5,202.167 39.5,196.833 39.5,191.5 Z"/></g>
<g><path style="opacity:1" fill="#457de4" d="M 71.5,200.5 C 108.833,200.5 146.167,200.5 183.5,200.5C 183.5,202.833 183.5,205.167 183.5,207.5C 146.167,207.5 108.833,207.5 71.5,207.5C 71.5,205.167 71.5,202.833 71.5,200.5 Z"/></g>
<g><path style="opacity:1" fill="#477be5" d="M 7.5,200.5 C 12.8333,200.5 18.1667,200.5 23.5,200.5C 23.5,207.167 23.5,213.833 23.5,220.5C 18.1667,220.5 12.8333,220.5 7.5,220.5C 7.5,213.833 7.5,207.167 7.5,200.5 Z"/></g>
<g><path style="opacity:0.948" fill="#467ce4" d="M 200.5,199.5 C 215.5,200.167 230.5,200.833 245.5,201.5C 239.525,213.483 229.858,217.983 216.5,215C 208.682,212.348 203.348,207.181 200.5,199.5 Z"/></g>
<g><path style="opacity:1" fill="#477be5" d="M 439.5,200.5 C 444.833,200.5 450.167,200.5 455.5,200.5C 455.5,207.167 455.5,213.833 455.5,220.5C 450.167,220.5 444.833,220.5 439.5,220.5C 439.5,213.833 439.5,207.167 439.5,200.5 Z"/></g>
<g><path style="opacity:1" fill="#4d76e6" d="M 7.5,220.5 C 12.8333,220.5 18.1667,220.5 23.5,220.5C 23.5,226.5 23.5,232.5 23.5,238.5C 18.1667,238.5 12.8333,238.5 7.5,238.5C 7.5,232.5 7.5,226.5 7.5,220.5 Z"/></g>
<g><path style="opacity:1" fill="#4e75e7" d="M 215.5,243.5 C 210.167,243.5 204.833,243.5 199.5,243.5C 199.5,242.167 199.5,240.833 199.5,239.5C 194.167,239.5 188.833,239.5 183.5,239.5C 183.5,240.833 183.5,242.167 183.5,243.5C 178.167,243.5 172.833,243.5 167.5,243.5C 167.5,236.833 167.5,230.167 167.5,223.5C 183.5,223.5 199.5,223.5 215.5,223.5C 215.5,230.167 215.5,236.833 215.5,243.5 Z"/></g>
<g><path style="opacity:1" fill="#4d76e6" d="M 439.5,220.5 C 444.833,220.5 450.167,220.5 455.5,220.5C 455.5,226.5 455.5,232.5 455.5,238.5C 450.167,238.5 444.833,238.5 439.5,238.5C 439.5,232.5 439.5,226.5 439.5,220.5 Z"/></g>
<g><path style="opacity:1" fill="#5272e8" d="M 7.5,238.5 C 12.8333,238.5 18.1667,238.5 23.5,238.5C 23.5,243.5 23.5,248.5 23.5,253.5C 18.1667,253.5 12.8333,253.5 7.5,253.5C 7.5,248.5 7.5,243.5 7.5,238.5 Z"/></g>
<g><path style="opacity:1" fill="#5272e8" d="M 439.5,238.5 C 444.833,238.5 450.167,238.5 455.5,238.5C 455.5,243.5 455.5,248.5 455.5,253.5C 450.167,253.5 444.833,253.5 439.5,253.5C 439.5,248.5 439.5,243.5 439.5,238.5 Z"/></g>
<g><path style="opacity:1" fill="#5470e8" d="M 167.5,243.5 C 172.833,243.5 178.167,243.5 183.5,243.5C 183.5,250.167 183.5,256.833 183.5,263.5C 178.167,263.5 172.833,263.5 167.5,263.5C 167.5,256.833 167.5,250.167 167.5,243.5 Z"/></g>
<g><path style="opacity:1" fill="#5470e8" d="M 199.5,243.5 C 204.833,243.5 210.167,243.5 215.5,243.5C 215.5,250.167 215.5,256.833 215.5,263.5C 210.167,263.5 204.833,263.5 199.5,263.5C 199.5,256.833 199.5,250.167 199.5,243.5 Z"/></g>
<g><path style="opacity:0.987" fill="#566ee9" d="M 436.5,262.5 C 420.833,263.167 405.167,263.833 389.5,264.5C 387.5,264.5 385.5,264.5 383.5,264.5C 383.5,270.833 383.5,277.167 383.5,283.5C 378.167,283.5 372.833,283.5 367.5,283.5C 367.5,277.167 367.5,270.833 367.5,264.5C 365.5,264.5 363.5,264.5 361.5,264.5C 345.833,263.833 330.167,263.167 314.5,262.5C 342.589,247.654 372.256,243.487 403.5,250C 415.166,252.504 426.166,256.67 436.5,262.5 Z"/></g>
<g><path style="opacity:1" fill="#566fe9" d="M 279.5,263.5 C 263.5,263.5 247.5,263.5 231.5,263.5C 231.5,260.833 231.5,258.167 231.5,255.5C 247.5,255.5 263.5,255.5 279.5,255.5C 279.5,258.167 279.5,260.833 279.5,263.5 Z"/></g>
<g><path style="opacity:0.977" fill="#596cea" d="M 439.5,253.5 C 444.833,253.5 450.167,253.5 455.5,253.5C 455.334,260.841 455.5,268.174 456,275.5C 458.998,277.333 461.498,279.666 463.5,282.5C 455.833,283.167 448.167,283.833 440.5,284.5C 424.863,274.289 407.863,267.622 389.5,264.5C 405.167,263.833 420.833,263.167 436.5,262.5C 437.15,262.804 437.817,263.137 438.5,263.5C 439.487,260.232 439.82,256.898 439.5,253.5 Z"/></g>
<g><path style="opacity:1" fill="#596cea" d="M 7.5,253.5 C 12.8333,253.5 18.1667,253.5 23.5,253.5C 23.5,263.5 23.5,273.5 23.5,283.5C 18.1667,283.5 12.8333,283.5 7.5,283.5C 7.5,273.5 7.5,263.5 7.5,253.5 Z"/></g>
<g><path style="opacity:1" fill="#5a6bea" d="M 167.5,263.5 C 172.833,263.5 178.167,263.5 183.5,263.5C 183.5,270.167 183.5,276.833 183.5,283.5C 178.167,283.5 172.833,283.5 167.5,283.5C 167.5,276.833 167.5,270.167 167.5,263.5 Z"/></g>
<g><path style="opacity:1" fill="#5a6bea" d="M 199.5,263.5 C 204.833,263.5 210.167,263.5 215.5,263.5C 215.5,270.167 215.5,276.833 215.5,283.5C 210.167,283.5 204.833,283.5 199.5,283.5C 199.5,276.833 199.5,270.167 199.5,263.5 Z"/></g>
<g><path style="opacity:1" fill="#5a6bea" d="M 231.5,263.5 C 247.5,263.5 263.5,263.5 279.5,263.5C 279.5,270.167 279.5,276.833 279.5,283.5C 274.167,283.5 268.833,283.5 263.5,283.5C 263.5,279.5 263.5,275.5 263.5,271.5C 258.167,271.5 252.833,271.5 247.5,271.5C 247.5,275.5 247.5,279.5 247.5,283.5C 242.167,283.5 236.833,283.5 231.5,283.5C 231.5,276.833 231.5,270.167 231.5,263.5 Z"/></g>
<g><path style="opacity:0.96" fill="#596bea" d="M 314.5,262.5 C 330.167,263.167 345.833,263.833 361.5,264.5C 343.374,267.433 326.707,274.1 311.5,284.5C 303.35,283.507 295.017,283.174 286.5,283.5C 294.678,274.993 304.011,267.993 314.5,262.5 Z"/></g>
<g><path style="opacity:1" fill="#5b6aea" d="M 87.5,283.5 C 71.5,283.5 55.5,283.5 39.5,283.5C 39.5,279.5 39.5,275.5 39.5,271.5C 55.5,271.5 71.5,271.5 87.5,271.5C 87.5,275.5 87.5,279.5 87.5,283.5 Z"/></g>
<g><path style="opacity:0.963" fill="#6065ec" d="M 463.5,282.5 C 471.502,288.868 477.836,296.535 482.5,305.5C 476.267,306.203 469.934,306.87 463.5,307.5C 456.806,298.806 449.14,291.14 440.5,284.5C 448.167,283.833 455.833,283.167 463.5,282.5 Z"/></g>
<g><path style="opacity:1" fill="#6065ec" d="M 7.5,283.5 C 12.8333,283.5 18.1667,283.5 23.5,283.5C 23.5,291.167 23.5,298.833 23.5,306.5C 18.1667,306.5 12.8333,306.5 7.5,306.5C 7.5,298.833 7.5,291.167 7.5,283.5 Z"/></g>
<g><path style="opacity:1" fill="#6065ec" d="M 39.5,283.5 C 55.5,283.5 71.5,283.5 87.5,283.5C 87.5,291.167 87.5,298.833 87.5,306.5C 82.1667,306.5 76.8333,306.5 71.5,306.5C 71.5,300.167 71.5,293.833 71.5,287.5C 66.1667,287.5 60.8333,287.5 55.5,287.5C 55.5,293.833 55.5,300.167 55.5,306.5C 50.1667,306.5 44.8333,306.5 39.5,306.5C 39.5,298.833 39.5,291.167 39.5,283.5 Z"/></g>
<g><path style="opacity:1" fill="#6065ec" d="M 167.5,283.5 C 172.833,283.5 178.167,283.5 183.5,283.5C 183.5,291.167 183.5,298.833 183.5,306.5C 178.167,306.5 172.833,306.5 167.5,306.5C 167.5,298.833 167.5,291.167 167.5,283.5 Z"/></g>
<g><path style="opacity:1" fill="#6065ec" d="M 199.5,283.5 C 204.833,283.5 210.167,283.5 215.5,283.5C 215.5,291.167 215.5,298.833 215.5,306.5C 210.167,306.5 204.833,306.5 199.5,306.5C 199.5,298.833 199.5,291.167 199.5,283.5 Z"/></g>
<g><path style="opacity:1" fill="#6065ec" d="M 231.5,283.5 C 236.833,283.5 242.167,283.5 247.5,283.5C 247.5,291.167 247.5,298.833 247.5,306.5C 242.167,306.5 236.833,306.5 231.5,306.5C 231.5,298.833 231.5,291.167 231.5,283.5 Z"/></g>
<g><path style="opacity:0.985" fill="#6065ec" d="M 263.5,283.5 C 268.833,283.5 274.167,283.5 279.5,283.5C 279.338,285.527 279.505,287.527 280,289.5C 282.037,287.294 284.203,285.294 286.5,283.5C 295.017,283.174 303.35,283.507 311.5,284.5C 302.549,290.784 294.549,298.118 287.5,306.5C 279.5,306.5 271.5,306.5 263.5,306.5C 263.5,298.833 263.5,291.167 263.5,283.5 Z"/></g>
<g><path style="opacity:0.982" fill="#6164ec" d="M 367.5,283.5 C 372.833,283.5 378.167,283.5 383.5,283.5C 383.5,287.5 383.5,291.5 383.5,295.5C 395.448,296.594 406.448,300.261 416.5,306.5C 389.472,306.516 362.139,306.516 334.5,306.5C 344.552,300.261 355.552,296.594 367.5,295.5C 367.5,291.5 367.5,287.5 367.5,283.5 Z"/></g>
<g><path style="opacity:1" fill="#6165ec" d="M 151.5,306.5 C 146.167,306.5 140.833,306.5 135.5,306.5C 135.5,305.5 135.5,304.5 135.5,303.5C 130.167,303.5 124.833,303.5 119.5,303.5C 119.5,304.5 119.5,305.5 119.5,306.5C 114.167,306.5 108.833,306.5 103.5,306.5C 103.5,300.167 103.5,293.833 103.5,287.5C 119.5,287.5 135.5,287.5 151.5,287.5C 151.5,293.833 151.5,300.167 151.5,306.5 Z"/></g>
<g><path style="opacity:0.969" fill="#675fee" d="M 482.5,305.5 C 487.527,312.217 491.527,319.55 494.5,327.5C 488.5,327.5 482.5,327.5 476.5,327.5C 472.678,320.529 468.345,313.862 463.5,307.5C 469.934,306.87 476.267,306.203 482.5,305.5 Z"/></g>
<g><path style="opacity:1" fill="#6760ee" d="M 7.5,306.5 C 12.8333,306.5 18.1667,306.5 23.5,306.5C 23.5,313.167 23.5,319.833 23.5,326.5C 18.1667,326.5 12.8333,326.5 7.5,326.5C 7.5,319.833 7.5,313.167 7.5,306.5 Z"/></g>
<g><path style="opacity:1" fill="#675fee" d="M 39.5,306.5 C 44.8333,306.5 50.1667,306.5 55.5,306.5C 55.5,313.5 55.5,320.5 55.5,327.5C 50.1667,327.5 44.8333,327.5 39.5,327.5C 39.5,320.5 39.5,313.5 39.5,306.5 Z"/></g>
<g><path style="opacity:1" fill="#675fee" d="M 71.5,306.5 C 76.8333,306.5 82.1667,306.5 87.5,306.5C 87.5,313.5 87.5,320.5 87.5,327.5C 82.1667,327.5 76.8333,327.5 71.5,327.5C 71.5,320.5 71.5,313.5 71.5,306.5 Z"/></g>
<g><path style="opacity:1" fill="#675fee" d="M 103.5,306.5 C 108.833,306.5 114.167,306.5 119.5,306.5C 119.5,313.5 119.5,320.5 119.5,327.5C 114.167,327.5 108.833,327.5 103.5,327.5C 103.5,320.5 103.5,313.5 103.5,306.5 Z"/></g>
<g><path style="opacity:1" fill="#675fee" d="M 135.5,306.5 C 140.833,306.5 146.167,306.5 151.5,306.5C 151.5,313.5 151.5,320.5 151.5,327.5C 146.167,327.5 140.833,327.5 135.5,327.5C 135.5,320.5 135.5,313.5 135.5,306.5 Z"/></g>
<g><path style="opacity:1" fill="#675fee" d="M 167.5,306.5 C 172.833,306.5 178.167,306.5 183.5,306.5C 183.5,313.5 183.5,320.5 183.5,327.5C 178.167,327.5 172.833,327.5 167.5,327.5C 167.5,320.5 167.5,313.5 167.5,306.5 Z"/></g>
<g><path style="opacity:1" fill="#675fee" d="M 199.5,306.5 C 204.833,306.5 210.167,306.5 215.5,306.5C 215.5,313.5 215.5,320.5 215.5,327.5C 210.167,327.5 204.833,327.5 199.5,327.5C 199.5,320.5 199.5,313.5 199.5,306.5 Z"/></g>
<g><path style="opacity:1" fill="#675fee" d="M 231.5,306.5 C 236.833,306.5 242.167,306.5 247.5,306.5C 247.5,313.5 247.5,320.5 247.5,327.5C 242.167,327.5 236.833,327.5 231.5,327.5C 231.5,320.5 231.5,313.5 231.5,306.5 Z"/></g>
<g><path style="opacity:0.97" fill="#675fee" d="M 263.5,306.5 C 271.5,306.5 279.5,306.5 287.5,306.5C 282.579,314.008 277.912,321.675 273.5,329.5C 268.265,327.55 262.598,326.883 256.5,327.5C 258.382,322.735 260.548,318.068 263,313.5C 263.497,311.19 263.663,308.857 263.5,306.5 Z"/></g>
<g><path style="opacity:0.97" fill="#6660ee" d="M 334.5,306.5 C 362.139,306.516 389.472,306.516 416.5,306.5C 425.039,311.367 432.372,317.701 438.5,325.5C 431.352,326.492 424.019,326.825 416.5,326.5C 389.167,306.5 361.833,306.5 334.5,326.5C 326.981,326.825 319.648,326.492 312.5,325.5C 318.577,317.759 325.91,311.426 334.5,306.5 Z"/></g>
<g><path style="opacity:1" fill="#6d5af0" d="M 7.5,326.5 C 12.8333,326.5 18.1667,326.5 23.5,326.5C 23.5,333.833 23.5,341.167 23.5,348.5C 18.1667,348.5 12.8333,348.5 7.5,348.5C 7.5,341.167 7.5,333.833 7.5,326.5 Z"/></g>
<g><path style="opacity:1" fill="#6e59f0" d="M 39.5,327.5 C 44.8333,327.5 50.1667,327.5 55.5,327.5C 55.5,330.167 55.5,332.833 55.5,335.5C 60.8333,335.5 66.1667,335.5 71.5,335.5C 71.5,332.833 71.5,330.167 71.5,327.5C 76.8333,327.5 82.1667,327.5 87.5,327.5C 87.5,335.5 87.5,343.5 87.5,351.5C 71.5,351.5 55.5,351.5 39.5,351.5C 39.5,343.5 39.5,335.5 39.5,327.5 Z"/></g>
<g><path style="opacity:1" fill="#6e59f0" d="M 103.5,327.5 C 108.833,327.5 114.167,327.5 119.5,327.5C 119.5,330.167 119.5,332.833 119.5,335.5C 124.833,335.5 130.167,335.5 135.5,335.5C 135.5,332.833 135.5,330.167 135.5,327.5C 140.833,327.5 146.167,327.5 151.5,327.5C 151.5,335.5 151.5,343.5 151.5,351.5C 135.5,351.5 119.5,351.5 103.5,351.5C 103.5,343.5 103.5,335.5 103.5,327.5 Z"/></g>
<g><path style="opacity:1" fill="#6e59f0" d="M 167.5,327.5 C 172.833,327.5 178.167,327.5 183.5,327.5C 183.5,330.167 183.5,332.833 183.5,335.5C 188.833,335.5 194.167,335.5 199.5,335.5C 199.5,332.833 199.5,330.167 199.5,327.5C 204.833,327.5 210.167,327.5 215.5,327.5C 215.5,335.5 215.5,343.5 215.5,351.5C 199.5,351.5 183.5,351.5 167.5,351.5C 167.5,343.5 167.5,335.5 167.5,327.5 Z"/></g>
<g><path style="opacity:0.989" fill="#6d5af0" d="M 231.5,327.5 C 236.833,327.5 242.167,327.5 247.5,327.5C 247.5,330.167 247.5,332.833 247.5,335.5C 249.604,335.799 251.604,335.466 253.5,334.5C 254.312,332.055 255.312,329.722 256.5,327.5C 262.598,326.883 268.265,327.55 273.5,329.5C 271.497,335.504 269.497,341.504 267.5,347.5C 255.58,348.479 243.58,348.812 231.5,348.5C 231.5,341.5 231.5,334.5 231.5,327.5 Z"/></g>
<g><path style="opacity:0.961" fill="#6d5af0" d="M 312.5,325.5 C 319.648,326.492 326.981,326.825 334.5,326.5C 328.675,332.841 323.342,339.508 318.5,346.5C 312.591,347.455 306.591,347.789 300.5,347.5C 302.96,339.241 306.96,331.907 312.5,325.5 Z"/></g>
<g><path style="opacity:0.967" fill="#6d59f0" d="M 415.5,348.5 C 407.981,348.175 400.648,348.508 393.5,349.5C 380.928,342.566 368.595,342.9 356.5,350.5C 349.913,348.539 342.913,347.872 335.5,348.5C 347.693,331.257 364.36,324.424 385.5,328C 398.378,330.726 408.378,337.559 415.5,348.5 Z"/></g>
<g><path style="opacity:0.964" fill="#6d5af0" d="M 438.5,325.5 C 444.098,332.352 448.431,340.019 451.5,348.5C 445.833,348.5 440.167,348.5 434.5,348.5C 434.5,349.5 434.5,350.5 434.5,351.5C 430.112,342.095 424.112,333.762 416.5,326.5C 424.019,326.825 431.352,326.492 438.5,325.5 Z"/></g>
<g><path style="opacity:0.961" fill="#6d5af0" d="M 476.5,327.5 C 482.5,327.5 488.5,327.5 494.5,327.5C 497.504,333.848 499.504,340.515 500.5,347.5C 494.833,347.5 489.167,347.5 483.5,347.5C 481.566,340.699 479.233,334.032 476.5,327.5 Z"/></g>
<g><path style="opacity:0.963" fill="#7355f2" d="M 318.5,346.5 C 316.093,352.72 314.093,359.054 312.5,365.5C 307.044,367.143 301.377,368.143 295.5,368.5C 295.784,361.061 297.451,354.061 300.5,347.5C 306.591,347.789 312.591,347.455 318.5,346.5 Z"/></g>
<g><path style="opacity:0.966" fill="#7355f2" d="M 335.5,348.5 C 342.913,347.872 349.913,348.539 356.5,350.5C 351.624,354.574 347.957,359.574 345.5,365.5C 339.709,367.801 333.709,368.134 327.5,366.5C 328.83,359.821 331.496,353.821 335.5,348.5 Z"/></g>
<g><path style="opacity:0.965" fill="#7354f2" d="M 415.5,348.5 C 419.504,353.821 422.17,359.821 423.5,366.5C 417.732,367.126 412.066,367.793 406.5,368.5C 404.157,360.821 399.824,354.487 393.5,349.5C 400.648,348.508 407.981,348.175 415.5,348.5 Z"/></g>
<g><path style="opacity:0.967" fill="#7355f2" d="M 451.5,348.5 C 453.463,354.351 454.796,360.351 455.5,366.5C 449.925,367.452 444.259,367.786 438.5,367.5C 437.479,362.083 436.146,356.75 434.5,351.5C 434.5,350.5 434.5,349.5 434.5,348.5C 440.167,348.5 445.833,348.5 451.5,348.5 Z"/></g>
<g><path style="opacity:0.963" fill="#7355f2" d="M 483.5,347.5 C 489.167,347.5 494.833,347.5 500.5,347.5C 502.415,353.899 503.415,360.565 503.5,367.5C 497.741,367.786 492.075,367.452 486.5,366.5C 485.965,360.086 484.965,353.752 483.5,347.5 Z"/></g>
<g><path style="opacity:0.999" fill="#7553f2" d="M 267.5,347.5 C 265.304,355.678 264.304,364.012 264.5,372.5C 178.904,371.503 93.2373,371.17 7.5,371.5C 7.5,363.833 7.5,356.167 7.5,348.5C 12.8333,348.5 18.1667,348.5 23.5,348.5C 23.5,354.833 23.5,361.167 23.5,367.5C 98.1667,367.5 172.833,367.5 247.5,367.5C 247.607,362.415 248.274,357.415 249.5,352.5C 243.537,351.504 237.537,351.171 231.5,351.5C 231.5,350.5 231.5,349.5 231.5,348.5C 243.58,348.812 255.58,348.479 267.5,347.5 Z"/></g>
<g><path style="opacity:0.998" fill="#794ff3" d="M 7.5,371.5 C 93.2373,371.17 178.904,371.503 264.5,372.5C 264.5,377.5 264.5,382.5 264.5,387.5C 258.833,387.5 253.167,387.5 247.5,387.5C 247.5,386.167 247.5,384.833 247.5,383.5C 167.5,383.5 87.5,383.5 7.5,383.5C 7.5,379.5 7.5,375.5 7.5,371.5 Z"/></g>
<g><path style="opacity:0.98" fill="#794ff4" d="M 455.5,366.5 C 455.825,374.019 455.492,381.352 454.5,388.5C 449.025,387.511 443.358,387.178 437.5,387.5C 438.46,380.922 438.793,374.255 438.5,367.5C 444.259,367.786 449.925,367.452 455.5,366.5 Z"/></g>
<g><path style="opacity:0.977" fill="#794ff3" d="M 486.5,366.5 C 492.075,367.452 497.741,367.786 503.5,367.5C 503.5,374.167 503.5,380.833 503.5,387.5C 497.833,387.5 492.167,387.5 486.5,387.5C 486.5,380.5 486.5,373.5 486.5,366.5 Z"/></g>
<g><path style="opacity:0.959" fill="#7b4df4" d="M 345.5,365.5 C 342.375,377.996 345.041,388.996 353.5,398.5C 346.646,398.176 339.979,398.509 333.5,399.5C 330.809,395.278 328.976,390.612 328,385.5C 327.5,379.175 327.334,372.842 327.5,366.5C 333.709,368.134 339.709,367.801 345.5,365.5 Z"/></g>
<g><path style="opacity:0.971" fill="#7c4df4" d="M 312.5,365.5 C 311.559,376.849 312.892,387.849 316.5,398.5C 310.5,398.5 304.5,398.5 298.5,398.5C 295.842,388.727 294.842,378.727 295.5,368.5C 301.377,368.143 307.044,367.143 312.5,365.5 Z"/></g>
<g><path style="opacity:0.967" fill="#7c4df4" d="M 423.5,366.5 C 424.69,377.687 423.024,388.354 418.5,398.5C 411.646,398.824 404.979,398.491 398.5,397.5C 405.356,389.083 408.023,379.416 406.5,368.5C 412.066,367.793 417.732,367.126 423.5,366.5 Z"/></g>
<g><path style="opacity:0.961" fill="#8348f6" d="M 398.5,397.5 C 404.979,398.491 411.646,398.824 418.5,398.5C 401.74,423.446 379.407,429.946 351.5,418C 343.955,413.289 337.955,407.122 333.5,399.5C 339.979,398.509 346.646,398.176 353.5,398.5C 368.764,409.433 383.764,409.1 398.5,397.5 Z"/></g>
<g><path style="opacity:0.952" fill="#804af6" d="M 247.5,387.5 C 253.167,387.5 258.833,387.5 264.5,387.5C 265.614,395.74 267.614,403.74 270.5,411.5C 264.409,411.211 258.409,411.545 252.5,412.5C 250.193,404.3 248.527,395.967 247.5,387.5 Z"/></g>
<g><path style="opacity:0.96" fill="#8149f6" d="M 437.5,387.5 C 443.358,387.178 449.025,387.511 454.5,388.5C 453.861,395.087 452.194,401.421 449.5,407.5C 450.34,408.735 451.34,409.735 452.5,410.5C 444.35,411.493 436.017,411.826 427.5,411.5C 432.577,404.28 435.91,396.28 437.5,387.5 Z"/></g>
<g><path style="opacity:0.962" fill="#8049f6" d="M 486.5,387.5 C 492.167,387.5 497.833,387.5 503.5,387.5C 502.725,396.041 501.058,404.374 498.5,412.5C 492.732,411.874 487.066,411.207 481.5,410.5C 483.55,402.916 485.217,395.25 486.5,387.5 Z"/></g>
<g><path style="opacity:0.973" fill="#8744f7" d="M 298.5,398.5 C 304.5,398.5 310.5,398.5 316.5,398.5C 322.231,412.564 331.564,423.564 344.5,431.5C 335.833,431.5 327.167,431.5 318.5,431.5C 315.515,429.016 312.682,426.349 310,423.5C 304.874,426.313 299.707,428.979 294.5,431.5C 283.167,431.5 271.833,431.5 260.5,431.5C 257.046,425.58 254.379,419.247 252.5,412.5C 258.409,411.545 264.409,411.211 270.5,411.5C 271.709,415.589 273.209,419.589 275,423.5C 283.83,418.753 292.497,413.753 301,408.5C 300.506,405.164 299.672,401.831 298.5,398.5 Z"/></g>
<g><path style="opacity:0.973" fill="#8744f7" d="M 452.5,410.5 C 460.359,414.682 468.193,419.015 476,423.5C 477.885,419.077 479.719,414.744 481.5,410.5C 487.066,411.207 492.732,411.874 498.5,412.5C 496.445,418.942 494.112,425.275 491.5,431.5C 479.833,431.5 468.167,431.5 456.5,431.5C 451.293,428.979 446.126,426.313 441,423.5C 438.362,426.303 435.528,428.97 432.5,431.5C 423.833,431.5 415.167,431.5 406.5,431.5C 414.764,426.238 421.764,419.572 427.5,411.5C 436.017,411.826 444.35,411.493 452.5,410.5 Z"/></g>
<g><path style="opacity:0.967" fill="#8b40f9" d="M 318.5,431.5 C 327.167,431.5 335.833,431.5 344.5,431.5C 359.595,438.742 375.262,440.575 391.5,437C 396.521,435.153 401.521,433.32 406.5,431.5C 415.167,431.5 423.833,431.5 432.5,431.5C 429.072,436.264 424.738,439.93 419.5,442.5C 390.005,441.502 360.338,441.169 330.5,441.5C 325.619,439.291 321.619,435.957 318.5,431.5 Z"/></g>
<g><path style="opacity:0.97" fill="#8d3ef9" d="M 260.5,431.5 C 271.833,431.5 283.167,431.5 294.5,431.5C 291.025,433.745 287.692,436.245 284.5,439C 286.982,442.979 289.649,446.812 292.5,450.5C 286.167,451.167 279.833,451.833 273.5,452.5C 267.917,446.347 263.584,439.347 260.5,431.5 Z"/></g>
<g><path style="opacity:0.986" fill="#8e3dfa" d="M 330.5,441.5 C 360.338,441.169 390.005,441.502 419.5,442.5C 399.216,455.721 377.216,459.221 353.5,453C 344.935,450.718 337.268,446.884 330.5,441.5 Z"/></g>
<g><path style="opacity:0.976" fill="#8d3ef9" d="M 456.5,431.5 C 468.167,431.5 479.833,431.5 491.5,431.5C 487.319,439.208 482.652,446.542 477.5,453.5C 471.25,451.541 464.584,450.874 457.5,451.5C 460.683,447.48 463.683,443.314 466.5,439C 463.308,436.245 459.975,433.745 456.5,431.5 Z"/></g>
<g><path style="opacity:0.965" fill="#923afb" d="M 292.5,450.5 C 300.256,457.927 308.59,464.593 317.5,470.5C 308.833,471.167 300.167,471.833 291.5,472.5C 284.396,466.734 278.396,460.067 273.5,452.5C 279.833,451.833 286.167,451.167 292.5,450.5 Z"/></g>
<g><path style="opacity:0.963" fill="#923afb" d="M 457.5,451.5 C 464.584,450.874 471.25,451.541 477.5,453.5C 472.537,460.131 466.87,466.131 460.5,471.5C 451.651,471.826 442.984,471.493 434.5,470.5C 442.433,464.574 450.1,458.241 457.5,451.5 Z"/></g>
<g><path style="opacity:0.961" fill="#9a33fd" d="M 317.5,470.5 C 356.434,492.895 395.434,492.895 434.5,470.5C 442.984,471.493 451.651,471.826 460.5,471.5C 429.505,498.423 393.505,508.59 352.5,502C 329.428,497.462 309.095,487.629 291.5,472.5C 300.167,471.833 308.833,471.167 317.5,470.5 Z"/></g>
</svg>
