<?xml version="1.0" encoding="UTF-8"?>
<!DOCTYPE svg PUBLIC "-//W3C//DTD SVG 1.1//EN" "http://www.w3.org/Graphics/SVG/1.1/DTD/svg11.dtd">
<svg xmlns="http://www.w3.org/2000/svg" version="1.1" width="512px" height="512px" style="shape-rendering:geometricPrecision; text-rendering:geometricPrecision; image-rendering:optimizeQuality; fill-rule:evenodd; clip-rule:evenodd" xmlns:xlink="http://www.w3.org/1999/xlink">
<g><path style="opacity:1" fill="#febf6c" d="M 136.5,89.5 C 136.333,119.502 136.5,149.502 137,179.5C 137.465,180.931 138.299,182.097 139.5,183C 165.833,183.667 192.167,183.667 218.5,183C 219.333,182.167 220.167,181.333 221,180.5C 221.5,150.168 221.667,119.835 221.5,89.5C 249.5,89.5 277.5,89.5 305.5,89.5C 305.5,145.833 305.5,202.167 305.5,258.5C 311.69,258.177 317.69,258.51 323.5,259.5C 294.831,259.333 266.165,259.5 237.5,260C 232.083,265.021 232.416,269.688 238.5,274C 260.831,274.5 283.164,274.667 305.5,274.5C 305.5,284.167 305.5,293.833 305.5,303.5C 283.164,303.333 260.831,303.5 238.5,304C 231.901,309.325 232.235,314.325 239.5,319C 261.497,319.5 283.497,319.667 305.5,319.5C 305.5,330.5 305.5,341.5 305.5,352.5C 245.83,352.833 186.163,352.5 126.5,351.5C 112.033,333.402 93.6999,327.902 71.5,335C 63.3146,338.85 56.648,344.517 51.5,352C 34.1699,352.5 16.8365,352.667 -0.5,352.5C -0.5,266.167 -0.5,179.833 -0.5,93.5C 0.961599,92.5423 2.29493,91.3756 3.5,90C 47.8321,89.5 92.1654,89.3333 136.5,89.5 Z"/></g>
<g><path style="opacity:1" fill="#ff4c4c" d="M 136.5,89.5 C 164.833,89.5 193.167,89.5 221.5,89.5C 221.667,119.835 221.5,150.168 221,180.5C 220.167,181.333 219.333,182.167 218.5,183C 192.167,183.667 165.833,183.667 139.5,183C 138.299,182.097 137.465,180.931 137,179.5C 136.5,149.502 136.333,119.502 136.5,89.5 Z"/></g>
<g><path style="opacity:1" fill="#eca558" d="M 305.5,89.5 C 323.17,89.3334 340.836,89.5001 358.5,90C 360.815,91.1094 362.315,92.9427 363,95.5C 363.5,123.498 363.667,151.498 363.5,179.5C 363.832,237.336 363.499,295.002 362.5,352.5C 343.5,352.5 324.5,352.5 305.5,352.5C 305.5,341.5 305.5,330.5 305.5,319.5C 311.509,319.666 317.509,319.499 323.5,319C 328.924,316.983 330.758,313.15 329,307.5C 327.681,305.513 325.848,304.346 323.5,304C 317.509,303.501 311.509,303.334 305.5,303.5C 305.5,293.833 305.5,284.167 305.5,274.5C 312.175,274.666 318.842,274.5 325.5,274C 329.753,270.58 330.587,266.413 328,261.5C 326.67,260.418 325.17,259.751 323.5,259.5C 317.69,258.51 311.69,258.177 305.5,258.5C 305.5,202.167 305.5,145.833 305.5,89.5 Z"/></g>
<g><path style="opacity:1" fill="#60aef5" d="M 363.5,179.5 C 373.833,179.5 384.167,179.5 394.5,179.5C 396.019,180.41 397.685,181.243 399.5,182C 408.5,191 417.5,200 426.5,209C 431.684,209.174 436.684,209.674 441.5,210.5C 425.83,210.333 410.163,210.5 394.5,211C 393.667,211.833 392.833,212.667 392,213.5C 391.333,236.5 391.333,259.5 392,282.5C 392.833,284 394,285.167 395.5,286C 415.164,286.5 434.831,286.667 454.5,286.5C 454.5,303.167 454.5,319.833 454.5,336.5C 426.413,325.914 405.58,333.914 392,360.5C 390.112,367.505 388.945,374.505 388.5,381.5C 379.833,381.5 371.167,381.5 362.5,381.5C 362.5,372.167 362.5,362.833 362.5,353.5C 362.5,353.167 362.5,352.833 362.5,352.5C 363.499,295.002 363.832,237.336 363.5,179.5 Z"/></g>
<g><path style="opacity:1" fill="#399ae9" d="M 394.5,179.5 C 414.169,179.333 433.836,179.5 453.5,180C 454.833,180.667 456.167,181.333 457.5,182C 474.333,198.833 491.167,215.667 508,232.5C 509.459,234.432 510.625,236.432 511.5,238.5C 511.5,283.167 511.5,327.833 511.5,372.5C 509.685,376.479 506.685,379.312 502.5,381C 494.507,381.5 486.507,381.666 478.5,381.5C 479.132,361.758 471.132,346.758 454.5,336.5C 454.5,319.833 454.5,303.167 454.5,286.5C 462.174,286.666 469.841,286.5 477.5,286C 479.329,285.727 480.829,284.893 482,283.5C 483.595,272.907 483.928,262.24 483,251.5C 469.942,236.942 456.109,223.275 441.5,210.5C 436.684,209.674 431.684,209.174 426.5,209C 417.5,200 408.5,191 399.5,182C 397.685,181.243 396.019,180.41 394.5,179.5 Z"/></g>
<g><path style="opacity:1" fill="#33d7dd" d="M 441.5,210.5 C 456.109,223.275 469.942,236.942 483,251.5C 483.928,262.24 483.595,272.907 482,283.5C 480.829,284.893 479.329,285.727 477.5,286C 469.841,286.5 462.174,286.666 454.5,286.5C 434.831,286.667 415.164,286.5 395.5,286C 394,285.167 392.833,284 392,282.5C 391.333,259.5 391.333,236.5 392,213.5C 392.833,212.667 393.667,211.833 394.5,211C 410.163,210.5 425.83,210.333 441.5,210.5 Z"/></g>
<g><path style="opacity:1" fill="#fffefe" d="M 323.5,259.5 C 325.17,259.751 326.67,260.418 328,261.5C 330.587,266.413 329.753,270.58 325.5,274C 318.842,274.5 312.175,274.666 305.5,274.5C 283.164,274.667 260.831,274.5 238.5,274C 232.416,269.688 232.083,265.021 237.5,260C 266.165,259.5 294.831,259.333 323.5,259.5 Z"/></g>
<g><path style="opacity:1" fill="#fffcf9" d="M 305.5,303.5 C 311.509,303.334 317.509,303.501 323.5,304C 325.848,304.346 327.681,305.513 329,307.5C 330.758,313.15 328.924,316.983 323.5,319C 317.509,319.499 311.509,319.666 305.5,319.5C 283.497,319.667 261.497,319.5 239.5,319C 232.235,314.325 231.901,309.325 238.5,304C 260.831,303.5 283.164,303.333 305.5,303.5 Z"/></g>
<g><path style="opacity:0.985" fill="#446988" d="M 305.5,352.5 C 324.5,352.5 343.5,352.5 362.5,352.5C 362.5,352.833 362.5,353.167 362.5,353.5C 284.166,353.333 205.833,353.5 127.5,354C 132.553,362.589 134.887,371.756 134.5,381.5C 127.94,410.799 109.607,423.966 79.5,421C 59.1329,415.47 47.4662,402.303 44.5,381.5C 43.92,371.858 45.92,362.858 50.5,354.5C 33.5131,353.501 16.5131,353.167 -0.5,353.5C -0.5,353.167 -0.5,352.833 -0.5,352.5C 16.8365,352.667 34.1699,352.5 51.5,352C 56.648,344.517 63.3146,338.85 71.5,335C 93.6999,327.902 112.033,333.402 126.5,351.5C 186.163,352.5 245.83,352.833 305.5,352.5 Z"/></g>
<g><path style="opacity:0.985" fill="#3d6687" d="M 454.5,336.5 C 471.132,346.758 479.132,361.758 478.5,381.5C 474.242,406.591 459.409,419.924 434,421.5C 408.678,419.676 393.512,406.343 388.5,381.5C 388.945,374.505 390.112,367.505 392,360.5C 405.58,333.914 426.413,325.914 454.5,336.5 Z"/></g>
<g><path style="opacity:0.992" fill="#3999e9" d="M -0.5,353.5 C 16.5131,353.167 33.5131,353.501 50.5,354.5C 45.92,362.858 43.92,371.858 44.5,381.5C 31.8289,381.667 19.1623,381.5 6.5,381C 3.64238,379.306 1.30904,377.139 -0.5,374.5C -0.5,367.5 -0.5,360.5 -0.5,353.5 Z"/></g>
<g><path style="opacity:0.998" fill="#3999e9" d="M 362.5,353.5 C 362.5,362.833 362.5,372.167 362.5,381.5C 286.5,381.5 210.5,381.5 134.5,381.5C 134.887,371.756 132.553,362.589 127.5,354C 205.833,353.5 284.166,353.333 362.5,353.5 Z"/></g>
<g><path style="opacity:1" fill="#cac9c9" d="M 83.5,359.5 C 101.096,358.42 108.262,366.42 105,383.5C 98.802,393.452 90.302,395.952 79.5,391C 72.0995,383.968 70.5995,375.801 75,366.5C 77.4412,363.546 80.2745,361.213 83.5,359.5 Z"/></g>
<g><path style="opacity:1" fill="#cac9c9" d="M 428.5,359.5 C 446.239,359.062 453.072,367.395 449,384.5C 444.27,392.193 437.437,395.026 428.5,393C 415.805,386.242 413.305,376.742 421,364.5C 423.479,362.686 425.979,361.019 428.5,359.5 Z"/></g>
</svg>
