<?xml version="1.0" encoding="UTF-8"?>
<!DOCTYPE svg PUBLIC "-//W3C//DTD SVG 1.1//EN" "http://www.w3.org/Graphics/SVG/1.1/DTD/svg11.dtd">
<svg xmlns="http://www.w3.org/2000/svg" version="1.1" width="512px" height="512px" style="shape-rendering:geometricPrecision; text-rendering:geometricPrecision; image-rendering:optimizeQuality; fill-rule:evenodd; clip-rule:evenodd" xmlns:xlink="http://www.w3.org/1999/xlink">
<g><path style="opacity:0.992" fill="#004fac" d="M 169.5,37.5 C 169.5,156.833 169.5,276.167 169.5,395.5C 146.661,395.169 123.994,395.503 101.5,396.5C 101.5,427.833 101.5,459.167 101.5,490.5C 81.4241,490.821 61.4241,490.487 41.5,489.5C 41.5,327.5 41.5,165.5 41.5,3.5C 84.4317,14.2314 127.098,25.5647 169.5,37.5 Z"/></g>
<g><path style="opacity:0.999" fill="#175fb3" d="M 169.5,37.5 C 212.24,48.5185 254.907,59.8518 297.5,71.5C 298.499,88.4869 298.833,105.487 298.5,122.5C 298.5,122.833 298.5,123.167 298.5,123.5C 297.5,245.666 297.167,367.999 297.5,490.5C 277.833,490.5 258.167,490.5 238.5,490.5C 238.5,490.167 238.5,489.833 238.5,489.5C 238.5,458.5 238.5,427.5 238.5,396.5C 215.833,396.5 193.167,396.5 170.5,396.5C 147.833,396.5 125.167,396.5 102.5,396.5C 102.167,396.5 101.833,396.5 101.5,396.5C 123.994,395.503 146.661,395.169 169.5,395.5C 169.5,276.167 169.5,156.833 169.5,37.5 Z"/></g>
<g><path style="opacity:1" fill="#eff1f1" d="M 110.5,106.5 C 121.833,106.5 133.167,106.5 144.5,106.5C 144.5,117.833 144.5,129.167 144.5,140.5C 133.167,140.5 121.833,140.5 110.5,140.5C 110.5,129.167 110.5,117.833 110.5,106.5 Z"/></g>
<g><path style="opacity:0.776" fill="#729acd" d="M 298.5,123.5 C 298.5,245.5 298.5,367.5 298.5,489.5C 315.5,489.5 332.5,489.5 349.5,489.5C 360.833,489.5 372.167,489.5 383.5,489.5C 394.833,489.5 406.167,489.5 417.5,489.5C 434.833,489.5 452.167,489.5 469.5,489.5C 412.336,490.499 355.002,490.832 297.5,490.5C 297.167,367.999 297.5,245.666 298.5,123.5 Z"/></g>
<g><path style="opacity:0.999" fill="#d0e6f7" d="M 298.5,122.5 C 326.958,129.697 355.292,137.031 383.5,144.5C 383.5,233.833 383.5,323.167 383.5,412.5C 395.012,412.172 406.346,412.505 417.5,413.5C 406.167,413.5 394.833,413.5 383.5,413.5C 372.167,413.5 360.833,413.5 349.5,413.5C 349.5,438.833 349.5,464.167 349.5,489.5C 332.5,489.5 315.5,489.5 298.5,489.5C 298.5,367.5 298.5,245.5 298.5,123.5C 298.5,123.167 298.5,122.833 298.5,122.5 Z"/></g>
<g><path style="opacity:1" fill="#adc3de" d="M 196.5,106.5 C 196.5,117.5 196.5,128.5 196.5,139.5C 207.5,139.5 218.5,139.5 229.5,139.5C 229.5,128.5 229.5,117.5 229.5,106.5C 230.495,117.654 230.828,128.988 230.5,140.5C 218.833,140.5 207.167,140.5 195.5,140.5C 195.172,128.988 195.505,117.654 196.5,106.5 Z"/></g>
<g><path style="opacity:1" fill="#f0f2f1" d="M 196.5,106.5 C 207.5,106.5 218.5,106.5 229.5,106.5C 229.5,117.5 229.5,128.5 229.5,139.5C 218.5,139.5 207.5,139.5 196.5,139.5C 196.5,128.5 196.5,117.5 196.5,106.5 Z"/></g>
<g><path style="opacity:0.989" fill="#d8eaf8" d="M 383.5,144.5 C 411.94,151.027 440.273,158.027 468.5,165.5C 469.5,273.498 469.833,381.498 469.5,489.5C 452.167,489.5 434.833,489.5 417.5,489.5C 417.5,464.167 417.5,438.833 417.5,413.5C 406.346,412.505 395.012,412.172 383.5,412.5C 383.5,323.167 383.5,233.833 383.5,144.5 Z"/></g>
<g><path style="opacity:1" fill="#f0f2f1" d="M 110.5,174.5 C 121.833,174.5 133.167,174.5 144.5,174.5C 144.5,185.833 144.5,197.167 144.5,208.5C 133.167,208.5 121.833,208.5 110.5,208.5C 110.5,197.167 110.5,185.833 110.5,174.5 Z"/></g>
<g><path style="opacity:1" fill="#eff0f1" d="M 195.5,174.5 C 206.833,174.5 218.167,174.5 229.5,174.5C 229.5,185.833 229.5,197.167 229.5,208.5C 218.167,208.5 206.833,208.5 195.5,208.5C 195.5,197.167 195.5,185.833 195.5,174.5 Z"/></g>
<g><path style="opacity:1" fill="#2488ff" d="M 332.5,191.5 C 343.833,191.5 355.167,191.5 366.5,191.5C 366.5,202.833 366.5,214.167 366.5,225.5C 355.167,225.5 343.833,225.5 332.5,225.5C 332.5,214.167 332.5,202.833 332.5,191.5 Z"/></g>
<g><path style="opacity:1" fill="#2488ff" d="M 400.5,191.5 C 411.833,191.5 423.167,191.5 434.5,191.5C 434.5,202.833 434.5,214.167 434.5,225.5C 423.167,225.5 411.833,225.5 400.5,225.5C 400.5,214.167 400.5,202.833 400.5,191.5 Z"/></g>
<g><path style="opacity:1" fill="#eff1f1" d="M 110.5,242.5 C 121.833,242.5 133.167,242.5 144.5,242.5C 144.5,253.833 144.5,265.167 144.5,276.5C 133.167,276.5 121.833,276.5 110.5,276.5C 110.5,265.167 110.5,253.833 110.5,242.5 Z"/></g>
<g><path style="opacity:1" fill="#9bb6d9" d="M 229.5,276.5 C 218.346,277.495 207.012,277.828 195.5,277.5C 195.5,265.833 195.5,254.167 195.5,242.5C 207.167,242.5 218.833,242.5 230.5,242.5C 230.828,254.012 230.495,265.346 229.5,276.5 Z"/></g>
<g><path style="opacity:1" fill="#f0f2f1" d="M 229.5,276.5 C 218.5,276.5 207.5,276.5 196.5,276.5C 196.5,265.5 196.5,254.5 196.5,243.5C 207.5,243.5 218.5,243.5 229.5,243.5C 229.5,254.5 229.5,265.5 229.5,276.5 Z"/></g>
<g><path style="opacity:1" fill="#2688fe" d="M 332.5,259.5 C 343.833,259.5 355.167,259.5 366.5,259.5C 366.5,270.833 366.5,282.167 366.5,293.5C 355.167,293.5 343.833,293.5 332.5,293.5C 332.5,282.167 332.5,270.833 332.5,259.5 Z"/></g>
<g><path style="opacity:1" fill="#2688fe" d="M 400.5,259.5 C 411.833,259.5 423.167,259.5 434.5,259.5C 434.5,270.833 434.5,282.167 434.5,293.5C 423.167,293.5 411.833,293.5 400.5,293.5C 400.5,282.167 400.5,270.833 400.5,259.5 Z"/></g>
<g><path style="opacity:1" fill="#ebedf0" d="M 110.5,310.5 C 121.833,310.5 133.167,310.5 144.5,310.5C 144.5,322.167 144.5,333.833 144.5,345.5C 133.167,345.5 121.833,345.5 110.5,345.5C 110.5,333.833 110.5,322.167 110.5,310.5 Z"/></g>
<g><path style="opacity:1" fill="#f0f2f1" d="M 196.5,311.5 C 207.5,311.5 218.5,311.5 229.5,311.5C 229.5,322.5 229.5,333.5 229.5,344.5C 229.5,333.5 229.5,322.5 229.5,311.5C 218.5,311.5 207.5,311.5 196.5,311.5 Z"/></g>
<g><path style="opacity:1" fill="#769fcf" d="M 195.5,311.5 C 206.988,310.505 218.655,310.172 230.5,310.5C 230.828,322.345 230.495,334.012 229.5,345.5C 229.5,345.167 229.5,344.833 229.5,344.5C 229.5,333.5 229.5,322.5 229.5,311.5C 218.5,311.5 207.5,311.5 196.5,311.5C 196.167,311.5 195.833,311.5 195.5,311.5 Z"/></g>
<g><path style="opacity:1" fill="#2789fe" d="M 332.5,328.5 C 343.833,328.5 355.167,328.5 366.5,328.5C 366.5,339.833 366.5,351.167 366.5,362.5C 355.167,362.5 343.833,362.5 332.5,362.5C 332.5,351.167 332.5,339.833 332.5,328.5 Z"/></g>
<g><path style="opacity:1" fill="#2789fe" d="M 400.5,328.5 C 411.833,328.5 423.167,328.5 434.5,328.5C 434.5,339.833 434.5,351.167 434.5,362.5C 423.167,362.5 411.833,362.5 400.5,362.5C 400.5,351.167 400.5,339.833 400.5,328.5 Z"/></g>
<g><path style="opacity:1" fill="#a4bddb" d="M 195.5,311.5 C 195.833,311.5 196.167,311.5 196.5,311.5C 196.5,322.5 196.5,333.5 196.5,344.5C 207.5,344.5 218.5,344.5 229.5,344.5C 229.5,344.833 229.5,345.167 229.5,345.5C 218.167,345.5 206.833,345.5 195.5,345.5C 195.5,334.167 195.5,322.833 195.5,311.5 Z"/></g>
<g><path style="opacity:1" fill="#6c6e71" d="M 102.5,396.5 C 125.167,396.5 147.833,396.5 170.5,396.5C 170.5,427.5 170.5,458.5 170.5,489.5C 147.833,489.5 125.167,489.5 102.5,489.5C 102.5,458.5 102.5,427.5 102.5,396.5 Z"/></g>
<g><path style="opacity:1" fill="#929498" d="M 170.5,396.5 C 193.167,396.5 215.833,396.5 238.5,396.5C 238.5,427.5 238.5,458.5 238.5,489.5C 215.833,489.5 193.167,489.5 170.5,489.5C 170.5,458.5 170.5,427.5 170.5,396.5 Z"/></g>
<g><path style="opacity:1" fill="#929597" d="M 383.5,413.5 C 383.5,438.833 383.5,464.167 383.5,489.5C 372.167,489.5 360.833,489.5 349.5,489.5C 349.5,464.167 349.5,438.833 349.5,413.5C 360.833,413.5 372.167,413.5 383.5,413.5 Z"/></g>
<g><path style="opacity:1" fill="#a6a8aa" d="M 383.5,413.5 C 394.833,413.5 406.167,413.5 417.5,413.5C 417.5,438.833 417.5,464.167 417.5,489.5C 406.167,489.5 394.833,489.5 383.5,489.5C 383.5,464.167 383.5,438.833 383.5,413.5 Z"/></g>
<g><path style="opacity:0.978" fill="#203f9a" d="M -0.5,489.5 C 13.5,489.5 27.5,489.5 41.5,489.5C 61.4241,490.487 81.4241,490.821 101.5,490.5C 147.167,490.5 192.833,490.5 238.5,490.5C 258.167,490.5 277.833,490.5 297.5,490.5C 355.002,490.832 412.336,490.499 469.5,489.5C 483.5,489.5 497.5,489.5 511.5,489.5C 511.5,495.5 511.5,501.5 511.5,507.5C 340.833,507.5 170.167,507.5 -0.5,507.5C -0.5,501.5 -0.5,495.5 -0.5,489.5 Z"/></g>
<g><path style="opacity:1" fill="#556486" d="M 101.5,396.5 C 101.833,396.5 102.167,396.5 102.5,396.5C 102.5,427.5 102.5,458.5 102.5,489.5C 125.167,489.5 147.833,489.5 170.5,489.5C 193.167,489.5 215.833,489.5 238.5,489.5C 238.5,489.833 238.5,490.167 238.5,490.5C 192.833,490.5 147.167,490.5 101.5,490.5C 101.5,459.167 101.5,427.833 101.5,396.5 Z"/></g>
</svg>
