<?xml version="1.0" encoding="UTF-8"?>
<!DOCTYPE svg PUBLIC "-//W3C//DTD SVG 1.1//EN" "http://www.w3.org/Graphics/SVG/1.1/DTD/svg11.dtd">
<svg xmlns="http://www.w3.org/2000/svg" version="1.1" width="512px" height="512px" style="shape-rendering:geometricPrecision; text-rendering:geometricPrecision; image-rendering:optimizeQuality; fill-rule:evenodd; clip-rule:evenodd" xmlns:xlink="http://www.w3.org/1999/xlink">
<g><path style="opacity:0.948" fill="#000000" d="M 97.5,-0.5 C 180.167,-0.5 262.833,-0.5 345.5,-0.5C 386.132,40.632 426.965,81.632 468,122.5C 468.333,123.5 468.667,124.5 469,125.5C 469.667,234.833 469.667,344.167 469,453.5C 468.31,456.196 466.81,458.363 464.5,460C 449.17,460.5 433.837,460.667 418.5,460.5C 418.667,474.837 418.5,489.171 418,503.5C 417.549,506.778 416.049,509.444 413.5,511.5C 291.167,511.5 168.833,511.5 46.5,511.5C 44.045,509.86 42.545,507.527 42,504.5C 41.3333,349.833 41.3333,195.167 42,40.5C 42.3917,37.545 43.8917,35.3783 46.5,34C 61.8297,33.5001 77.163,33.3334 92.5,33.5C 92.1048,23.4343 92.6048,13.4343 94,3.5C 95.3756,2.29493 96.5423,0.961599 97.5,-0.5 Z M 110.5,17.5 C 184.167,17.5 257.833,17.5 331.5,17.5C 331.333,54.5015 331.5,91.5015 332,128.5C 332.516,131.034 333.683,133.2 335.5,135C 374.081,136.488 412.748,136.988 451.5,136.5C 451.5,238.5 451.5,340.5 451.5,442.5C 337.833,442.5 224.167,442.5 110.5,442.5C 110.5,300.833 110.5,159.167 110.5,17.5 Z M 349.5,30.5 C 378.965,59.4651 408.299,88.6318 437.5,118C 408.169,118.5 378.835,118.667 349.5,118.5C 349.5,89.1667 349.5,59.8333 349.5,30.5 Z M 59.5,51.5 C 70.5,51.5 81.5,51.5 92.5,51.5C 92.0067,186.543 92.5067,321.543 94,456.5C 95.214,458.049 96.714,459.215 98.5,460C 199.166,460.5 299.833,460.667 400.5,460.5C 400.5,471.5 400.5,482.5 400.5,493.5C 286.833,493.5 173.167,493.5 59.5,493.5C 59.5,346.167 59.5,198.833 59.5,51.5 Z M 162.5,93.5 C 173.5,93.5 184.5,93.5 195.5,93.5C 195.5,104.833 195.5,116.167 195.5,127.5C 184.5,127.5 173.5,127.5 162.5,127.5C 162.5,116.167 162.5,104.833 162.5,93.5 Z"/></g>
<g><path style="opacity:0.945" fill="#000000" d="M 151.5,75.5 C 169.503,75.3334 187.503,75.5001 205.5,76C 209.527,76.427 212.027,78.5936 213,82.5C 213.667,100.833 213.667,119.167 213,137.5C 212.335,142.421 209.502,144.921 204.5,145C 187.167,145.667 169.833,145.667 152.5,145C 149.262,144.768 146.762,143.268 145,140.5C 144.333,120.5 144.333,100.5 145,80.5C 146.805,78.1743 148.972,76.5077 151.5,75.5 Z M 162.5,93.5 C 162.5,104.833 162.5,116.167 162.5,127.5C 173.5,127.5 184.5,127.5 195.5,127.5C 195.5,116.167 195.5,104.833 195.5,93.5C 184.5,93.5 173.5,93.5 162.5,93.5 Z"/></g>
<g><path style="opacity:0.916" fill="#000000" d="M 149.5,161.5 C 157.84,161.334 166.173,161.5 174.5,162C 180.074,166.377 180.741,171.377 176.5,177C 174.913,177.862 173.246,178.529 171.5,179C 163.754,179.896 156.087,179.563 148.5,178C 144.212,174.229 143.379,169.729 146,164.5C 147.145,163.364 148.312,162.364 149.5,161.5 Z"/></g>
<g><path style="opacity:0.943" fill="#000000" d="M 200.5,161.5 C 271.501,161.333 342.501,161.5 413.5,162C 418.426,166.191 419.26,171.024 416,176.5C 414.352,177.717 412.519,178.55 410.5,179C 341.5,179.667 272.5,179.667 203.5,179C 196.809,177.462 194.309,173.295 196,166.5C 197.025,164.313 198.525,162.646 200.5,161.5 Z"/></g>
<g><path style="opacity:0.915" fill="#000000" d="M 149.5,212.5 C 157.507,212.334 165.507,212.5 173.5,213C 178.599,215.904 180.099,220.071 178,225.5C 176.891,227.815 175.057,229.315 172.5,230C 165.167,230.667 157.833,230.667 150.5,230C 144.388,226.753 142.888,221.92 146,215.5C 147.145,214.364 148.312,213.364 149.5,212.5 Z"/></g>
<g><path style="opacity:0.943" fill="#000000" d="M 200.5,212.5 C 271.167,212.333 341.834,212.5 412.5,213C 418.302,216.709 419.469,221.542 416,227.5C 414.581,228.46 413.081,229.293 411.5,230C 341.833,230.667 272.167,230.667 202.5,230C 196.005,228.154 193.838,223.988 196,217.5C 197.366,215.638 198.866,213.972 200.5,212.5 Z"/></g>
<g><path style="opacity:0.913" fill="#000000" d="M 150.5,263.5 C 158.917,263.094 167.251,263.594 175.5,265C 180.811,271.086 180.145,276.42 173.5,281C 165.5,281.667 157.5,281.667 149.5,281C 144.335,277.279 143.168,272.446 146,266.5C 147.652,265.601 149.152,264.601 150.5,263.5 Z"/></g>
<g><path style="opacity:0.943" fill="#000000" d="M 201.5,263.5 C 271.501,263.333 341.501,263.5 411.5,264C 418.042,267.292 419.542,272.125 416,278.5C 415.097,279.701 413.931,280.535 412.5,281C 341.833,281.667 271.167,281.667 200.5,281C 195.847,278.058 194.347,273.891 196,268.5C 197.406,266.256 199.239,264.59 201.5,263.5 Z"/></g>
<g><path style="opacity:0.916" fill="#000000" d="M 151.5,314.5 C 158.175,314.334 164.842,314.5 171.5,315C 178.253,317.248 180.419,321.748 178,328.5C 176.833,329.667 175.667,330.833 174.5,332C 165.398,332.942 156.398,332.609 147.5,331C 144.682,327.662 143.849,323.829 145,319.5C 146.603,316.965 148.769,315.298 151.5,314.5 Z"/></g>
<g><path style="opacity:0.945" fill="#000000" d="M 202.5,314.5 C 271.834,314.333 341.167,314.5 410.5,315C 417.256,317.262 419.423,321.762 417,328.5C 415.786,330.049 414.286,331.215 412.5,332C 341.833,332.667 271.167,332.667 200.5,332C 195.845,329.103 194.345,324.937 196,319.5C 197.805,317.174 199.972,315.508 202.5,314.5 Z"/></g>
<g><path style="opacity:0.92" fill="#000000" d="M 152.5,365.5 C 159.906,365.152 167.239,365.652 174.5,367C 181.167,372.333 181.167,377.667 174.5,383C 165.833,383.667 157.167,383.667 148.5,383C 144.673,379.692 143.506,375.526 145,370.5C 146.913,367.72 149.413,366.053 152.5,365.5 Z"/></g>
<g><path style="opacity:0.944" fill="#000000" d="M 203.5,365.5 C 272.167,365.333 340.834,365.5 409.5,366C 417.061,367.818 419.561,372.318 417,379.5C 415.833,380.667 414.667,381.833 413.5,383C 342.5,383.667 271.5,383.667 200.5,383C 195.931,380.459 194.431,376.625 196,371.5C 197.542,368.108 200.042,366.108 203.5,365.5 Z"/></g>
</svg>
