<?xml version="1.0" encoding="UTF-8"?>
<!DOCTYPE svg PUBLIC "-//W3C//DTD SVG 1.1//EN" "http://www.w3.org/Graphics/SVG/1.1/DTD/svg11.dtd">
<svg xmlns="http://www.w3.org/2000/svg" version="1.1" width="512px" height="512px" style="shape-rendering:geometricPrecision; text-rendering:geometricPrecision; image-rendering:optimizeQuality; fill-rule:evenodd; clip-rule:evenodd" xmlns:xlink="http://www.w3.org/1999/xlink">
<g><path style="opacity:1" fill="#eeecee" d="M 135.5,-0.5 C 214.167,-0.5 292.833,-0.5 371.5,-0.5C 371.333,24.5022 371.5,49.5022 372,74.5C 374.975,83.6488 381.142,88.9821 390.5,90.5C 403.99,91.4957 417.656,91.829 431.5,91.5C 431.667,205.167 431.5,318.834 431,432.5C 427.472,440.535 421.639,445.868 413.5,448.5C 321.833,448.667 230.166,448.5 138.5,448C 129.318,445.317 123.318,439.483 120.5,430.5C 120.833,298.666 120.5,166.999 119.5,35.5C 118.559,26.035 120.059,17.035 124,8.5C 127.161,4.49052 130.994,1.49052 135.5,-0.5 Z"/></g>
<g><path style="opacity:0.996" fill="#b5adb6" d="M 371.5,-0.5 C 371.833,-0.5 372.167,-0.5 372.5,-0.5C 402.167,29.5 431.833,59.5 461.5,89.5C 438.006,90.4976 414.339,90.8309 390.5,90.5C 381.142,88.9821 374.975,83.6488 372,74.5C 371.5,49.5022 371.333,24.5022 371.5,-0.5 Z"/></g>
<g><path style="opacity:0.999" fill="#fdd302" d="M 119.5,35.5 C 120.5,166.999 120.833,298.666 120.5,430.5C 120.144,438.238 120.644,445.905 122,453.5C 125.684,460.762 131.518,465.262 139.5,467C 235.166,467.5 330.833,467.667 426.5,467.5C 424.54,474.629 420.207,479.796 413.5,483C 406.254,484.391 398.921,484.891 391.5,484.5C 294.833,484.667 198.166,484.5 101.5,484C 93.6817,481.348 88.3484,476.181 85.5,468.5C 84.8366,333.039 84.17,197.706 83.5,62.5C 82.7684,49.4444 88.435,40.6111 100.5,36C 106.825,35.5005 113.158,35.3338 119.5,35.5 Z"/></g>
<g><path style="opacity:0.983" fill="#8ac8fd" d="M 83.5,62.5 C 84.17,197.706 84.8366,333.039 85.5,468.5C 83.5084,476.826 84.6751,484.826 89,492.5C 92.4281,496.268 96.5948,498.768 101.5,500C 196.833,500.5 292.166,500.667 387.5,500.5C 384.68,505.989 380.346,509.656 374.5,511.5C 270.833,511.5 167.167,511.5 63.5,511.5C 55.2301,507.727 50.0635,501.394 48,492.5C 47.3333,355.5 47.3333,218.5 48,81.5C 49.9857,72.1819 55.4857,66.0152 64.5,63C 70.8246,62.5005 77.1579,62.3338 83.5,62.5 Z"/></g>
<g><path style="opacity:0.977" fill="#d7d0d6" d="M 461.5,89.5 C 462.117,89.6107 462.617,89.944 463,90.5C 463.667,203.5 463.667,316.5 463,429.5C 461.014,438.818 455.514,444.985 446.5,448C 440.175,448.5 433.842,448.666 427.5,448.5C 422.833,448.5 418.167,448.5 413.5,448.5C 421.639,445.868 427.472,440.535 431,432.5C 431.5,318.834 431.667,205.167 431.5,91.5C 417.656,91.829 403.99,91.4957 390.5,90.5C 414.339,90.8309 438.006,90.4976 461.5,89.5 Z"/></g>
<g><path style="opacity:1" fill="#b6afb7" d="M 186.5,158.5 C 256.501,158.333 326.501,158.5 396.5,159C 402.455,161.573 403.955,165.739 401,171.5C 399.829,172.893 398.329,173.727 396.5,174C 326.167,174.667 255.833,174.667 185.5,174C 178.712,168.333 179.046,163.166 186.5,158.5 Z"/></g>
<g><path style="opacity:1" fill="#b5adb6" d="M 184.5,216.5 C 255.834,216.333 327.167,216.5 398.5,217C 403.986,222.081 403.653,226.748 397.5,231C 326.833,231.667 256.167,231.667 185.5,231C 179.205,226.663 178.872,221.829 184.5,216.5 Z"/></g>
<g><path style="opacity:1" fill="#b5adb6" d="M 185.5,273.5 C 256.167,273.333 326.834,273.5 397.5,274C 403.729,278.171 404.062,282.837 398.5,288C 327.167,288.667 255.833,288.667 184.5,288C 179.003,282.683 179.336,277.85 185.5,273.5 Z"/></g>
<g><path style="opacity:1" fill="#fac600" d="M 120.5,430.5 C 123.318,439.483 129.318,445.317 138.5,448C 230.166,448.5 321.833,448.667 413.5,448.5C 418.167,448.5 422.833,448.5 427.5,448.5C 427.705,454.878 427.372,461.211 426.5,467.5C 330.833,467.667 235.166,467.5 139.5,467C 131.518,465.262 125.684,460.762 122,453.5C 120.644,445.905 120.144,438.238 120.5,430.5 Z"/></g>
<g><path style="opacity:1" fill="#60b7fe" d="M 85.5,468.5 C 88.3484,476.181 93.6817,481.348 101.5,484C 198.166,484.5 294.833,484.667 391.5,484.5C 391.648,490.34 390.315,495.673 387.5,500.5C 292.166,500.667 196.833,500.5 101.5,500C 96.5948,498.768 92.4281,496.268 89,492.5C 84.6751,484.826 83.5084,476.826 85.5,468.5 Z"/></g>
</svg>
