<?xml version="1.0" encoding="UTF-8"?>
<!DOCTYPE svg PUBLIC "-//W3C//DTD SVG 1.1//EN" "http://www.w3.org/Graphics/SVG/1.1/DTD/svg11.dtd">
<svg xmlns="http://www.w3.org/2000/svg" version="1.1" width="512px" height="512px" style="shape-rendering:geometricPrecision; text-rendering:geometricPrecision; image-rendering:optimizeQuality; fill-rule:evenodd; clip-rule:evenodd" xmlns:xlink="http://www.w3.org/1999/xlink">
<g><path style="opacity:0.989" fill="#d34f3d" d="M 328.5,-0.5 C 333.5,-0.5 338.5,-0.5 343.5,-0.5C 352.075,2.78737 360.075,7.1207 367.5,12.5C 357.925,8.31958 348.591,8.81958 339.5,14C 335,17.1667 331.167,21 328,25.5C 321.48,35.224 314.98,44.8907 308.5,54.5C 302.246,50.9181 296.246,46.9181 290.5,42.5C 298.412,31.0194 306.579,19.6861 315,8.5C 318.882,4.42933 323.382,1.42933 328.5,-0.5 Z"/></g>
<g><path style="opacity:0.988" fill="#ee5440" d="M 367.5,12.5 C 385.288,23.8202 402.122,36.4869 418,50.5C 424.97,59.6214 426.636,69.6214 423,80.5C 415.22,93.7495 406.72,106.416 397.5,118.5C 368.009,97.2542 338.342,76.2542 308.5,55.5C 308.5,55.1667 308.5,54.8333 308.5,54.5C 314.98,44.8907 321.48,35.224 328,25.5C 331.167,21 335,17.1667 339.5,14C 348.591,8.81958 357.925,8.31958 367.5,12.5 Z"/></g>
<g><path style="opacity:0.978" fill="#b9bcc8" d="M 290.5,42.5 C 296.246,46.9181 302.246,50.9181 308.5,54.5C 308.5,54.8333 308.5,55.1667 308.5,55.5C 296.481,70.5422 285.148,86.2089 274.5,102.5C 268.833,98.5 263.167,94.5 257.5,90.5C 268.5,74.5 279.5,58.5 290.5,42.5 Z"/></g>
<g><path style="opacity:0.994" fill="#d1d5e3" d="M 308.5,55.5 C 338.342,76.2542 368.009,97.2542 397.5,118.5C 386.852,134.791 375.519,150.458 363.5,165.5C 353.224,157.355 342.557,149.689 331.5,142.5C 318.046,132.6 304.38,122.933 290.5,113.5C 285.167,109.833 279.833,106.167 274.5,102.5C 285.148,86.2089 296.481,70.5422 308.5,55.5 Z"/></g>
<g><path style="opacity:0.983" fill="#f89841" d="M 257.5,90.5 C 263.167,94.5 268.833,98.5 274.5,102.5C 279.833,106.167 285.167,109.833 290.5,113.5C 238.134,187.523 185.801,261.523 133.5,335.5C 129.23,323.901 120.896,318.235 108.5,318.5C 102.311,318.339 96.9773,320.339 92.5,324.5C 146.73,245.94 201.73,167.94 257.5,90.5 Z"/></g>
<g><path style="opacity:1" fill="#fab75f" d="M 290.5,113.5 C 304.38,122.933 318.046,132.6 331.5,142.5C 279.179,216.462 226.846,290.462 174.5,364.5C 172.076,364.808 169.743,364.474 167.5,363.5C 163.081,346.449 152.081,339.115 134.5,341.5C 134.675,339.379 134.341,337.379 133.5,335.5C 185.801,261.523 238.134,187.523 290.5,113.5 Z"/></g>
<g><path style="opacity:0.983" fill="#fecf5c" d="M 331.5,142.5 C 342.557,149.689 353.224,157.355 363.5,165.5C 308.993,245.337 253.326,324.337 196.5,402.5C 202.717,388.781 200.051,377.281 188.5,368C 184.149,365.579 179.483,364.412 174.5,364.5C 226.846,290.462 279.179,216.462 331.5,142.5 Z"/></g>
<g><path style="opacity:1" fill="#c79d78" d="M 108.5,318.5 C 103.516,352.376 99.5156,386.376 96.5,420.5C 96.1667,420.5 95.8333,420.5 95.5,420.5C 90.2566,415.866 84.5899,411.699 78.5,408C 77.7476,407.329 77.4142,406.496 77.5,405.5C 80.0923,380.428 83.259,355.428 87,330.5C 88.331,328.004 90.1644,326.004 92.5,324.5C 96.9773,320.339 102.311,318.339 108.5,318.5 Z"/></g>
<g><path style="opacity:0.994" fill="#e1b085" d="M 108.5,318.5 C 120.896,318.235 129.23,323.901 133.5,335.5C 134.341,337.379 134.675,339.379 134.5,341.5C 152.081,339.115 163.081,346.449 167.5,363.5C 169.743,364.474 172.076,364.808 174.5,364.5C 179.483,364.412 184.149,365.579 188.5,368C 200.051,377.281 202.717,388.781 196.5,402.5C 195.386,405.449 193.386,407.615 190.5,409C 168.807,419.847 147.14,430.68 125.5,441.5C 116.137,434.145 106.47,427.145 96.5,420.5C 99.5156,386.376 103.516,352.376 108.5,318.5 Z"/></g>
<g><path style="opacity:0.999" fill="#3e5562" d="M 77.5,405.5 C 77.4142,406.496 77.7476,407.329 78.5,408C 84.5899,411.699 90.2566,415.866 95.5,420.5C 93.9958,433.201 92.3291,445.868 90.5,458.5C 85.6386,462.813 80.3053,463.48 74.5,460.5C 73.2101,459.942 72.3768,458.942 72,457.5C 72.5334,439.916 74.3667,422.583 77.5,405.5 Z"/></g>
<g><path style="opacity:0.982" fill="#425c6b" d="M 95.5,420.5 C 95.8333,420.5 96.1667,420.5 96.5,420.5C 106.47,427.145 116.137,434.145 125.5,441.5C 121.465,443.848 117.465,446.182 113.5,448.5C 105.727,451.552 98.0606,454.885 90.5,458.5C 92.3291,445.868 93.9958,433.201 95.5,420.5 Z"/></g>
<g><path style="opacity:0.972" fill="#d0d5e3" d="M 113.5,448.5 C 124.838,448.333 136.172,448.5 147.5,449C 154.152,454.285 154.152,459.619 147.5,465C 124.5,465.667 101.5,465.667 78.5,465C 76.249,464.252 74.9156,462.752 74.5,460.5C 80.3053,463.48 85.6386,462.813 90.5,458.5C 98.0606,454.885 105.727,451.552 113.5,448.5 Z"/></g>
<g><path style="opacity:0.98" fill="#d0d6e3" d="M 166.5,448.5 C 256.167,448.333 345.834,448.5 435.5,449C 439.788,452.771 440.621,457.271 438,462.5C 437.097,463.701 435.931,464.535 434.5,465C 345.167,465.667 255.833,465.667 166.5,465C 159.856,459.375 159.856,453.875 166.5,448.5 Z"/></g>
<g><path style="opacity:0.981" fill="#d0d6e3" d="M 435.5,511.5 C 316.167,511.5 196.833,511.5 77.5,511.5C 73.3745,507.464 72.5412,502.797 75,497.5C 75.9025,496.299 77.0692,495.465 78.5,495C 197.167,494.333 315.833,494.333 434.5,495C 439.155,497.897 440.655,502.063 439,507.5C 437.624,508.705 436.458,510.038 435.5,511.5 Z"/></g>
</svg>
