<?xml version="1.0" encoding="UTF-8"?>
<!DOCTYPE svg PUBLIC "-//W3C//DTD SVG 1.1//EN" "http://www.w3.org/Graphics/SVG/1.1/DTD/svg11.dtd">
<svg xmlns="http://www.w3.org/2000/svg" version="1.1" width="512px" height="512px" style="shape-rendering:geometricPrecision; text-rendering:geometricPrecision; image-rendering:optimizeQuality; fill-rule:evenodd; clip-rule:evenodd" xmlns:xlink="http://www.w3.org/1999/xlink">
<g><path style="opacity:0.997" fill="#070d43" d="M 115.5,20.5 C 164.168,20.3333 212.834,20.5 261.5,21C 271.79,24.3926 277.124,31.5592 277.5,42.5C 276.774,52.4493 271.774,59.2827 262.5,63C 217.167,63.3333 171.833,63.6667 126.5,64C 95.6989,66.3143 75.5322,82.1476 66,111.5C 64.974,116.785 64.3073,122.118 64,127.5C 63.3333,212.833 63.3333,298.167 64,383.5C 65.1892,407.72 76.0225,426.22 96.5,439C 105.843,444.114 115.843,446.781 126.5,447C 212.5,447.667 298.5,447.667 384.5,447C 408.314,445.514 426.48,434.681 439,414.5C 444.324,404.859 446.991,394.526 447,383.5C 447.333,338.5 447.667,293.5 448,248.5C 452.439,237.364 460.606,232.531 472.5,234C 481.479,235.647 487.313,240.814 490,249.5C 490.667,298.167 490.667,346.833 490,395.5C 483.679,437.816 460.846,467.316 421.5,484C 413.052,486.945 404.385,488.945 395.5,490C 302.167,490.667 208.833,490.667 115.5,490C 73.1835,483.679 43.6835,460.846 27,421.5C 24.0547,413.052 22.0547,404.385 21,395.5C 20.0168,299.807 20.3501,204.141 22,108.5C 29.7824,71.72 50.6157,45.22 84.5,29C 94.6577,25.0468 104.991,22.2135 115.5,20.5 Z"/></g>
<g><path style="opacity:0.999" fill="#070e44" d="M 386.5,20.5 C 405.469,18.6568 422.469,23.4901 437.5,35C 451.696,48.8621 465.529,63.0287 479,77.5C 495.156,104.523 494.156,130.856 476,156.5C 411.139,221.694 345.973,286.528 280.5,351C 264.441,361.08 246.941,364.913 228,362.5C 195.984,366.322 171.651,354.656 155,327.5C 153.136,322.909 151.47,318.243 150,313.5C 148.416,295.205 148.082,276.872 149,258.5C 150.866,247.105 155.199,236.772 162,227.5C 226.5,163 291,98.5 355.5,34C 364.97,27.2591 375.303,22.7591 386.5,20.5 Z"/></g>
<g><path style="opacity:1" fill="#e43846" d="M 390.5,63.5 C 397.885,62.8455 404.552,64.6788 410.5,69C 420.667,79.1667 430.833,89.3333 441,99.5C 448.373,107.779 449.373,116.779 444,126.5C 437.365,134.136 430.365,141.47 423,148.5C 402.833,128.333 382.667,108.167 362.5,88C 369.167,81.3333 375.833,74.6667 382.5,68C 385.099,66.205 387.766,64.705 390.5,63.5 Z"/></g>
<g><path style="opacity:1" fill="#fabd49" d="M 331.5,118.5 C 351.965,138.465 372.299,158.632 392.5,179C 347.5,224 302.5,269 257.5,314C 253.965,316.767 249.965,318.434 245.5,319C 233.167,319.667 220.833,319.667 208.5,319C 198.761,316.595 193.261,310.429 192,300.5C 191.333,288.167 191.333,275.833 192,263.5C 193.139,259.888 194.806,256.554 197,253.5C 242.035,208.632 286.868,163.632 331.5,118.5 Z"/></g>
</svg>
