<?xml version="1.0" encoding="UTF-8"?>
<!DOCTYPE svg PUBLIC "-//W3C//DTD SVG 1.1//EN" "http://www.w3.org/Graphics/SVG/1.1/DTD/svg11.dtd">
<svg xmlns="http://www.w3.org/2000/svg" version="1.1" width="512px" height="512px" style="shape-rendering:geometricPrecision; text-rendering:geometricPrecision; image-rendering:optimizeQuality; fill-rule:evenodd; clip-rule:evenodd" xmlns:xlink="http://www.w3.org/1999/xlink">
<g><path style="opacity:0.995" fill="#00c5be" d="M 104.5,63.5 C 155.077,131.655 205.411,199.989 255.5,268.5C 217.559,244.553 179.893,220.22 142.5,195.5C 111.919,154.018 81.086,112.684 50,71.5C 49.5172,70.552 49.3505,69.552 49.5,68.5C 53.9305,66.3898 58.5972,64.8898 63.5,64C 77.1626,63.5001 90.8293,63.3334 104.5,63.5 Z"/></g>
<g><path style="opacity:0.999" fill="#00c8bc" d="M 104.5,63.5 C 109.5,63.5 114.5,63.5 119.5,63.5C 168.024,129.895 217.024,195.895 266.5,261.5C 263.35,264.579 259.683,266.913 255.5,268.5C 205.411,199.989 155.077,131.655 104.5,63.5 Z"/></g>
<g><path style="opacity:0.999" fill="#00cbb8" d="M 119.5,63.5 C 142.5,63.5 165.5,63.5 188.5,63.5C 229.691,119.895 271.358,175.895 313.5,231.5C 298.011,241.747 282.344,251.747 266.5,261.5C 217.024,195.895 168.024,129.895 119.5,63.5 Z"/></g>
<g><path style="opacity:0.999" fill="#00ceb5" d="M 188.5,63.5 C 190.5,63.5 192.5,63.5 194.5,63.5C 235.157,118.804 275.824,174.137 316.5,229.5C 315.71,230.401 314.71,231.068 313.5,231.5C 271.358,175.895 229.691,119.895 188.5,63.5 Z"/></g>
<g><path style="opacity:0.998" fill="#00d1b2" d="M 194.5,63.5 C 216.5,63.5 238.5,63.5 260.5,63.5C 294.577,108.904 328.244,154.57 361.5,200.5C 346.67,210.416 331.67,220.083 316.5,229.5C 275.824,174.137 235.157,118.804 194.5,63.5 Z"/></g>
<g><path style="opacity:0.999" fill="#00d5af" d="M 260.5,63.5 C 267.5,63.5 274.5,63.5 281.5,63.5C 312.824,106.137 344.157,148.804 375.5,191.5C 370.833,194.5 366.167,197.5 361.5,200.5C 328.244,154.57 294.577,108.904 260.5,63.5 Z"/></g>
<g><path style="opacity:0.997" fill="#00d8ac" d="M 281.5,63.5 C 298.833,63.5 316.167,63.5 333.5,63.5C 358.913,98.6481 384.58,133.648 410.5,168.5C 399.041,176.402 387.375,184.069 375.5,191.5C 344.157,148.804 312.824,106.137 281.5,63.5 Z"/></g>
<g><path style="opacity:0.998" fill="#00dba9" d="M 333.5,63.5 C 340.833,63.5 348.167,63.5 355.5,63.5C 379.077,94.9888 402.411,126.655 425.5,158.5C 421.053,162.564 416.053,165.898 410.5,168.5C 384.58,133.648 358.913,98.6481 333.5,63.5 Z"/></g>
<g><path style="opacity:0.994" fill="#00dfa5" d="M 355.5,63.5 C 386.168,63.3334 416.835,63.5 447.5,64C 474.148,70.1485 490.148,86.6485 495.5,113.5C 472.45,129.02 449.116,144.02 425.5,158.5C 402.411,126.655 379.077,94.9888 355.5,63.5 Z"/></g>
<g><path style="opacity:0.992" fill="#00c2c2" d="M 49.5,68.5 C 49.3505,69.552 49.5172,70.552 50,71.5C 81.086,112.684 111.919,154.018 142.5,195.5C 133.359,190.094 124.359,184.428 115.5,178.5C 115.649,177.448 115.483,176.448 115,175.5C 89.97,141.65 64.8033,107.983 39.5,74.5C 42.5488,72.1373 45.8822,70.1373 49.5,68.5 Z"/></g>
<g><path style="opacity:0.98" fill="#00bfc4" d="M 39.5,74.5 C 64.8033,107.983 89.97,141.65 115,175.5C 115.483,176.448 115.649,177.448 115.5,178.5C 82.1843,156.859 48.851,135.193 15.5,113.5C 18.6601,97.3774 26.6601,84.3774 39.5,74.5 Z"/></g>
<g><path style="opacity:1" fill="#00b8cb" d="M 33.5,162.5 C 103.58,257.649 173.914,352.649 244.5,447.5C 220.167,447.5 195.833,447.5 171.5,447.5C 119.985,377.135 67.9848,307.135 15.5,237.5C 15.3334,208.498 15.5,179.498 16,150.5C 22.0117,154.363 27.845,158.363 33.5,162.5 Z"/></g>
<g><path style="opacity:0.993" fill="#00dea6" d="M 495.5,251.5 C 478.454,229.12 461.788,206.453 445.5,183.5C 462.021,172.647 478.521,161.647 495,150.5C 495.5,184.165 495.667,217.832 495.5,251.5 Z"/></g>
<g><path style="opacity:0.999" fill="#00bcc8" d="M 33.5,162.5 C 41.5,167.5 49.5,172.5 57.5,177.5C 57.0825,178.222 56.4158,178.722 55.5,179C 122.217,268.292 188.551,357.792 254.5,447.5C 251.167,447.5 247.833,447.5 244.5,447.5C 173.914,352.649 103.58,257.649 33.5,162.5 Z"/></g>
<g><path style="opacity:0.997" fill="#00bec5" d="M 57.5,177.5 C 96.4598,202.474 135.126,227.807 173.5,253.5C 221.142,318.148 268.809,382.815 316.5,447.5C 295.833,447.5 275.167,447.5 254.5,447.5C 188.551,357.792 122.217,268.292 55.5,179C 56.4158,178.722 57.0825,178.222 57.5,177.5 Z"/></g>
<g><path style="opacity:0.997" fill="#00dba9" d="M 445.5,183.5 C 461.788,206.453 478.454,229.12 495.5,251.5C 495.5,261.5 495.5,271.5 495.5,281.5C 473.777,253.08 452.277,224.414 431,195.5C 430.329,194.748 429.496,194.414 428.5,194.5C 433.892,190.447 439.559,186.78 445.5,183.5 Z"/></g>
<g><path style="opacity:0.998" fill="#00d8ac" d="M 428.5,194.5 C 429.496,194.414 430.329,194.748 431,195.5C 452.277,224.414 473.777,253.08 495.5,281.5C 495.5,304.833 495.5,328.167 495.5,351.5C 462.444,307.747 429.611,263.747 397,219.5C 395.89,217.963 394.39,217.297 392.5,217.5C 404.153,209.337 416.153,201.671 428.5,194.5 Z"/></g>
<g><path style="opacity:0.998" fill="#00d5af" d="M 392.5,217.5 C 394.39,217.297 395.89,217.963 397,219.5C 429.611,263.747 462.444,307.747 495.5,351.5C 495.5,360.833 495.5,370.167 495.5,379.5C 457.167,328.167 418.833,276.833 380.5,225.5C 384.205,222.474 388.205,219.808 392.5,217.5 Z"/></g>
<g><path style="opacity:0.997" fill="#00d1b2" d="M 380.5,225.5 C 418.833,276.833 457.167,328.167 495.5,379.5C 498.051,403.712 489.718,423.046 470.5,437.5C 470.291,436.078 469.791,434.745 469,433.5C 424.479,373.765 379.979,314.099 335.5,254.5C 350.226,244.447 365.226,234.78 380.5,225.5 Z"/></g>
<g><path style="opacity:1" fill="#00b5ce" d="M 15.5,237.5 C 67.9848,307.135 119.985,377.135 171.5,447.5C 170.167,447.5 168.833,447.5 167.5,447.5C 117.065,378.95 66.3987,310.617 15.5,242.5C 15.5,240.833 15.5,239.167 15.5,237.5 Z"/></g>
<g><path style="opacity:1" fill="#00b2d1" d="M 15.5,242.5 C 66.3987,310.617 117.065,378.95 167.5,447.5C 142.5,447.5 117.5,447.5 92.5,447.5C 67.5975,412.265 41.9308,377.598 15.5,343.5C 15.5,309.833 15.5,276.167 15.5,242.5 Z"/></g>
<g><path style="opacity:0.996" fill="#00c2c2" d="M 173.5,253.5 C 182.35,258.088 190.684,263.421 198.5,269.5C 198.062,269.435 197.728,269.601 197.5,270C 242.102,328.762 286.102,387.929 329.5,447.5C 325.167,447.5 320.833,447.5 316.5,447.5C 268.809,382.815 221.142,318.148 173.5,253.5 Z"/></g>
<g><path style="opacity:0.996" fill="#00cfb5" d="M 335.5,254.5 C 379.979,314.099 424.479,373.765 469,433.5C 469.791,434.745 470.291,436.078 470.5,437.5C 469.395,438.6 468.062,439.267 466.5,439.5C 422.962,379.115 378.795,319.115 334,259.5C 333.184,258.177 332.017,257.511 330.5,257.5C 331.965,256.263 333.632,255.263 335.5,254.5 Z"/></g>
<g><path style="opacity:0.998" fill="#00cbb8" d="M 330.5,257.5 C 332.017,257.511 333.184,258.177 334,259.5C 378.795,319.115 422.962,379.115 466.5,439.5C 460.839,443.448 454.506,445.948 447.5,447C 433.171,447.5 418.837,447.667 404.5,447.5C 364.423,394.096 324.756,340.43 285.5,286.5C 300.33,276.584 315.33,266.917 330.5,257.5 Z"/></g>
<g><path style="opacity:0.997" fill="#00c4bf" d="M 198.5,269.5 C 215.665,280.478 232.999,291.311 250.5,302C 253.833,302.667 257.167,302.667 260.5,302C 265.555,299.143 270.555,296.309 275.5,293.5C 313.167,344.833 350.833,396.167 388.5,447.5C 368.833,447.5 349.167,447.5 329.5,447.5C 286.102,387.929 242.102,328.762 197.5,270C 197.728,269.601 198.062,269.435 198.5,269.5 Z"/></g>
<g><path style="opacity:0.998" fill="#00c8bc" d="M 285.5,286.5 C 324.756,340.43 364.423,394.096 404.5,447.5C 399.167,447.5 393.833,447.5 388.5,447.5C 350.833,396.167 313.167,344.833 275.5,293.5C 278.446,290.687 281.779,288.354 285.5,286.5 Z"/></g>
<g><path style="opacity:0.987" fill="#00add6" d="M 15.5,343.5 C 41.9308,377.598 67.5975,412.265 92.5,447.5C 65.4899,452.219 43.3232,444.219 26,423.5C 21.0166,416.198 17.6832,408.198 16,399.5C 15.5001,380.836 15.3334,362.17 15.5,343.5 Z"/></g>
</svg>
