<?xml version="1.0" encoding="UTF-8"?>
<!DOCTYPE svg PUBLIC "-//W3C//DTD SVG 1.1//EN" "http://www.w3.org/Graphics/SVG/1.1/DTD/svg11.dtd">
<svg xmlns="http://www.w3.org/2000/svg" version="1.1" width="512px" height="512px" style="shape-rendering:geometricPrecision; text-rendering:geometricPrecision; image-rendering:optimizeQuality; fill-rule:evenodd; clip-rule:evenodd" xmlns:xlink="http://www.w3.org/1999/xlink">
<g><path style="opacity:0.988" fill="#020202" d="M 511.5,350.5 C 511.5,366.167 511.5,381.833 511.5,397.5C 509.986,400.095 507.652,401.429 504.5,401.5C 500.91,401.456 498.41,399.789 497,396.5C 496.667,382.167 496.333,367.833 496,353.5C 492.82,340.987 485.32,332.154 473.5,327C 461.127,322.265 448.794,317.431 436.5,312.5C 430,324.833 423.5,337.167 417,349.5C 411.907,353.075 406.573,353.408 401,350.5C 398.592,354.142 397.925,358.142 399,362.5C 404.544,393.267 409.711,424.1 414.5,455C 414.274,458.012 413.441,460.845 412,463.5C 407.493,468.532 402.993,473.532 398.5,478.5C 397.711,478.783 397.044,479.283 396.5,480C 415.005,480.829 433.338,480.662 451.5,479.5C 451.333,442.498 451.5,405.498 452,368.5C 456.167,362.241 460.833,361.908 466,367.5C 466.483,368.448 466.649,369.448 466.5,370.5C 466.5,407.167 466.5,443.833 466.5,480.5C 476.348,480.827 486.014,480.494 495.5,479.5C 496.332,461.671 496.832,443.671 497,425.5C 498.715,422.603 501.215,421.269 504.5,421.5C 507.453,421.15 509.787,422.15 511.5,424.5C 511.5,444.5 511.5,464.5 511.5,484.5C 509.377,489.454 505.71,492.954 500.5,495C 420.167,495.667 339.833,495.667 259.5,495C 258.128,494.598 256.795,494.098 255.5,493.5C 254.205,494.098 252.872,494.598 251.5,495C 171.167,495.667 90.8333,495.667 10.5,495C 5.28997,492.954 1.62331,489.454 -0.5,484.5C -0.5,439.833 -0.5,395.167 -0.5,350.5C 3.3257,335.825 11.659,324.325 24.5,316C 48.1911,306.104 72.0244,296.604 96,287.5C 96.6667,283.5 96.6667,279.5 96,275.5C 85.3342,266.506 78.5009,255.173 75.5,241.5C 59.2164,237.045 51.7164,226.378 53,209.5C 53.8558,205.456 55.5224,201.789 58,198.5C 55.0575,174.328 60.3909,152.328 74,132.5C 83.4016,121.552 94.9016,113.719 108.5,109C 114.141,107.18 117.808,109.013 119.5,114.5C 119.654,118.025 118.321,120.859 115.5,123C 91.155,131.187 77.3217,148.021 74,173.5C 73.1705,178.864 73.3372,184.198 74.5,189.5C 76.607,187.47 78.607,185.303 80.5,183C 82.4357,182.187 84.4357,181.687 86.5,181.5C 111.176,182.659 133.842,176.492 154.5,163C 159.275,161.841 163.608,162.674 167.5,165.5C 171.485,169.985 175.651,174.318 180,178.5C 183.095,181.692 185.428,185.359 187,189.5C 190.1,156.183 175.934,134.016 144.5,123C 141.71,121.254 140.043,118.754 139.5,115.5C 139.5,115.167 139.5,114.833 139.5,114.5C 140.269,110.067 142.936,107.734 147.5,107.5C 158.109,110.305 167.776,114.972 176.5,121.5C 177.462,116.777 179.295,112.443 182,108.5C 182.333,98.8333 182.667,89.1667 183,79.5C 188.42,47.0781 206.92,26.2448 238.5,17C 279.746,11.0319 308.246,27.1986 324,65.5C 326.848,79.6751 328.181,94.0085 328,108.5C 331.049,112.647 332.716,117.313 333,122.5C 363.689,100.06 394.522,99.8929 425.5,122C 438.167,133.165 446.333,146.999 450,163.5C 451.194,175.125 451.861,186.792 452,198.5C 462.13,219.27 456.297,233.603 434.5,241.5C 431.586,254.668 425.086,265.668 415,274.5C 414.333,278.833 414.333,283.167 415,287.5C 438.976,296.604 462.809,306.104 486.5,316C 499.341,324.325 507.674,335.825 511.5,350.5 Z M 197.5,149.5 C 198.458,149.953 199.292,150.619 200,151.5C 202.858,164.895 209.524,175.895 220,184.5C 220.828,188.871 220.661,193.205 219.5,197.5C 215.088,198.97 210.755,200.637 206.5,202.5C 204.854,201.221 203.687,199.555 203,197.5C 202.667,187.167 202.333,176.833 202,166.5C 200.964,160.69 199.464,155.023 197.5,149.5 Z M 311.5,149.5 C 312.043,149.56 312.376,149.893 312.5,150.5C 309.203,158.147 307.37,166.147 307,174.5C 306.667,182.833 306.333,191.167 306,199.5C 305.581,200.672 304.915,201.672 304,202.5C 299.81,200.936 295.644,199.269 291.5,197.5C 290.338,192.869 290.172,188.202 291,183.5C 301.188,174.114 308.021,162.781 311.5,149.5 Z"/></g>
<g><path style="opacity:1" fill="#6f7386" d="M 227.5,90.5 C 221.833,90.5 216.167,90.5 210.5,90.5C 209.849,74.2874 214.682,59.954 225,47.5C 230.109,42.2205 235.276,37.2205 240.5,32.5C 272.935,27.1331 295.768,39.4665 309,69.5C 311.406,79.0275 312.073,88.6942 311,98.5C 305.7,89.1867 298.866,81.0201 290.5,74C 288.134,72.767 285.634,71.9336 283,71.5C 273.419,76.3708 263.586,80.8708 253.5,85C 245.058,87.983 236.391,89.8163 227.5,90.5 Z"/></g>
<g><path style="opacity:1" fill="#585a6b" d="M 240.5,32.5 C 235.276,37.2205 230.109,42.2205 225,47.5C 214.682,59.954 209.849,74.2874 210.5,90.5C 216.167,90.5 221.833,90.5 227.5,90.5C 220.679,91.3285 213.679,91.8285 206.5,92C 203.663,93.6721 201.33,95.8387 199.5,98.5C 195.488,74.0288 203.488,54.5288 223.5,40C 228.923,36.9555 234.589,34.4555 240.5,32.5 Z"/></g>
<g><path style="opacity:1" fill="#eea378" d="M 244.5,179.5 C 236.181,171.866 230.681,162.533 228,151.5C 226.601,136.21 226.101,120.877 226.5,105.5C 246.649,104.117 265.315,98.1171 282.5,87.5C 286.658,91.7912 290.824,96.1246 295,100.5C 295.667,115.833 295.667,131.167 295,146.5C 288.055,172.609 271.222,183.609 244.5,179.5 Z"/></g>
<g><path style="opacity:1" fill="#e0946d" d="M 226.5,105.5 C 226.101,120.877 226.601,136.21 228,151.5C 230.681,162.533 236.181,171.866 244.5,179.5C 229.449,174.616 219.616,164.616 215,149.5C 214.5,134.837 214.333,120.17 214.5,105.5C 218.5,105.5 222.5,105.5 226.5,105.5 Z"/></g>
<g><path style="opacity:1" fill="#dd926c" d="M 310.5,114.5 C 317.907,118.421 319.407,124.087 315,131.5C 313.915,132.293 312.748,132.96 311.5,133.5C 310.504,127.202 310.17,120.868 310.5,114.5 Z"/></g>
<g><path style="opacity:1" fill="#6f7386" d="M 139.5,115.5 C 140.043,118.754 141.71,121.254 144.5,123C 175.934,134.016 190.1,156.183 187,189.5C 185.428,185.359 183.095,181.692 180,178.5C 175.651,174.318 171.485,169.985 167.5,165.5C 163.608,162.674 159.275,161.841 154.5,163C 133.842,176.492 111.176,182.659 86.5,181.5C 87.3202,148.517 103.32,126.683 134.5,116C 136.134,115.506 137.801,115.34 139.5,115.5 Z"/></g>
<g><path style="opacity:1" fill="#da906a" d="M 198.5,114.5 C 199.654,120.987 199.821,127.654 199,134.5C 192.724,130.67 191.057,125.336 194,118.5C 195.397,116.93 196.897,115.596 198.5,114.5 Z"/></g>
<g><path style="opacity:1" fill="#6f7386" d="M 334.5,181.5 C 335.006,156.145 345.672,136.478 366.5,122.5C 401.663,118.156 424.496,132.822 435,166.5C 435.667,173.833 435.667,181.167 435,188.5C 434.439,186.275 433.439,184.275 432,182.5C 426.847,176.38 421.347,170.547 415.5,165C 410.686,162.107 405.686,161.774 400.5,164C 380.383,176.697 358.383,182.53 334.5,181.5 Z"/></g>
<g><path style="opacity:1" fill="#595b6c" d="M 139.5,114.5 C 139.5,114.833 139.5,115.167 139.5,115.5C 137.801,115.34 136.134,115.506 134.5,116C 103.32,126.683 87.3202,148.517 86.5,181.5C 84.4357,181.687 82.4357,182.187 80.5,183C 78.607,185.303 76.607,187.47 74.5,189.5C 73.3372,184.198 73.1705,178.864 74,173.5C 77.3217,148.021 91.155,131.187 115.5,123C 118.321,120.859 119.654,118.025 119.5,114.5C 126.187,113.259 132.854,113.259 139.5,114.5 Z"/></g>
<g><path style="opacity:1" fill="#595b6c" d="M 366.5,122.5 C 345.672,136.478 335.006,156.145 334.5,181.5C 332.692,181.491 331.025,181.991 329.5,183C 327.288,185.043 325.288,187.209 323.5,189.5C 319.671,155.358 334.004,133.024 366.5,122.5 Z"/></g>
<g><path style="opacity:1" fill="#eea278" d="M 120.5,269.5 C 111.633,261.783 105.8,252.117 103,240.5C 102.5,225.837 102.333,211.17 102.5,196.5C 104.735,196.795 106.735,196.461 108.5,195.5C 126.145,193.119 142.645,187.452 158,178.5C 162.663,181.996 166.829,185.996 170.5,190.5C 171.666,205.155 171.833,219.822 171,234.5C 167.305,256.933 154.138,269.266 131.5,271.5C 127.572,271.546 123.905,270.88 120.5,269.5 Z"/></g>
<g><path style="opacity:1" fill="#eea378" d="M 370.5,270.5 C 361.102,263.388 354.935,254.055 352,242.5C 350.663,227.2 350.163,211.867 350.5,196.5C 370.501,194.222 389.334,188.222 407,178.5C 410.934,182.434 414.934,186.434 419,190.5C 419.667,205.5 419.667,220.5 419,235.5C 415.833,256 404,267.833 383.5,271C 379.113,271.706 374.78,271.54 370.5,270.5 Z"/></g>
<g><path style="opacity:1" fill="#e99e74" d="M 273.5,192.5 C 274.638,195.304 274.805,198.304 274,201.5C 267.992,209.005 261.825,216.338 255.5,223.5C 249.175,216.338 243.008,209.005 237,201.5C 236.503,198.854 236.336,196.187 236.5,193.5C 246.406,195.42 256.406,195.92 266.5,195C 268.927,194.098 271.26,193.264 273.5,192.5 Z"/></g>
<g><path style="opacity:1" fill="#e1956e" d="M 108.5,195.5 C 106.735,196.461 104.735,196.795 102.5,196.5C 102.333,211.17 102.5,225.837 103,240.5C 105.8,252.117 111.633,261.783 120.5,269.5C 105.271,265.438 95.4373,255.772 91,240.5C 90.5001,225.837 90.3334,211.17 90.5,196.5C 96.509,196.299 102.509,195.966 108.5,195.5 Z"/></g>
<g><path style="opacity:1" fill="#e0946e" d="M 350.5,196.5 C 350.163,211.867 350.663,227.2 352,242.5C 354.935,254.055 361.102,263.388 370.5,270.5C 351.897,265.646 341.397,253.646 339,234.5C 338.5,221.838 338.333,209.171 338.5,196.5C 342.5,196.5 346.5,196.5 350.5,196.5 Z"/></g>
<g><path style="opacity:1" fill="#5e3e2e" d="M 187.5,205.5 C 186.51,211.645 186.177,217.978 186.5,224.5C 185.182,217.989 185.182,211.322 186.5,204.5C 187.107,204.624 187.44,204.957 187.5,205.5 Z"/></g>
<g><path style="opacity:1" fill="#d78d69" d="M 187.5,205.5 C 193.896,209.5 195.063,214.833 191,221.5C 189.729,222.883 188.229,223.883 186.5,224.5C 186.177,217.978 186.51,211.645 187.5,205.5 Z"/></g>
<g><path style="opacity:1" fill="#dd916c" d="M 321.5,205.5 C 322.818,208.258 323.485,211.424 323.5,215C 323.333,218.167 323.167,221.333 323,224.5C 314.928,218.816 314.428,212.483 321.5,205.5 Z"/></g>
<g><path style="opacity:1" fill="#db906b" d="M 434.5,204.5 C 441.448,207.956 443.281,213.289 440,220.5C 438.649,222.019 437.149,223.352 435.5,224.5C 434.503,217.866 434.17,211.2 434.5,204.5 Z"/></g>
<g><path style="opacity:1" fill="#d48c67" d="M 74.5,204.5 C 75.8181,211.011 75.8181,217.678 74.5,224.5C 68.4926,220.482 66.9926,215.148 70,208.5C 71.3968,206.93 72.8968,205.596 74.5,204.5 Z"/></g>
<g><path style="opacity:1" fill="#d3d7df" d="M 224.5,211.5 C 226.017,211.511 227.184,212.177 228,213.5C 233.5,220.333 239,227.167 244.5,234C 239.343,238.078 234.01,241.912 228.5,245.5C 223.404,236.145 218.404,226.645 213.5,217C 217.227,215.136 220.894,213.303 224.5,211.5 Z"/></g>
<g><path style="opacity:1" fill="#d4d8e1" d="M 284.5,211.5 C 288.845,213.229 293.178,215.062 297.5,217C 292.627,226.579 287.627,236.079 282.5,245.5C 276.99,241.912 271.657,238.078 266.5,234C 272.714,226.625 278.714,219.125 284.5,211.5 Z"/></g>
<g><path style="opacity:1" fill="#e1e7f5" d="M 202.5,230.5 C 207.813,239.12 212.647,248.12 217,257.5C 221.822,262.897 227.489,263.897 234,260.5C 235.538,261.705 236.705,263.205 237.5,265C 235.091,280.957 232.091,296.791 228.5,312.5C 207.912,304.304 187.245,296.304 166.5,288.5C 165.338,283.533 165.171,278.533 166,273.5C 176.472,264.995 182.806,253.995 185,240.5C 192.233,239.49 198.066,236.157 202.5,230.5 Z"/></g>
<g><path style="opacity:1" fill="#e1e7f5" d="M 306.5,231.5 C 309.268,233.087 311.935,234.92 314.5,237C 318.07,238.5 321.57,240 325,241.5C 327.349,255.213 334.016,266.213 345,274.5C 345.499,279.155 345.666,283.821 345.5,288.5C 324.379,296.097 303.379,304.097 282.5,312.5C 278.914,296.824 275.914,280.991 273.5,265C 274.407,261.146 276.407,260.146 279.5,262C 285.322,263.503 290.155,262.003 294,257.5C 298.451,248.933 302.617,240.267 306.5,231.5 Z"/></g>
<g><path style="opacity:1" fill="#d72c2c" d="M 254.5,245.5 C 257.689,246.514 260.522,248.18 263,250.5C 263.711,252.367 263.211,253.867 261.5,255C 257.5,255.667 253.5,255.667 249.5,255C 247.789,253.867 247.289,252.367 248,250.5C 250.326,248.934 252.492,247.268 254.5,245.5 Z"/></g>
<g><path style="opacity:1" fill="#e53838" d="M 262.5,289.5 C 261.778,289.082 261.278,288.416 261,287.5C 258.624,301.999 256.124,316.333 253.5,330.5C 250.737,327.178 247.57,324.178 244,321.5C 245.627,304.401 248.127,287.401 251.5,270.5C 254.167,270.5 256.833,270.5 259.5,270.5C 260.608,276.814 261.608,283.147 262.5,289.5 Z"/></g>
<g><path style="opacity:1" fill="#e89e74" d="M 149.5,282.5 C 150.638,285.304 150.805,288.304 150,291.5C 143.992,299.005 137.825,306.338 131.5,313.5C 124.842,306.005 118.342,298.338 112,290.5C 111.503,288.19 111.337,285.857 111.5,283.5C 124.405,287.623 137.072,287.289 149.5,282.5 Z"/></g>
<g><path style="opacity:1" fill="#e99e75" d="M 397.5,283.5 C 398.468,285.607 398.802,287.941 398.5,290.5C 392.537,298.464 386.204,306.13 379.5,313.5C 373.175,306.338 367.008,299.005 361,291.5C 360.503,288.854 360.336,286.187 360.5,283.5C 366.762,284.885 373.095,285.885 379.5,286.5C 385.596,286.014 391.596,285.014 397.5,283.5 Z"/></g>
<g><path style="opacity:1" fill="#825942" d="M 397.5,283.5 C 397.56,282.957 397.893,282.624 398.5,282.5C 399.8,285.309 399.8,287.976 398.5,290.5C 398.802,287.941 398.468,285.607 397.5,283.5 Z"/></g>
<g><path style="opacity:1" fill="#f44c4c" d="M 262.5,289.5 C 264.982,300.054 266.482,310.721 267,321.5C 265.292,323.543 263.292,325.21 261,326.5C 259.5,328.667 258,330.833 256.5,333C 254.511,333.519 253.511,332.686 253.5,330.5C 256.124,316.333 258.624,301.999 261,287.5C 261.278,288.416 261.778,289.082 262.5,289.5 Z"/></g>
<g><path style="opacity:1" fill="#d4d8e1" d="M 159.5,302.5 C 164.427,303.082 168.76,304.915 172.5,308C 168.298,317.574 163.465,326.741 158,335.5C 152.404,332.398 147.237,328.732 142.5,324.5C 148.191,317.148 153.857,309.815 159.5,302.5 Z"/></g>
<g><path style="opacity:1" fill="#d3d7e0" d="M 347.5,302.5 C 349.144,302.286 350.644,302.62 352,303.5C 357.5,310.5 363,317.5 368.5,324.5C 363.473,328.853 358.14,332.853 352.5,336.5C 347.702,327.07 343.035,317.57 338.5,308C 338.645,307.228 338.978,306.561 339.5,306C 342.476,305.295 345.142,304.129 347.5,302.5 Z"/></g>
<g><path style="opacity:1" fill="#d4d7e0" d="M 408.5,302.5 C 413.066,303.577 417.4,305.244 421.5,307.5C 416.667,317.167 411.833,326.833 407,336.5C 401.279,332.907 396.112,328.74 391.5,324C 397.291,316.912 402.957,309.745 408.5,302.5 Z"/></g>
<g><path style="opacity:1" fill="#d3d7e0" d="M 99.5,302.5 C 102.263,302.744 104.429,304.077 106,306.5C 110.692,312.359 115.192,318.359 119.5,324.5C 114.643,328.852 109.477,332.852 104,336.5C 99.2868,326.906 94.4534,317.406 89.5,308C 92.5174,305.502 95.8507,303.669 99.5,302.5 Z"/></g>
<g><path style="opacity:1" fill="#e3e9f7" d="M 112.5,478.5 C 95.0079,479.497 77.3412,479.83 59.5,479.5C 59.6667,442.498 59.5,405.498 59,368.5C 54.7481,362.347 50.0814,362.014 45,367.5C 44.5172,368.448 44.3505,369.448 44.5,370.5C 43.5016,406.663 43.1682,442.996 43.5,479.5C 37.8333,479.5 32.1667,479.5 26.5,479.5C 26.3333,434.499 26.5,389.499 27,344.5C 28.1537,339.201 29.9871,334.201 32.5,329.5C 46.311,323.45 60.311,317.783 74.5,312.5C 81,324.833 87.5,337.167 94,349.5C 94.9025,350.701 96.0692,351.535 97.5,352C 101.9,352.978 106.067,352.478 110,350.5C 112.408,354.142 113.075,358.142 112,362.5C 106.74,392.986 101.573,423.486 96.5,454C 96.5166,457.383 97.3499,460.55 99,463.5C 103.337,468.669 107.837,473.669 112.5,478.5 Z"/></g>
<g><path style="opacity:1" fill="#e1e7f5" d="M 203.5,370.5 C 202.502,406.663 202.168,442.996 202.5,479.5C 184.833,479.5 167.167,479.5 149.5,479.5C 154.123,473.706 158.956,468.039 164,462.5C 165.047,459.961 165.547,457.295 165.5,454.5C 160.324,420.782 155.157,387.116 150,353.5C 151.182,350.29 153.015,349.79 155.5,352C 161.378,353.653 166.212,352.153 170,347.5C 175.745,335.677 181.745,324.01 188,312.5C 203.02,318.261 217.854,324.428 232.5,331C 240.91,337.435 246.076,345.935 248,356.5C 248.667,397.5 248.667,438.5 248,479.5C 238.25,480.486 228.416,480.819 218.5,480.5C 218.667,443.165 218.5,405.832 218,368.5C 213.748,362.347 209.081,362.014 204,367.5C 203.517,368.448 203.351,369.448 203.5,370.5 Z"/></g>
<g><path style="opacity:1" fill="#e3e9f7" d="M 361.5,479.5 C 343.833,479.5 326.167,479.5 308.5,479.5C 308.832,442.996 308.498,406.663 307.5,370.5C 306.24,364.425 302.573,362.259 296.5,364C 294.951,365.214 293.785,366.714 293,368.5C 292.5,405.498 292.333,442.498 292.5,479.5C 286.833,479.5 281.167,479.5 275.5,479.5C 275.333,434.499 275.5,389.499 276,344.5C 276.406,339.45 277.906,334.783 280.5,330.5C 281.987,329.196 283.654,328.03 285.5,327C 297.873,322.265 310.206,317.431 322.5,312.5C 329.16,323.816 335.326,335.482 341,347.5C 345.934,352.984 351.768,353.984 358.5,350.5C 359.333,351.5 360.167,352.5 361,353.5C 355.949,386.808 350.783,420.141 345.5,453.5C 345.435,456.625 345.935,459.625 347,462.5C 352.044,468.039 356.877,473.706 361.5,479.5 Z"/></g>
<g><path style="opacity:0.999" fill="#e3e9f7" d="M 504.5,401.5 C 504.5,408.167 504.5,414.833 504.5,421.5C 501.215,421.269 498.715,422.603 497,425.5C 496.832,443.671 496.332,461.671 495.5,479.5C 486.167,479.5 476.833,479.5 467.5,479.5C 467.832,442.996 467.498,406.663 466.5,370.5C 466.649,369.448 466.483,368.448 466,367.5C 460.833,361.908 456.167,362.241 452,368.5C 451.5,405.498 451.333,442.498 451.5,479.5C 433.659,479.83 415.992,479.497 398.5,478.5C 402.993,473.532 407.493,468.532 412,463.5C 413.441,460.845 414.274,458.012 414.5,455C 409.711,424.1 404.544,393.267 399,362.5C 397.925,358.142 398.592,354.142 401,350.5C 406.573,353.408 411.907,353.075 417,349.5C 423.5,337.167 430,324.833 436.5,312.5C 448.794,317.431 461.127,322.265 473.5,327C 485.32,332.154 492.82,340.987 496,353.5C 496.333,367.833 496.667,382.167 497,396.5C 498.41,399.789 500.91,401.456 504.5,401.5 Z"/></g>
<g><path style="opacity:1" fill="#d7dbe4" d="M 32.5,329.5 C 29.9871,334.201 28.1537,339.201 27,344.5C 26.5,389.499 26.3333,434.499 26.5,479.5C 22.5,479.5 18.5,479.5 14.5,479.5C 14.3333,437.499 14.5,395.499 15,353.5C 17.9969,343.35 23.8302,335.35 32.5,329.5 Z"/></g>
<g><path style="opacity:1" fill="#cfd3dc" d="M 280.5,330.5 C 277.906,334.783 276.406,339.45 276,344.5C 275.5,389.499 275.333,434.499 275.5,479.5C 281.167,479.5 286.833,479.5 292.5,479.5C 282.765,480.829 272.931,480.829 263,479.5C 262.333,438.5 262.333,397.5 263,356.5C 265.123,345.23 270.957,336.563 280.5,330.5 Z"/></g>
<g><path style="opacity:1" fill="#d62b2b" d="M 130.5,335.5 C 133.825,337.168 136.825,339.334 139.5,342C 139.241,343.261 138.574,344.261 137.5,345C 132.913,345.799 128.413,345.632 124,344.5C 123.626,343.584 123.126,342.75 122.5,342C 125.355,339.969 128.022,337.803 130.5,335.5 Z"/></g>
<g><path style="opacity:1" fill="#d72c2c" d="M 378.5,335.5 C 382.202,337.024 385.536,339.19 388.5,342C 387.833,343 387.167,344 386.5,345C 382.167,345.667 377.833,345.667 373.5,345C 371.579,343.759 371.246,342.259 372.5,340.5C 374.941,339.291 376.941,337.624 378.5,335.5 Z"/></g>
<g><path style="opacity:1" fill="#e63838" d="M 137.5,376.5 C 133.068,402.414 128.402,428.414 123.5,454.5C 123.577,456.299 124.077,457.966 125,459.5C 128.064,464.066 131.898,467.733 136.5,470.5C 134.873,472.63 133.04,474.63 131,476.5C 124.667,469.5 118.333,462.5 112,455.5C 116.511,423.769 121.677,392.102 127.5,360.5C 130.167,360.5 132.833,360.5 135.5,360.5C 136.073,365.847 136.74,371.18 137.5,376.5 Z"/></g>
<g><path style="opacity:1" fill="#e63838" d="M 386.5,377.5 C 385.883,377.611 385.383,377.944 385,378.5C 381.21,403.742 377.043,428.908 372.5,454C 372.494,456.3 372.994,458.466 374,460.5C 377.75,463.744 380.917,467.411 383.5,471.5C 382.969,473.544 381.802,475.211 380,476.5C 373.667,469.833 367.333,463.167 361,456.5C 360.833,455 360.667,453.5 360.5,452C 365.555,421.501 370.555,391.001 375.5,360.5C 378.247,360.187 380.914,360.52 383.5,361.5C 384.686,366.805 385.686,372.139 386.5,377.5 Z"/></g>
<g><path style="opacity:1" fill="#abafba" d="M 44.5,370.5 C 44.5,407.167 44.5,443.833 44.5,480.5C 34.3194,480.827 24.3194,480.494 14.5,479.5C 18.5,479.5 22.5,479.5 26.5,479.5C 32.1667,479.5 37.8333,479.5 43.5,479.5C 43.1682,442.996 43.5016,406.663 44.5,370.5 Z"/></g>
<g><path style="opacity:1" fill="#acb0bb" d="M 203.5,370.5 C 203.5,407.167 203.5,443.833 203.5,480.5C 184.756,480.832 166.756,480.499 149.5,479.5C 167.167,479.5 184.833,479.5 202.5,479.5C 202.168,442.996 202.502,406.663 203.5,370.5 Z"/></g>
<g><path style="opacity:1" fill="#acb0bb" d="M 307.5,370.5 C 308.498,406.663 308.832,442.996 308.5,479.5C 326.167,479.5 343.833,479.5 361.5,479.5C 344.244,480.499 326.244,480.832 307.5,480.5C 307.5,443.833 307.5,407.167 307.5,370.5 Z"/></g>
<g><path style="opacity:1" fill="#abb0bb" d="M 466.5,370.5 C 467.498,406.663 467.832,442.996 467.5,479.5C 476.833,479.5 486.167,479.5 495.5,479.5C 486.014,480.494 476.348,480.827 466.5,480.5C 466.5,443.833 466.5,407.167 466.5,370.5 Z"/></g>
<g><path style="opacity:1" fill="#fa4e4e" d="M 137.5,376.5 C 142.844,402.901 147.01,429.567 150,456.5C 145.269,461.062 140.769,465.729 136.5,470.5C 131.898,467.733 128.064,464.066 125,459.5C 124.077,457.966 123.577,456.299 123.5,454.5C 128.402,428.414 133.068,402.414 137.5,376.5 Z"/></g>
<g><path style="opacity:1" fill="#fa4e4e" d="M 386.5,377.5 C 390.777,402.66 395.11,427.827 399.5,453C 395.474,460.2 390.14,466.367 383.5,471.5C 380.917,467.411 377.75,463.744 374,460.5C 372.994,458.466 372.494,456.3 372.5,454C 377.043,428.908 381.21,403.742 385,378.5C 385.383,377.944 385.883,377.611 386.5,377.5 Z"/></g>
<g><path style="opacity:1" fill="#b1b6c1" d="M 112.5,478.5 C 113.043,478.56 113.376,478.893 113.5,479.5C 95.3378,480.827 77.3378,480.827 59.5,479.5C 77.3412,479.83 95.0079,479.497 112.5,478.5 Z"/></g>
<g><path style="opacity:1" fill="#afb4bf" d="M 398.5,478.5 C 415.992,479.497 433.659,479.83 451.5,479.5C 433.338,480.662 415.005,480.829 396.5,480C 397.044,479.283 397.711,478.783 398.5,478.5 Z"/></g>
</svg>
