<?xml version="1.0" encoding="UTF-8"?>
<!DOCTYPE svg PUBLIC "-//W3C//DTD SVG 1.1//EN" "http://www.w3.org/Graphics/SVG/1.1/DTD/svg11.dtd">
<svg xmlns="http://www.w3.org/2000/svg" version="1.1" width="512px" height="512px" style="shape-rendering:geometricPrecision; text-rendering:geometricPrecision; image-rendering:optimizeQuality; fill-rule:evenodd; clip-rule:evenodd" xmlns:xlink="http://www.w3.org/1999/xlink">
<g><path style="opacity:0.988" fill="#92606f" d="M 205.5,123.5 C 196.5,123.5 187.5,123.5 178.5,123.5C 182.625,136.954 191.625,145.288 205.5,148.5C 197.441,150.852 190.775,155.185 185.5,161.5C 171.767,148.115 166.601,131.781 170,112.5C 168.878,110.376 167.378,108.543 165.5,107C 149.873,107.873 134.206,108.373 118.5,108.5C 105.123,108.633 91.7894,107.966 78.5,106.5C 73.9465,106.207 70.7798,108.207 69,112.5C 68.6667,121.167 68.3333,129.833 68,138.5C 67.3333,140.5 66.6667,142.5 66,144.5C 61.4059,152.583 55.9059,159.916 49.5,166.5C 44.1667,166.5 38.8333,166.5 33.5,166.5C 33.3334,149.163 33.5001,131.83 34,114.5C 40.4155,82.084 59.9155,63.2507 92.5,58C 110.5,57.3333 128.5,57.3333 146.5,58C 176.165,62.3329 195.331,78.8329 204,107.5C 205.191,112.767 205.691,118.101 205.5,123.5 Z"/></g>
<g><path style="opacity:0.99" fill="#92606f" d="M 475.5,166.5 C 470.167,166.5 464.833,166.5 459.5,166.5C 459.886,158.388 459.219,150.388 457.5,142.5C 431.649,141.998 411.815,130.998 398,109.5C 394.042,104.647 389.208,103.48 383.5,106C 369.64,129.438 348.973,141.271 321.5,141.5C 321.5,142.833 321.5,144.167 321.5,145.5C 316.279,139.557 310.279,134.557 303.5,130.5C 301.893,94.9508 317.893,71.4508 351.5,60C 355.114,59.0551 358.781,58.3884 362.5,58C 382.867,57.0871 403.2,57.4204 423.5,59C 451.972,66.4722 469.139,84.6389 475,113.5C 475.5,131.164 475.667,148.83 475.5,166.5 Z"/></g>
<g><path style="opacity:1" fill="#f9c3aa" d="M 459.5,166.5 C 459.5,177.167 459.5,187.833 459.5,198.5C 456.26,225.409 442.26,244.409 417.5,255.5C 398.829,260.833 380.162,260.833 361.5,255.5C 361.158,254.662 360.492,254.328 359.5,254.5C 356.558,243.244 349.225,238.244 337.5,239.5C 337.83,219.66 337.497,199.993 336.5,180.5C 335.013,167.207 330.013,155.54 321.5,145.5C 321.5,144.167 321.5,142.833 321.5,141.5C 348.973,141.271 369.64,129.438 383.5,106C 389.208,103.48 394.042,104.647 398,109.5C 411.815,130.998 431.649,141.998 457.5,142.5C 459.219,150.388 459.886,158.388 459.5,166.5 Z"/></g>
<g><path style="opacity:0.998" fill="#fac3aa" d="M 185.5,161.5 C 181.927,166.65 179.427,172.317 178,178.5C 177.5,195.83 177.333,213.163 177.5,230.5C 174.862,233.474 172.195,236.474 169.5,239.5C 163.813,241.166 159.48,244.499 156.5,249.5C 154.117,251.358 151.45,252.692 148.5,253.5C 129.464,261.463 110.464,261.463 91.5,253.5C 68.0467,243.033 54.3801,225.033 50.5,199.5C 49.5447,188.551 49.2114,177.551 49.5,166.5C 55.9059,159.916 61.4059,152.583 66,144.5C 66.6667,142.5 67.3333,140.5 68,138.5C 68.3333,129.833 68.6667,121.167 69,112.5C 70.7798,108.207 73.9465,106.207 78.5,106.5C 91.7894,107.966 105.123,108.633 118.5,108.5C 134.206,108.373 149.873,107.873 165.5,107C 167.378,108.543 168.878,110.376 170,112.5C 166.601,131.781 171.767,148.115 185.5,161.5 Z"/></g>
<g><path style="opacity:0.999" fill="#403c6a" d="M 205.5,123.5 C 231.502,123.333 257.502,123.5 283.5,124C 290.552,125.073 297.218,127.24 303.5,130.5C 310.279,134.557 316.279,139.557 321.5,145.5C 330.013,155.54 335.013,167.207 336.5,180.5C 336.5,200.167 336.5,219.833 336.5,239.5C 333.5,239.5 330.5,239.5 327.5,239.5C 319.085,231.675 312.918,222.342 309,211.5C 308.667,203.167 308.333,194.833 308,186.5C 306.348,182.093 303.182,179.759 298.5,179.5C 270.655,183.374 242.822,183.374 215,179.5C 211.196,179.969 208.529,181.969 207,185.5C 205.968,195.139 205.301,204.806 205,214.5C 200.141,223.565 194.307,231.899 187.5,239.5C 184.167,239.5 180.833,239.5 177.5,239.5C 177.5,236.5 177.5,233.5 177.5,230.5C 177.333,213.163 177.5,195.83 178,178.5C 179.427,172.317 181.927,166.65 185.5,161.5C 190.775,155.185 197.441,150.852 205.5,148.5C 191.625,145.288 182.625,136.954 178.5,123.5C 187.5,123.5 196.5,123.5 205.5,123.5 Z"/></g>
<g><path style="opacity:1" fill="#6172a0" d="M 242.5,140.5 C 255.907,140.056 269.24,140.556 282.5,142C 285.965,144.463 289.131,147.296 292,150.5C 295.513,158.276 293.346,163.776 285.5,167C 272.43,167.942 259.43,167.609 246.5,166C 238.747,160.677 235.914,153.51 238,144.5C 239.397,142.93 240.897,141.596 242.5,140.5 Z"/></g>
<g><path style="opacity:1" fill="#373240" d="M 80.5,145.5 C 86.8421,145.334 93.1754,145.5 99.5,146C 103.436,149.508 103.436,152.841 99.5,156C 92.8333,156.667 86.1667,156.667 79.5,156C 76.7113,152.225 77.0446,148.725 80.5,145.5 Z"/></g>
<g><path style="opacity:1" fill="#383241" d="M 139.5,145.5 C 145.842,145.334 152.175,145.5 158.5,146C 163.395,148.823 163.729,152.157 159.5,156C 152.833,156.667 146.167,156.667 139.5,156C 135.565,152.504 135.565,149.004 139.5,145.5 Z"/></g>
<g><path style="opacity:1" fill="#322e3e" d="M 349.5,153.5 C 356.508,153.334 363.508,153.5 370.5,154C 373.167,157 373.167,160 370.5,163C 363.5,163.667 356.5,163.667 349.5,163C 345.581,159.84 345.581,156.673 349.5,153.5 Z"/></g>
<g><path style="opacity:1" fill="#312e3d" d="M 408.5,153.5 C 415.508,153.334 422.508,153.5 429.5,154C 432.167,157 432.167,160 429.5,163C 422.5,163.667 415.5,163.667 408.5,163C 405.888,159.836 405.888,156.669 408.5,153.5 Z"/></g>
<g><path style="opacity:1" fill="#383341" d="M 87.5,160.5 C 94.8085,160.666 97.3085,164.333 95,171.5C 91.1568,175.729 87.8235,175.395 85,170.5C 83.8613,166.579 84.6946,163.246 87.5,160.5 Z"/></g>
<g><path style="opacity:1" fill="#363140" d="M 146.5,160.5 C 154.156,160.315 156.656,163.982 154,171.5C 151.339,174.966 148.339,175.299 145,172.5C 143.994,168.198 144.494,164.198 146.5,160.5 Z"/></g>
<g><path style="opacity:0.984" fill="#f7ac9c" d="M 33.5,166.5 C 38.8333,166.5 44.1667,166.5 49.5,166.5C 49.2114,177.551 49.5447,188.551 50.5,199.5C 43.4921,199.666 36.4921,199.5 29.5,199C 21.6374,196.622 17.9707,191.289 18.5,183C 18.4793,172.857 23.4793,167.357 33.5,166.5 Z"/></g>
<g><path style="opacity:0.988" fill="#f7ac9c" d="M 459.5,166.5 C 464.833,166.5 470.167,166.5 475.5,166.5C 486.092,166.822 491.092,172.322 490.5,183C 490.558,193.108 485.558,198.608 475.5,199.5C 470.36,198.512 465.026,198.179 459.5,198.5C 459.5,187.833 459.5,177.167 459.5,166.5 Z"/></g>
<g><path style="opacity:1" fill="#3a3442" d="M 357.5,167.5 C 364.409,167.953 366.909,171.62 365,178.5C 361.492,182.436 358.159,182.436 355,178.5C 353.812,174.259 354.645,170.592 357.5,167.5 Z"/></g>
<g><path style="opacity:1" fill="#3a3442" d="M 417.5,167.5 C 424.109,168.258 426.276,171.925 424,178.5C 420.841,182.436 417.508,182.436 414,178.5C 412.663,173.872 413.83,170.205 417.5,167.5 Z"/></g>
<g><path style="opacity:1" fill="#f9c3aa" d="M 327.5,239.5 C 327.5,239.833 327.5,240.167 327.5,240.5C 327.786,250.885 327.452,261.218 326.5,271.5C 326.5,273.5 326.5,275.5 326.5,277.5C 320.5,300.173 306.833,316.507 285.5,326.5C 266.99,334.072 248.323,334.406 229.5,327.5C 229.5,326.833 229.167,326.5 228.5,326.5C 208.248,316.25 194.915,300.25 188.5,278.5C 188.483,276.435 188.15,274.435 187.5,272.5C 187.5,261.5 187.5,250.5 187.5,239.5C 194.307,231.899 200.141,223.565 205,214.5C 205.301,204.806 205.968,195.139 207,185.5C 208.529,181.969 211.196,179.969 215,179.5C 242.822,183.374 270.655,183.374 298.5,179.5C 303.182,179.759 306.348,182.093 308,186.5C 308.333,194.833 308.667,203.167 309,211.5C 312.918,222.342 319.085,231.675 327.5,239.5 Z"/></g>
<g><path style="opacity:1" fill="#b89292" d="M 336.5,180.5 C 337.497,199.993 337.83,219.66 337.5,239.5C 334.375,240.479 331.042,240.813 327.5,240.5C 327.5,240.167 327.5,239.833 327.5,239.5C 330.5,239.5 333.5,239.5 336.5,239.5C 336.5,219.833 336.5,200.167 336.5,180.5 Z"/></g>
<g><path style="opacity:0.989" fill="#92606f" d="M 459.5,198.5 C 465.026,198.179 470.36,198.512 475.5,199.5C 475.667,211.505 475.5,223.505 475,235.5C 471.932,251.975 464.432,265.975 452.5,277.5C 450.5,277.167 448.5,276.833 446.5,276.5C 437.114,275.089 427.78,273.423 418.5,271.5C 418.167,271.5 417.833,271.5 417.5,271.5C 417.5,266.167 417.5,260.833 417.5,255.5C 442.26,244.409 456.26,225.409 459.5,198.5 Z"/></g>
<g><path style="opacity:1" fill="#34303f" d="M 372.5,211.5 C 373.873,211.343 375.207,211.51 376.5,212C 384.524,221.571 392.858,221.905 401.5,213C 408,211.5 410.5,214 409,220.5C 395.951,233.708 382.951,233.708 370,220.5C 368.927,216.9 369.76,213.9 372.5,211.5 Z"/></g>
<g><path style="opacity:1" fill="#353140" d="M 102.5,215.5 C 103.873,215.343 105.207,215.51 106.5,216C 108.871,218.706 111.537,221.039 114.5,223C 117.833,223.667 121.167,223.667 124.5,223C 127.717,220.274 131.05,217.774 134.5,215.5C 141.624,218.241 142.29,222.241 136.5,227.5C 124.058,237.472 112.224,236.805 101,225.5C 98.7292,221.697 99.2292,218.363 102.5,215.5 Z"/></g>
<g><path style="opacity:1" fill="#332f3e" d="M 216.5,219.5 C 223.841,219.334 231.174,219.5 238.5,220C 241.299,223.339 240.966,226.339 237.5,229C 230.833,229.667 224.167,229.667 217.5,229C 213.846,226.209 213.513,223.043 216.5,219.5 Z"/></g>
<g><path style="opacity:1" fill="#312e3d" d="M 276.5,219.5 C 283.508,219.334 290.508,219.5 297.5,220C 300.167,223 300.167,226 297.5,229C 290.5,229.667 283.5,229.667 276.5,229C 273.888,225.836 273.888,222.669 276.5,219.5 Z"/></g>
<g><path style="opacity:1" fill="#353140" d="M 225.5,233.5 C 227.936,233.317 230.103,233.984 232,235.5C 232.667,238.833 232.667,242.167 232,245.5C 228.661,248.299 225.661,247.966 223,244.5C 221.813,240.217 222.647,236.55 225.5,233.5 Z"/></g>
<g><path style="opacity:1" fill="#393341" d="M 284.5,233.5 C 291.809,233.666 294.309,237.333 292,244.5C 288.667,248.5 285.333,248.5 282,244.5C 280.812,240.259 281.645,236.592 284.5,233.5 Z"/></g>
<g><path style="opacity:0.976" fill="#f6ac9c" d="M 169.5,239.5 C 172.167,239.5 174.833,239.5 177.5,239.5C 180.833,239.5 184.167,239.5 187.5,239.5C 187.5,250.5 187.5,261.5 187.5,272.5C 180.825,272.666 174.158,272.5 167.5,272C 162.402,270.567 158.902,267.4 157,262.5C 156.501,258.179 156.334,253.846 156.5,249.5C 159.48,244.499 163.813,241.166 169.5,239.5 Z"/></g>
<g><path style="opacity:1" fill="#f7ac9c" d="M 337.5,239.5 C 349.225,238.244 356.558,243.244 359.5,254.5C 359.021,262.077 355.354,267.577 348.5,271C 341.174,271.5 333.841,271.666 326.5,271.5C 327.452,261.218 327.786,250.885 327.5,240.5C 331.042,240.813 334.375,240.479 337.5,239.5 Z"/></g>
<g><path style="opacity:1" fill="#f88a7f" d="M 91.5,253.5 C 110.464,261.463 129.464,261.463 148.5,253.5C 148.5,258.167 148.5,262.833 148.5,267.5C 129.5,267.5 110.5,267.5 91.5,267.5C 91.5,262.833 91.5,258.167 91.5,253.5 Z"/></g>
<g><path style="opacity:0.998" fill="#986472" d="M 359.5,254.5 C 360.492,254.328 361.158,254.662 361.5,255.5C 361.5,260.833 361.5,266.167 361.5,271.5C 361.167,271.5 360.833,271.5 360.5,271.5C 351.167,273.167 341.833,274.833 332.5,276.5C 330.5,276.833 328.5,277.167 326.5,277.5C 326.5,275.5 326.5,273.5 326.5,271.5C 333.841,271.666 341.174,271.5 348.5,271C 355.354,267.577 359.021,262.077 359.5,254.5 Z"/></g>
<g><path style="opacity:1" fill="#f7ad9d" d="M 361.5,255.5 C 380.162,260.833 398.829,260.833 417.5,255.5C 417.5,260.833 417.5,266.167 417.5,271.5C 408.189,281.813 398.855,292.147 389.5,302.5C 380.145,292.147 370.811,281.813 361.5,271.5C 361.5,266.167 361.5,260.833 361.5,255.5 Z"/></g>
<g><path style="opacity:1" fill="#f6ac9d" d="M 91.5,267.5 C 110.5,267.5 129.5,267.5 148.5,267.5C 148.5,268.5 148.5,269.5 148.5,270.5C 138.855,281.147 129.189,291.813 119.5,302.5C 110.116,292.121 100.783,281.788 91.5,271.5C 91.5,271.167 91.5,270.833 91.5,270.5C 91.5,269.5 91.5,268.5 91.5,267.5 Z"/></g>
<g><path style="opacity:0.974" fill="#4e4b92" d="M 91.5,270.5 C 91.5,270.833 91.5,271.167 91.5,271.5C 88.1955,273.973 85.3622,276.973 83,280.5C 82.5403,283.962 83.0403,287.296 84.5,290.5C 84.1193,291.931 83.1193,292.764 81.5,293C 70.4696,295.56 59.4696,298.227 48.5,301C 30.7098,309.427 23.0432,323.26 25.5,342.5C 22.2026,339.704 19.0359,336.704 16,333.5C 12.1272,328.915 8.62724,324.081 5.5,319C 7.53338,306.594 13.2,296.261 22.5,288C 26.2211,285.473 30.2211,283.473 34.5,282C 53.5321,278.227 72.5321,274.394 91.5,270.5 Z"/></g>
<g><path style="opacity:0.985" fill="#4f4c92" d="M 148.5,270.5 C 161.802,273.294 175.135,275.96 188.5,278.5C 194.915,300.25 208.248,316.25 228.5,326.5C 228.5,329.167 228.5,331.833 228.5,334.5C 224.833,337.833 221.167,341.167 217.5,344.5C 216.121,335.986 213.955,327.653 211,319.5C 206.686,310.519 199.853,304.352 190.5,301C 178.199,298.427 166.199,295.26 154.5,291.5C 156.087,287.977 156.587,284.31 156,280.5C 153.259,277.271 150.759,273.938 148.5,270.5 Z"/></g>
<g><path style="opacity:1" fill="#688bd1" d="M 148.5,270.5 C 150.759,273.938 153.259,277.271 156,280.5C 156.587,284.31 156.087,287.977 154.5,291.5C 151.379,299.515 148.045,307.515 144.5,315.5C 141.607,313.555 138.607,311.889 135.5,310.5C 130.183,308.176 124.85,305.843 119.5,303.5C 113.691,305.905 108.025,308.571 102.5,311.5C 99.8599,312.82 97.1932,314.153 94.5,315.5C 91.1424,307.077 87.8091,298.743 84.5,290.5C 83.0403,287.296 82.5403,283.962 83,280.5C 85.3622,276.973 88.1955,273.973 91.5,271.5C 100.783,281.788 110.116,292.121 119.5,302.5C 129.189,291.813 138.855,281.147 148.5,270.5 Z"/></g>
<g><path style="opacity:1" fill="#b8cbee" d="M 360.5,271.5 C 357.761,274.233 355.427,277.233 353.5,280.5C 352.953,282.518 351.953,284.351 350.5,286C 344.416,286.847 338.416,288.013 332.5,289.5C 332.5,285.167 332.5,280.833 332.5,276.5C 341.833,274.833 351.167,273.167 360.5,271.5 Z"/></g>
<g><path style="opacity:1" fill="#fefdfe" d="M 360.5,271.5 C 360.833,271.5 361.167,271.5 361.5,271.5C 370.811,281.813 380.145,292.147 389.5,302.5C 398.855,292.147 408.189,281.813 417.5,271.5C 417.833,271.5 418.167,271.5 418.5,271.5C 421.637,274.299 423.971,277.632 425.5,281.5C 423.452,293.312 419.785,304.645 414.5,315.5C 406.283,311.225 397.95,307.225 389.5,303.5C 381.05,307.225 372.717,311.225 364.5,315.5C 360.519,306.73 357.019,297.73 354,288.5C 353.503,285.854 353.336,283.187 353.5,280.5C 355.427,277.233 357.761,274.233 360.5,271.5 Z"/></g>
<g><path style="opacity:1" fill="#b9ccf0" d="M 418.5,271.5 C 427.78,273.423 437.114,275.089 446.5,276.5C 446.5,280.833 446.5,285.167 446.5,289.5C 439.906,287.956 433.239,286.622 426.5,285.5C 426.768,283.901 426.434,282.568 425.5,281.5C 423.971,277.632 421.637,274.299 418.5,271.5 Z"/></g>
<g><path style="opacity:1" fill="#4f4d94" d="M 446.5,276.5 C 448.5,276.833 450.5,277.167 452.5,277.5C 461.28,278.756 469.947,280.589 478.5,283C 487.276,286.776 493.776,292.942 498,301.5C 500.653,309.108 503.153,316.774 505.5,324.5C 503.21,328.746 500.21,332.413 496.5,335.5C 493.662,326.828 490.495,318.161 487,309.5C 477.112,296.641 463.946,290.308 447.5,290.5C 447.5,289.833 447.167,289.5 446.5,289.5C 446.5,285.167 446.5,280.833 446.5,276.5 Z"/></g>
<g><path style="opacity:1" fill="#e5ebf1" d="M 353.5,280.5 C 353.336,283.187 353.503,285.854 354,288.5C 357.019,297.73 360.519,306.73 364.5,315.5C 372.717,311.225 381.05,307.225 389.5,303.5C 397.95,307.225 406.283,311.225 414.5,315.5C 419.785,304.645 423.452,293.312 425.5,281.5C 426.434,282.568 426.768,283.901 426.5,285.5C 433.239,286.622 439.906,287.956 446.5,289.5C 446.5,316.167 446.5,342.833 446.5,369.5C 421.142,379.873 394.809,382.873 367.5,378.5C 360.607,364.363 349.274,356.03 333.5,353.5C 332.5,332.177 332.167,310.844 332.5,289.5C 338.416,288.013 344.416,286.847 350.5,286C 351.953,284.351 352.953,282.518 353.5,280.5 Z"/></g>
<g><path style="opacity:1" fill="#353140" d="M 239.5,289.5 C 241.527,289.338 243.527,289.505 245.5,290C 252.867,298.238 260.533,298.572 268.5,291C 273.357,289.247 276.357,290.747 277.5,295.5C 271.473,305.008 262.807,308.842 251.5,307C 246.071,305.198 241.571,302.031 238,297.5C 237.109,294.502 237.609,291.836 239.5,289.5 Z"/></g>
<g><path style="opacity:1" fill="#4f67b2" d="M 332.5,276.5 C 332.5,280.833 332.5,285.167 332.5,289.5C 331.668,310.663 331.168,331.996 331,353.5C 321.971,351.161 312.805,349.328 303.5,348C 302.016,347.338 300.683,346.504 299.5,345.5C 298.833,345.5 298.167,345.5 297.5,345.5C 293.833,341.167 289.833,337.167 285.5,333.5C 285.5,331.167 285.5,328.833 285.5,326.5C 306.833,316.507 320.5,300.173 326.5,277.5C 328.5,277.167 330.5,276.833 332.5,276.5 Z"/></g>
<g><path style="opacity:1" fill="#95a6d2" d="M 446.5,289.5 C 447.167,289.5 447.5,289.833 447.5,290.5C 447.169,316.672 447.502,342.672 448.5,368.5C 448.158,369.338 447.492,369.672 446.5,369.5C 446.5,342.833 446.5,316.167 446.5,289.5 Z"/></g>
<g><path style="opacity:1" fill="#506ab5" d="M 447.5,290.5 C 463.946,290.308 477.112,296.641 487,309.5C 490.495,318.161 493.662,326.828 496.5,335.5C 483.226,350.437 467.226,361.437 448.5,368.5C 447.502,342.672 447.169,316.672 447.5,290.5 Z"/></g>
<g><path style="opacity:1" fill="#4e68b4" d="M 84.5,290.5 C 87.8091,298.743 91.1424,307.077 94.5,315.5C 97.1932,314.153 99.8599,312.82 102.5,311.5C 104.569,317.376 106.236,323.376 107.5,329.5C 104.338,345.812 101.338,362.146 98.5,378.5C 70.453,373.642 46.1196,361.642 25.5,342.5C 23.0432,323.26 30.7098,309.427 48.5,301C 59.4696,298.227 70.4696,295.56 81.5,293C 83.1193,292.764 84.1193,291.931 84.5,290.5 Z"/></g>
<g><path style="opacity:1" fill="#4e68b4" d="M 154.5,291.5 C 166.199,295.26 178.199,298.427 190.5,301C 199.853,304.352 206.686,310.519 211,319.5C 213.955,327.653 216.121,335.986 217.5,344.5C 217.5,344.833 217.5,345.167 217.5,345.5C 216.508,345.328 215.842,345.662 215.5,346.5C 199.905,350.186 184.238,353.686 168.5,357C 158.586,361.413 151.586,368.579 147.5,378.5C 143.846,378.942 140.179,379.276 136.5,379.5C 137.919,378.549 139.585,378.216 141.5,378.5C 138.039,361.86 134.705,345.194 131.5,328.5C 133.162,323.179 134.829,317.846 136.5,312.5C 136.137,311.817 135.804,311.15 135.5,310.5C 138.607,311.889 141.607,313.555 144.5,315.5C 148.045,307.515 151.379,299.515 154.5,291.5 Z"/></g>
<g><path style="opacity:1" fill="#df346e" d="M 135.5,310.5 C 135.804,311.15 136.137,311.817 136.5,312.5C 134.829,317.846 133.162,323.179 131.5,328.5C 123.414,328.199 115.414,328.533 107.5,329.5C 106.236,323.376 104.569,317.376 102.5,311.5C 108.025,308.571 113.691,305.905 119.5,303.5C 124.85,305.843 130.183,308.176 135.5,310.5 Z"/></g>
<g><path style="opacity:1" fill="#f88a7f" d="M 285.5,326.5 C 285.5,328.833 285.5,331.167 285.5,333.5C 285.5,336.167 285.5,338.833 285.5,341.5C 266.833,341.5 248.167,341.5 229.5,341.5C 229.5,336.833 229.5,332.167 229.5,327.5C 248.323,334.406 266.99,334.072 285.5,326.5 Z"/></g>
<g><path style="opacity:1" fill="#fc526f" d="M 131.5,328.5 C 134.705,345.194 138.039,361.86 141.5,378.5C 139.585,378.216 137.919,378.549 136.5,379.5C 123.798,380.862 111.131,380.529 98.5,378.5C 101.338,362.146 104.338,345.812 107.5,329.5C 115.414,328.533 123.414,328.199 131.5,328.5 Z"/></g>
<g><path style="opacity:1" fill="#f6ac9c" d="M 228.5,326.5 C 229.167,326.5 229.5,326.833 229.5,327.5C 229.5,332.167 229.5,336.833 229.5,341.5C 248.167,341.5 266.833,341.5 285.5,341.5C 285.5,342.167 285.5,342.833 285.5,343.5C 285.5,343.833 285.5,344.167 285.5,344.5C 276.189,354.813 266.855,365.147 257.5,375.5C 248.178,364.845 238.512,354.512 228.5,344.5C 228.5,344.167 228.5,343.833 228.5,343.5C 228.5,340.5 228.5,337.5 228.5,334.5C 228.5,331.833 228.5,329.167 228.5,326.5 Z"/></g>
<g><path style="opacity:0.992" fill="#4e6492" d="M 228.5,343.5 C 228.5,343.833 228.5,344.167 228.5,344.5C 225.835,347.335 223.335,350.335 221,353.5C 220.505,356.531 220.671,359.531 221.5,362.5C 209.247,366.513 196.58,369.68 183.5,372C 175.246,374.917 168.746,380.083 164,387.5C 160.995,394.35 158.495,401.35 156.5,408.5C 152.116,404.094 147.949,399.428 144,394.5C 143.897,388.909 145.064,383.575 147.5,378.5C 151.586,368.579 158.586,361.413 168.5,357C 184.238,353.686 199.905,350.186 215.5,346.5C 216.492,346.672 217.158,346.338 217.5,345.5C 221.291,345.341 224.958,344.675 228.5,343.5 Z"/></g>
<g><path style="opacity:0.991" fill="#516694" d="M 332.5,289.5 C 332.167,310.844 332.5,332.177 333.5,353.5C 349.274,356.03 360.607,364.363 367.5,378.5C 369.092,384.943 371.092,391.277 373.5,397.5C 369.154,403.175 364.488,408.508 359.5,413.5C 356.966,402.97 353.132,392.97 348,383.5C 343.963,378.898 339.129,375.398 333.5,373C 319.851,369.671 306.184,366.504 292.5,363.5C 294.097,360.681 294.597,357.681 294,354.5C 292.022,350.362 289.189,347.029 285.5,344.5C 285.5,344.167 285.5,343.833 285.5,343.5C 289.426,344.552 293.426,345.218 297.5,345.5C 298.167,346.833 298.833,346.833 299.5,345.5C 300.683,346.504 302.016,347.338 303.5,348C 312.805,349.328 321.971,351.161 331,353.5C 331.168,331.996 331.668,310.663 332.5,289.5 Z"/></g>
<g><path style="opacity:1" fill="#809ac2" d="M 228.5,344.5 C 238.512,354.512 248.178,364.845 257.5,375.5C 266.855,365.147 276.189,354.813 285.5,344.5C 289.189,347.029 292.022,350.362 294,354.5C 294.597,357.681 294.097,360.681 292.5,363.5C 289.172,371.814 285.839,380.147 282.5,388.5C 279.807,387.153 277.14,385.82 274.5,384.5C 268.975,381.571 263.309,378.905 257.5,376.5C 251.691,378.905 246.025,381.571 240.5,384.5C 237.86,385.82 235.193,387.153 232.5,388.5C 232.167,388.167 231.833,387.833 231.5,387.5C 228.39,378.965 225.056,370.632 221.5,362.5C 220.671,359.531 220.505,356.531 221,353.5C 223.335,350.335 225.835,347.335 228.5,344.5 Z"/></g>
<g><path style="opacity:1" fill="#5d77a0" d="M 292.5,363.5 C 306.184,366.504 319.851,369.671 333.5,373C 339.129,375.398 343.963,378.898 348,383.5C 353.132,392.97 356.966,402.97 359.5,413.5C 337.175,434.994 310.508,447.994 279.5,452.5C 275.782,435.908 272.448,419.242 269.5,402.5C 270.758,396.391 272.425,390.391 274.5,384.5C 277.14,385.82 279.807,387.153 282.5,388.5C 285.839,380.147 289.172,371.814 292.5,363.5 Z"/></g>
<g><path style="opacity:1" fill="#5d77a0" d="M 221.5,362.5 C 225.056,370.632 228.39,378.965 231.5,387.5C 231.833,387.833 232.167,388.167 232.5,388.5C 235.193,387.153 237.86,385.82 240.5,384.5C 242.167,390.5 243.833,396.5 245.5,402.5C 241.91,418.786 238.576,435.119 235.5,451.5C 204.304,445.742 177.971,431.409 156.5,408.5C 158.495,401.35 160.995,394.35 164,387.5C 168.746,380.083 175.246,374.917 183.5,372C 196.58,369.68 209.247,366.513 221.5,362.5 Z"/></g>
<g><path style="opacity:1" fill="#df366e" d="M 274.5,384.5 C 272.425,390.391 270.758,396.391 269.5,402.5C 261.5,402.5 253.5,402.5 245.5,402.5C 243.833,396.5 242.167,390.5 240.5,384.5C 246.025,381.571 251.691,378.905 257.5,376.5C 263.309,378.905 268.975,381.571 274.5,384.5 Z"/></g>
<g><path style="opacity:1" fill="#fc526e" d="M 245.5,402.5 C 253.5,402.5 261.5,402.5 269.5,402.5C 272.448,419.242 275.782,435.908 279.5,452.5C 264.787,453.998 250.12,453.665 235.5,451.5C 238.576,435.119 241.91,418.786 245.5,402.5 Z"/></g>
</svg>
