<?xml version="1.0" encoding="UTF-8"?>
<!DOCTYPE svg PUBLIC "-//W3C//DTD SVG 1.1//EN" "http://www.w3.org/Graphics/SVG/1.1/DTD/svg11.dtd">
<svg xmlns="http://www.w3.org/2000/svg" version="1.1" width="512px" height="512px" style="shape-rendering:geometricPrecision; text-rendering:geometricPrecision; image-rendering:optimizeQuality; fill-rule:evenodd; clip-rule:evenodd" xmlns:xlink="http://www.w3.org/1999/xlink">
<g><path style="opacity:0.987" fill="#000000" d="M 511.5,110.5 C 511.5,227.167 511.5,343.833 511.5,460.5C 506.802,476.027 496.469,485.527 480.5,489C 330.5,489.667 180.5,489.667 30.5,489C 14.5308,485.527 4.19751,476.027 -0.5,460.5C -0.5,323.833 -0.5,187.167 -0.5,50.5C 4.19751,34.9726 14.5308,25.4726 30.5,22C 83.5,21.3333 136.5,21.3333 189.5,22C 196.225,23.1268 202.225,25.7935 207.5,30C 224.5,47 241.5,64 258.5,81C 332.5,81.3333 406.5,81.6667 480.5,82C 496.469,85.4726 506.802,94.9726 511.5,110.5 Z"/></g>
<g><path style="opacity:1" fill="#fdba2a" d="M 253.5,96.5 C 323.665,97.3329 393.999,97.8329 464.5,98C 468.846,101.527 471.512,106.027 472.5,111.5C 326.666,111.167 180.999,111.5 35.5,112.5C 32.9807,112.848 31.1474,114.181 30,116.5C 29.5,145.498 29.3334,174.498 29.5,203.5C 24.0586,203.969 19.2253,205.969 15,209.5C 14.3333,157.5 14.3333,105.5 15,53.5C 17.4084,46.0908 22.2417,40.9241 29.5,38C 81.7881,36.3511 134.121,36.0177 186.5,37C 190.538,37.8993 194.205,39.566 197.5,42C 215.752,60.7537 234.418,78.9204 253.5,96.5 Z"/></g>
<g><path style="opacity:1" fill="#cd8829" d="M 253.5,96.5 C 328.167,96.3333 402.834,96.5 477.5,97C 486.793,98.9579 492.96,104.458 496,113.5C 496.667,125.5 496.667,137.5 496,149.5C 491.793,145.98 486.96,143.98 481.5,143.5C 481.666,134.494 481.5,125.494 481,116.5C 479.833,115.333 478.667,114.167 477.5,113C 330.167,112.5 182.834,112.333 35.5,112.5C 180.999,111.5 326.666,111.167 472.5,111.5C 471.512,106.027 468.846,101.527 464.5,98C 393.999,97.8329 323.665,97.3329 253.5,96.5 Z"/></g>
<g><path style="opacity:1" fill="#bcf1fe" d="M 44.5,127.5 C 177.5,127.5 310.5,127.5 443.5,127.5C 443.5,132.167 443.5,136.833 443.5,141.5C 327.332,141.167 211.332,141.5 95.5,142.5C 91.8714,143.417 89.8714,145.75 89.5,149.5C 84.5,149.5 79.5,149.5 74.5,149.5C 74.2204,146.713 72.887,144.547 70.5,143C 61.8397,142.5 53.1731,142.334 44.5,142.5C 44.5,137.5 44.5,132.5 44.5,127.5 Z"/></g>
<g><path style="opacity:1" fill="#73abba" d="M 44.5,127.5 C 184.999,126.5 325.666,126.167 466.5,126.5C 466.5,131.833 466.5,137.167 466.5,142.5C 342.833,142.5 219.167,142.5 95.5,142.5C 211.332,141.5 327.332,141.167 443.5,141.5C 443.5,136.833 443.5,132.167 443.5,127.5C 310.5,127.5 177.5,127.5 44.5,127.5 Z"/></g>
<g><path style="opacity:1" fill="#f9f9f9" d="M 74.5,149.5 C 79.5,149.5 84.5,149.5 89.5,149.5C 89.9481,152.233 91.2814,154.399 93.5,156C 161.5,156.333 229.5,156.667 297.5,157C 282.5,172 267.5,187 252.5,202C 183.167,202.5 113.834,202.667 44.5,202.5C 44.5,187.167 44.5,171.833 44.5,156.5C 53.1731,156.666 61.8397,156.5 70.5,156C 72.7186,154.399 74.0519,152.233 74.5,149.5 Z"/></g>
<g><path style="opacity:1" fill="#fece65" d="M 477.5,157.5 C 476.167,157.5 474.833,157.5 473.5,157.5C 473.667,257.834 473.5,358.167 473,458.5C 471.826,464.333 468.993,469.166 464.5,473C 468.821,473.499 473.154,473.666 477.5,473.5C 403.667,474.167 329.667,474.5 255.5,474.5C 180.123,474.661 104.79,474.161 29.5,473C 22.2684,470.101 17.4351,464.934 15,457.5C 14.3333,382.833 14.3333,308.167 15,233.5C 17.4351,226.066 22.2684,220.899 29.5,218C 106.123,216.678 182.789,216.012 259.5,216C 277.5,198 295.5,180 313.5,162C 315.67,160.414 318.004,159.08 320.5,158C 347.286,156.851 374.12,156.351 401,156.5C 426.669,156.5 452.169,156.833 477.5,157.5 Z"/></g>
<g><path style="opacity:1" fill="#febc2c" d="M 477.5,157.5 C 486.884,159.046 493.05,164.38 496,173.5C 496.667,267.833 496.667,362.167 496,456.5C 493.454,466.216 487.288,471.883 477.5,473.5C 473.154,473.666 468.821,473.499 464.5,473C 468.993,469.166 471.826,464.333 473,458.5C 473.5,358.167 473.667,257.834 473.5,157.5C 474.833,157.5 476.167,157.5 477.5,157.5 Z"/></g>
</svg>
