<?xml version="1.0" encoding="UTF-8"?>
<!DOCTYPE svg PUBLIC "-//W3C//DTD SVG 1.1//EN" "http://www.w3.org/Graphics/SVG/1.1/DTD/svg11.dtd">
<svg xmlns="http://www.w3.org/2000/svg" version="1.1" width="512px" height="512px" style="shape-rendering:geometricPrecision; text-rendering:geometricPrecision; image-rendering:optimizeQuality; fill-rule:evenodd; clip-rule:evenodd" xmlns:xlink="http://www.w3.org/1999/xlink">
<g><path style="opacity:0.939" fill="#010202" d="M 95.5,393.5 C 136.048,445.288 189.382,474.455 255.5,481C 332.977,484.663 397.144,457.497 448,399.5C 495.715,337.967 510.049,269.301 491,193.5C 463.176,107.675 405.342,54.5085 317.5,34C 274.504,25.555 232.504,29.055 191.5,44.5C 189.308,44.2427 187.641,43.2427 186.5,41.5C 185.725,37.8184 187.059,35.3184 190.5,34C 279.385,4.57988 359.719,19.5799 431.5,79C 500.602,146.003 523.769,226.503 501,320.5C 471.543,411.624 410.043,467.457 316.5,488C 238.98,500.296 170.98,480.629 112.5,429C 103.414,419.971 94.9139,410.471 87,400.5C 86.4338,394.033 89.2672,391.7 95.5,393.5 Z"/></g>
<g><path style="opacity:1" fill="#71bfe5" d="M 95.5,393.5 C 104.133,386.535 112.133,378.868 119.5,370.5C 175.382,437.059 245.715,459.559 330.5,438C 394.162,416.338 436.329,373.505 457,309.5C 465.28,279.115 466.614,248.448 461,217.5C 459.535,215.085 457.368,214.085 454.5,214.5C 453.99,211.461 453.323,208.461 452.5,205.5C 458.699,199.323 457.366,195.657 448.5,194.5C 448.037,191.779 447.371,189.112 446.5,186.5C 448.016,184.801 449.016,182.801 449.5,180.5C 422.998,122.173 378.665,85.0059 316.5,69C 240.569,54.5825 177.069,76.0825 126,133.5C 100.831,164.003 86.8308,199.003 84,238.5C 84.8333,239.333 85.6667,240.167 86.5,241C 96.1667,241.333 105.833,241.667 115.5,242C 118.207,243.864 119.041,246.364 118,249.5C 102.049,278.577 85.2154,307.077 67.5,335C 65.8333,335.667 64.1667,335.667 62.5,335C 59.612,331.778 57.112,328.278 55,324.5C 40.9195,299.337 26.5862,274.337 12,249.5C 10.9595,246.364 11.7928,243.864 14.5,242C 24.5,241.667 34.5,241.333 44.5,241C 45.9308,240.535 47.0975,239.701 48,238.5C 56.4542,160.454 93.7875,100.787 160,59.5C 160.495,57.5273 160.662,55.5273 160.5,53.5C 163.032,52.4043 165.365,51.0709 167.5,49.5C 171.004,53.4346 174.504,53.4346 178,49.5C 178.64,47.735 178.473,46.0683 177.5,44.5C 180.426,43.3024 183.426,42.3024 186.5,41.5C 187.641,43.2427 189.308,44.2427 191.5,44.5C 232.504,29.055 274.504,25.555 317.5,34C 405.342,54.5085 463.176,107.675 491,193.5C 510.049,269.301 495.715,337.967 448,399.5C 397.144,457.497 332.977,484.663 255.5,481C 189.382,474.455 136.048,445.288 95.5,393.5 Z"/></g>
<g><path style="opacity:0.879" fill="#06090b" d="M 177.5,44.5 C 178.473,46.0683 178.64,47.735 178,49.5C 174.504,53.4346 171.004,53.4346 167.5,49.5C 167.243,42.9697 170.243,40.803 176.5,43C 177.056,43.3826 177.389,43.8826 177.5,44.5 Z"/></g>
<g><path style="opacity:1" fill="#c3e4fe" d="M 257.5,41.5 C 345.26,39.2864 412.427,74.9531 459,148.5C 496.581,218.951 496.914,289.617 460,360.5C 421.323,425.287 364.156,461.454 288.5,469C 255.673,471.251 224.006,466.251 193.5,454C 190.833,451 190.833,448 193.5,445C 201.962,446.482 210.295,448.815 218.5,452C 290.948,469.803 355.281,454.469 411.5,406C 464.697,353.742 485.53,290.575 474,216.5C 455.017,136.68 406.517,84.1798 328.5,59C 249.964,40.0873 182.131,58.9207 125,115.5C 92.7756,151.298 74.1089,193.298 69,241.5C 63.9772,243.826 61.1439,242.326 60.5,237C 70.5948,155.097 112.595,96.0968 186.5,60C 209.423,50.4563 233.09,44.2896 257.5,41.5 Z"/></g>
<g><path style="opacity:0.94" fill="#020304" d="M 160.5,53.5 C 160.662,55.5273 160.495,57.5273 160,59.5C 93.7875,100.787 56.4542,160.454 48,238.5C 47.0975,239.701 45.9308,240.535 44.5,241C 34.5,241.333 24.5,241.667 14.5,242C 11.7928,243.864 10.9595,246.364 12,249.5C 26.5862,274.337 40.9195,299.337 55,324.5C 57.112,328.278 59.612,331.778 62.5,335C 64.1667,335.667 65.8333,335.667 67.5,335C 85.2154,307.077 102.049,278.577 118,249.5C 119.041,246.364 118.207,243.864 115.5,242C 105.833,241.667 96.1667,241.333 86.5,241C 85.6667,240.167 84.8333,239.333 84,238.5C 86.8308,199.003 100.831,164.003 126,133.5C 177.069,76.0825 240.569,54.5825 316.5,69C 378.665,85.0059 422.998,122.173 449.5,180.5C 449.016,182.801 448.016,184.801 446.5,186.5C 443.956,186.896 441.789,186.229 440,184.5C 414.424,128.928 371.924,93.7613 312.5,79C 241.261,66.0776 181.761,86.5776 134,140.5C 113.258,166.663 100.092,196.329 94.5,229.5C 101.811,230.331 109.144,230.831 116.5,231C 127.162,234.976 130.995,242.476 128,253.5C 112.333,280.833 96.6667,308.167 81,335.5C 76.2038,343.981 69.0371,347.147 59.5,345C 56.0976,343.6 53.2643,341.433 51,338.5C 34.2341,310.07 17.9007,281.404 2,252.5C -0.313365,241.956 3.51997,234.79 13.5,231C 21.8267,230.5 30.16,230.334 38.5,230.5C 48.3279,154.297 85.3279,95.4638 149.5,54C 153.111,51.0021 156.778,50.8354 160.5,53.5 Z"/></g>
<g><path style="opacity:0.959" fill="#020100" d="M 262.5,123.5 C 261.942,125.593 260.609,127.093 258.5,128C 237.103,128.033 215.769,128.7 194.5,130C 182.146,137.406 179.313,147.572 186,160.5C 189.421,164.458 193.588,167.292 198.5,169C 248.5,169.667 298.5,169.667 348.5,169C 364.739,162.033 368.572,150.866 360,135.5C 357.766,133.3 355.266,131.467 352.5,130C 333.231,128.704 313.898,128.037 294.5,128C 292.859,126.871 291.859,125.371 291.5,123.5C 291.297,121.61 291.963,120.11 293.5,119C 313.167,118.333 332.833,118.333 352.5,119C 370.322,125.834 377.489,138.668 374,157.5C 367.527,174.118 355.36,181.452 337.5,179.5C 337.667,192.171 337.5,204.838 337,217.5C 335.139,232.89 328.306,245.557 316.5,255.5C 328.306,265.443 335.139,278.11 337,293.5C 337.5,306.162 337.667,318.829 337.5,331.5C 355.785,329.714 367.952,337.381 374,354.5C 377.011,372.991 369.844,385.491 352.5,392C 330.5,392.667 308.5,392.667 286.5,392C 285.733,390.53 285.067,389.03 284.5,387.5C 285.473,385.75 286.807,384.25 288.5,383C 308.833,382.667 329.167,382.333 349.5,382C 363.905,375.357 367.738,364.857 361,350.5C 357.138,345.964 352.305,343.131 346.5,342C 297.5,341.333 248.5,341.333 199.5,342C 184.624,346.918 179.791,356.751 185,371.5C 187.946,376.445 192.112,379.945 197.5,382C 215.833,382.333 234.167,382.667 252.5,383C 254.376,383.918 255.376,385.418 255.5,387.5C 255.579,388.93 255.246,390.264 254.5,391.5C 234.842,392.666 215.175,392.833 195.5,392C 176.139,385.116 168.972,371.616 174,351.5C 180.953,336.434 192.787,329.767 209.5,331.5C 209.333,319.495 209.5,307.495 210,295.5C 211.055,283.997 215.055,273.664 222,264.5C 224.505,262.046 227.339,261.38 230.5,262.5C 232.1,264.571 232.6,266.905 232,269.5C 226.504,275.49 222.837,282.49 221,290.5C 220.5,304.496 220.333,318.496 220.5,332.5C 255.833,332.5 291.167,332.5 326.5,332.5C 326.935,317.109 326.435,301.775 325,286.5C 320.642,274.473 312.975,265.14 302,258.5C 301.333,256.5 301.333,254.5 302,252.5C 314.577,245.258 322.577,234.591 326,220.5C 326.5,206.504 326.667,192.504 326.5,178.5C 291.167,178.5 255.833,178.5 220.5,178.5C 220.333,191.837 220.5,205.171 221,218.5C 222.453,226.203 225.453,233.203 230,239.5C 230.6,242.095 230.1,244.429 228.5,246.5C 225.03,247.125 222.196,246.125 220,243.5C 214.289,235.035 210.956,225.702 210,215.5C 209.5,203.505 209.333,191.505 209.5,179.5C 182.225,179.73 170.392,166.397 174,139.5C 177.596,128.904 184.762,122.071 195.5,119C 217.167,118.333 238.833,118.333 260.5,119C 261.582,120.33 262.249,121.83 262.5,123.5 Z"/></g>
<g><path style="opacity:0.884" fill="#080201" d="M 282.5,123.5 C 281.166,127.328 278.5,128.828 274.5,128C 272.859,126.871 271.859,125.371 271.5,123.5C 271.564,119.938 273.397,118.271 277,118.5C 280.546,118.244 282.379,119.911 282.5,123.5 Z"/></g>
<g><path style="opacity:1" fill="#f75c3c" d="M 262.5,123.5 C 265.5,123.5 268.5,123.5 271.5,123.5C 271.859,125.371 272.859,126.871 274.5,128C 278.5,128.828 281.166,127.328 282.5,123.5C 285.5,123.5 288.5,123.5 291.5,123.5C 291.859,125.371 292.859,126.871 294.5,128C 313.898,128.037 333.231,128.704 352.5,130C 355.266,131.467 357.766,133.3 360,135.5C 368.572,150.866 364.739,162.033 348.5,169C 298.5,169.667 248.5,169.667 198.5,169C 193.588,167.292 189.421,164.458 186,160.5C 179.313,147.572 182.146,137.406 194.5,130C 215.769,128.7 237.103,128.033 258.5,128C 260.609,127.093 261.942,125.593 262.5,123.5 Z"/></g>
<g><path style="opacity:1" fill="#ffc7be" d="M 201.5,143.5 C 206.179,143.334 210.845,143.501 215.5,144C 219.085,146.528 219.418,149.528 216.5,153C 211.5,153.667 206.5,153.667 201.5,153C 198.888,149.836 198.888,146.669 201.5,143.5 Z"/></g>
<g><path style="opacity:1" fill="#ffc8be" d="M 231.5,143.5 C 268.835,143.333 306.168,143.5 343.5,144C 346.978,146.706 347.311,149.706 344.5,153C 306.833,153.667 269.167,153.667 231.5,153C 228.888,149.836 228.888,146.669 231.5,143.5 Z"/></g>
<g><path style="opacity:1" fill="#ecbd20" d="M 230.5,262.5 C 232.167,261.167 233.833,259.833 235.5,258.5C 240.074,260.627 243.408,259.46 245.5,255C 243.164,248.667 239.497,247.833 234.5,252.5C 232.833,250.167 230.833,248.167 228.5,246.5C 230.1,244.429 230.6,242.095 230,239.5C 225.453,233.203 222.453,226.203 221,218.5C 220.5,205.171 220.333,191.837 220.5,178.5C 255.833,178.5 291.167,178.5 326.5,178.5C 326.667,192.504 326.5,206.504 326,220.5C 322.577,234.591 314.577,245.258 302,252.5C 301.333,254.5 301.333,256.5 302,258.5C 312.975,265.14 320.642,274.473 325,286.5C 326.435,301.775 326.935,317.109 326.5,332.5C 291.167,332.5 255.833,332.5 220.5,332.5C 220.333,318.496 220.5,304.496 221,290.5C 222.837,282.49 226.504,275.49 232,269.5C 232.6,266.905 232.1,264.571 230.5,262.5 Z"/></g>
<g><path style="opacity:1" fill="#f8e3aa" d="M 311.5,182.5 C 314.325,182.081 316.491,183.081 318,185.5C 319.123,198.286 318.456,210.953 316,223.5C 314.274,228.512 311.274,229.512 307,226.5C 306.833,225.167 306.667,223.833 306.5,222.5C 308.154,209.91 308.987,197.244 309,184.5C 309.995,183.934 310.828,183.267 311.5,182.5 Z"/></g>
<g><path style="opacity:0.873" fill="#030607" d="M 448.5,194.5 C 457.366,195.657 458.699,199.323 452.5,205.5C 448.364,205.599 446.031,203.599 445.5,199.5C 446.26,197.64 447.26,195.973 448.5,194.5 Z"/></g>
<g><path style="opacity:1" fill="#0e0a02" d="M 251.5,204.5 C 258.109,205.258 260.276,208.925 258,215.5C 249.96,219.142 246.96,216.475 249,207.5C 249.698,206.309 250.531,205.309 251.5,204.5 Z"/></g>
<g><path style="opacity:1" fill="#0f0b02" d="M 291.5,204.5 C 294.044,204.104 296.211,204.771 298,206.5C 298.667,209.5 298.667,212.5 298,215.5C 295.763,219.02 293.096,219.353 290,216.5C 288.994,212.198 289.494,208.198 291.5,204.5 Z"/></g>
<g><path style="opacity:0.944" fill="#010203" d="M 454.5,214.5 C 457.368,214.085 459.535,215.085 461,217.5C 466.614,248.448 465.28,279.115 457,309.5C 436.329,373.505 394.162,416.338 330.5,438C 245.715,459.559 175.382,437.059 119.5,370.5C 118.022,362.888 121.022,360.388 128.5,363C 170.617,416.837 225.951,440.837 294.5,435C 365.751,423.734 415.251,384.901 443,318.5C 454.799,286.016 457.299,252.849 450.5,219C 450.822,216.479 452.156,214.979 454.5,214.5 Z"/></g>
<g><path style="opacity:1" fill="#0f0a02" d="M 271.5,231.5 C 277.795,231.984 279.961,235.317 278,241.5C 275.048,245.482 272.048,245.482 269,241.5C 267.861,237.579 268.695,234.246 271.5,231.5 Z"/></g>
<g><path style="opacity:1" fill="#f8e3aa" d="M 297.5,234.5 C 302.325,234.488 304.491,236.821 304,241.5C 300.937,245.947 296.771,248.114 291.5,248C 289.556,245.847 289.056,243.347 290,240.5C 292.688,238.636 295.188,236.636 297.5,234.5 Z"/></g>
<g><path style="opacity:0.939" fill="#130e03" d="M 235.5,258.5 C 234.85,256.565 234.517,254.565 234.5,252.5C 239.497,247.833 243.164,248.667 245.5,255C 243.408,259.46 240.074,260.627 235.5,258.5 Z"/></g>
<g><path style="opacity:1" fill="#0f0b02" d="M 271.5,266.5 C 278.154,266.634 280.321,269.967 278,276.5C 275,280.5 272,280.5 269,276.5C 267.861,272.579 268.695,269.246 271.5,266.5 Z"/></g>
<g><path style="opacity:1" fill="#0a0701" d="M 252.5,293.5 C 260.003,292.853 262.503,296.186 260,303.5C 257.048,307.482 254.048,307.482 251,303.5C 250.037,299.851 250.537,296.518 252.5,293.5 Z"/></g>
<g><path style="opacity:1" fill="#120d03" d="M 289.5,293.5 C 291.924,293.192 294.257,293.526 296.5,294.5C 297.803,298.032 297.803,301.532 296.5,305C 293.165,307.291 290.332,306.791 288,303.5C 287.037,299.851 287.537,296.518 289.5,293.5 Z"/></g>
<g><path style="opacity:1" fill="#f8e4ac" d="M 310.5,295.5 C 313.652,294.959 316.152,295.959 318,298.5C 318.667,306.167 318.667,313.833 318,321.5C 317.167,322.333 316.333,323.167 315.5,324C 298.833,324.667 282.167,324.667 265.5,324C 262.701,320.661 263.034,317.661 266.5,315C 280.496,314.5 294.496,314.333 308.5,314.5C 308.334,308.824 308.501,303.157 309,297.5C 309.717,296.956 310.217,296.289 310.5,295.5 Z"/></g>
<g><path style="opacity:1" fill="#f8e4ac" d="M 229.5,314.5 C 236.508,314.334 243.508,314.5 250.5,315C 254.5,318 254.5,321 250.5,324C 243.167,324.667 235.833,324.667 228.5,324C 225.69,320.432 226.023,317.266 229.5,314.5 Z"/></g>
<g><path style="opacity:1" fill="#f85c3c" d="M 284.5,387.5 C 281.5,387.5 278.5,387.5 275.5,387.5C 274.374,383.034 271.707,381.701 267.5,383.5C 266.479,384.901 265.479,386.235 264.5,387.5C 261.5,387.5 258.5,387.5 255.5,387.5C 255.376,385.418 254.376,383.918 252.5,383C 234.167,382.667 215.833,382.333 197.5,382C 192.112,379.945 187.946,376.445 185,371.5C 179.791,356.751 184.624,346.918 199.5,342C 248.5,341.333 297.5,341.333 346.5,342C 352.305,343.131 357.138,345.964 361,350.5C 367.738,364.857 363.905,375.357 349.5,382C 329.167,382.333 308.833,382.667 288.5,383C 286.807,384.25 285.473,385.75 284.5,387.5 Z"/></g>
<g><path style="opacity:1" fill="#ffc8be" d="M 201.5,357.5 C 239.168,357.333 276.835,357.5 314.5,358C 317.311,361.294 316.978,364.294 313.5,367C 276.167,367.667 238.833,367.667 201.5,367C 198.888,363.836 198.888,360.669 201.5,357.5 Z"/></g>
<g><path style="opacity:1" fill="#ffc6bc" d="M 328.5,357.5 C 333.844,357.334 339.177,357.501 344.5,358C 347.311,361.294 346.978,364.294 343.5,367C 338.833,367.667 334.167,367.667 329.5,367C 325.968,364.172 325.634,361.005 328.5,357.5 Z"/></g>
<g><path style="opacity:0.921" fill="#070201" d="M 275.5,387.5 C 274.826,392.151 272.159,393.651 267.5,392C 266.117,390.729 265.117,389.229 264.5,387.5C 265.479,386.235 266.479,384.901 267.5,383.5C 271.707,381.701 274.374,383.034 275.5,387.5 Z"/></g>
<g><path style="opacity:1" fill="#c2e3fe" d="M 160.5,428.5 C 166.988,429.57 172.988,432.07 178.5,436C 180.52,440.379 179.187,443.212 174.5,444.5C 169.711,442.272 165.045,439.772 160.5,437C 157.899,434.17 157.899,431.337 160.5,428.5 Z"/></g>
</svg>
