<?xml version="1.0" encoding="UTF-8"?>
<!DOCTYPE svg PUBLIC "-//W3C//DTD SVG 1.1//EN" "http://www.w3.org/Graphics/SVG/1.1/DTD/svg11.dtd">
<svg xmlns="http://www.w3.org/2000/svg" version="1.1" width="512px" height="512px" style="shape-rendering:geometricPrecision; text-rendering:geometricPrecision; image-rendering:optimizeQuality; fill-rule:evenodd; clip-rule:evenodd" xmlns:xlink="http://www.w3.org/1999/xlink">
<g><path style="opacity:0.98" fill="#010101" d="M 319.5,79.5 C 319.513,83.6501 317.513,86.1501 313.5,87C 254.834,87.5 196.168,87.6667 137.5,87.5C 138.653,96.5475 136.82,104.881 132,112.5C 118.355,125.088 105.355,124.421 93,110.5C 89.8096,103.201 88.6429,95.534 89.5,87.5C 64.5,87.5 39.5,87.5 14.5,87.5C 14.5,115.833 14.5,144.167 14.5,172.5C 175.334,172.833 336.001,172.5 496.5,171.5C 496.5,143.5 496.5,115.5 496.5,87.5C 492.167,87.5 487.833,87.5 483.5,87.5C 462.833,87.5 442.167,87.5 421.5,87.5C 424.279,106.647 416.279,117.981 397.5,121.5C 384.478,120.311 376.644,113.311 374,100.5C 373.501,96.1794 373.334,91.8461 373.5,87.5C 363.494,87.6665 353.494,87.4998 343.5,87C 340.72,85.0867 339.053,82.5867 338.5,79.5C 338.469,75.4029 340.469,72.9029 344.5,72C 354.161,71.5002 363.828,71.3335 373.5,71.5C 373.334,65.1579 373.5,58.8246 374,52.5C 380.471,36.3506 391.971,31.1839 408.5,37C 416.447,40.619 420.947,46.7857 422,55.5C 422.499,60.8229 422.666,66.1563 422.5,71.5C 447.836,71.3334 473.169,71.5 498.5,72C 504.357,73.2454 508.691,76.4121 511.5,81.5C 511.5,209.833 511.5,338.167 511.5,466.5C 509.261,471.234 505.594,474.401 500.5,476C 371.167,476.667 241.833,476.667 112.5,476C 109.603,474.285 108.269,471.785 108.5,468.5C 109.054,464.945 111.054,462.612 114.5,461.5C 241.833,461.5 369.167,461.5 496.5,461.5C 496.5,370.167 496.5,278.833 496.5,187.5C 492.167,187.5 487.833,187.5 483.5,187.5C 327.167,187.5 170.833,187.5 14.5,187.5C 14.5,278.833 14.5,370.167 14.5,461.5C 37.8357,461.333 61.169,461.5 84.5,462C 86.9229,463.571 88.2562,465.737 88.5,468.5C 88.6734,472.17 87.0067,474.67 83.5,476C 59.1667,476.667 34.8333,476.667 10.5,476C 5.40601,474.401 1.73934,471.234 -0.5,466.5C -0.5,338.167 -0.5,209.833 -0.5,81.5C 2.30945,76.4121 6.64278,73.2454 12.5,72C 37.8311,71.5 63.1645,71.3334 88.5,71.5C 87.4831,62.0389 88.9831,53.0389 93,44.5C 102.505,33.8767 113.672,31.7101 126.5,38C 131.578,41.6415 135.078,46.4748 137,52.5C 137.5,58.8246 137.666,65.1579 137.5,71.5C 196.168,71.3333 254.834,71.5 313.5,72C 317.57,72.8987 319.57,75.3987 319.5,79.5 Z"/></g>
<g><path style="opacity:1" fill="#424242" d="M 111.5,50.5 C 116.558,49.7168 120.058,51.7168 122,56.5C 122.667,70.8333 122.667,85.1667 122,99.5C 119.712,104.892 115.879,106.892 110.5,105.5C 111.558,104.4 112.392,103.066 113,101.5C 113.667,86.1667 113.667,70.8333 113,55.5C 112.392,53.8455 111.892,52.1789 111.5,50.5 Z"/></g>
<g><path style="opacity:1" fill="#575757" d="M 395.5,50.5 C 395.987,51.4734 396.487,52.4734 397,53.5C 397.667,69.8333 397.667,86.1667 397,102.5C 396.623,103.942 395.79,104.942 394.5,105.5C 391.539,104.607 389.706,102.607 389,99.5C 388.333,85.1667 388.333,70.8333 389,56.5C 390.406,53.5914 392.572,51.5914 395.5,50.5 Z"/></g>
<g><path style="opacity:1" fill="#434343" d="M 395.5,50.5 C 400.28,49.6409 403.78,51.3075 406,55.5C 406.667,70.5 406.667,85.5 406,100.5C 403.48,105.686 399.647,107.353 394.5,105.5C 395.79,104.942 396.623,103.942 397,102.5C 397.667,86.1667 397.667,69.8333 397,53.5C 396.487,52.4734 395.987,51.4734 395.5,50.5 Z"/></g>
<g><path style="opacity:1" fill="#595959" d="M 111.5,50.5 C 111.892,52.1789 112.392,53.8455 113,55.5C 113.667,70.8333 113.667,86.1667 113,101.5C 112.392,103.066 111.558,104.4 110.5,105.5C 107.909,104.746 106.076,103.079 105,100.5C 104.333,85.5 104.333,70.5 105,55.5C 106.159,52.5066 108.325,50.8399 111.5,50.5 Z"/></g>
<g><path style="opacity:1" fill="#a5e6ef" d="M 319.5,79.5 C 325.833,79.5 332.167,79.5 338.5,79.5C 339.053,82.5867 340.72,85.0867 343.5,87C 353.494,87.4998 363.494,87.6665 373.5,87.5C 373.334,91.8461 373.501,96.1794 374,100.5C 376.644,113.311 384.478,120.311 397.5,121.5C 416.279,117.981 424.279,106.647 421.5,87.5C 442.167,87.5 462.833,87.5 483.5,87.5C 483.5,115.5 483.5,143.5 483.5,171.5C 487.833,171.5 492.167,171.5 496.5,171.5C 336.001,172.5 175.334,172.833 14.5,172.5C 14.5,144.167 14.5,115.833 14.5,87.5C 39.5,87.5 64.5,87.5 89.5,87.5C 88.6429,95.534 89.8096,103.201 93,110.5C 105.355,124.421 118.355,125.088 132,112.5C 136.82,104.881 138.653,96.5475 137.5,87.5C 196.168,87.6667 254.834,87.5 313.5,87C 317.513,86.1501 319.513,83.6501 319.5,79.5 Z"/></g>
<g><path style="opacity:1" fill="#6bd9e7" d="M 483.5,87.5 C 487.833,87.5 492.167,87.5 496.5,87.5C 496.5,115.5 496.5,143.5 496.5,171.5C 492.167,171.5 487.833,171.5 483.5,171.5C 483.5,143.5 483.5,115.5 483.5,87.5 Z"/></g>
<g><path style="opacity:1" fill="#f7f5f5" d="M 483.5,187.5 C 483.5,278.5 483.5,369.5 483.5,460.5C 360.332,460.167 237.332,460.5 114.5,461.5C 111.054,462.612 109.054,464.945 108.5,468.5C 101.833,468.5 95.1667,468.5 88.5,468.5C 88.2562,465.737 86.9229,463.571 84.5,462C 61.169,461.5 37.8357,461.333 14.5,461.5C 14.5,370.167 14.5,278.833 14.5,187.5C 170.833,187.5 327.167,187.5 483.5,187.5 Z"/></g>
<g><path style="opacity:1" fill="#e1e1e1" d="M 483.5,187.5 C 487.833,187.5 492.167,187.5 496.5,187.5C 496.5,278.833 496.5,370.167 496.5,461.5C 369.167,461.5 241.833,461.5 114.5,461.5C 237.332,460.5 360.332,460.167 483.5,460.5C 483.5,369.5 483.5,278.5 483.5,187.5 Z"/></g>
<g><path style="opacity:1" fill="#030303" d="M 42.5,287.5 C 46.8884,286.943 50.0551,288.61 52,292.5C 52.4997,300.159 52.6664,307.826 52.5,315.5C 60.8333,315.5 69.1667,315.5 77.5,315.5C 77.3336,307.826 77.5003,300.159 78,292.5C 82.6667,285.833 87.3333,285.833 92,292.5C 92.6667,313.5 92.6667,334.5 92,355.5C 89.7742,359.861 86.2742,361.361 81.5,360C 79.9512,358.786 78.7845,357.286 78,355.5C 77.5003,347.173 77.3336,338.84 77.5,330.5C 69.1667,330.5 60.8333,330.5 52.5,330.5C 52.9432,339.608 52.4432,348.608 51,357.5C 45.7845,362.019 41.4512,361.353 38,355.5C 37.3333,334.5 37.3333,313.5 38,292.5C 39.025,290.313 40.525,288.646 42.5,287.5 Z"/></g>
<g><path style="opacity:1" fill="#050505" d="M 139.5,287.5 C 155.886,286.119 168.719,292.119 178,305.5C 185.966,322.759 183.466,338.259 170.5,352C 150.636,365.221 132.802,363.054 117,345.5C 103.76,318.046 111.26,298.712 139.5,287.5 Z"/></g>
<g><path style="opacity:1" fill="#020202" d="M 205.5,287.5 C 209.888,286.943 213.055,288.61 215,292.5C 215.5,310.164 215.667,327.83 215.5,345.5C 220.511,345.334 225.511,345.501 230.5,346C 235.143,348.072 236.643,351.572 235,356.5C 233.786,358.049 232.286,359.215 230.5,360C 222.167,360.667 213.833,360.667 205.5,360C 203.333,359.167 201.833,357.667 201,355.5C 200.333,334.5 200.333,313.5 201,292.5C 202.025,290.313 203.525,288.646 205.5,287.5 Z"/></g>
<g><path style="opacity:1" fill="#040404" d="M 258.5,287.5 C 262.888,286.943 266.055,288.61 268,292.5C 268.667,313.5 268.667,334.5 268,355.5C 265.774,359.861 262.274,361.361 257.5,360C 255.951,358.786 254.785,357.286 254,355.5C 253.333,334.5 253.333,313.5 254,292.5C 255.025,290.313 256.525,288.646 258.5,287.5 Z"/></g>
<g><path style="opacity:1" fill="#040404" d="M 383.5,287.5 C 390.066,287.197 394.233,290.197 396,296.5C 402.47,314.244 409.137,331.911 416,349.5C 416.938,358.567 413.105,361.734 404.5,359C 402.123,355.21 400.123,351.21 398.5,347C 390.147,346.168 381.813,346.335 373.5,347.5C 372.188,352.298 369.855,356.465 366.5,360C 357.879,360.985 354.712,357.152 357,348.5C 364.137,329.422 371.47,310.422 379,291.5C 380.397,289.93 381.897,288.596 383.5,287.5 Z"/></g>
<g><path style="opacity:1" fill="#060606" d="M 426.5,287.5 C 430.426,287.047 433.592,288.38 436,291.5C 439.504,297.844 443.504,303.844 448,309.5C 452.424,301.751 457.591,294.585 463.5,288C 473.081,288.318 475.581,292.818 471,301.5C 466,309.167 461,316.833 456,324.5C 455.667,334.833 455.333,345.167 455,355.5C 450.748,361.653 446.081,361.986 441,356.5C 440.667,346.167 440.333,335.833 440,325.5C 434,316.167 428,306.833 422,297.5C 421.333,295.833 421.333,294.167 422,292.5C 423.366,290.638 424.866,288.972 426.5,287.5 Z"/></g>
<g><path style="opacity:1" fill="#030303" d="M 294.5,289.5 C 331.763,284.595 347.597,300.595 342,337.5C 339.052,350.115 331.219,357.615 318.5,360C 310.5,360.667 302.5,360.667 294.5,360C 292.951,358.786 291.785,357.286 291,355.5C 290.333,334.833 290.333,314.167 291,293.5C 292.376,292.295 293.542,290.962 294.5,289.5 Z"/></g>
<g><path style="opacity:1" fill="#f5f3f3" d="M 141.5,302.5 C 160.34,302.504 168.84,311.837 167,330.5C 160.102,345.191 149.269,349.024 134.5,342C 124.813,333.322 122.98,323.155 129,311.5C 132.299,307.118 136.466,304.118 141.5,302.5 Z"/></g>
<g><path style="opacity:1" fill="#f6f4f4" d="M 305.5,304.5 C 321.066,301.909 328.733,308.409 328.5,324C 329,340.002 321.334,347.168 305.5,345.5C 305.5,331.833 305.5,318.167 305.5,304.5 Z"/></g>
<g><path style="opacity:1" fill="#e8e7e7" d="M 385.5,314.5 C 386.79,315.058 387.623,316.058 388,317.5C 389.802,322.095 391.302,326.762 392.5,331.5C 388.154,331.666 383.821,331.499 379.5,331C 381.922,325.656 383.922,320.156 385.5,314.5 Z"/></g>
</svg>
