<?xml version="1.0" encoding="UTF-8"?>
<!DOCTYPE svg PUBLIC "-//W3C//DTD SVG 1.1//EN" "http://www.w3.org/Graphics/SVG/1.1/DTD/svg11.dtd">
<svg xmlns="http://www.w3.org/2000/svg" version="1.1" width="512px" height="512px" style="shape-rendering:geometricPrecision; text-rendering:geometricPrecision; image-rendering:optimizeQuality; fill-rule:evenodd; clip-rule:evenodd" xmlns:xlink="http://www.w3.org/1999/xlink">
<g><path style="opacity:0.996" fill="#ff5a5a" d="M 245.5,-0.5 C 248.833,-0.5 252.167,-0.5 255.5,-0.5C 255.5,95.5 255.5,191.5 255.5,287.5C 227.806,284.972 211.973,269.972 208,242.5C 207.024,173.806 207.357,105.14 209,36.5C 213.988,17.012 226.155,4.67862 245.5,-0.5 Z"/></g>
<g><path style="opacity:1" fill="#ff0158" d="M 255.5,-0.5 C 258.833,-0.5 262.167,-0.5 265.5,-0.5C 284.845,4.67862 297.012,17.012 302,36.5C 303.643,105.14 303.976,173.806 303,242.5C 299,270.001 283.166,285.001 255.5,287.5C 255.5,191.5 255.5,95.5 255.5,-0.5 Z"/></g>
<g><path style="opacity:0.991" fill="#ff5a5a" d="M 255.5,416.5 C 255.5,448.167 255.5,479.833 255.5,511.5C 248.5,511.5 241.5,511.5 234.5,511.5C 149.086,500.241 87.5858,455.908 50,378.5C 26.8342,321.699 25.5009,264.366 46,206.5C 58.2251,175.867 76.0585,149.033 99.5,126C 114.076,115.198 130.076,112.531 147.5,118C 171.189,129.047 181.022,147.547 177,173.5C 175.338,180.49 172.338,186.824 168,192.5C 127.365,233.719 116.698,281.719 136,336.5C 159.611,387.233 199.444,413.9 255.5,416.5 Z"/></g>
<g><path style="opacity:1" fill="#ff0158" d="M 276.5,511.5 C 269.5,511.5 262.5,511.5 255.5,511.5C 255.5,479.833 255.5,448.167 255.5,416.5C 311.556,413.9 351.389,387.233 375,336.5C 394.474,279.731 382.807,230.398 340,188.5C 328.166,165.327 331.333,144.493 349.5,126C 364.076,115.198 380.076,112.531 397.5,118C 402.492,120.161 407.159,122.828 411.5,126C 474.082,190.842 493.582,267.009 470,354.5C 441.167,437.332 384.001,488.498 298.5,508C 291.017,509.138 283.683,510.305 276.5,511.5 Z"/></g>
</svg>
