<?xml version="1.0" encoding="UTF-8"?>
<!DOCTYPE svg PUBLIC "-//W3C//DTD SVG 1.1//EN" "http://www.w3.org/Graphics/SVG/1.1/DTD/svg11.dtd">
<svg xmlns="http://www.w3.org/2000/svg" version="1.1" width="512px" height="512px" style="shape-rendering:geometricPrecision; text-rendering:geometricPrecision; image-rendering:optimizeQuality; fill-rule:evenodd; clip-rule:evenodd" xmlns:xlink="http://www.w3.org/1999/xlink">
<g><path style="opacity:0.997" fill="#7a6d79" d="M 65.5,34.5 C 47.7001,38.7977 36.2001,49.7977 31,67.5C 30.3333,169.167 30.3333,270.833 31,372.5C 34.9101,391.908 46.4101,403.908 65.5,408.5C 55.4944,408.666 45.4944,408.5 35.5,408C 15.1976,403.865 3.19761,391.699 -0.5,371.5C -0.5,269.833 -0.5,168.167 -0.5,66.5C 4.39315,49.7768 15.3931,39.2768 32.5,35C 43.495,34.5002 54.495,34.3335 65.5,34.5 Z"/></g>
<g><path style="opacity:0.999" fill="#918291" d="M 65.5,34.5 C 203.167,34.3333 340.834,34.5 478.5,35C 495.607,39.2768 506.607,49.7768 511.5,66.5C 511.5,168.5 511.5,270.5 511.5,372.5C 507.365,392.134 495.365,403.968 475.5,408C 338.834,408.5 202.167,408.667 65.5,408.5C 46.4101,403.908 34.9101,391.908 31,372.5C 30.3333,270.833 30.3333,169.167 31,67.5C 36.2001,49.7977 47.7001,38.7977 65.5,34.5 Z"/></g>
<g><path style="opacity:1" fill="#f4f6f8" d="M 72.5,166.5 C 87.9232,164.483 101.923,167.983 114.5,177C 121.709,184.426 122.376,192.426 116.5,201C 112.091,204.581 107.091,205.915 101.5,205C 97.0587,202.228 92.392,199.894 87.5,198C 84.1667,197.333 80.8333,197.333 77.5,198C 76.273,199.587 76.6063,200.921 78.5,202C 89.2874,205.705 99.6207,210.372 109.5,216C 124.861,229.143 127.694,244.643 118,262.5C 103.069,279.242 84.9024,283.742 63.5,276C 52.8264,272.32 44.9931,265.487 40,255.5C 39.5104,240.323 46.6771,234.49 61.5,238C 66.4194,242.626 72.0861,245.959 78.5,248C 81.8333,248.667 85.1667,248.667 88.5,248C 92.2233,246.741 93.2233,244.408 91.5,241C 79.2338,236.199 67.2338,230.866 55.5,225C 45.7567,215.878 42.2567,204.711 45,191.5C 49.6231,178.038 58.7897,169.705 72.5,166.5 Z"/></g>
<g><path style="opacity:1" fill="#f4f7f8" d="M 156.5,166.5 C 166.416,164.626 173.25,168.292 177,177.5C 177.5,186.827 177.666,196.161 177.5,205.5C 186.167,205.5 194.833,205.5 203.5,205.5C 203.334,196.161 203.5,186.827 204,177.5C 209.7,165.848 218.2,163.348 229.5,170C 230.787,171.41 231.954,172.91 233,174.5C 234.145,190.603 234.645,206.769 234.5,223C 234.333,238.167 234.167,253.333 234,268.5C 228.928,279.124 221.095,281.957 210.5,277C 207.131,274.635 204.964,271.468 204,267.5C 203.667,257.5 203.333,247.5 203,237.5C 194.912,236.352 186.746,236.185 178.5,237C 177.68,246.756 177.18,256.59 177,266.5C 173.013,278.576 165.18,282.076 153.5,277C 150.567,274.736 148.4,271.902 147,268.5C 146.333,237.833 146.333,207.167 147,176.5C 149.022,171.98 152.189,168.647 156.5,166.5 Z"/></g>
<g><path style="opacity:1" fill="#f3f6f7" d="M 266.5,166.5 C 275.5,164.753 282.333,167.753 287,175.5C 287.667,206.5 287.667,237.5 287,268.5C 282.158,279.228 274.324,282.061 263.5,277C 260.193,274.222 258.026,270.722 257,266.5C 256.333,237.167 256.333,207.833 257,178.5C 258.892,173.447 262.058,169.447 266.5,166.5 Z"/></g>
<g><path style="opacity:1" fill="#f4f7f8" d="M 320.5,166.5 C 334.504,166.333 348.504,166.5 362.5,167C 374.073,171.378 377.239,179.211 372,190.5C 369.512,194.325 366.012,196.492 361.5,197C 354.842,197.5 348.175,197.666 341.5,197.5C 341.5,200.5 341.5,203.5 341.5,206.5C 347.842,206.334 354.175,206.5 360.5,207C 370.912,211.333 374.078,218.833 370,229.5C 367.688,233.58 364.188,236.08 359.5,237C 353.509,237.499 347.509,237.666 341.5,237.5C 341.666,247.506 341.5,257.506 341,267.5C 336.926,277.287 329.759,280.787 319.5,278C 315.212,275.708 312.378,272.208 311,267.5C 310.333,237.5 310.333,207.5 311,177.5C 312.97,172.704 316.137,169.037 320.5,166.5 Z"/></g>
<g><path style="opacity:1" fill="#f4f6f8" d="M 405.5,166.5 C 424.17,166.333 442.836,166.5 461.5,167C 469.564,170.629 472.731,176.795 471,185.5C 469.5,191 466,194.5 460.5,196C 456.579,196.203 452.745,196.703 449,197.5C 448.667,221.167 448.333,244.833 448,268.5C 443.742,278.037 436.576,281.203 426.5,278C 422.212,275.708 419.378,272.208 418,267.5C 417.667,244.167 417.333,220.833 417,197.5C 407.18,199.091 400.18,195.425 396,186.5C 394.095,177.313 397.262,170.646 405.5,166.5 Z"/></g>
<g><path style="opacity:0.999" fill="#685e68" d="M -0.5,371.5 C 3.19761,391.699 15.1976,403.865 35.5,408C 45.4944,408.5 55.4944,408.666 65.5,408.5C 202.167,408.667 338.834,408.5 475.5,408C 495.365,403.968 507.365,392.134 511.5,372.5C 511.5,390.5 511.5,408.5 511.5,426.5C 501.134,433.099 489.8,437.266 477.5,439C 330.833,439.333 184.167,439.667 37.5,440C 34.3649,441.266 32.6983,443.599 32.5,447C 37.9304,462.6 48.5971,472.433 64.5,476.5C 53.8281,476.667 43.1615,476.5 32.5,476C 15.3931,471.723 4.39315,461.223 -0.5,444.5C -0.5,420.167 -0.5,395.833 -0.5,371.5 Z"/></g>
<g><path style="opacity:0.992" fill="#796c78" d="M 511.5,426.5 C 511.5,432.5 511.5,438.5 511.5,444.5C 506.607,461.223 495.607,471.723 478.5,476C 340.5,476.5 202.5,476.667 64.5,476.5C 48.5971,472.433 37.9304,462.6 32.5,447C 32.6983,443.599 34.3649,441.266 37.5,440C 184.167,439.667 330.833,439.333 477.5,439C 489.8,437.266 501.134,433.099 511.5,426.5 Z"/></g>
</svg>
