<?xml version="1.0" encoding="UTF-8"?>
<!DOCTYPE svg PUBLIC "-//W3C//DTD SVG 1.1//EN" "http://www.w3.org/Graphics/SVG/1.1/DTD/svg11.dtd">
<svg xmlns="http://www.w3.org/2000/svg" version="1.1" width="512px" height="512px" style="shape-rendering:geometricPrecision; text-rendering:geometricPrecision; image-rendering:optimizeQuality; fill-rule:evenodd; clip-rule:evenodd" xmlns:xlink="http://www.w3.org/1999/xlink">
<g><path style="opacity:1" fill="#804231" d="M 243.5,40.5 C 264.307,36.9518 284.307,39.7852 303.5,49C 307.783,51.6153 311.783,54.6153 315.5,58C 344.023,64.1888 360.523,81.6888 365,110.5C 364.216,121.398 366.049,131.732 370.5,141.5C 372.088,152.808 369.754,163.142 363.5,172.5C 359.129,177.873 354.129,182.539 348.5,186.5C 339.156,189.66 332.823,186.66 329.5,177.5C 333.146,171.541 336.313,165.208 339,158.5C 340.557,149.339 339.223,140.672 335,132.5C 337.393,107.664 329.56,86.8311 311.5,70C 303.75,64.2256 295.084,60.559 285.5,59C 273.354,48.7631 259.354,42.5965 243.5,40.5 Z"/></g>
<g><path style="opacity:0.995" fill="#8c4a37" d="M 243.5,40.5 C 259.354,42.5965 273.354,48.7631 285.5,59C 295.084,60.559 303.75,64.2256 311.5,70C 329.56,86.8311 337.393,107.664 335,132.5C 339.223,140.672 340.557,149.339 339,158.5C 336.313,165.208 333.146,171.541 329.5,177.5C 326.964,169.437 322.631,162.437 316.5,156.5C 313.204,152.702 309.704,149.036 306,145.5C 302.564,139.627 299.397,133.627 296.5,127.5C 285.215,141.308 270.548,148.475 252.5,149C 241.833,149.333 231.167,149.667 220.5,150C 207.828,151.554 196.495,156.22 186.5,164C 181.309,170.357 176.309,176.857 171.5,183.5C 168.972,185.874 165.972,186.874 162.5,186.5C 155.731,182.637 150.065,177.637 145.5,171.5C 143.317,167.789 141.817,163.789 141,159.5C 140.668,153.691 140.501,148.024 140.5,142.5C 141.866,140.082 142.866,137.416 143.5,134.5C 140.052,107.568 148.718,85.4012 169.5,68C 191.614,52.2366 216.28,43.0699 243.5,40.5 Z"/></g>
<g><path style="opacity:0.998" fill="#eaac87" d="M 316.5,156.5 C 317.46,168.783 317.794,181.117 317.5,193.5C 316.317,192.496 314.984,191.662 313.5,191C 299.959,189.661 286.626,190.661 273.5,194C 268.311,196.913 267.144,201.08 270,206.5C 271.473,208.007 273.307,208.674 275.5,208.5C 288.685,205.992 302.019,204.825 315.5,205C 316.044,204.283 316.711,203.783 317.5,203.5C 317.667,217.837 317.5,232.171 317,246.5C 310.543,288.289 287.043,315.122 246.5,327C 243.183,327.498 239.85,327.665 236.5,327.5C 234.194,327.007 231.861,326.674 229.5,326.5C 203.759,318.08 184.426,302.08 171.5,278.5C 170.179,272.703 168.346,267.037 166,261.5C 164.407,252.741 163.241,244.074 162.5,235.5C 162.5,219.167 162.5,202.833 162.5,186.5C 165.972,186.874 168.972,185.874 171.5,183.5C 176.309,176.857 181.309,170.357 186.5,164C 196.495,156.22 207.828,151.554 220.5,150C 231.167,149.667 241.833,149.333 252.5,149C 270.548,148.475 285.215,141.308 296.5,127.5C 299.397,133.627 302.564,139.627 306,145.5C 309.704,149.036 313.204,152.702 316.5,156.5 Z"/></g>
<g><path style="opacity:0.999" fill="#febd54" d="M 499.5,221.5 C 495.474,225.195 491.474,228.862 487.5,232.5C 482.319,234.493 478.152,233.16 475,228.5C 473.426,224.354 471.593,220.354 469.5,216.5C 473.516,208.915 473.35,201.248 469,193.5C 470.839,173.969 464.006,158.469 448.5,147C 435.186,140.505 421.852,134.339 408.5,128.5C 422.793,126.386 436.793,127.553 450.5,132C 455.846,134.003 460.513,137.003 464.5,141C 481.713,144.548 492.88,154.714 498,171.5C 499.573,179.085 500.573,186.752 501,194.5C 504.669,203.793 504.169,212.793 499.5,221.5 Z"/></g>
<g><path style="opacity:0.996" fill="#fed559" d="M 408.5,128.5 C 421.852,134.339 435.186,140.505 448.5,147C 464.006,158.469 470.839,173.969 469,193.5C 473.35,201.248 473.516,208.915 469.5,216.5C 468.488,215.128 467.488,213.795 466.5,212.5C 463.538,209.036 460.371,205.703 457,202.5C 455.057,198.274 452.89,194.274 450.5,190.5C 444.314,198.93 435.98,203.763 425.5,205C 414.801,205.223 404.134,205.89 393.5,207C 389.847,207.773 386.347,208.94 383,210.5C 382.826,205.316 382.326,200.316 381.5,195.5C 380.611,183.632 374.611,175.966 363.5,172.5C 369.754,163.142 372.088,152.808 370.5,141.5C 382.529,135.325 395.195,130.992 408.5,128.5 Z"/></g>
<g><path style="opacity:0.999" fill="#febd54" d="M 140.5,142.5 C 140.501,148.024 140.668,153.691 141,159.5C 141.817,163.789 143.317,167.789 145.5,171.5C 137.692,175.996 132.359,182.663 129.5,191.5C 124.87,183.355 118.87,176.188 111.5,170C 102.997,164.916 94.6637,159.583 86.5,154C 82.5554,150.054 79.3887,145.554 77,140.5C 74.931,137.594 72.431,135.261 69.5,133.5C 80.3907,130.829 91.3907,130.996 102.5,134C 105.329,135.247 107.995,136.747 110.5,138.5C 121.07,135.306 131.07,136.639 140.5,142.5 Z"/></g>
<g><path style="opacity:0.985" fill="#fed559" d="M 69.5,133.5 C 72.431,135.261 74.931,137.594 77,140.5C 79.3887,145.554 82.5554,150.054 86.5,154C 94.6637,159.583 102.997,164.916 111.5,170C 118.87,176.188 124.87,183.355 129.5,191.5C 129.5,192.833 129.5,194.167 129.5,195.5C 128.674,199.982 128.174,204.649 128,209.5C 122.936,201.383 116.103,195.216 107.5,191C 104.923,189.75 102.257,189.416 99.5,190C 83.3374,197.828 68.8374,207.995 56,220.5C 45.1405,235.895 37.8071,252.895 34,271.5C 31.9595,280.076 30.4595,288.743 29.5,297.5C 27.986,304.215 26.1527,310.882 24,317.5C 22.9505,318.517 21.7839,318.684 20.5,318C 10.2823,302.411 3.28226,285.578 -0.5,267.5C -0.5,255.833 -0.5,244.167 -0.5,232.5C 1.28611,207.708 8.78611,184.708 22,163.5C 33.9193,147.291 49.7526,137.291 69.5,133.5 Z"/></g>
<g><path style="opacity:0.998" fill="#e7916f" d="M 316.5,156.5 C 322.631,162.437 326.964,169.437 329.5,177.5C 332.823,186.66 339.156,189.66 348.5,186.5C 348.167,203.18 348.501,219.847 349.5,236.5C 351.739,237.788 354.072,238.788 356.5,239.5C 356.806,249.25 356.473,258.916 355.5,268.5C 351.644,270.527 347.644,270.86 343.5,269.5C 331.769,298.232 311.102,317.232 281.5,326.5C 266.433,329.992 251.433,330.325 236.5,327.5C 239.85,327.665 243.183,327.498 246.5,327C 287.043,315.122 310.543,288.289 317,246.5C 317.5,232.171 317.667,217.837 317.5,203.5C 318.833,200.167 318.833,196.833 317.5,193.5C 317.794,181.117 317.46,168.783 316.5,156.5 Z"/></g>
<g><path style="opacity:1" fill="#d98868" d="M 363.5,172.5 C 374.611,175.966 380.611,183.632 381.5,195.5C 382.715,207.362 380.882,218.696 376,229.5C 371.75,237.208 365.25,240.542 356.5,239.5C 354.072,238.788 351.739,237.788 349.5,236.5C 348.501,219.847 348.167,203.18 348.5,186.5C 354.129,182.539 359.129,177.873 363.5,172.5 Z"/></g>
<g><path style="opacity:1" fill="#e8916f" d="M 145.5,171.5 C 150.065,177.637 155.731,182.637 162.5,186.5C 162.5,202.833 162.5,219.167 162.5,235.5C 156.731,239.545 150.397,240.545 143.5,238.5C 141.645,236.967 139.812,235.3 138,233.5C 139.909,240.622 141.075,247.956 141.5,255.5C 143.354,269.916 145.688,284.25 148.5,298.5C 139.303,315.028 125.636,326.028 107.5,331.5C 97.4416,333.67 87.4416,334.003 77.5,332.5C 101.549,328.285 118.382,314.952 128,292.5C 129.802,287.625 131.135,282.625 132,277.5C 132.667,259.167 132.667,240.833 132,222.5C 129.788,213.647 128.954,204.647 129.5,195.5C 129.5,194.167 129.5,192.833 129.5,191.5C 132.359,182.663 137.692,175.996 145.5,171.5 Z"/></g>
<g><path style="opacity:0.997" fill="#ebad87" d="M 129.5,195.5 C 128.954,204.647 129.788,213.647 132,222.5C 132.667,240.833 132.667,259.167 132,277.5C 131.135,282.625 129.802,287.625 128,292.5C 118.382,314.952 101.549,328.285 77.5,332.5C 75.139,332.326 72.8056,331.993 70.5,331.5C 51.982,325.979 38.3153,314.646 29.5,297.5C 30.4595,288.743 31.9595,280.076 34,271.5C 37.8071,252.895 45.1405,235.895 56,220.5C 68.8374,207.995 83.3374,197.828 99.5,190C 102.257,189.416 104.923,189.75 107.5,191C 116.103,195.216 122.936,201.383 128,209.5C 128.174,204.649 128.674,199.982 129.5,195.5 Z"/></g>
<g><path style="opacity:1" fill="#d98868" d="M 197.5,190.5 C 206.506,190.334 215.506,190.5 224.5,191C 230.825,191.995 236.658,194.162 242,197.5C 243.914,204.368 241.414,208.035 234.5,208.5C 221.641,206.004 208.641,204.838 195.5,205C 191.054,199.397 191.721,194.564 197.5,190.5 Z"/></g>
<g><path style="opacity:1" fill="#d98868" d="M 317.5,193.5 C 318.833,196.833 318.833,200.167 317.5,203.5C 316.711,203.783 316.044,204.283 315.5,205C 302.019,204.825 288.685,205.992 275.5,208.5C 273.307,208.674 271.473,208.007 270,206.5C 267.144,201.08 268.311,196.913 273.5,194C 286.626,190.661 299.959,189.661 313.5,191C 314.984,191.662 316.317,192.496 317.5,193.5 Z"/></g>
<g><path style="opacity:0.996" fill="#ebad87" d="M 466.5,212.5 C 465.668,233.329 465.168,254.329 465,275.5C 461.048,300.574 447.548,318.408 424.5,329C 419.655,330.869 414.655,332.035 409.5,332.5C 407.565,331.85 405.565,331.517 403.5,331.5C 373.77,321.071 357.77,300.071 355.5,268.5C 356.473,258.916 356.806,249.25 356.5,239.5C 365.25,240.542 371.75,237.208 376,229.5C 380.882,218.696 382.715,207.362 381.5,195.5C 382.326,200.316 382.826,205.316 383,210.5C 386.347,208.94 389.847,207.773 393.5,207C 404.134,205.89 414.801,205.223 425.5,205C 435.98,203.763 444.314,198.93 450.5,190.5C 452.89,194.274 455.057,198.274 457,202.5C 460.371,205.703 463.538,209.036 466.5,212.5 Z"/></g>
<g><path style="opacity:1" fill="#e8916f" d="M 466.5,212.5 C 467.488,213.795 468.488,215.128 469.5,216.5C 471.593,220.354 473.426,224.354 475,228.5C 478.152,233.16 482.319,234.493 487.5,232.5C 487.5,244.5 487.5,256.5 487.5,268.5C 487.041,291.252 477.708,309.419 459.5,323C 453.648,326.926 447.315,329.759 440.5,331.5C 430.099,333.643 419.765,333.976 409.5,332.5C 414.655,332.035 419.655,330.869 424.5,329C 447.548,318.408 461.048,300.574 465,275.5C 465.168,254.329 465.668,233.329 466.5,212.5 Z"/></g>
<g><path style="opacity:0.959" fill="#d98867" d="M 499.5,221.5 C 506.059,224.053 510.059,228.72 511.5,235.5C 511.5,241.5 511.5,247.5 511.5,253.5C 510.306,259.048 507.639,263.881 503.5,268C 498.252,271.157 492.919,271.323 487.5,268.5C 487.5,256.5 487.5,244.5 487.5,232.5C 491.474,228.862 495.474,225.195 499.5,221.5 Z"/></g>
<g><path style="opacity:1" fill="#fed259" d="M 143.5,238.5 C 143.784,244.417 143.117,250.084 141.5,255.5C 141.075,247.956 139.909,240.622 138,233.5C 139.812,235.3 141.645,236.967 143.5,238.5 Z"/></g>
<g><path style="opacity:1" fill="#febd54" d="M 162.5,235.5 C 163.241,244.074 164.407,252.741 166,261.5C 168.346,267.037 170.179,272.703 171.5,278.5C 169.573,293.782 164.573,307.948 156.5,321C 155.216,321.684 154.049,321.517 153,320.5C 151.05,313.252 149.55,305.919 148.5,298.5C 145.688,284.25 143.354,269.916 141.5,255.5C 143.117,250.084 143.784,244.417 143.5,238.5C 150.397,240.545 156.731,239.545 162.5,235.5 Z"/></g>
<g><path style="opacity:1" fill="#d98868" d="M 210.5,250.5 C 212.857,250.337 215.19,250.503 217.5,251C 234.692,273.962 256.025,278.628 281.5,265C 286.21,260.892 290.21,256.225 293.5,251C 299.76,249.121 303.427,251.288 304.5,257.5C 298.177,273.302 286.511,282.802 269.5,286C 243.793,291.326 223.293,283.493 208,262.5C 205.523,257.669 206.356,253.669 210.5,250.5 Z"/></g>
<g><path style="opacity:0.99" fill="#d98868" d="M 229.5,326.5 C 231.861,326.674 234.194,327.007 236.5,327.5C 251.433,330.325 266.433,329.992 281.5,326.5C 281.5,336.833 281.5,347.167 281.5,357.5C 281.5,359.167 281.5,360.833 281.5,362.5C 264.167,362.5 246.833,362.5 229.5,362.5C 229.5,360.833 229.5,359.167 229.5,357.5C 229.5,347.167 229.5,336.833 229.5,326.5 Z"/></g>
<g><path style="opacity:0.984" fill="#d98868" d="M 70.5,331.5 C 72.8056,331.993 75.139,332.326 77.5,332.5C 87.4416,334.003 97.4416,333.67 107.5,331.5C 107.5,338.5 107.5,345.5 107.5,352.5C 107.5,353.833 107.5,355.167 107.5,356.5C 95.1667,356.5 82.8333,356.5 70.5,356.5C 70.5,354.833 70.5,353.167 70.5,351.5C 70.5,344.833 70.5,338.167 70.5,331.5 Z"/></g>
<g><path style="opacity:0.984" fill="#d98868" d="M 403.5,331.5 C 405.565,331.517 407.565,331.85 409.5,332.5C 419.765,333.976 430.099,333.643 440.5,331.5C 440.5,338.5 440.5,345.5 440.5,352.5C 440.768,354.099 440.434,355.432 439.5,356.5C 427.5,356.5 415.5,356.5 403.5,356.5C 403.5,355.167 403.5,353.833 403.5,352.5C 403.5,345.5 403.5,338.5 403.5,331.5 Z"/></g>
<g><path style="opacity:0.989" fill="#d6264e" d="M 70.5,351.5 C 70.5,353.167 70.5,354.833 70.5,356.5C 70.2627,357.791 70.596,358.791 71.5,359.5C 77.1713,384.177 82.838,408.844 88.5,433.5C 74.5531,419.623 61.0531,405.289 48,390.5C 47.5002,379.839 47.3335,369.172 47.5,358.5C 48.1223,356.665 49.4556,355.498 51.5,355C 55.5,353.667 59.5,352.333 63.5,351C 65.9291,350.297 68.2625,350.463 70.5,351.5 Z"/></g>
<g><path style="opacity:0.99" fill="#d6264e" d="M 131.5,358.5 C 131.601,368.852 131.267,379.185 130.5,389.5C 117.167,404.5 103.833,419.5 90.5,434.5C 89.8333,434.5 89.1667,434.5 88.5,434.5C 88.5,434.167 88.5,433.833 88.5,433.5C 95.2525,408.36 101.586,383.026 107.5,357.5C 107.5,357.167 107.5,356.833 107.5,356.5C 107.5,355.167 107.5,353.833 107.5,352.5C 109.496,350.667 111.829,350.167 114.5,351C 119.5,352.667 124.5,354.333 129.5,356C 130.381,356.708 131.047,357.542 131.5,358.5 Z"/></g>
<g><path style="opacity:0.991" fill="#24b5c7" d="M 403.5,352.5 C 403.5,353.833 403.5,355.167 403.5,356.5C 409.658,381.799 415.825,407.132 422,432.5C 428.156,407.219 433.989,381.886 439.5,356.5C 440.434,355.432 440.768,354.099 440.5,352.5C 442.468,350.685 444.802,350.185 447.5,351C 452.091,352.864 456.757,354.53 461.5,356C 462.381,356.708 463.047,357.542 463.5,358.5C 463.5,368.833 463.5,379.167 463.5,389.5C 450.067,404.689 436.4,419.689 422.5,434.5C 422.167,434.5 421.833,434.5 421.5,434.5C 408.205,420.036 394.705,405.703 381,391.5C 379.546,380.603 379.046,369.603 379.5,358.5C 384.575,354.969 390.242,352.469 396.5,351C 399.171,350.167 401.504,350.667 403.5,352.5 Z"/></g>
<g><path style="opacity:0.992" fill="#50475e" d="M 229.5,357.5 C 229.5,359.167 229.5,360.833 229.5,362.5C 237.828,397.812 246.161,433.145 254.5,468.5C 254.631,469.239 254.464,469.906 254,470.5C 239.822,460.411 225.822,450.077 212,439.5C 211.667,432.833 211.333,426.167 211,419.5C 206.333,416.167 201.667,412.833 197,409.5C 196.831,394.328 196.331,379.328 195.5,364.5C 196.29,363.206 197.29,362.039 198.5,361C 207.687,357.489 217.02,354.822 226.5,353C 227.781,354.409 228.781,355.909 229.5,357.5 Z"/></g>
<g><path style="opacity:0.992" fill="#50475e" d="M 315.5,364.5 C 314.504,378.99 314.171,393.657 314.5,408.5C 309.851,412.303 305.018,415.97 300,419.5C 299.667,426.167 299.333,432.833 299,439.5C 285.178,450.077 271.178,460.411 257,470.5C 256.536,469.906 256.369,469.239 256.5,468.5C 264.833,433.169 273.166,397.836 281.5,362.5C 281.5,360.833 281.5,359.167 281.5,357.5C 282.119,354.881 283.786,353.214 286.5,352.5C 295.198,355.233 303.864,358.066 312.5,361C 313.71,362.039 314.71,363.206 315.5,364.5 Z"/></g>
<g><path style="opacity:0.997" fill="#e1848b" d="M 70.5,356.5 C 82.8333,356.5 95.1667,356.5 107.5,356.5C 107.5,356.833 107.5,357.167 107.5,357.5C 95.1201,356.854 83.1201,357.521 71.5,359.5C 70.596,358.791 70.2627,357.791 70.5,356.5 Z"/></g>
<g><path style="opacity:1" fill="#dcdde6" d="M 107.5,357.5 C 101.586,383.026 95.2525,408.36 88.5,433.5C 82.838,408.844 77.1713,384.177 71.5,359.5C 83.1201,357.521 95.1201,356.854 107.5,357.5 Z"/></g>
<g><path style="opacity:1" fill="#dadde6" d="M 403.5,356.5 C 415.5,356.5 427.5,356.5 439.5,356.5C 433.989,381.886 428.156,407.219 422,432.5C 415.825,407.132 409.658,381.799 403.5,356.5 Z"/></g>
<g><path style="opacity:0.983" fill="#fe2b5b" d="M 47.5,358.5 C 47.3335,369.172 47.5002,379.839 48,390.5C 61.0531,405.289 74.5531,419.623 88.5,433.5C 88.5,433.833 88.5,434.167 88.5,434.5C 60.4921,434.833 32.4921,434.5 4.5,433.5C 0.690115,406.083 9.35678,383.583 30.5,366C 35.6878,362.406 41.3545,359.906 47.5,358.5 Z"/></g>
<g><path style="opacity:0.987" fill="#46d4e5" d="M 379.5,358.5 C 379.046,369.603 379.546,380.603 381,391.5C 394.705,405.703 408.205,420.036 421.5,434.5C 405.833,434.5 390.167,434.5 374.5,434.5C 370.207,414.576 361.207,397.243 347.5,382.5C 355.254,370.622 365.92,362.622 379.5,358.5 Z"/></g>
<g><path style="opacity:1" fill="#e52753" d="M 131.5,358.5 C 145.08,362.622 155.746,370.622 163.5,382.5C 154.993,392.182 147.993,402.848 142.5,414.5C 141.906,402.884 138.406,392.218 132,382.5C 131.814,385.036 131.314,387.369 130.5,389.5C 131.267,379.185 131.601,368.852 131.5,358.5 Z"/></g>
<g><path style="opacity:1" fill="#22c0d4" d="M 463.5,358.5 C 486.946,366.122 501.113,382.122 506,406.5C 507.668,415.5 507.834,424.5 506.5,433.5C 496.522,434.499 486.522,434.832 476.5,434.5C 478.428,416.125 474.595,399.125 465,383.5C 464.809,385.708 464.309,387.708 463.5,389.5C 463.5,379.167 463.5,368.833 463.5,358.5 Z"/></g>
<g><path style="opacity:1" fill="#fcd359" d="M 229.5,362.5 C 246.833,362.5 264.167,362.5 281.5,362.5C 273.166,397.836 264.833,433.169 256.5,468.5C 255.833,468.5 255.167,468.5 254.5,468.5C 246.161,433.145 237.828,397.812 229.5,362.5 Z"/></g>
<g><path style="opacity:0.993" fill="#685b78" d="M 195.5,364.5 C 196.331,379.328 196.831,394.328 197,409.5C 201.667,412.833 206.333,416.167 211,419.5C 211.333,426.167 211.667,432.833 212,439.5C 225.822,450.077 239.822,460.411 254,470.5C 254.464,469.906 254.631,469.239 254.5,468.5C 255.167,468.5 255.833,468.5 256.5,468.5C 256.369,469.239 256.536,469.906 257,470.5C 271.178,460.411 285.178,450.077 299,439.5C 299.333,432.833 299.667,426.167 300,419.5C 305.018,415.97 309.851,412.303 314.5,408.5C 315.329,400.343 315.829,392.01 316,383.5C 339.266,408.131 349.1,437.464 345.5,471.5C 276.166,471.667 206.833,471.5 137.5,471C 136.667,470.167 135.833,469.333 135,468.5C 134.077,457.075 134.577,445.741 136.5,434.5C 137.859,427.751 139.859,421.084 142.5,414.5C 147.993,402.848 154.993,392.182 163.5,382.5C 172.967,374.431 183.634,368.431 195.5,364.5 Z"/></g>
<g><path style="opacity:1" fill="#594f69" d="M 315.5,364.5 C 327.366,368.431 338.033,374.431 347.5,382.5C 361.207,397.243 370.207,414.576 374.5,434.5C 376.423,445.741 376.923,457.075 376,468.5C 375.167,469.333 374.333,470.167 373.5,471C 364.173,471.5 354.839,471.666 345.5,471.5C 349.1,437.464 339.266,408.131 316,383.5C 315.829,392.01 315.329,400.343 314.5,408.5C 314.171,393.657 314.504,378.99 315.5,364.5 Z"/></g>
<g><path style="opacity:0.999" fill="#fe2c5b" d="M 142.5,414.5 C 139.859,421.084 137.859,427.751 136.5,434.5C 121.167,434.5 105.833,434.5 90.5,434.5C 103.833,419.5 117.167,404.5 130.5,389.5C 131.314,387.369 131.814,385.036 132,382.5C 138.406,392.218 141.906,402.884 142.5,414.5 Z"/></g>
<g><path style="opacity:0.999" fill="#46d4e5" d="M 476.5,434.5 C 458.5,434.5 440.5,434.5 422.5,434.5C 436.4,419.689 450.067,404.689 463.5,389.5C 464.309,387.708 464.809,385.708 465,383.5C 474.595,399.125 478.428,416.125 476.5,434.5 Z"/></g>
</svg>
