<?xml version="1.0" encoding="UTF-8"?>
<!DOCTYPE svg PUBLIC "-//W3C//DTD SVG 1.1//EN" "http://www.w3.org/Graphics/SVG/1.1/DTD/svg11.dtd">
<svg xmlns="http://www.w3.org/2000/svg" version="1.1" width="512px" height="512px" style="shape-rendering:geometricPrecision; text-rendering:geometricPrecision; image-rendering:optimizeQuality; fill-rule:evenodd; clip-rule:evenodd" xmlns:xlink="http://www.w3.org/1999/xlink">
<g><path style="opacity:1" fill="#0ed290" d="M 245.5,-0.5 C 250.167,-0.5 254.833,-0.5 259.5,-0.5C 259.5,0.166667 259.833,0.5 260.5,0.5C 247.944,8.33757 244.777,19.0042 251,32.5C 253.406,36.4085 256.572,39.4085 260.5,41.5C 254.962,44.0966 249.295,44.0966 243.5,41.5C 238.5,38.5 234.5,34.5 231.5,29.5C 228.119,15.5999 232.786,5.5999 245.5,-0.5 Z"/></g>
<g><path style="opacity:0.987" fill="#06e29c" d="M 260.5,0.5 C 272.07,5.97339 276.403,14.9734 273.5,27.5C 271.217,32.4228 268.217,36.7562 264.5,40.5C 263.167,40.8333 261.833,41.1667 260.5,41.5C 256.572,39.4085 253.406,36.4085 251,32.5C 244.777,19.0042 247.944,8.33757 260.5,0.5 Z"/></g>
<g><path style="opacity:0.967" fill="#7ba1b1" d="M 273.5,27.5 C 307.079,52.1179 340.079,77.4513 372.5,103.5C 368.37,107.287 365.036,111.621 362.5,116.5C 330.143,90.8152 297.477,65.4819 264.5,40.5C 268.217,36.7562 271.217,32.4228 273.5,27.5 Z"/></g>
<g><path style="opacity:0.967" fill="#7ca0b0" d="M 231.5,29.5 C 234.5,34.5 238.5,38.5 243.5,41.5C 229.14,55.5274 214.807,69.5274 200.5,83.5C 197.5,78.5 193.5,74.5 188.5,71.5C 203.068,57.7206 217.402,43.7206 231.5,29.5 Z"/></g>
<g><path style="opacity:1" fill="#f9c601" d="M 458.5,34.5 C 445.962,42.2877 442.795,52.9543 449,66.5C 451.795,69.8106 454.961,72.4772 458.5,74.5C 455.983,75.973 453.15,76.6397 450,76.5C 447.135,76.3157 444.302,75.9823 441.5,75.5C 439.747,73.7775 437.747,72.2775 435.5,71C 433.636,68.3123 431.636,65.8123 429.5,63.5C 425.359,45.4173 432.359,35.084 450.5,32.5C 453.486,32.3817 456.152,33.0483 458.5,34.5 Z"/></g>
<g><path style="opacity:0.981" fill="#fed301" d="M 458.5,34.5 C 470.479,40.1377 474.646,49.471 471,62.5C 468.921,68.7472 464.754,72.7472 458.5,74.5C 454.961,72.4772 451.795,69.8106 449,66.5C 442.795,52.9543 445.962,42.2877 458.5,34.5 Z"/></g>
<g><path style="opacity:0.967" fill="#7ca1b0" d="M 429.5,63.5 C 431.636,65.8123 433.636,68.3123 435.5,71C 437.747,72.2775 439.747,73.7775 441.5,75.5C 429.194,88.14 416.861,100.807 404.5,113.5C 402.114,108.781 398.447,105.448 393.5,103.5C 393.167,102.833 392.833,102.167 392.5,101.5C 405.532,89.4688 417.865,76.8021 429.5,63.5 Z"/></g>
<g><path style="opacity:1" fill="#ef4424" d="M 187.5,71.5 C 174.361,81.0951 172.194,92.7617 181,106.5C 183.478,108.82 186.311,110.486 189.5,111.5C 171.549,117.023 160.883,110.523 157.5,92C 160.198,74.0997 170.198,67.2664 187.5,71.5 Z"/></g>
<g><path style="opacity:0.984" fill="#fc5326" d="M 187.5,71.5 C 187.833,71.5 188.167,71.5 188.5,71.5C 193.5,74.5 197.5,78.5 200.5,83.5C 204.01,95.7943 200.343,105.128 189.5,111.5C 186.311,110.486 183.478,108.82 181,106.5C 172.194,92.7617 174.361,81.0951 187.5,71.5 Z"/></g>
<g><path style="opacity:1" fill="#ef4424" d="M 392.5,101.5 C 392.833,102.167 393.167,102.833 393.5,103.5C 384.319,106.366 379.652,112.7 379.5,122.5C 379.868,132.198 384.534,138.864 393.5,142.5C 380.611,147.257 370.778,143.591 364,131.5C 362.675,126.599 362.175,121.599 362.5,116.5C 365.036,111.621 368.37,107.287 372.5,103.5C 378.904,100.46 385.571,99.7929 392.5,101.5 Z"/></g>
<g><path style="opacity:0.983" fill="#fc5426" d="M 393.5,103.5 C 398.447,105.448 402.114,108.781 404.5,113.5C 407.629,121.536 406.796,129.203 402,136.5C 399.721,139.381 396.888,141.381 393.5,142.5C 384.534,138.864 379.868,132.198 379.5,122.5C 379.652,112.7 384.319,106.366 393.5,103.5 Z"/></g>
<g><path style="opacity:0.998" fill="#07e29b" d="M 249.5,111.5 C 257.752,111.184 265.919,111.518 274,112.5C 274.5,159.499 274.667,206.499 274.5,253.5C 266.063,246.062 257.063,239.396 247.5,233.5C 247.333,193.499 247.5,153.499 248,113.5C 248.717,112.956 249.217,112.289 249.5,111.5 Z"/></g>
<g><path style="opacity:1" fill="#0fd290" d="M 249.5,111.5 C 249.217,112.289 248.717,112.956 248,113.5C 247.5,153.499 247.333,193.499 247.5,233.5C 241.633,230.404 235.967,227.071 230.5,223.5C 230.333,186.832 230.5,150.165 231,113.5C 231.5,113 232,112.5 232.5,112C 238.157,111.501 243.824,111.334 249.5,111.5 Z"/></g>
<g><path style="opacity:1" fill="#678d98" d="M 125.5,147.5 C 100.821,152.76 82.3212,166.427 70,188.5C 68.5886,190.65 67.7553,192.984 67.5,195.5C 53.1829,216.17 52.8496,237.17 66.5,258.5C 75.259,279.759 90.259,294.926 111.5,304C 115.716,305.684 120.049,306.851 124.5,307.5C 124.5,312.167 124.5,316.833 124.5,321.5C 123.71,322.794 122.71,323.961 121.5,325C 118.183,325.498 114.85,325.665 111.5,325.5C 106.156,325.666 100.823,325.499 95.5,325C 94.0692,324.535 92.9025,323.701 92,322.5C 91.6667,314.167 91.3333,305.833 91,297.5C 89.871,295.859 88.371,294.859 86.5,294.5C 81.3261,291.253 75.6594,289.753 69.5,290C 68.2899,291.039 67.2899,292.206 66.5,293.5C 62.8333,296.5 59.5,299.833 56.5,303.5C 55.3734,304.122 54.3734,304.955 53.5,306C 52.1667,306.667 50.8333,306.667 49.5,306C 44.77,302.971 40.4366,299.471 36.5,295.5C 34.1673,292.997 32.0007,290.331 30,287.5C 29.3333,285.5 29.3333,283.5 30,281.5C 35,276.5 40,271.5 45,266.5C 46.3014,264.635 46.6347,262.635 46,260.5C 43.9621,255.592 41.7954,250.759 39.5,246C 30.5748,244.752 21.5748,244.085 12.5,244C 10.1217,238.804 9.12168,233.304 9.5,227.5C 9.66667,224.5 9.83333,221.5 10,218.5C 10.1515,215.881 10.9848,213.547 12.5,211.5C 21.5532,210.971 30.5532,210.138 39.5,209C 42.6896,203.093 44.8562,196.927 46,190.5C 41,185.5 36,180.5 31,175.5C 29.5783,172.97 29.245,170.303 30,167.5C 35.7984,159.695 42.7984,153.362 51,148.5C 52.6268,148.625 54.1268,149.125 55.5,150C 60.5,155 65.5,160 70.5,165C 72.5,165.667 74.5,165.667 76.5,165C 81.0524,162.823 85.5524,160.656 90,158.5C 90.3333,150.5 90.6667,142.5 91,134.5C 91.5743,132.508 92.741,131.008 94.5,130C 104.267,129.053 113.934,129.387 123.5,131C 124.126,131.75 124.626,132.584 125,133.5C 125.499,138.155 125.666,142.821 125.5,147.5 Z"/></g>
<g><path style="opacity:0.972" fill="#00d0fb" d="M 448.5,142.5 C 455.841,142.334 463.174,142.5 470.5,143C 471,143.5 471.5,144 472,144.5C 472.5,215.499 472.667,286.499 472.5,357.5C 463.5,357.5 454.5,357.5 445.5,357.5C 445.167,286.497 445.5,215.497 446.5,144.5C 447.522,144.145 448.189,143.478 448.5,142.5 Z"/></g>
<g><path style="opacity:1" fill="#01c0fa" d="M 448.5,142.5 C 448.189,143.478 447.522,144.145 446.5,144.5C 445.5,215.497 445.167,286.497 445.5,357.5C 439.833,357.5 434.167,357.5 428.5,357.5C 428.167,286.164 428.5,214.83 429.5,143.5C 435.773,142.54 442.107,142.207 448.5,142.5 Z"/></g>
<g><path style="opacity:0.995" fill="#7ca1b0" d="M 125.5,147.5 C 125.335,150.85 125.502,154.183 126,157.5C 127.214,159.049 128.714,160.215 130.5,161C 134.733,162.369 138.899,163.869 143,165.5C 144.627,165.375 146.127,164.875 147.5,164C 152.5,159 157.5,154 162.5,149C 164.167,148.333 165.833,148.333 167.5,149C 176.104,154.435 182.771,161.602 187.5,170.5C 187.281,171.938 186.781,173.271 186,174.5C 179.947,180.05 174.447,186.05 169.5,192.5C 171.862,198.725 174.862,204.558 178.5,210C 186.833,210.333 195.167,210.667 203.5,211C 205.16,212.488 206.16,214.321 206.5,216.5C 206.961,225.314 206.294,233.981 204.5,242.5C 203.711,242.783 203.044,243.283 202.5,244C 194.167,244.333 185.833,244.667 177.5,245C 174.922,247.228 173.589,250.061 173.5,253.5C 170.324,256.867 169.158,260.867 170,265.5C 175.333,270.833 180.667,276.167 186,281.5C 186.667,283.5 186.667,285.5 186,287.5C 180.488,295.189 173.655,301.189 165.5,305.5C 163.701,305.423 162.034,304.923 160.5,304C 155.5,299 150.5,294 145.5,289C 139.338,290.165 133.338,292.165 127.5,295C 127,295.5 126.5,296 126,296.5C 125.829,305.01 125.329,313.343 124.5,321.5C 124.5,316.833 124.5,312.167 124.5,307.5C 120.049,306.851 115.716,305.684 111.5,304C 90.259,294.926 75.259,279.759 66.5,258.5C 83.3962,277.762 104.063,283.262 128.5,275C 155.431,260.293 164.597,238.126 156,208.5C 143.065,182.505 122.231,172.338 93.5,178C 83.335,181.675 74.6684,187.508 67.5,195.5C 67.7553,192.984 68.5886,190.65 70,188.5C 82.3212,166.427 100.821,152.76 125.5,147.5 Z"/></g>
<g><path style="opacity:1" fill="#06bff9" d="M 315.5,148.5 C 315.217,149.289 314.717,149.956 314,150.5C 313.5,205.499 313.333,260.499 313.5,315.5C 308.653,302.805 302.986,290.471 296.5,278.5C 296.333,235.499 296.5,192.499 297,149.5C 303.076,148.524 309.242,148.19 315.5,148.5 Z"/></g>
<g><path style="opacity:0.984" fill="#03cffa" d="M 315.5,148.5 C 323.752,148.184 331.919,148.518 340,149.5C 340.5,218.833 340.667,288.166 340.5,357.5C 333.833,357.5 327.167,357.5 320.5,357.5C 319.678,343.234 317.345,329.234 313.5,315.5C 313.333,260.499 313.5,205.499 314,150.5C 314.717,149.956 315.217,149.289 315.5,148.5 Z"/></g>
<g><path style="opacity:1" fill="#8db9c4" d="M 66.5,258.5 C 52.8496,237.17 53.1829,216.17 67.5,195.5C 74.6684,187.508 83.335,181.675 93.5,178C 122.231,172.338 143.065,182.505 156,208.5C 164.597,238.126 155.431,260.293 128.5,275C 104.063,283.262 83.3962,277.762 66.5,258.5 Z"/></g>
<g><path style="opacity:1" fill="#fac600" d="M 381.5,190.5 C 381.217,191.289 380.717,191.956 380,192.5C 379.5,247.499 379.333,302.499 379.5,357.5C 373.833,357.5 368.167,357.5 362.5,357.5C 362.333,302.166 362.5,246.832 363,191.5C 369.076,190.524 375.242,190.19 381.5,190.5 Z"/></g>
<g><path style="opacity:0.98" fill="#fed301" d="M 381.5,190.5 C 389.939,189.884 398.106,190.551 406,192.5C 406.5,247.499 406.667,302.499 406.5,357.5C 397.5,357.5 388.5,357.5 379.5,357.5C 379.333,302.499 379.5,247.499 380,192.5C 380.717,191.956 381.217,191.289 381.5,190.5 Z"/></g>
<g><path style="opacity:1" fill="#394a4a" d="M 108.5,191.5 C 92.5567,204.162 87.0567,220.495 92,240.5C 94.9484,249.907 100.448,257.407 108.5,263C 106.866,263.494 105.199,263.66 103.5,263.5C 84.0811,259.408 73.4144,247.408 71.5,227.5C 72.8267,209.341 82.16,197.508 99.5,192C 102.482,191.502 105.482,191.335 108.5,191.5 Z"/></g>
<g><path style="opacity:1" fill="#3f5a5a" d="M 108.5,191.5 C 126.833,192.584 138.666,201.917 144,219.5C 146.046,245.744 134.046,260.744 108,264.5C 106.293,264.492 104.793,264.158 103.5,263.5C 105.199,263.66 106.866,263.494 108.5,263C 100.448,257.407 94.9484,249.907 92,240.5C 87.0567,220.495 92.5567,204.162 108.5,191.5 Z"/></g>
<g><path style="opacity:1" fill="#fcfcfc" d="M 103.5,212.5 C 119.328,211.853 125.495,219.187 122,234.5C 117.351,241.499 110.851,243.999 102.5,242C 94.0419,237.576 91.2086,230.742 94,221.5C 96.4057,217.592 99.5724,214.592 103.5,212.5 Z"/></g>
<g><path style="opacity:0.993" fill="#fc5326" d="M 206.5,216.5 C 214.74,218.025 222.74,220.358 230.5,223.5C 235.967,227.071 241.633,230.404 247.5,233.5C 257.063,239.396 266.063,246.062 274.5,253.5C 282.578,261.24 289.911,269.573 296.5,278.5C 302.986,290.471 308.653,302.805 313.5,315.5C 317.345,329.234 319.678,343.234 320.5,357.5C 320.5,362.833 320.5,368.167 320.5,373.5C 313.936,432.5 283.936,474.667 230.5,500C 216.8,505.422 202.8,509.255 188.5,511.5C 185.167,511.5 181.833,511.5 178.5,511.5C 114.955,501.454 72.4555,466.12 51,405.5C 40.8962,370.761 42.7295,336.761 56.5,303.5C 59.5,299.833 62.8333,296.5 66.5,293.5C 67.0431,293.56 67.3764,293.893 67.5,294.5C 41.6965,337.586 40.8632,381.253 65,425.5C 100.452,477.124 148.619,494.958 209.5,479C 263.155,457.917 291.488,418.417 294.5,360.5C 292.299,315.201 272.299,280.368 234.5,256C 224.691,250.798 214.691,246.298 204.5,242.5C 206.294,233.981 206.961,225.314 206.5,216.5 Z"/></g>
<g><path style="opacity:1" fill="#d73e25" d="M 204.5,242.5 C 214.691,246.298 224.691,250.798 234.5,256C 272.299,280.368 292.299,315.201 294.5,360.5C 291.488,418.417 263.155,457.917 209.5,479C 148.619,494.958 100.452,477.124 65,425.5C 40.8632,381.253 41.6965,337.586 67.5,294.5C 67.3764,293.893 67.0431,293.56 66.5,293.5C 67.2899,292.206 68.2899,291.039 69.5,290C 75.6594,289.753 81.3261,291.253 86.5,294.5C 72.0659,311.778 64.0659,331.778 62.5,354.5C 70.5069,354.334 78.5069,354.5 86.5,355C 91.4344,357.665 92.6011,361.498 90,366.5C 88.8289,367.893 87.3289,368.727 85.5,369C 78.1742,369.5 70.8409,369.666 63.5,369.5C 63.8753,383.669 67.3753,397.002 74,409.5C 82.3847,406.851 86.0514,409.851 85,418.5C 84.0197,419.981 82.853,421.315 81.5,422.5C 88.8103,434.31 98.3103,443.977 110,451.5C 113.42,447.247 117.587,446.413 122.5,449C 124.634,451.971 124.967,455.138 123.5,458.5C 135.74,465.797 149.073,469.464 163.5,469.5C 163.5,462.5 163.5,455.5 163.5,448.5C 166.166,441.066 170.666,439.732 177,444.5C 178.438,452.723 178.938,461.057 178.5,469.5C 192.583,468.974 205.917,465.474 218.5,459C 215.634,454.779 216.301,451.112 220.5,448C 225.05,446.662 228.717,447.829 231.5,451.5C 242.48,443.687 251.98,434.354 260,423.5C 259.32,421.874 258.32,420.207 257,418.5C 255.823,409.681 259.489,406.681 268,409.5C 274.466,396.938 277.966,383.604 278.5,369.5C 270.826,369.666 263.159,369.5 255.5,369C 249.347,364.748 249.014,360.081 254.5,355C 262.493,354.5 270.493,354.334 278.5,354.5C 277.819,340.936 274.652,327.936 269,315.5C 266.301,315.336 263.468,315.17 260.5,315C 255.188,310.428 255.188,305.761 260.5,301C 252.977,289.31 243.31,279.81 231.5,272.5C 228.21,276.66 224.21,277.493 219.5,275C 217.379,271.826 217.046,268.493 218.5,265C 204.417,257.81 189.417,253.976 173.5,253.5C 173.589,250.061 174.922,247.228 177.5,245C 185.833,244.667 194.167,244.333 202.5,244C 203.044,243.283 203.711,242.783 204.5,242.5 Z"/></g>
<g><path style="opacity:1" fill="#fefefe" d="M 173.5,253.5 C 189.417,253.976 204.417,257.81 218.5,265C 217.046,268.493 217.379,271.826 219.5,275C 224.21,277.493 228.21,276.66 231.5,272.5C 243.31,279.81 252.977,289.31 260.5,301C 255.188,305.761 255.188,310.428 260.5,315C 263.468,315.17 266.301,315.336 269,315.5C 274.652,327.936 277.819,340.936 278.5,354.5C 270.493,354.334 262.493,354.5 254.5,355C 249.014,360.081 249.347,364.748 255.5,369C 263.159,369.5 270.826,369.666 278.5,369.5C 277.966,383.604 274.466,396.938 268,409.5C 259.489,406.681 255.823,409.681 257,418.5C 258.32,420.207 259.32,421.874 260,423.5C 251.98,434.354 242.48,443.687 231.5,451.5C 228.717,447.829 225.05,446.662 220.5,448C 216.301,451.112 215.634,454.779 218.5,459C 205.917,465.474 192.583,468.974 178.5,469.5C 178.938,461.057 178.438,452.723 177,444.5C 170.666,439.732 166.166,441.066 163.5,448.5C 162.673,453.985 162.173,459.652 162,465.5C 116.366,439.577 95.3661,400.244 99,347.5C 100.181,340.743 101.681,334.076 103.5,327.5C 106.306,326.832 108.972,326.166 111.5,325.5C 114.85,325.665 118.183,325.498 121.5,325C 122.71,323.961 123.71,322.794 124.5,321.5C 125.329,313.343 125.829,305.01 126,296.5C 126.5,296 127,295.5 127.5,295C 133.338,292.165 139.338,290.165 145.5,289C 150.5,294 155.5,299 160.5,304C 162.034,304.923 163.701,305.423 165.5,305.5C 173.655,301.189 180.488,295.189 186,287.5C 186.667,285.5 186.667,283.5 186,281.5C 180.667,276.167 175.333,270.833 170,265.5C 169.158,260.867 170.324,256.867 173.5,253.5 Z"/></g>
<g><path style="opacity:1" fill="#edf3f3" d="M 86.5,294.5 C 88.371,294.859 89.871,295.859 91,297.5C 91.3333,305.833 91.6667,314.167 92,322.5C 92.9025,323.701 94.0692,324.535 95.5,325C 100.823,325.499 106.156,325.666 111.5,325.5C 108.972,326.166 106.306,326.832 103.5,327.5C 101.681,334.076 100.181,340.743 99,347.5C 95.3661,400.244 116.366,439.577 162,465.5C 162.173,459.652 162.673,453.985 163.5,448.5C 163.5,455.5 163.5,462.5 163.5,469.5C 149.073,469.464 135.74,465.797 123.5,458.5C 124.967,455.138 124.634,451.971 122.5,449C 117.587,446.413 113.42,447.247 110,451.5C 98.3103,443.977 88.8103,434.31 81.5,422.5C 82.853,421.315 84.0197,419.981 85,418.5C 86.0514,409.851 82.3847,406.851 74,409.5C 67.3753,397.002 63.8753,383.669 63.5,369.5C 70.8409,369.666 78.1742,369.5 85.5,369C 87.3289,368.727 88.8289,367.893 90,366.5C 92.6011,361.498 91.4344,357.665 86.5,355C 78.5069,354.5 70.5069,354.334 62.5,354.5C 64.0659,331.778 72.0659,311.778 86.5,294.5 Z"/></g>
<g><path style="opacity:1" fill="#ef4424" d="M 36.5,295.5 C 40.4366,299.471 44.77,302.971 49.5,306C 50.8333,306.667 52.1667,306.667 53.5,306C 54.3734,304.955 55.3734,304.122 56.5,303.5C 42.7295,336.761 40.8962,370.761 51,405.5C 72.4555,466.12 114.955,501.454 178.5,511.5C 170.167,511.5 161.833,511.5 153.5,511.5C 85.1134,499.951 41.9467,460.617 24,393.5C 17.0519,359.278 21.2186,326.612 36.5,295.5 Z"/></g>
<g><path style="opacity:1" fill="#557b84" d="M 167.5,354.5 C 169.527,354.338 171.527,354.505 173.5,355C 188.583,362.954 203.083,371.788 217,381.5C 217.999,389.498 214.499,392.665 206.5,391C 195.569,384.953 184.736,378.786 174,372.5C 163.842,388.139 154.176,404.139 145,420.5C 140.291,424.769 135.958,424.436 132,419.5C 131.333,417.167 131.333,414.833 132,412.5C 143.265,392.753 155.098,373.42 167.5,354.5 Z"/></g>
<g><path style="opacity:0.945" fill="#7ca1b0" d="M 320.5,357.5 C 327.167,357.5 333.833,357.5 340.5,357.5C 347.833,357.5 355.167,357.5 362.5,357.5C 368.167,357.5 373.833,357.5 379.5,357.5C 388.5,357.5 397.5,357.5 406.5,357.5C 413.833,357.5 421.167,357.5 428.5,357.5C 434.167,357.5 439.833,357.5 445.5,357.5C 454.5,357.5 463.5,357.5 472.5,357.5C 481.276,357.059 489.942,357.559 498.5,359C 501.848,362.419 502.348,366.252 500,370.5C 498.581,371.46 497.081,372.293 495.5,373C 437.168,373.5 378.834,373.667 320.5,373.5C 320.5,368.167 320.5,362.833 320.5,357.5 Z"/></g>
<g><path style="opacity:0.93" fill="#d73d23" d="M 351.5,388.5 C 354.649,388.211 357.649,388.711 360.5,390C 369.333,398.833 378.167,407.667 387,416.5C 389,419.833 389,423.167 387,426.5C 377.833,435.667 368.667,444.833 359.5,454C 350.211,456.29 346.378,452.79 348,443.5C 354.65,436.016 361.483,428.683 368.5,421.5C 362.181,414.681 355.681,408.014 349,401.5C 346.458,396.438 347.292,392.105 351.5,388.5 Z"/></g>
<g><path style="opacity:0.96" fill="#ee4424" d="M 405.5,388.5 C 408.649,388.211 411.649,388.711 414.5,390C 423.333,398.833 432.167,407.667 441,416.5C 443,419.833 443,423.167 441,426.5C 432.167,435.333 423.333,444.167 414.5,453C 404.32,456.66 400.154,453.16 402,442.5C 409.015,435.652 415.848,428.652 422.5,421.5C 415.848,414.348 409.015,407.348 402,400.5C 400.593,395.556 401.759,391.556 405.5,388.5 Z"/></g>
<g><path style="opacity:0.965" fill="#fd5325" d="M 459.5,388.5 C 463.219,388.002 466.553,388.836 469.5,391C 477.667,399.167 485.833,407.333 494,415.5C 494.931,417.459 495.764,419.459 496.5,421.5C 495.764,423.541 494.931,425.541 494,427.5C 485.5,436 477,444.5 468.5,453C 459.494,456.967 454.994,454.134 455,444.5C 461.983,436.683 469.15,429.016 476.5,421.5C 470.221,414.554 463.554,407.887 456.5,401.5C 453.604,396.201 454.604,391.868 459.5,388.5 Z"/></g>
</svg>
