<?xml version="1.0" encoding="UTF-8"?>
<!DOCTYPE svg PUBLIC "-//W3C//DTD SVG 1.1//EN" "http://www.w3.org/Graphics/SVG/1.1/DTD/svg11.dtd">
<svg xmlns="http://www.w3.org/2000/svg" version="1.1" width="512px" height="512px" style="shape-rendering:geometricPrecision; text-rendering:geometricPrecision; image-rendering:optimizeQuality; fill-rule:evenodd; clip-rule:evenodd" xmlns:xlink="http://www.w3.org/1999/xlink">
<g><path style="opacity:1" fill="#6e7fec" d="M 504.5,51.5 C 503.504,65.9905 503.171,80.6572 503.5,95.5C 338.167,95.5 172.833,95.5 7.5,95.5C 7.5,80.5 7.5,65.5 7.5,50.5C 10.6912,28.4696 23.0245,14.303 44.5,8C 114.807,6.84474 185.141,6.34474 255.5,6.5C 325.859,6.34474 396.193,6.84474 466.5,8C 488.257,14.5889 500.924,29.0889 504.5,51.5 Z"/></g>
<g><path style="opacity:1" fill="#fcfcfe" d="M 53.5,39.5 C 67.7234,37.4858 74.8901,43.4858 75,57.5C 71.5168,67.1611 64.6835,70.9944 54.5,69C 44.9811,63.4424 42.4811,55.6091 47,45.5C 49.0627,43.2659 51.2294,41.2659 53.5,39.5 Z"/></g>
<g><path style="opacity:1" fill="#fcfcfe" d="M 94.5,39.5 C 110.341,38.1663 116.841,45.1663 114,60.5C 107.399,70.247 99.2325,71.9137 89.5,65.5C 81.7208,54.9376 83.3874,46.2709 94.5,39.5 Z"/></g>
<g><path style="opacity:1" fill="#fcfcfe" d="M 134.5,39.5 C 153.196,39.0119 159.029,47.3452 152,64.5C 141.913,72.2396 133.247,70.9063 126,60.5C 123.308,51.2225 126.141,44.2225 134.5,39.5 Z"/></g>
<g><path style="opacity:1" fill="#fbfbfe" d="M 270.5,50.5 C 334.501,50.3333 398.501,50.5 462.5,51C 466.213,52.6912 467.379,55.5245 466,59.5C 465.097,60.7014 463.931,61.5348 462.5,62C 398.5,62.6667 334.5,62.6667 270.5,62C 266.555,58.1694 266.555,54.3361 270.5,50.5 Z"/></g>
<g><path style="opacity:1" fill="#8391eb" d="M 7.5,50.5 C 7.5,65.5 7.5,80.5 7.5,95.5C 172.833,95.5 338.167,95.5 503.5,95.5C 503.171,80.6572 503.504,65.9905 504.5,51.5C 504.5,66.5 504.5,81.5 504.5,96.5C 338.5,96.5 172.5,96.5 6.5,96.5C 6.17047,80.9909 6.5038,65.6576 7.5,50.5 Z"/></g>
<g><path style="opacity:0.992" fill="#e4e4e4" d="M 6.5,96.5 C 172.5,96.5 338.5,96.5 504.5,96.5C 504.667,217.834 504.5,339.167 504,460.5C 500.966,480.87 489.799,494.703 470.5,502C 466.886,502.945 463.219,503.612 459.5,504C 323.5,504.667 187.5,504.667 51.5,504C 30.5923,501.429 16.4256,490.263 9,470.5C 8.11839,467.211 7.45172,463.877 7,460.5C 6.5,339.167 6.33333,217.834 6.5,96.5 Z"/></g>
<g><path style="opacity:1" fill="#8c9ff9" d="M 145.5,118.5 C 145.5,130.167 145.5,141.833 145.5,153.5C 107.638,155.857 82.1378,174.857 69,210.5C 64.7126,224.393 64.3792,238.393 68,252.5C 70.7733,261.997 74.6066,270.997 79.5,279.5C 70.1667,285.833 60.8333,292.167 51.5,298.5C 42.5659,286.245 36.3992,272.578 33,257.5C 24.6322,205.418 42.1322,164.585 85.5,135C 103.975,124.004 123.975,118.504 145.5,118.5 Z"/></g>
<g><path style="opacity:1" fill="#fb8069" d="M 145.5,118.5 C 179.442,118.977 207.775,131.644 230.5,156.5C 221.808,164.195 213.141,171.862 204.5,179.5C 188.527,162.721 168.861,154.055 145.5,153.5C 145.5,141.833 145.5,130.167 145.5,118.5 Z"/></g>
<g><path style="opacity:1" fill="#8c9ff9" d="M 396.5,126.5 C 405.839,126.334 415.173,126.5 424.5,127C 428,127.833 430.167,130 431,133.5C 431.667,199.167 431.667,264.833 431,330.5C 429.833,334.333 427.333,336.833 423.5,338C 415.167,338.667 406.833,338.667 398.5,338C 395.829,336.75 393.663,334.917 392,332.5C 391.333,265.5 391.333,198.5 392,131.5C 393.707,129.963 395.207,128.296 396.5,126.5 Z"/></g>
<g><path style="opacity:1" fill="#e4e4e4" d="M 145.5,153.5 C 168.861,154.055 188.527,162.721 204.5,179.5C 231.556,213.774 232.389,248.774 207,284.5C 201.57,290.437 195.737,295.77 189.5,300.5C 147.065,322.717 110.399,315.717 79.5,279.5C 74.6066,270.997 70.7733,261.997 68,252.5C 64.3792,238.393 64.7126,224.393 69,210.5C 82.1378,174.857 107.638,155.857 145.5,153.5 Z"/></g>
<g><path style="opacity:1" fill="#fbd132" d="M 230.5,156.5 C 260.877,191.226 268.377,230.56 253,274.5C 243.834,297.491 229.001,315.825 208.5,329.5C 202.552,319.558 196.219,309.891 189.5,300.5C 195.737,295.77 201.57,290.437 207,284.5C 232.389,248.774 231.556,213.774 204.5,179.5C 213.141,171.862 221.808,164.195 230.5,156.5 Z"/></g>
<g><path style="opacity:1" fill="#fbd131" d="M 446.5,173.5 C 455.506,173.334 464.506,173.5 473.5,174C 477,174.833 479.167,177 480,180.5C 480.667,230.5 480.667,280.5 480,330.5C 478.833,334.333 476.333,336.833 472.5,338C 464.167,338.667 455.833,338.667 447.5,338C 444.667,336.5 442.5,334.333 441,331.5C 440.333,280.833 440.333,230.167 441,179.5C 442.36,176.977 444.193,174.977 446.5,173.5 Z"/></g>
<g><path style="opacity:1" fill="#c1c0c5" d="M 134.5,183.5 C 163.368,180.173 183.201,191.839 194,218.5C 200.099,249.365 188.599,270.532 159.5,282C 129.241,287.292 108.408,275.792 97,247.5C 91.555,223.154 99.055,203.988 119.5,190C 124.489,187.514 129.489,185.348 134.5,183.5 Z"/></g>
<g><path style="opacity:1" fill="#4ec4a5" d="M 293.5,200.5 C 303.58,200.077 313.58,200.577 323.5,202C 325.049,203.214 326.215,204.714 327,206.5C 327.667,248.167 327.667,289.833 327,331.5C 325.5,334.333 323.333,336.5 320.5,338C 311.833,338.667 303.167,338.667 294.5,338C 291.244,336.413 289.077,333.913 288,330.5C 287.333,289.167 287.333,247.833 288,206.5C 289.36,203.977 291.193,201.977 293.5,200.5 Z"/></g>
<g><path style="opacity:1" fill="#fb8169" d="M 344.5,237.5 C 352.84,237.334 361.173,237.5 369.5,238C 372.937,239.105 375.437,241.272 377,244.5C 377.667,273.167 377.667,301.833 377,330.5C 375.833,334.333 373.333,336.833 369.5,338C 361.167,338.667 352.833,338.667 344.5,338C 341.333,336.833 339.167,334.667 338,331.5C 337.333,302.167 337.333,272.833 338,243.5C 340.063,241.266 342.229,239.266 344.5,237.5 Z"/></g>
<g><path style="opacity:1" fill="#50c4a5" d="M 79.5,279.5 C 110.399,315.717 147.065,322.717 189.5,300.5C 196.219,309.891 202.552,319.558 208.5,329.5C 175.771,349.822 141.104,353.655 104.5,341C 82.1681,332.486 64.5014,318.32 51.5,298.5C 60.8333,292.167 70.1667,285.833 79.5,279.5 Z"/></g>
<g><path style="opacity:1" fill="#c1c0c5" d="M 28.5,371.5 C 179.834,371.333 331.167,371.5 482.5,372C 487.796,375.766 487.796,379.433 482.5,383C 331.167,383.667 179.833,383.667 28.5,383C 26.0786,382.002 24.7453,380.168 24.5,377.5C 25.4316,375.235 26.7649,373.235 28.5,371.5 Z"/></g>
<g><path style="opacity:1" fill="#c1c0c5" d="M 27.5,406.5 C 179.5,406.333 331.5,406.5 483.5,407C 487.5,410.333 487.5,413.667 483.5,417C 331.5,417.667 179.5,417.667 27.5,417C 23.5654,413.504 23.5654,410.004 27.5,406.5 Z"/></g>
<g><path style="opacity:1" fill="#c2c1c6" d="M 27.5,440.5 C 179.5,440.333 331.5,440.5 483.5,441C 487.867,445.502 487.201,449.168 481.5,452C 330.5,452.667 179.5,452.667 28.5,452C 23.5153,448.564 23.182,444.731 27.5,440.5 Z"/></g>
<g><path style="opacity:1" fill="#c1c1c5" d="M 28.5,474.5 C 179.834,474.333 331.167,474.5 482.5,475C 487.833,478.667 487.833,482.333 482.5,486C 331.167,486.667 179.833,486.667 28.5,486C 23.2475,482.173 23.2475,478.34 28.5,474.5 Z"/></g>
</svg>
