<?xml version="1.0" encoding="UTF-8"?>
<!DOCTYPE svg PUBLIC "-//W3C//DTD SVG 1.1//EN" "http://www.w3.org/Graphics/SVG/1.1/DTD/svg11.dtd">
<svg xmlns="http://www.w3.org/2000/svg" version="1.1" width="512px" height="512px" style="shape-rendering:geometricPrecision; text-rendering:geometricPrecision; image-rendering:optimizeQuality; fill-rule:evenodd; clip-rule:evenodd" xmlns:xlink="http://www.w3.org/1999/xlink">
<g><path style="opacity:0.98" fill="#020202" d="M 213.5,308.5 C 219.144,312.656 225.477,315.822 232.5,318C 256.204,327.529 267.537,345.029 266.5,370.5C 265.388,401.844 264.055,433.177 262.5,464.5C 262.503,467.025 262.837,469.359 263.5,471.5C 261.341,479.568 256.508,481.568 249,477.5C 247.872,475.655 247.372,473.655 247.5,471.5C 249.416,433.185 250.583,394.851 251,356.5C 250.194,353.554 248.861,350.888 247,348.5C 238.285,358.88 229.952,369.547 222,380.5C 220.714,383.405 219.714,386.405 219,389.5C 218.5,416.831 218.333,444.165 218.5,471.5C 217.5,478.652 213.5,481.152 206.5,479C 203.976,477.117 202.642,474.617 202.5,471.5C 202.333,446.164 202.5,420.831 203,395.5C 203.642,383.554 207.642,372.888 215,363.5C 222.355,354.979 229.522,346.312 236.5,337.5C 224.695,331.183 212.529,325.516 200,320.5C 191.845,332.132 184.179,344.132 177,356.5C 172.121,362.794 165.954,364.628 158.5,362C 153.005,358 147.671,353.834 142.5,349.5C 142.44,348.957 142.107,348.624 141.5,348.5C 140.169,389.665 140.169,430.665 141.5,471.5C 140.202,479.228 135.869,481.561 128.5,478.5C 126.146,476.754 125.146,474.421 125.5,471.5C 125.667,430.499 125.5,389.499 125,348.5C 119.791,353.378 114.291,357.878 108.5,362C 101.214,364.988 95.0469,363.488 90,357.5C 83,345.833 76,334.167 69,322.5C 68.2613,321.426 67.2613,320.759 66,320.5C 57.8914,324.138 49.7247,327.638 41.5,331C 37.4678,332.678 33.8012,334.844 30.5,337.5C 38.4762,347.977 46.6429,358.31 55,368.5C 58.78,374.726 61.4467,381.393 63,388.5C 63.1677,416.336 63.6677,444.003 64.5,471.5C 62.3634,479.568 57.53,481.568 50,477.5C 48.872,475.655 48.372,473.655 48.5,471.5C 48.6666,444.498 48.5,417.498 48,390.5C 46.3455,383.524 43.3455,377.191 39,371.5C 32.7253,363.938 26.2253,356.605 19.5,349.5C 17.5784,351.003 16.4117,353.003 16,355.5C 15.0154,359.264 14.5154,363.097 14.5,367C 16.2139,401.99 17.8806,436.824 19.5,471.5C 18.5,478.652 14.5,481.152 7.5,479C 5.95118,477.786 4.78451,476.286 4,474.5C 2.53814,446.341 1.03814,418.341 -0.5,390.5C -0.5,379.167 -0.5,367.833 -0.5,356.5C 3.57993,337.899 14.5799,325.066 32.5,318C 43.9164,313.194 55.2498,308.194 66.5,303C 73.7147,295.283 81.3813,288.117 89.5,281.5C 92.4086,274.2 90.4086,269.033 83.5,266C 69.6724,254.165 60.8391,239.332 57,221.5C 50.0648,220.366 44.0648,217.366 39,212.5C 34.6891,204.008 33.3558,195.008 35,185.5C 35.7246,183.051 36.7246,180.717 38,178.5C 40.2224,176.615 42.0557,174.449 43.5,172C 36.3544,132.235 49.3544,101.068 82.5,78.5C 88.4596,44.3936 108.793,28.8936 143.5,32C 167.673,38.1745 181.173,53.6745 184,78.5C 217.345,101.544 230.678,133.211 224,173.5C 231.789,181.646 234.456,191.313 232,202.5C 228.799,213.867 221.299,219.867 209.5,220.5C 205.444,241.622 194.611,258.288 177,270.5C 176.175,274.211 176.341,277.878 177.5,281.5C 185.952,288.45 193.952,295.95 201.5,304C 205.422,305.798 209.422,307.298 213.5,308.5 Z"/></g>
<g><path style="opacity:0.98" fill="#020202" d="M 511.5,317.5 C 511.5,329.5 511.5,341.5 511.5,353.5C 509.395,393.328 507.562,433.328 506,473.5C 505.015,477.666 502.348,479.666 498,479.5C 492.582,479.581 490.082,476.915 490.5,471.5C 492.583,423.997 494.583,376.331 496.5,328.5C 496.579,325.045 496.079,321.712 495,318.5C 486.667,326.833 478.333,335.167 470,343.5C 467.124,347.919 464.79,352.586 463,357.5C 462.5,395.499 462.333,433.499 462.5,471.5C 461.332,479.403 456.999,481.57 449.5,478C 447.978,476.084 446.978,473.917 446.5,471.5C 447.042,431.973 447.876,392.307 449,352.5C 451.029,345.439 454.363,339.106 459,333.5C 468.681,323.986 478.181,314.319 487.5,304.5C 483.915,300.368 479.581,297.201 474.5,295C 462,290.167 449.5,285.333 437,280.5C 426.516,294.79 416.516,309.457 407,324.5C 399.332,332.875 390.165,335.209 379.5,331.5C 380.844,378.351 382.844,425.018 385.5,471.5C 384.542,478.598 380.542,481.098 373.5,479C 371.13,477.059 369.797,474.559 369.5,471.5C 368.277,428.146 366.61,384.812 364.5,341.5C 359.167,341.5 353.833,341.5 348.5,341.5C 346.611,384.825 344.945,428.158 343.5,471.5C 342.542,478.598 338.542,481.098 331.5,479C 328.976,477.117 327.642,474.617 327.5,471.5C 330.267,427.69 332.267,383.69 333.5,339.5C 334.803,336.645 334.803,333.645 333.5,330.5C 332.893,330.624 332.56,330.957 332.5,331.5C 324.174,334.834 316.507,333.667 309.5,328C 298.609,312.773 288.109,297.273 278,281.5C 277.439,280.978 276.772,280.645 276,280.5C 260.55,285.975 245.383,292.142 230.5,299C 228.5,299.667 226.5,299.667 224.5,299C 223.529,297.519 222.196,296.685 220.5,296.5C 219.014,292.606 219.681,289.106 222.5,286C 239.128,278.189 256.128,271.189 273.5,265C 281.4,256.431 289.9,248.597 299,241.5C 299.667,236.167 299.667,230.833 299,225.5C 288.923,214.788 282.757,202.121 280.5,187.5C 268.466,187.077 260.966,181.077 258,169.5C 255.067,156.328 258.901,145.828 269.5,138C 264.719,119.369 263.553,100.535 266,81.5C 270.393,65.7726 280.559,56.2726 296.5,53C 328.045,31.3477 362.379,25.681 399.5,36C 436.021,49.9098 453.355,76.5765 451.5,116C 451.627,124.404 450.96,132.737 449.5,141C 451.704,144.577 453.537,148.41 455,152.5C 459.791,172.277 452.457,184.277 433,188.5C 430.087,202.661 423.754,214.994 414,225.5C 413.333,230.833 413.333,236.167 414,241.5C 422.743,248.237 430.91,255.737 438.5,264C 452.055,269.611 465.722,274.944 479.5,280C 496.558,287.212 507.224,299.712 511.5,317.5 Z"/></g>
<g><path style="opacity:1" fill="#d8aa70" d="M 126.5,46.5 C 145.312,44.8992 158.646,52.5659 166.5,69.5C 166.167,69.8333 165.833,70.1667 165.5,70.5C 149.264,64.5589 132.597,63.0589 115.5,66C 110.074,67.3723 104.741,68.7056 99.5,70C 104.925,57.969 113.925,50.1357 126.5,46.5 Z"/></g>
<g><path style="opacity:1" fill="#5b404a" d="M 302.5,96.5 C 301.113,94.1234 300.279,91.4568 300,88.5C 299.5,81.8417 299.334,75.175 299.5,68.5C 306.748,65.7693 313.414,61.9359 319.5,57C 350.022,42.675 380.356,43.0083 410.5,58C 429.03,72.5692 437.697,91.7358 436.5,115.5C 436.488,122.903 435.821,130.236 434.5,137.5C 432.208,137.756 430.041,137.423 428,136.5C 425.333,130.5 422.667,124.5 420,118.5C 419.097,117.299 417.931,116.465 416.5,116C 409.782,116.342 403.115,117.342 396.5,119C 382.153,120.721 367.819,120.721 353.5,119C 345.095,117.532 337.095,114.865 329.5,111C 322.256,106.427 315.59,101.093 309.5,95C 306.935,94.3911 304.601,94.8911 302.5,96.5 Z"/></g>
<g><path style="opacity:1" fill="#4f3340" d="M 299.5,68.5 C 299.334,75.175 299.5,81.8417 300,88.5C 300.279,91.4568 301.113,94.1234 302.5,96.5C 300.033,99.9805 299.866,103.647 302,107.5C 306.432,112.44 311.265,116.773 316.5,120.5C 315.833,120.5 315.5,120.833 315.5,121.5C 313.182,125.465 310.848,129.465 308.5,133.5C 306.119,132.17 303.786,132.336 301.5,134C 298.952,136.885 296.118,139.385 293,141.5C 290.78,139.807 288.28,138.807 285.5,138.5C 280.894,121.121 279.394,103.454 281,85.5C 283.546,75.7839 289.712,70.1172 299.5,68.5 Z"/></g>
<g><path style="opacity:1" fill="#d39d62" d="M 80.5,128.5 C 79.2101,127.942 78.3768,126.942 78,125.5C 75.9815,119.615 74.4815,113.615 73.5,107.5C 93.728,84.4776 119.061,75.6443 149.5,81C 194.175,93.8474 213.675,123.347 208,169.5C 205.599,170.602 203.099,170.769 200.5,170C 198.399,167.23 195.732,165.23 192.5,164C 163.251,165.73 135.584,160.064 109.5,147C 101.617,142.123 94.6169,136.123 88.5,129C 85.8806,127.304 83.214,127.137 80.5,128.5 Z"/></g>
<g><path style="opacity:1" fill="#c98e58" d="M 73.5,107.5 C 74.4815,113.615 75.9815,119.615 78,125.5C 78.3768,126.942 79.2101,127.942 80.5,128.5C 77.2098,130.639 76.0431,133.639 77,137.5C 81.3621,143.694 86.5288,149.028 92.5,153.5C 91.3263,154.514 90.6596,155.847 90.5,157.5C 88.5116,160.128 86.5116,162.795 84.5,165.5C 82.0108,165.298 79.6775,165.798 77.5,167C 74.9841,169.683 72.3174,172.183 69.5,174.5C 66.2411,172.1 62.5744,170.767 58.5,170.5C 53.0537,146.872 58.0537,125.872 73.5,107.5 Z"/></g>
<g><path style="opacity:1" fill="#c29671" d="M 316.5,120.5 C 335.157,131.914 355.49,136.914 377.5,135.5C 387.272,135.451 396.938,134.451 406.5,132.5C 407.833,132.833 409.167,133.167 410.5,133.5C 412.604,139.167 415.271,144.5 418.5,149.5C 419.7,150.531 421.034,151.365 422.5,152C 438.151,148.645 443.651,154.479 439,169.5C 436.07,171.066 432.903,171.9 429.5,172C 426.241,173.211 423.408,175.044 421,177.5C 418.702,183.341 416.702,189.341 415,195.5C 404.728,218.277 387.228,231.277 362.5,234.5C 359.813,234.664 357.146,234.497 354.5,234C 332.97,222.444 320.136,204.611 316,180.5C 315.5,160.836 315.333,141.169 315.5,121.5C 315.5,120.833 315.833,120.5 316.5,120.5 Z"/></g>
<g><path style="opacity:1" fill="#b18462" d="M 315.5,121.5 C 315.333,141.169 315.5,160.836 316,180.5C 320.136,204.611 332.97,222.444 354.5,234C 357.146,234.497 359.813,234.664 362.5,234.5C 332.095,235.866 310.595,222.533 298,194.5C 296.544,189.087 294.877,183.754 293,178.5C 288.559,173.697 283.059,171.197 276.5,171C 271.673,165.232 271.34,159.232 275.5,153C 278.167,152.333 280.833,152.333 283.5,153C 288.812,159.551 294.812,160.217 301.5,155C 304.333,152.167 307.167,149.333 310,146.5C 313.742,141.538 313.242,137.205 308.5,133.5C 310.848,129.465 313.182,125.465 315.5,121.5 Z"/></g>
<g><path style="opacity:1" fill="#fee0b3" d="M 92.5,153.5 C 111.063,166.526 131.73,174.36 154.5,177C 165.815,177.969 177.148,178.636 188.5,179C 191.319,181.575 194.319,183.908 197.5,186C 202.5,185.667 207.5,185.333 212.5,185C 214.552,185.93 216.052,187.43 217,189.5C 218.358,195.031 217.191,199.865 213.5,204C 206.691,203.655 201.191,206.155 197,211.5C 188.156,249.528 164.323,268.195 125.5,267.5C 116.196,260.362 108.029,252.028 101,242.5C 95.8674,233.435 92.534,223.768 91,213.5C 90.5001,194.836 90.3334,176.17 90.5,157.5C 90.6596,155.847 91.3263,154.514 92.5,153.5 Z"/></g>
<g><path style="opacity:1" fill="#f6d3a2" d="M 90.5,157.5 C 90.3334,176.17 90.5001,194.836 91,213.5C 92.534,223.768 95.8674,233.435 101,242.5C 108.029,252.028 116.196,260.362 125.5,267.5C 106.027,264.516 90.8606,254.85 80,238.5C 75.7206,229.358 72.0539,220.025 69,210.5C 64.3835,206.109 58.8835,203.776 52.5,203.5C 51.6667,202.5 50.8333,201.5 50,200.5C 49.3333,196.833 49.3333,193.167 50,189.5C 51.4831,185.335 54.3164,183.835 58.5,185C 61.5092,188.019 65.0092,190.186 69,191.5C 78.7717,188.862 85.605,182.862 89.5,173.5C 88.6344,170.308 86.9677,167.641 84.5,165.5C 86.5116,162.795 88.5116,160.128 90.5,157.5 Z"/></g>
<g><path style="opacity:1" fill="#b18562" d="M 315.5,238.5 C 342.781,253.163 370.115,253.163 397.5,238.5C 398.662,243.131 398.828,247.798 398,252.5C 384.26,264.618 370.427,276.618 356.5,288.5C 343.148,276.646 329.648,264.98 316,253.5C 315.501,248.511 315.334,243.511 315.5,238.5 Z"/></g>
<g><path style="opacity:1" fill="#e9e7e9" d="M 299.5,260.5 C 300.552,260.351 301.552,260.517 302.5,261C 316.646,273.902 330.979,286.568 345.5,299C 339.167,305.333 332.833,311.667 326.5,318C 323.743,318.782 321.243,318.282 319,316.5C 309.581,301.994 299.914,287.661 290,273.5C 289.333,272.5 289.333,271.5 290,270.5C 293.371,267.297 296.538,263.964 299.5,260.5 Z"/></g>
<g><path style="opacity:1" fill="#e9e7e9" d="M 411.5,260.5 C 415.737,263.228 419.571,266.561 423,270.5C 423.667,271.5 423.667,272.5 423,273.5C 413.667,287.5 404.333,301.5 395,315.5C 392.997,317.922 390.497,318.755 387.5,318C 380.531,312.032 373.864,305.699 367.5,299C 382.36,286.302 397.026,273.468 411.5,260.5 Z"/></g>
<g><path style="opacity:1" fill="#f6d3a2" d="M 159.5,278.5 C 160.487,283.305 160.821,288.305 160.5,293.5C 151.854,302.812 142.854,311.812 133.5,320.5C 124.181,311.681 115.014,302.681 106,293.5C 105.501,288.511 105.334,283.511 105.5,278.5C 123.481,283.748 141.481,283.748 159.5,278.5 Z"/></g>
<g><path style="opacity:1" fill="#594c3a" d="M 159.5,278.5 C 159.56,277.957 159.893,277.624 160.5,277.5C 161.815,282.986 161.815,288.32 160.5,293.5C 160.821,288.305 160.487,283.305 159.5,278.5 Z"/></g>
<g><path style="opacity:0.999" fill="#d9d7da" d="M 332.5,331.5 C 333.473,333.948 333.806,336.615 333.5,339.5C 332.267,383.69 330.267,427.69 327.5,471.5C 306.167,471.5 284.833,471.5 263.5,471.5C 262.837,469.359 262.503,467.025 262.5,464.5C 264.055,433.177 265.388,401.844 266.5,370.5C 267.537,345.029 256.204,327.529 232.5,318C 225.477,315.822 219.144,312.656 213.5,308.5C 215.329,304.172 217.662,300.172 220.5,296.5C 222.196,296.685 223.529,297.519 224.5,299C 226.5,299.667 228.5,299.667 230.5,299C 245.383,292.142 260.55,285.975 276,280.5C 276.772,280.645 277.439,280.978 278,281.5C 288.109,297.273 298.609,312.773 309.5,328C 316.507,333.667 324.174,334.834 332.5,331.5 Z"/></g>
<g><path style="opacity:1" fill="#d9d7da" d="M 446.5,471.5 C 426.167,471.5 405.833,471.5 385.5,471.5C 382.844,425.018 380.844,378.351 379.5,331.5C 390.165,335.209 399.332,332.875 407,324.5C 416.516,309.457 426.516,294.79 437,280.5C 449.5,285.333 462,290.167 474.5,295C 479.581,297.201 483.915,300.368 487.5,304.5C 478.181,314.319 468.681,323.986 459,333.5C 454.363,339.106 451.029,345.439 449,352.5C 447.876,392.307 447.042,431.973 446.5,471.5 Z"/></g>
<g><path style="opacity:1" fill="#6c626e" d="M 90.5,300.5 C 101.62,309.786 111.954,319.953 121.5,331C 115.64,336.948 109.307,342.448 102.5,347.5C 94.4732,335.959 86.8066,324.125 79.5,312C 83.3705,308.298 87.0371,304.464 90.5,300.5 Z"/></g>
<g><path style="opacity:1" fill="#6d636f" d="M 174.5,300.5 C 179.282,303.447 183.282,307.28 186.5,312C 179.62,324.269 172.12,336.102 164,347.5C 157.218,342.389 150.718,336.889 144.5,331C 154.702,320.965 164.702,310.798 174.5,300.5 Z"/></g>
<g><path style="opacity:1" fill="#483c4b" d="M 355.5,309.5 C 362.96,312.704 365.627,318.371 363.5,326.5C 358.833,326.5 354.167,326.5 349.5,326.5C 349.177,322.774 349.511,319.107 350.5,315.5C 352.938,314.069 354.604,312.069 355.5,309.5 Z"/></g>
<g><path style="opacity:1" fill="#ebe9eb" d="M 490.5,471.5 C 481.167,471.5 471.833,471.5 462.5,471.5C 462.333,433.499 462.5,395.499 463,357.5C 464.79,352.586 467.124,347.919 470,343.5C 478.333,335.167 486.667,326.833 495,318.5C 496.079,321.712 496.579,325.045 496.5,328.5C 494.583,376.331 492.583,423.997 490.5,471.5 Z"/></g>
<g><path style="opacity:1" fill="#5c525f" d="M 125.5,471.5 C 105.167,471.5 84.8333,471.5 64.5,471.5C 63.6677,444.003 63.1677,416.336 63,388.5C 61.4467,381.393 58.78,374.726 55,368.5C 46.6429,358.31 38.4762,347.977 30.5,337.5C 33.8012,334.844 37.4678,332.678 41.5,331C 49.7247,327.638 57.8914,324.138 66,320.5C 67.2613,320.759 68.2613,321.426 69,322.5C 76,334.167 83,345.833 90,357.5C 95.0469,363.488 101.214,364.988 108.5,362C 114.291,357.878 119.791,353.378 125,348.5C 125.5,389.499 125.667,430.499 125.5,471.5 Z"/></g>
<g><path style="opacity:1" fill="#5c525f" d="M 202.5,471.5 C 182.167,471.5 161.833,471.5 141.5,471.5C 141.168,430.663 141.501,389.997 142.5,349.5C 147.671,353.834 153.005,358 158.5,362C 165.954,364.628 172.121,362.794 177,356.5C 184.179,344.132 191.845,332.132 200,320.5C 212.529,325.516 224.695,331.183 236.5,337.5C 229.522,346.312 222.355,354.979 215,363.5C 207.642,372.888 203.642,383.554 203,395.5C 202.5,420.831 202.333,446.164 202.5,471.5 Z"/></g>
<g><path style="opacity:1" fill="#777678" d="M 332.5,331.5 C 332.56,330.957 332.893,330.624 333.5,330.5C 334.803,333.645 334.803,336.645 333.5,339.5C 333.806,336.615 333.473,333.948 332.5,331.5 Z"/></g>
<g><path style="opacity:1" fill="#5b515e" d="M 369.5,471.5 C 360.833,471.5 352.167,471.5 343.5,471.5C 344.945,428.158 346.611,384.825 348.5,341.5C 353.833,341.5 359.167,341.5 364.5,341.5C 366.61,384.812 368.277,428.146 369.5,471.5 Z"/></g>
<g><path style="opacity:1" fill="#3f3841" d="M 142.5,349.5 C 141.501,389.997 141.168,430.663 141.5,471.5C 140.169,430.665 140.169,389.665 141.5,348.5C 142.107,348.624 142.44,348.957 142.5,349.5 Z"/></g>
<g><path style="opacity:1" fill="#6e6470" d="M 247.5,471.5 C 237.833,471.5 228.167,471.5 218.5,471.5C 218.333,444.165 218.5,416.831 219,389.5C 219.714,386.405 220.714,383.405 222,380.5C 229.952,369.547 238.285,358.88 247,348.5C 248.861,350.888 250.194,353.554 251,356.5C 250.583,394.851 249.416,433.185 247.5,471.5 Z"/></g>
<g><path style="opacity:1" fill="#6e6470" d="M 48.5,471.5 C 38.8333,471.5 29.1667,471.5 19.5,471.5C 17.8806,436.824 16.2139,401.99 14.5,367C 14.5154,363.097 15.0154,359.264 16,355.5C 16.4117,353.003 17.5784,351.003 19.5,349.5C 26.2253,356.605 32.7253,363.938 39,371.5C 43.3455,377.191 46.3455,383.524 48,390.5C 48.5,417.498 48.6666,444.498 48.5,471.5 Z"/></g>
<g><path style="opacity:1" fill="#070707" d="M 283.5,361.5 C 294.838,361.333 306.172,361.5 317.5,362C 321.212,364.513 322.378,368.013 321,372.5C 319.681,374.487 317.848,375.654 315.5,376C 305.167,376.667 294.833,376.667 284.5,376C 279.311,373.087 278.144,368.92 281,363.5C 281.995,362.934 282.828,362.267 283.5,361.5 Z"/></g>
<g><path style="opacity:1" fill="#020202" d="M 80.5,394.5 C 89.8393,394.334 99.1726,394.5 108.5,395C 113.436,398.958 113.769,403.291 109.5,408C 100.242,409.584 90.9091,409.917 81.5,409C 75.3348,404.524 75.0014,399.691 80.5,394.5 Z"/></g>
</svg>
