<?xml version="1.0" encoding="UTF-8"?>
<!DOCTYPE svg PUBLIC "-//W3C//DTD SVG 1.1//EN" "http://www.w3.org/Graphics/SVG/1.1/DTD/svg11.dtd">
<svg xmlns="http://www.w3.org/2000/svg" version="1.1" width="512px" height="512px" style="shape-rendering:geometricPrecision; text-rendering:geometricPrecision; image-rendering:optimizeQuality; fill-rule:evenodd; clip-rule:evenodd" xmlns:xlink="http://www.w3.org/1999/xlink">
<g><path style="opacity:0.96" fill="#ff7f7f" d="M 221.5,-0.5 C 226.167,-0.5 230.833,-0.5 235.5,-0.5C 250.633,6.36836 255.133,17.7017 249,33.5C 240.045,45.1798 228.879,47.6798 215.5,41C 205.177,31.5644 203.344,20.731 210,8.5C 213.161,4.49052 216.994,1.49052 221.5,-0.5 Z"/></g>
<g><path style="opacity:0.947" fill="#314c5a" d="M 130.5,15.5 C 140.114,16.7317 142.947,21.7317 139,30.5C 120.5,49 102,67.5 83.5,86C 80.7433,86.5837 78.0766,86.2504 75.5,85C 69.3333,78.8333 63.1667,72.6667 57,66.5C 54.3821,61.054 55.5488,56.554 60.5,53C 63.5,52.3333 66.5,52.3333 69.5,53C 72.8333,56.3333 76.1667,59.6667 79.5,63C 80.1667,63.6667 80.8333,63.6667 81.5,63C 97.4488,46.5478 113.782,30.7145 130.5,15.5 Z"/></g>
<g><path style="opacity:0.957" fill="#ccd0d2" d="M 71.5,19.5 C 75.8461,19.3343 80.1794,19.501 84.5,20C 90.676,25.0309 91.0093,30.3643 85.5,36C 62.9345,37.2409 49.9345,48.9075 46.5,71C 51.0921,98.1291 66.7588,108.462 93.5,102C 107.515,94.9445 114.682,83.4445 115,67.5C 120.883,59.8623 126.55,60.1956 132,68.5C 130.818,97.0301 116.318,114.53 88.5,121C 52.8832,122.384 32.8832,105.384 28.5,70C 31.1957,43.1453 45.529,26.312 71.5,19.5 Z"/></g>
<g><path style="opacity:0.977" fill="#ff8080" d="M 217.5,67.5 C 234.57,65.2281 250.237,68.7281 264.5,78C 278.582,91.5123 283.416,107.679 279,126.5C 270.4,133.26 260.567,137.093 249.5,138C 232.052,140.343 214.718,139.676 197.5,136C 188.939,134.478 182.106,130.312 177,123.5C 174.298,92.7496 187.798,74.0829 217.5,67.5 Z"/></g>
<g><path style="opacity:0.945" fill="#ccd0d2" d="M 334.5,73.5 C 369.502,73.3333 404.502,73.5 439.5,74C 445.612,77.2934 447.112,82.1267 444,88.5C 443.097,89.7014 441.931,90.5348 440.5,91C 404.833,91.6667 369.167,91.6667 333.5,91C 327.632,87.9598 326.132,83.4598 329,77.5C 330.5,75.5313 332.333,74.198 334.5,73.5 Z"/></g>
<g><path style="opacity:0.983" fill="#cbcfd2" d="M 335.5,106.5 C 382.168,106.333 428.835,106.5 475.5,107C 484.176,112.309 484.51,117.976 476.5,124C 428.833,124.667 381.167,124.667 333.5,124C 326.552,117.252 327.218,111.418 335.5,106.5 Z"/></g>
<g><path style="opacity:0.968" fill="#71d6c3" d="M 224.5,184.5 C 237.841,183.249 246.675,188.915 251,201.5C 253.43,216.148 247.597,225.648 233.5,230C 217.095,231.298 207.762,223.798 205.5,207.5C 206.463,195.218 212.797,187.551 224.5,184.5 Z"/></g>
<g><path style="opacity:0.974" fill="#324d5a" d="M 127.5,202.5 C 138.626,202.129 142.126,207.129 138,217.5C 120.167,235.333 102.333,253.167 84.5,271C 80.2176,271.965 76.2176,271.298 72.5,269C 67.6667,264.167 62.8333,259.333 58,254.5C 52.7891,244.739 55.6224,239.572 66.5,239C 71.084,241.58 75.084,244.913 78.5,249C 79.1667,249.667 79.8333,249.667 80.5,249C 96.0617,233.271 111.728,217.771 127.5,202.5 Z"/></g>
<g><path style="opacity:0.96" fill="#ccd0d2" d="M 78.5,204.5 C 87.031,204.858 90.531,209.191 89,217.5C 87.8333,219.333 86.3333,220.833 84.5,222C 55.5815,224.726 43.7482,240.226 49,268.5C 58.1754,286.837 72.6754,293.337 92.5,288C 107.422,281.012 114.922,269.178 115,252.5C 118.527,247.528 123.027,246.362 128.5,249C 130.63,251.261 131.964,253.928 132.5,257C 128.583,287.75 111.25,304.917 80.5,308.5C 48.8344,305.501 31.5011,288.168 28.5,256.5C 31.3503,225.653 48.017,208.32 78.5,204.5 Z"/></g>
<g><path style="opacity:0.985" fill="#71d6c3" d="M 225.5,252.5 C 248.906,250.78 266.072,260.113 277,280.5C 280.506,289.536 281.84,298.869 281,308.5C 278.375,313.245 274.541,316.745 269.5,319C 251.322,325.117 232.655,327.117 213.5,325C 202.48,324.329 192.147,321.329 182.5,316C 177.486,312.637 175.486,307.971 176.5,302C 178.32,271.014 194.653,254.514 225.5,252.5 Z"/></g>
<g><path style="opacity:0.944" fill="#ccd0d1" d="M 333.5,260.5 C 369.168,260.333 404.835,260.5 440.5,261C 445.153,263.942 446.653,268.109 445,273.5C 443.457,275.378 441.624,276.878 439.5,278C 404.5,278.667 369.5,278.667 334.5,278C 327.84,275.51 326.007,271.01 329,264.5C 330.397,262.93 331.897,261.596 333.5,260.5 Z"/></g>
<g><path style="opacity:0.946" fill="#cbcfd1" d="M 334.5,293.5 C 381.835,293.333 429.168,293.5 476.5,294C 482.211,297.79 483.378,302.623 480,308.5C 478.581,309.46 477.081,310.293 475.5,311C 428.5,311.667 381.5,311.667 334.5,311C 326.556,305.131 326.556,299.297 334.5,293.5 Z"/></g>
<g><path style="opacity:0.98" fill="#ffd575" d="M 222.5,371.5 C 246.46,371.096 255.293,382.429 249,405.5C 239.956,417.506 228.789,420.006 215.5,413C 202.799,400.937 202.466,388.604 214.5,376C 217.099,374.205 219.766,372.705 222.5,371.5 Z"/></g>
<g><path style="opacity:0.948" fill="#324d5a" d="M 127.5,389.5 C 137.156,388.657 140.989,392.99 139,402.5C 120.653,420.681 102.486,439.014 84.5,457.5C 81.1266,458.775 77.7932,458.608 74.5,457C 68.6667,451.167 62.8333,445.333 57,439.5C 53.4467,429.426 56.9467,424.926 67.5,426C 71.4658,428.964 75.1325,432.297 78.5,436C 79.1667,436.667 79.8333,436.667 80.5,436C 96.0617,420.271 111.728,404.771 127.5,389.5 Z"/></g>
<g><path style="opacity:0.959" fill="#ccd0d2" d="M 73.5,390.5 C 77.6372,390.146 81.6372,390.646 85.5,392C 91.255,398.137 90.5883,403.47 83.5,408C 61.9064,409.26 49.5731,420.594 46.5,442C 50.6485,467.804 65.6485,478.471 91.5,474C 107.157,467.56 114.99,455.727 115,438.5C 117.897,433.845 122.063,432.345 127.5,434C 130.59,436.016 132.257,438.849 132.5,442.5C 127.675,478.164 107.342,494.997 71.5,493C 40.1862,484.345 26.3529,463.845 30,431.5C 35.9912,408.672 50.4912,395.006 73.5,390.5 Z"/></g>
<g><path style="opacity:0.988" fill="#ffd575" d="M 243.5,511.5 C 233.5,511.5 223.5,511.5 213.5,511.5C 202.672,510.37 192.339,507.203 182.5,502C 177.486,498.637 175.486,493.971 176.5,488C 178.794,455.573 196.294,439.407 229,439.5C 264.514,440.68 281.848,459.014 281,494.5C 277.507,501.179 272.007,505.345 264.5,507C 257.43,508.845 250.43,510.345 243.5,511.5 Z"/></g>
<g><path style="opacity:0.992" fill="#ccd0d2" d="M 335.5,445.5 C 369.502,445.333 403.502,445.5 437.5,446C 444.526,447.878 447.026,452.378 445,459.5C 443.833,460.667 442.667,461.833 441.5,463C 405.167,463.667 368.833,463.667 332.5,463C 327.033,458.996 326.2,454.162 330,448.5C 331.876,447.391 333.709,446.391 335.5,445.5 Z"/></g>
<g><path style="opacity:0.993" fill="#ccd0d1" d="M 333.5,479.5 C 381.501,479.333 429.501,479.5 477.5,480C 482.758,484.098 483.591,488.931 480,494.5C 478.055,495.863 475.888,496.697 473.5,497C 427.833,497.667 382.167,497.667 336.5,497C 327.193,492.63 326.193,486.797 333.5,479.5 Z"/></g>
</svg>
