<?xml version="1.0" encoding="UTF-8"?>
<!DOCTYPE svg PUBLIC "-//W3C//DTD SVG 1.1//EN" "http://www.w3.org/Graphics/SVG/1.1/DTD/svg11.dtd">
<svg xmlns="http://www.w3.org/2000/svg" version="1.1" width="512px" height="512px" style="shape-rendering:geometricPrecision; text-rendering:geometricPrecision; image-rendering:optimizeQuality; fill-rule:evenodd; clip-rule:evenodd" xmlns:xlink="http://www.w3.org/1999/xlink">
<g><path style="opacity:1" fill="#5a5a5a" d="M 294.5,151.5 C 287.833,151.5 281.167,151.5 274.5,151.5C 283.011,100.341 263.678,64.5073 216.5,44C 197.552,36.4102 177.885,33.0769 157.5,34C 148.51,35.2139 139.843,37.3806 131.5,40.5C 141.114,29.0208 153.447,22.1875 168.5,20C 210.273,15.0349 246.107,27.2016 276,56.5C 286.031,67.5711 292.031,80.5711 294,95.5C 294.5,114.164 294.667,132.83 294.5,151.5 Z"/></g>
<g><path style="opacity:0.996" fill="#838383" d="M 274.5,151.5 C 265.055,151.741 256.389,149.241 248.5,144C 236.5,134 224.5,124 212.5,114C 204.74,109.289 196.407,105.955 187.5,104C 170.167,103.333 152.833,103.333 135.5,104C 126.617,107.397 121.617,113.897 120.5,123.5C 118.865,133.38 115.699,142.714 111,151.5C 103.686,157.73 95.1856,160.397 85.5,159.5C 84.8333,159.5 84.5,159.167 84.5,158.5C 84.3334,139.497 84.5001,120.497 85,101.5C 85.6705,85.4913 90.3371,70.8247 99,57.5C 107.401,47.2158 118.235,41.5491 131.5,40.5C 139.843,37.3806 148.51,35.2139 157.5,34C 177.885,33.0769 197.552,36.4102 216.5,44C 263.678,64.5073 283.011,100.341 274.5,151.5 Z"/></g>
<g><path style="opacity:1" fill="#fdd1a3" d="M 274.5,151.5 C 281.167,151.5 287.833,151.5 294.5,151.5C 294.5,153.833 294.5,156.167 294.5,158.5C 293.753,174.443 293.086,190.443 292.5,206.5C 285.433,230.974 272.1,251.307 252.5,267.5C 238.551,278.809 222.884,286.976 205.5,292C 189.286,295.239 173.62,293.572 158.5,287C 147.449,281.817 137.116,275.651 127.5,268.5C 121.86,263.527 116.527,258.194 111.5,252.5C 111.897,251.475 112.563,251.308 113.5,252C 130.558,264.195 149.225,273.195 169.5,279C 214.76,278.41 246.927,257.576 266,216.5C 273.145,201.634 275.978,185.967 274.5,169.5C 263.44,169.988 253.106,167.488 243.5,162C 231.545,153.047 219.878,143.713 208.5,134C 201.868,130.185 194.868,127.185 187.5,125C 165.202,123.578 142.868,123.078 120.5,123.5C 121.617,113.897 126.617,107.397 135.5,104C 152.833,103.333 170.167,103.333 187.5,104C 196.407,105.955 204.74,109.289 212.5,114C 224.5,124 236.5,134 248.5,144C 256.389,149.241 265.055,151.741 274.5,151.5 Z"/></g>
<g><path style="opacity:0.999" fill="#fee4c0" d="M 120.5,123.5 C 142.868,123.078 165.202,123.578 187.5,125C 194.868,127.185 201.868,130.185 208.5,134C 219.878,143.713 231.545,153.047 243.5,162C 253.106,167.488 263.44,169.988 274.5,169.5C 275.978,185.967 273.145,201.634 266,216.5C 246.927,257.576 214.76,278.41 169.5,279C 149.225,273.195 130.558,264.195 113.5,252C 112.563,251.308 111.897,251.475 111.5,252.5C 99.5551,239.287 91.2217,223.954 86.5,206.5C 85.6372,190.851 85.3039,175.184 85.5,159.5C 95.1856,160.397 103.686,157.73 111,151.5C 115.699,142.714 118.865,133.38 120.5,123.5 Z"/></g>
<g><path style="opacity:0.956" fill="#7aacdf" d="M 464.5,129.5 C 467.187,129.336 469.854,129.503 472.5,130C 482.637,139.136 492.47,148.636 502,158.5C 505.215,167.58 502.048,171.747 492.5,171C 487.333,166.5 482.167,162 477,157.5C 476.667,177.833 476.333,198.167 476,218.5C 471,223.833 466,223.833 461,218.5C 460.667,197.833 460.333,177.167 460,156.5C 455.135,161.7 449.968,166.533 444.5,171C 435.783,171.949 432.283,168.116 434,159.5C 444.062,149.271 454.228,139.271 464.5,129.5 Z"/></g>
<g><path style="opacity:0.981" fill="#ffbc85" d="M 84.5,158.5 C 84.5,159.167 84.8333,159.5 85.5,159.5C 85.3039,175.184 85.6372,190.851 86.5,206.5C 63.9093,202.013 54.7426,188.347 59,165.5C 60.8679,161.479 64.0346,159.313 68.5,159C 73.8229,158.501 79.1563,158.334 84.5,158.5 Z"/></g>
<g><path style="opacity:0.981" fill="#ffbc85" d="M 294.5,158.5 C 316.928,154.427 325.428,163.427 320,185.5C 315.023,197.977 305.856,204.977 292.5,206.5C 293.086,190.443 293.753,174.443 294.5,158.5 Z"/></g>
<g><path style="opacity:1" fill="#858584" d="M 141.5,170.5 C 150.806,169.112 158.64,171.778 165,178.5C 166.439,184.629 164.106,188.296 158,189.5C 154.596,187.933 151.096,186.599 147.5,185.5C 144.463,187.009 141.297,188.342 138,189.5C 131.894,188.296 129.561,184.629 131,178.5C 133.94,174.963 137.44,172.297 141.5,170.5 Z"/></g>
<g><path style="opacity:1" fill="#868584" d="M 224.5,170.5 C 232.68,169.184 240.013,171.018 246.5,176C 250.312,182.87 248.479,187.37 241,189.5C 237.703,188.342 234.537,187.009 231.5,185.5C 228.472,185.847 225.806,187.014 223.5,189C 216.667,189.5 213.5,186.333 214,179.5C 216.468,175.199 219.968,172.199 224.5,170.5 Z"/></g>
<g><path style="opacity:0.959" fill="#7babde" d="M 390.5,283.5 C 385.338,284.731 380.004,285.731 374.5,286.5C 374.667,266.831 374.5,247.164 374,227.5C 369.07,233.104 363.57,237.938 357.5,242C 348.604,242.054 345.771,237.887 349,229.5C 358.167,220.333 367.333,211.167 376.5,202C 380.021,199.385 383.688,199.051 387.5,201C 396.696,210.53 406.196,219.697 416,228.5C 419.967,237.506 417.134,242.006 407.5,242C 401.407,237.911 395.907,233.078 391,227.5C 390.5,246.164 390.333,264.83 390.5,283.5 Z"/></g>
<g><path style="opacity:1" fill="#e2e2e2" d="M 220.5,237.5 C 199.833,237.5 179.167,237.5 158.5,237.5C 156.589,233.101 157.589,229.601 161.5,227C 180.167,226.333 198.833,226.333 217.5,227C 221.411,229.601 222.411,233.101 220.5,237.5 Z"/></g>
<g><path style="opacity:1" fill="#fbf7f7" d="M 158.5,237.5 C 179.167,237.5 199.833,237.5 220.5,237.5C 217.566,249.597 209.899,256.764 197.5,259C 182.99,261.944 171.157,257.777 162,246.5C 160.259,243.691 159.092,240.691 158.5,237.5 Z"/></g>
<g><path style="opacity:1" fill="#b5adb6" d="M 252.5,267.5 C 257.5,271.5 262.5,275.5 267.5,279.5C 253.58,296.087 236.58,308.421 216.5,316.5C 207.559,309.565 198.893,302.232 190.5,294.5C 186.86,296.475 183.86,299.142 181.5,302.5C 175.5,307.5 169.5,312.5 163.5,317.5C 143.526,309.339 126.526,297.005 112.5,280.5C 117.5,276.5 122.5,272.5 127.5,268.5C 137.116,275.651 147.449,281.817 158.5,287C 173.62,293.572 189.286,295.239 205.5,292C 222.884,286.976 238.551,278.809 252.5,267.5 Z"/></g>
<g><path style="opacity:0.994" fill="#cecece" d="M 112.5,280.5 C 126.526,297.005 143.526,309.339 163.5,317.5C 163.5,318.5 163.5,319.5 163.5,320.5C 162.883,320.389 162.383,320.056 162,319.5C 156.5,324.333 151,329.167 145.5,334C 144.5,334.667 143.5,334.667 142.5,334C 126.5,322.667 110.5,311.333 94.5,300C 92.8588,298.871 91.8588,297.371 91.5,295.5C 98.3239,290.255 105.324,285.255 112.5,280.5 Z"/></g>
<g><path style="opacity:0.994" fill="#cecece" d="M 267.5,279.5 C 275.233,284.694 282.567,290.361 289.5,296.5C 282.5,301.833 275.5,307.167 268.5,312.5C 258.312,320.186 247.812,327.52 237,334.5C 230.283,328.942 223.45,323.609 216.5,318.5C 216.5,317.833 216.5,317.167 216.5,316.5C 236.58,308.421 253.58,296.087 267.5,279.5 Z"/></g>
<g><path style="opacity:1" fill="#f36b36" d="M 511.5,373.5 C 511.5,383.167 511.5,392.833 511.5,402.5C 501.049,451.117 471.382,480.617 422.5,491C 408.25,493.328 394.25,492.828 380.5,489.5C 427.161,472.321 451.828,438.821 454.5,389C 449.5,336.174 421.5,302.674 370.5,288.5C 371.671,287.655 373.005,286.989 374.5,286.5C 380.004,285.731 385.338,284.731 390.5,283.5C 434.259,279.804 469.093,295.471 495,330.5C 503.359,343.86 508.859,358.194 511.5,373.5 Z"/></g>
<g><path style="opacity:0.998" fill="#fe9737" d="M 370.5,288.5 C 421.5,302.674 449.5,336.174 454.5,389C 451.828,438.821 427.161,472.321 380.5,489.5C 365.048,486.771 351.048,480.771 338.5,471.5C 300.728,439.337 288.895,399.337 303,351.5C 305.588,345.327 308.421,339.327 311.5,333.5C 317.086,325.577 323.419,318.243 330.5,311.5C 341.647,300.253 354.98,292.586 370.5,288.5 Z"/></g>
<g><path style="opacity:1" fill="#0468b4" d="M 216.5,316.5 C 216.5,317.167 216.5,317.833 216.5,318.5C 213.985,328.227 211.319,337.894 208.5,347.5C 202.5,347.5 196.5,347.5 190.5,347.5C 192.12,337.52 194.453,327.686 197.5,318C 192.337,312.67 187.003,307.504 181.5,302.5C 183.86,299.142 186.86,296.475 190.5,294.5C 198.893,302.232 207.559,309.565 216.5,316.5 Z"/></g>
<g><path style="opacity:0.998" fill="#f8f6f6" d="M 91.5,295.5 C 91.8588,297.371 92.8588,298.871 94.5,300C 110.5,311.333 126.5,322.667 142.5,334C 143.5,334.667 144.5,334.667 145.5,334C 151,329.167 156.5,324.333 162,319.5C 162.383,320.056 162.883,320.389 163.5,320.5C 165.455,329.614 167.789,338.614 170.5,347.5C 161.738,375.955 153.071,404.455 144.5,433C 151.023,445.879 157.69,458.712 164.5,471.5C 134.167,471.5 103.833,471.5 73.5,471.5C 73.6666,452.164 73.5,432.83 73,413.5C 67.5795,406.567 62.5795,406.9 58,414.5C 57.5001,433.497 57.3334,452.497 57.5,471.5C 39.8302,471.667 22.1635,471.5 4.5,471C 2.54826,470.634 0.88159,469.801 -0.5,468.5C -0.5,436.833 -0.5,405.167 -0.5,373.5C 4.64982,353.501 15.3165,337.001 31.5,324C 49.5222,310.49 69.5222,300.99 91.5,295.5 Z"/></g>
<g><path style="opacity:0.999" fill="#e2e2e1" d="M 289.5,296.5 C 303.97,299.323 317.637,304.323 330.5,311.5C 323.419,318.243 317.086,325.577 311.5,333.5C 298.68,323.591 284.347,316.591 268.5,312.5C 275.5,307.167 282.5,301.833 289.5,296.5 Z"/></g>
<g><path style="opacity:1" fill="#f8f6f6" d="M 268.5,312.5 C 284.347,316.591 298.68,323.591 311.5,333.5C 308.421,339.327 305.588,345.327 303,351.5C 288.895,399.337 300.728,439.337 338.5,471.5C 297.5,471.5 256.5,471.5 215.5,471.5C 215.5,471.167 215.5,470.833 215.5,470.5C 222.36,458.113 228.693,445.446 234.5,432.5C 226.229,404.023 217.563,375.69 208.5,347.5C 211.319,337.894 213.985,328.227 216.5,318.5C 223.45,323.609 230.283,328.942 237,334.5C 247.812,327.52 258.312,320.186 268.5,312.5 Z"/></g>
<g><path style="opacity:1" fill="#f9f5f3" d="M 411.5,335.5 C 411.5,339.833 411.5,344.167 411.5,348.5C 417.833,348.5 424.167,348.5 430.5,348.5C 436.62,350.073 438.453,353.74 436,359.5C 434.786,361.049 433.286,362.215 431.5,363C 418.167,363.333 404.833,363.667 391.5,364C 385.253,368.514 384.92,373.514 390.5,379C 401.126,380.052 411.793,381.052 422.5,382C 437.929,390.957 441.096,403.124 432,418.5C 426.431,424.366 419.598,427.033 411.5,426.5C 411.666,431.511 411.499,436.511 411,441.5C 409.607,444.366 407.274,445.699 404,445.5C 400.726,445.699 398.393,444.366 397,441.5C 396.501,436.845 396.334,432.179 396.5,427.5C 389.825,427.666 383.158,427.5 376.5,427C 371.776,424.565 370.276,420.731 372,415.5C 372.833,414.667 373.667,413.833 374.5,413C 388.167,412.667 401.833,412.333 415.5,412C 422.096,408.086 423.096,403.086 418.5,397C 409.267,395.72 399.934,395.053 390.5,395C 372.169,388.561 367.002,376.395 375,358.5C 380.352,351.24 387.518,347.907 396.5,348.5C 396.334,343.489 396.501,338.489 397,333.5C 399.602,329.788 403.102,328.622 407.5,330C 409.464,331.451 410.797,333.284 411.5,335.5 Z"/></g>
<g><path style="opacity:1" fill="#fcb16a" d="M 411.5,335.5 C 412.483,339.298 412.817,343.298 412.5,347.5C 418.69,347.177 424.69,347.51 430.5,348.5C 424.167,348.5 417.833,348.5 411.5,348.5C 411.5,344.167 411.5,339.833 411.5,335.5 Z"/></g>
<g><path style="opacity:1" fill="#7bacdf" d="M 170.5,347.5 C 177.09,347.189 183.59,347.522 190,348.5C 198.401,376.536 206.901,404.536 215.5,432.5C 209.974,445.219 203.64,457.552 196.5,469.5C 202.798,470.496 209.132,470.83 215.5,470.5C 215.5,470.833 215.5,471.167 215.5,471.5C 198.5,471.5 181.5,471.5 164.5,471.5C 157.69,458.712 151.023,445.879 144.5,433C 153.071,404.455 161.738,375.955 170.5,347.5 Z"/></g>
<g><path style="opacity:1" fill="#3a87d0" d="M 181.5,302.5 C 187.003,307.504 192.337,312.67 197.5,318C 194.453,327.686 192.12,337.52 190.5,347.5C 196.5,347.5 202.5,347.5 208.5,347.5C 217.563,375.69 226.229,404.023 234.5,432.5C 228.693,445.446 222.36,458.113 215.5,470.5C 209.132,470.83 202.798,470.496 196.5,469.5C 203.64,457.552 209.974,445.219 215.5,432.5C 206.901,404.536 198.401,376.536 190,348.5C 183.59,347.522 177.09,347.189 170.5,347.5C 167.789,338.614 165.455,329.614 163.5,320.5C 163.5,319.5 163.5,318.5 163.5,317.5C 169.5,312.5 175.5,307.5 181.5,302.5 Z"/></g>
<g><path style="opacity:1" fill="#e2e2e2" d="M 73.5,471.5 C 68.1667,471.5 62.8333,471.5 57.5,471.5C 57.3334,452.497 57.5001,433.497 58,414.5C 62.5795,406.9 67.5795,406.567 73,413.5C 73.5,432.83 73.6666,452.164 73.5,471.5 Z"/></g>
</svg>
