<?xml version="1.0" encoding="UTF-8"?>
<!DOCTYPE svg PUBLIC "-//W3C//DTD SVG 1.1//EN" "http://www.w3.org/Graphics/SVG/1.1/DTD/svg11.dtd">
<svg xmlns="http://www.w3.org/2000/svg" version="1.1" width="512px" height="512px" style="shape-rendering:geometricPrecision; text-rendering:geometricPrecision; image-rendering:optimizeQuality; fill-rule:evenodd; clip-rule:evenodd" xmlns:xlink="http://www.w3.org/1999/xlink">
<g><path style="opacity:0.995" fill="#f0f0f1" d="M 199.5,76.5 C 245.998,75.3351 292.665,75.1685 339.5,76C 352.014,77.5161 359.847,84.3494 363,96.5C 363.5,163.499 363.667,230.499 363.5,297.5C 306.998,297.168 250.664,297.501 194.5,298.5C 176.403,302.857 158.403,307.524 140.5,312.5C 131.5,312.5 122.5,312.5 113.5,312.5C 113.806,309.615 113.473,306.948 112.5,304.5C 112.5,257.5 112.5,210.5 112.5,163.5C 134.503,163.667 156.503,163.5 178.5,163C 190.742,160.349 197.909,152.849 200,140.5C 200.829,118.996 200.663,97.6627 199.5,76.5 Z"/></g>
<g><path style="opacity:1" fill="#d0d2d3" d="M 199.5,76.5 C 200.663,97.6627 200.829,118.996 200,140.5C 197.909,152.849 190.742,160.349 178.5,163C 156.503,163.5 134.503,163.667 112.5,163.5C 141.167,134.167 170.167,105.167 199.5,76.5 Z"/></g>
<g><path style="opacity:0.997" fill="#e95935" d="M 363.5,297.5 C 374.172,297.333 384.839,297.5 395.5,298C 404.754,300.254 410.254,306.088 412,315.5C 412.667,334.167 412.667,352.833 412,371.5C 410.281,380.886 404.781,386.719 395.5,389C 384.839,389.5 374.172,389.667 363.5,389.5C 308.002,388.501 252.336,388.168 196.5,388.5C 196.5,358.5 196.5,328.5 196.5,298.5C 252.336,298.832 308.002,298.499 363.5,297.5 Z"/></g>
<g><path style="opacity:1" fill="#e94921" d="M 194.5,298.5 C 195.833,328.5 195.833,358.5 194.5,388.5C 176.548,383.709 158.548,379.042 140.5,374.5C 140.5,353.833 140.5,333.167 140.5,312.5C 158.403,307.524 176.403,302.857 194.5,298.5 Z"/></g>
<g><path style="opacity:1" fill="#e47e64" d="M 194.5,298.5 C 250.664,297.501 306.998,297.168 363.5,297.5C 308.002,298.499 252.336,298.832 196.5,298.5C 196.5,328.5 196.5,358.5 196.5,388.5C 252.336,388.168 308.002,388.501 363.5,389.5C 306.998,389.832 250.664,389.499 194.5,388.5C 195.833,358.5 195.833,328.5 194.5,298.5 Z"/></g>
<g><path style="opacity:1" fill="#e75734" d="M 112.5,304.5 C 113.473,306.948 113.806,309.615 113.5,312.5C 121.984,313.493 130.651,313.826 139.5,313.5C 139.5,333.5 139.5,353.5 139.5,373.5C 130.5,373.5 121.5,373.5 112.5,373.5C 112.5,376.5 112.5,379.5 112.5,382.5C 107.945,379.971 103.445,377.304 99,374.5C 98.3333,353.833 98.3333,333.167 99,312.5C 103.143,309.181 107.643,306.514 112.5,304.5 Z"/></g>
<g><path style="opacity:1" fill="#fefdfd" d="M 235.5,315.5 C 246.231,315.097 256.898,315.597 267.5,317C 278.022,322.558 281.522,331.058 278,342.5C 275.762,349.07 271.262,353.237 264.5,355C 259.511,355.499 254.511,355.666 249.5,355.5C 249.5,361.5 249.5,367.5 249.5,373.5C 244.833,373.5 240.167,373.5 235.5,373.5C 235.5,354.167 235.5,334.833 235.5,315.5 Z"/></g>
<g><path style="opacity:1" fill="#fefdfc" d="M 286.5,315.5 C 297.231,315.097 307.898,315.597 318.5,317C 334.028,324.874 339.528,337.374 335,354.5C 331.457,366.183 323.624,372.516 311.5,373.5C 303.167,373.5 294.833,373.5 286.5,373.5C 286.5,354.167 286.5,334.833 286.5,315.5 Z"/></g>
<g><path style="opacity:1" fill="#fefaf9" d="M 343.5,315.5 C 354.167,315.5 364.833,315.5 375.5,315.5C 375.5,319.833 375.5,324.167 375.5,328.5C 369.833,328.5 364.167,328.5 358.5,328.5C 358.5,331.833 358.5,335.167 358.5,338.5C 364.167,338.5 369.833,338.5 375.5,338.5C 375.5,342.833 375.5,347.167 375.5,351.5C 369.833,351.5 364.167,351.5 358.5,351.5C 358.5,358.833 358.5,366.167 358.5,373.5C 353.5,373.5 348.5,373.5 343.5,373.5C 343.5,354.167 343.5,334.833 343.5,315.5 Z"/></g>
<g><path style="opacity:1" fill="#e56e4f" d="M 113.5,312.5 C 122.5,312.5 131.5,312.5 140.5,312.5C 140.5,333.167 140.5,353.833 140.5,374.5C 131.5,374.5 122.5,374.5 113.5,374.5C 113.5,377.167 113.5,379.833 113.5,382.5C 113.167,382.5 112.833,382.5 112.5,382.5C 112.5,379.5 112.5,376.5 112.5,373.5C 121.5,373.5 130.5,373.5 139.5,373.5C 139.5,353.5 139.5,333.5 139.5,313.5C 130.651,313.826 121.984,313.493 113.5,312.5 Z"/></g>
<g><path style="opacity:1" fill="#e95c39" d="M 300.5,328.5 C 317.805,327.643 324.305,335.643 320,352.5C 318.73,356.77 315.896,359.27 311.5,360C 307.848,360.499 304.182,360.665 300.5,360.5C 300.5,349.833 300.5,339.167 300.5,328.5 Z"/></g>
<g><path style="opacity:1" fill="#e95d3a" d="M 249.5,328.5 C 253.182,328.335 256.848,328.501 260.5,329C 263.442,329.94 264.775,331.94 264.5,335C 264.604,337.145 263.937,338.979 262.5,340.5C 258.339,342.185 254.006,342.852 249.5,342.5C 249.5,337.833 249.5,333.167 249.5,328.5 Z"/></g>
<g><path style="opacity:1" fill="#f3a18b" d="M 286.5,315.5 C 286.5,334.833 286.5,354.167 286.5,373.5C 294.833,373.5 303.167,373.5 311.5,373.5C 303.016,374.493 294.349,374.826 285.5,374.5C 285.17,354.66 285.503,334.993 286.5,315.5 Z"/></g>
<g><path style="opacity:1" fill="#d0d1d2" d="M 140.5,374.5 C 158.548,379.042 176.548,383.709 194.5,388.5C 250.664,389.499 306.998,389.832 363.5,389.5C 363.5,392.833 363.5,396.167 363.5,399.5C 306.499,399.667 249.499,399.5 192.5,399C 175.079,394.645 157.746,389.978 140.5,385C 131.111,385.144 122.111,384.31 113.5,382.5C 113.5,379.833 113.5,377.167 113.5,374.5C 122.5,374.5 131.5,374.5 140.5,374.5 Z"/></g>
<g><path style="opacity:0.977" fill="#f0f0f1" d="M 112.5,382.5 C 112.833,382.5 113.167,382.5 113.5,382.5C 122.111,384.31 131.111,385.144 140.5,385C 157.746,389.978 175.079,394.645 192.5,399C 249.499,399.5 306.499,399.667 363.5,399.5C 366.075,414.676 360.741,425.843 347.5,433C 344.899,433.92 342.232,434.587 339.5,435C 271.833,435.667 204.167,435.667 136.5,435C 123.785,432.619 115.952,425.119 113,412.5C 112.5,402.506 112.334,392.506 112.5,382.5 Z"/></g>
</svg>
