<?xml version="1.0" encoding="UTF-8"?>
<!DOCTYPE svg PUBLIC "-//W3C//DTD SVG 1.1//EN" "http://www.w3.org/Graphics/SVG/1.1/DTD/svg11.dtd">
<svg xmlns="http://www.w3.org/2000/svg" version="1.1" width="512px" height="512px" style="shape-rendering:geometricPrecision; text-rendering:geometricPrecision; image-rendering:optimizeQuality; fill-rule:evenodd; clip-rule:evenodd" xmlns:xlink="http://www.w3.org/1999/xlink">
<g><path style="opacity:0.991" fill="#fcbb48" d="M 391.5,470.5 C 390.667,337.667 390.167,204.667 390,71.5C 387.737,64.9028 383.237,60.7361 376.5,59C 290.167,58.5 203.834,58.3333 117.5,58.5C 119.351,42.7282 121.851,27.0615 125,11.5C 128.836,4.24904 134.836,0.915709 143,1.5C 242.985,16.0692 342.818,31.5692 442.5,48C 452.116,53.4113 455.616,61.5779 453,72.5C 432.173,205.127 411.673,337.793 391.5,470.5 Z"/></g>
<g><path style="opacity:0.999" fill="#cee8fe" d="M 117.5,58.5 C 203.834,58.3333 290.167,58.5 376.5,59C 383.237,60.7361 387.737,64.9028 390,71.5C 390.167,204.667 390.667,337.667 391.5,470.5C 391.666,478.174 391.5,485.841 391,493.5C 389.265,503.898 383.099,509.398 372.5,510C 273.5,510.667 174.5,510.667 75.5,510C 66.7638,509.264 60.9305,504.764 58,496.5C 57.3333,354.833 57.3333,213.167 58,71.5C 60.1667,65.3333 64.3333,61.1667 70.5,59C 86.1631,58.5001 101.83,58.3334 117.5,58.5 Z"/></g>
<g><path style="opacity:1" fill="#8a9aa6" d="M 183.5,93.5 C 176.833,93.5 170.167,93.5 163.5,93.5C 163.5,104.5 163.5,115.5 163.5,126.5C 164.833,126.5 166.167,126.5 167.5,126.5C 166.081,127.451 164.415,127.784 162.5,127.5C 162.5,115.833 162.5,104.167 162.5,92.5C 169.687,92.1755 176.687,92.5088 183.5,93.5 Z"/></g>
<g><path style="opacity:1" fill="#667077" d="M 183.5,93.5 C 183.5,94.5 183.5,95.5 183.5,96.5C 178.167,96.5 172.833,96.5 167.5,96.5C 167.5,100.5 167.5,104.5 167.5,108.5C 172.167,108.5 176.833,108.5 181.5,108.5C 181.5,109.833 181.5,111.167 181.5,112.5C 176.833,112.5 172.167,112.5 167.5,112.5C 167.5,117.167 167.5,121.833 167.5,126.5C 166.167,126.5 164.833,126.5 163.5,126.5C 163.5,115.5 163.5,104.5 163.5,93.5C 170.167,93.5 176.833,93.5 183.5,93.5 Z"/></g>
<g><path style="opacity:1" fill="#667078" d="M 197.5,92.5 C 206.094,91.097 211.927,94.4303 215,102.5C 216.378,109.903 215.378,116.903 212,123.5C 206.174,128.082 200.008,128.582 193.5,125C 191.348,122.531 189.848,119.698 189,116.5C 186.085,106.185 188.919,98.1847 197.5,92.5 Z"/></g>
<g><path style="opacity:1" fill="#b3c8db" d="M 237.5,93.5 C 232.5,93.5 227.5,93.5 222.5,93.5C 222.5,104.5 222.5,115.5 222.5,126.5C 223.833,126.5 225.167,126.5 226.5,126.5C 226.182,121.968 226.515,117.634 227.5,113.5C 227.5,118.167 227.5,122.833 227.5,127.5C 225.5,127.5 223.5,127.5 221.5,127.5C 221.5,115.833 221.5,104.167 221.5,92.5C 227.026,92.1786 232.36,92.5119 237.5,93.5 Z"/></g>
<g><path style="opacity:1" fill="#656e76" d="M 237.5,93.5 C 244.421,95.2594 246.921,99.5928 245,106.5C 243.518,108.98 241.685,111.147 239.5,113C 241.782,117.731 244.449,122.231 247.5,126.5C 245.926,127.631 244.259,127.798 242.5,127C 240.293,122.753 237.96,118.586 235.5,114.5C 232.914,113.52 230.247,113.187 227.5,113.5C 226.515,117.634 226.182,121.968 226.5,126.5C 225.167,126.5 223.833,126.5 222.5,126.5C 222.5,115.5 222.5,104.5 222.5,93.5C 227.5,93.5 232.5,93.5 237.5,93.5 Z"/></g>
<g><path style="opacity:1" fill="#97a8b6" d="M 257.5,93.5 C 255.833,93.5 254.167,93.5 252.5,93.5C 252.5,104.5 252.5,115.5 252.5,126.5C 253.833,126.5 255.167,126.5 256.5,126.5C 255.081,127.451 253.415,127.784 251.5,127.5C 251.5,115.833 251.5,104.167 251.5,92.5C 253.735,92.2053 255.735,92.5386 257.5,93.5 Z"/></g>
<g><path style="opacity:1" fill="#656f76" d="M 257.5,93.5 C 261.601,102.276 265.434,111.276 269,120.5C 272.566,111.276 276.399,102.276 280.5,93.5C 282.167,93.5 283.833,93.5 285.5,93.5C 285.5,104.5 285.5,115.5 285.5,126.5C 284.167,126.5 282.833,126.5 281.5,126.5C 281.666,118.493 281.5,110.493 281,102.5C 277.285,110.304 273.952,118.304 271,126.5C 269.667,127.833 268.333,127.833 267,126.5C 264.057,118.338 260.724,110.338 257,102.5C 256.5,110.493 256.334,118.493 256.5,126.5C 255.167,126.5 253.833,126.5 252.5,126.5C 252.5,115.5 252.5,104.5 252.5,93.5C 254.167,93.5 255.833,93.5 257.5,93.5 Z"/></g>
<g><path style="opacity:1" fill="#97a9b7" d="M 280.5,93.5 C 282.265,92.5386 284.265,92.2053 286.5,92.5C 286.5,104.167 286.5,115.833 286.5,127.5C 284.585,127.784 282.919,127.451 281.5,126.5C 282.833,126.5 284.167,126.5 285.5,126.5C 285.5,115.5 285.5,104.5 285.5,93.5C 283.833,93.5 282.167,93.5 280.5,93.5 Z"/></g>
<g><path style="opacity:1" fill="#cbe5fa" d="M 198.5,96.5 C 205.198,95.4327 209.364,98.0994 211,104.5C 212.01,110.064 211.343,115.398 209,120.5C 206.005,123.265 202.505,124.098 198.5,123C 196.333,122.167 194.833,120.667 194,118.5C 192.582,113.572 192.249,108.572 193,103.5C 193.967,100.379 195.8,98.046 198.5,96.5 Z"/></g>
<g><path style="opacity:1" fill="#c8e1f6" d="M 226.5,96.5 C 229.85,96.335 233.183,96.5017 236.5,97C 242.74,100.528 243.073,104.528 237.5,109C 233.848,109.499 230.182,109.665 226.5,109.5C 226.5,105.167 226.5,100.833 226.5,96.5 Z"/></g>
<g><path style="opacity:1" fill="#677078" d="M 91.5,159.5 C 179.834,159.333 268.167,159.5 356.5,160C 358.527,161.396 358.86,163.062 357.5,165C 268.833,165.667 180.167,165.667 91.5,165C 90.2475,163.172 90.2475,161.339 91.5,159.5 Z"/></g>
<g><path style="opacity:1" fill="#677078" d="M 91.5,206.5 C 180.167,206.333 268.834,206.5 357.5,207C 358.86,208.938 358.527,210.604 356.5,212C 268.167,212.667 179.833,212.667 91.5,212C 90.2475,210.172 90.2475,208.339 91.5,206.5 Z"/></g>
<g><path style="opacity:1" fill="#646d74" d="M 91.5,252.5 C 179.834,252.333 268.167,252.5 356.5,253C 358.527,254.396 358.86,256.062 357.5,258C 268.833,258.667 180.167,258.667 91.5,258C 90.2475,256.172 90.2475,254.339 91.5,252.5 Z"/></g>
<g><path style="opacity:1" fill="#69737b" d="M 91.5,298.5 C 179.834,298.333 268.167,298.5 356.5,299C 358.527,300.396 358.86,302.062 357.5,304C 268.501,304.5 179.501,304.667 90.5,304.5C 90.3253,302.379 90.6586,300.379 91.5,298.5 Z"/></g>
<g><path style="opacity:1" fill="#656e76" d="M 91.5,345.5 C 180.167,345.333 268.834,345.5 357.5,346C 358.86,347.938 358.527,349.604 356.5,351C 268.167,351.667 179.833,351.667 91.5,351C 90.2475,349.172 90.2475,347.339 91.5,345.5 Z"/></g>
<g><path style="opacity:1" fill="#666f77" d="M 91.5,391.5 C 128.502,391.333 165.502,391.5 202.5,392C 203.833,393.667 203.833,395.333 202.5,397C 165.5,397.667 128.5,397.667 91.5,397C 90.2475,395.172 90.2475,393.339 91.5,391.5 Z"/></g>
<g><path style="opacity:1" fill="#f55f5f" d="M 305.5,394.5 C 330.888,392.429 347.388,403.429 355,427.5C 357.155,445.351 350.988,459.518 336.5,470C 315.886,480.804 297.72,477.638 282,460.5C 269.096,440.171 270.93,421.337 287.5,404C 293.161,400.005 299.161,396.838 305.5,394.5 Z"/></g>
</svg>
