<?xml version="1.0" encoding="UTF-8"?>
<!DOCTYPE svg PUBLIC "-//W3C//DTD SVG 1.1//EN" "http://www.w3.org/Graphics/SVG/1.1/DTD/svg11.dtd">
<svg xmlns="http://www.w3.org/2000/svg" version="1.1" width="512px" height="512px" style="shape-rendering:geometricPrecision; text-rendering:geometricPrecision; image-rendering:optimizeQuality; fill-rule:evenodd; clip-rule:evenodd" xmlns:xlink="http://www.w3.org/1999/xlink">
<g><path style="opacity:1" fill="#97bedb" d="M 133.5,-0.5 C 138.167,-0.5 142.833,-0.5 147.5,-0.5C 153.813,2.31434 158.313,6.98101 161,13.5C 162.274,20.1028 162.774,26.7695 162.5,33.5C 161.506,43.6532 161.172,53.9865 161.5,64.5C 161.511,68.4643 160.511,72.131 158.5,75.5C 152.135,83.5673 143.802,86.4007 133.5,84C 131.416,83.3028 129.749,82.1361 128.5,80.5C 132.742,78.0614 135.575,74.3947 137,69.5C 137.667,50.8333 137.667,32.1667 137,13.5C 134.716,9.38625 131.883,5.71958 128.5,2.5C 130.072,1.31271 131.739,0.312714 133.5,-0.5 Z"/></g>
<g><path style="opacity:1" fill="#98bdda" d="M 329.5,-0.5 C 334.167,-0.5 338.833,-0.5 343.5,-0.5C 349.424,2.25536 353.924,6.58869 357,12.5C 358.339,19.4264 358.839,26.4264 358.5,33.5C 358.5,42.1667 358.5,50.8333 358.5,59.5C 358.727,65.2582 357.394,70.5915 354.5,75.5C 348.214,83.9608 339.881,86.7941 329.5,84C 327.416,83.3028 325.749,82.1361 324.5,80.5C 328.884,78.6065 331.718,75.2731 333,70.5C 334.112,61.0569 334.612,51.5569 334.5,42C 334.612,32.4431 334.112,22.9431 333,13.5C 331.102,9.0022 328.269,5.33553 324.5,2.5C 326.368,1.73685 328.035,0.736849 329.5,-0.5 Z"/></g>
<g><path style="opacity:0.992" fill="#acd3eb" d="M 128.5,2.5 C 131.883,5.71958 134.716,9.38625 137,13.5C 137.667,32.1667 137.667,50.8333 137,69.5C 135.575,74.3947 132.742,78.0614 128.5,80.5C 125.885,79.5501 123.885,77.8835 122.5,75.5C 119.738,70.5435 118.405,65.2101 118.5,59.5C 118.5,50.8333 118.5,42.1667 118.5,33.5C 118.334,27.4908 118.501,21.4908 119,15.5C 120.456,9.88316 123.622,5.54982 128.5,2.5 Z"/></g>
<g><path style="opacity:0.988" fill="#aad4ec" d="M 324.5,2.5 C 328.269,5.33553 331.102,9.0022 333,13.5C 334.112,22.9431 334.612,32.4431 334.5,42C 334.612,51.5569 334.112,61.0569 333,70.5C 331.718,75.2731 328.884,78.6065 324.5,80.5C 321.865,79.5265 319.865,77.8598 318.5,75.5C 317.099,72.2964 316.099,68.9631 315.5,65.5C 315.828,54.6536 315.494,43.9869 314.5,33.5C 314.171,26.7586 314.671,20.092 316,13.5C 317.521,8.81294 320.355,5.14627 324.5,2.5 Z"/></g>
<g><path style="opacity:0.998" fill="#fe4e75" d="M 118.5,33.5 C 118.5,42.1667 118.5,50.8333 118.5,59.5C 111.385,59.0753 104.385,59.5753 97.5,61C 93.2207,66.033 93.5541,70.6997 98.5,75C 106.493,75.4997 114.493,75.6664 122.5,75.5C 123.885,77.8835 125.885,79.5501 128.5,80.5C 129.749,82.1361 131.416,83.3028 133.5,84C 143.802,86.4007 152.135,83.5673 158.5,75.5C 166.174,75.6664 173.841,75.4997 181.5,75C 188.433,69.5795 188.1,64.5795 180.5,60C 174.509,59.5005 168.509,59.3338 162.5,59.5C 162.784,61.4147 162.451,63.0813 161.5,64.5C 161.172,53.9865 161.506,43.6532 162.5,33.5C 213.167,33.5 263.833,33.5 314.5,33.5C 315.494,43.9869 315.828,54.6536 315.5,65.5C 314.539,63.7354 314.205,61.7354 314.5,59.5C 308.491,59.3338 302.491,59.5005 296.5,60C 291.582,61.9108 289.749,65.4108 291,70.5C 291.833,72.6667 293.333,74.1667 295.5,75C 303.159,75.4997 310.826,75.6664 318.5,75.5C 319.865,77.8598 321.865,79.5265 324.5,80.5C 325.749,82.1361 327.416,83.3028 329.5,84C 339.881,86.7941 348.214,83.9608 354.5,75.5C 362.174,75.6664 369.841,75.4997 377.5,75C 382.916,71.7973 383.916,67.464 380.5,62C 379.167,61.3333 377.833,60.6667 376.5,60C 370.509,59.5005 364.509,59.3338 358.5,59.5C 358.5,50.8333 358.5,42.1667 358.5,33.5C 374.5,33.5 390.5,33.5 406.5,33.5C 421.528,36.6899 431.361,45.6899 436,60.5C 436.5,77.4967 436.667,94.4967 436.5,111.5C 296.5,111.5 156.5,111.5 16.5,111.5C 16.3334,94.1635 16.5001,76.8301 17,59.5C 20.8333,46.3333 29.3333,37.8333 42.5,34C 67.8311,33.5 93.1645,33.3334 118.5,33.5 Z"/></g>
<g><path style="opacity:1" fill="#f71e78" d="M 406.5,33.5 C 415.839,33.3335 425.173,33.5002 434.5,34C 448.109,37.9419 456.609,46.7752 460,60.5C 460.5,91.4982 460.667,122.498 460.5,153.5C 452.5,153.5 444.5,153.5 436.5,153.5C 436.5,144.5 436.5,135.5 436.5,126.5C 296.5,126.5 156.5,126.5 16.5,126.5C 16.5,121.5 16.5,116.5 16.5,111.5C 156.5,111.5 296.5,111.5 436.5,111.5C 436.667,94.4967 436.5,77.4967 436,60.5C 431.361,45.6899 421.528,36.6899 406.5,33.5 Z"/></g>
<g><path style="opacity:1" fill="#f72178" d="M 118.5,59.5 C 118.405,65.2101 119.738,70.5435 122.5,75.5C 114.493,75.6664 106.493,75.4997 98.5,75C 93.5541,70.6997 93.2207,66.033 97.5,61C 104.385,59.5753 111.385,59.0753 118.5,59.5 Z"/></g>
<g><path style="opacity:1" fill="#f72077" d="M 158.5,75.5 C 160.511,72.131 161.511,68.4643 161.5,64.5C 162.451,63.0813 162.784,61.4147 162.5,59.5C 168.509,59.3338 174.509,59.5005 180.5,60C 188.1,64.5795 188.433,69.5795 181.5,75C 173.841,75.4997 166.174,75.6664 158.5,75.5 Z"/></g>
<g><path style="opacity:1" fill="#f62178" d="M 315.5,65.5 C 316.099,68.9631 317.099,72.2964 318.5,75.5C 310.826,75.6664 303.159,75.4997 295.5,75C 293.333,74.1667 291.833,72.6667 291,70.5C 289.749,65.4108 291.582,61.9108 296.5,60C 302.491,59.5005 308.491,59.3338 314.5,59.5C 314.205,61.7354 314.539,63.7354 315.5,65.5 Z"/></g>
<g><path style="opacity:1" fill="#f72078" d="M 358.5,59.5 C 364.509,59.3338 370.509,59.5005 376.5,60C 377.833,60.6667 379.167,61.3333 380.5,62C 383.916,67.464 382.916,71.7973 377.5,75C 369.841,75.4997 362.174,75.6664 354.5,75.5C 357.394,70.5915 358.727,65.2582 358.5,59.5 Z"/></g>
<g><path style="opacity:1" fill="#fe5176" d="M 16.5,126.5 C 156.5,126.5 296.5,126.5 436.5,126.5C 436.5,135.5 436.5,144.5 436.5,153.5C 296.5,153.5 156.5,153.5 16.5,153.5C 16.5,144.5 16.5,135.5 16.5,126.5 Z"/></g>
<g><path style="opacity:1" fill="#f3fafe" d="M 16.5,153.5 C 156.5,153.5 296.5,153.5 436.5,153.5C 436.5,198.833 436.5,244.167 436.5,289.5C 433.131,287.485 429.798,285.485 426.5,283.5C 426.666,276.159 426.5,268.826 426,261.5C 424.74,258.572 422.573,256.739 419.5,256C 411.395,255.066 403.395,255.399 395.5,257C 394.299,257.903 393.465,259.069 393,260.5C 392.501,264.821 392.334,269.154 392.5,273.5C 390.833,273.5 389.167,273.5 387.5,273.5C 379.5,272.167 371.5,272.167 363.5,273.5C 361.5,273.5 359.5,273.5 357.5,273.5C 357.666,269.154 357.499,264.821 357,260.5C 356.535,259.069 355.701,257.903 354.5,257C 328.753,248.259 318.42,257.092 323.5,283.5C 313.669,288.666 304.669,295 296.5,302.5C 291.812,305.188 288.145,308.855 285.5,313.5C 268.916,331.54 259.249,352.873 256.5,377.5C 255.513,382.305 255.179,387.305 255.5,392.5C 185.499,392.667 115.499,392.5 45.5,392C 29.0845,388.088 19.4179,377.921 16.5,361.5C 16.5,292.167 16.5,222.833 16.5,153.5 Z"/></g>
<g><path style="opacity:1" fill="#bfebfe" d="M 436.5,153.5 C 444.5,153.5 452.5,153.5 460.5,153.5C 460.5,204.833 460.5,256.167 460.5,307.5C 458.427,305.42 456.093,303.754 453.5,302.5C 448.412,297.451 442.745,293.117 436.5,289.5C 436.5,244.167 436.5,198.833 436.5,153.5 Z"/></g>
<g><path style="opacity:1" fill="#5b7da3" d="M 123.5,187.5 C 131.84,187.334 140.173,187.5 148.5,188C 150.552,188.93 152.052,190.43 153,192.5C 159.5,218 150,227.5 124.5,221C 122.714,220.215 121.214,219.049 120,217.5C 118.399,209.605 118.066,201.605 119,193.5C 119.979,191.032 121.479,189.032 123.5,187.5 Z"/></g>
<g><path style="opacity:1" fill="#597ba1" d="M 191.5,187.5 C 199.84,187.334 208.173,187.5 216.5,188C 217.931,188.465 219.097,189.299 220,190.5C 228.596,216.899 219.43,227.066 192.5,221C 191.069,220.535 189.903,219.701 189,218.5C 187.391,209.602 187.058,200.602 188,191.5C 189.376,190.295 190.542,188.962 191.5,187.5 Z"/></g>
<g><path style="opacity:1" fill="#597aa1" d="M 260.5,187.5 C 268.507,187.334 276.507,187.5 284.5,188C 286.286,188.785 287.786,189.951 289,191.5C 289.667,199.833 289.667,208.167 289,216.5C 288.535,217.931 287.701,219.097 286.5,220C 277.911,221.576 269.244,221.91 260.5,221C 258.274,219.773 256.774,217.939 256,215.5C 255.333,207.833 255.333,200.167 256,192.5C 257.025,190.313 258.525,188.646 260.5,187.5 Z"/></g>
<g><path style="opacity:1" fill="#fe5176" d="M 328.5,187.5 C 336.84,187.334 345.173,187.5 353.5,188C 354.667,189.167 355.833,190.333 357,191.5C 357.667,199.833 357.667,208.167 357,216.5C 356.535,217.931 355.701,219.097 354.5,220C 345.936,221.607 337.27,221.94 328.5,221C 327.333,219.833 326.167,218.667 325,217.5C 323.396,209.27 323.063,200.937 324,192.5C 325.025,190.313 326.525,188.646 328.5,187.5 Z"/></g>
<g><path style="opacity:1" fill="#5a7ba2" d="M 396.5,187.5 C 404.84,187.334 413.173,187.5 421.5,188C 423.552,188.93 425.052,190.43 426,192.5C 432.5,218 423,227.5 397.5,221C 395.714,220.215 394.214,219.049 393,217.5C 392.333,208.833 392.333,200.167 393,191.5C 394.376,190.295 395.542,188.962 396.5,187.5 Z"/></g>
<g><path style="opacity:1" fill="#597ba1" d="M 55.5,255.5 C 63.1739,255.334 70.8406,255.5 78.5,256C 80.8477,256.346 82.6811,257.513 84,259.5C 84.6667,268.167 84.6667,276.833 84,285.5C 83.1667,286.333 82.3333,287.167 81.5,288C 76.9445,289.109 72.2778,289.609 67.5,289.5C 63.5,289.333 59.5,289.167 55.5,289C 53.1853,287.891 51.6853,286.057 51,283.5C 50.3333,275.833 50.3333,268.167 51,260.5C 52.3657,258.638 53.8657,256.972 55.5,255.5 Z"/></g>
<g><path style="opacity:1" fill="#ff5377" d="M 123.5,255.5 C 131.507,255.334 139.507,255.5 147.5,256C 149.286,256.785 150.786,257.951 152,259.5C 153.601,267.395 153.934,275.395 153,283.5C 151.878,285.624 150.378,287.457 148.5,289C 140.167,289.667 131.833,289.667 123.5,289C 122.333,287.833 121.167,286.667 120,285.5C 118.399,277.605 118.066,269.605 119,261.5C 120.332,259.34 121.832,257.34 123.5,255.5 Z"/></g>
<g><path style="opacity:1" fill="#597aa1" d="M 192.5,255.5 C 200.174,255.334 207.841,255.5 215.5,256C 217.939,256.774 219.773,258.274 221,260.5C 221.667,268.167 221.667,275.833 221,283.5C 220.727,285.329 219.893,286.829 218.5,288C 209.602,289.609 200.602,289.942 191.5,289C 190.667,288.167 189.833,287.333 189,286.5C 187.393,277.936 187.06,269.27 188,260.5C 189.025,258.313 190.525,256.646 192.5,255.5 Z"/></g>
<g><path style="opacity:1" fill="#587aa1" d="M 260.5,255.5 C 268.174,255.334 275.841,255.5 283.5,256C 285.329,256.273 286.829,257.107 288,258.5C 289.607,267.064 289.94,275.73 289,284.5C 288.535,285.931 287.701,287.097 286.5,288C 277.936,289.607 269.27,289.94 260.5,289C 259.069,288.535 257.903,287.701 257,286.5C 255.424,277.911 255.09,269.244 256,260.5C 257.025,258.313 258.525,256.646 260.5,255.5 Z"/></g>
<g><path style="opacity:1" fill="#5a7ba1" d="M 357.5,273.5 C 345.774,275.597 334.441,278.93 323.5,283.5C 318.42,257.092 328.753,248.259 354.5,257C 355.701,257.903 356.535,259.069 357,260.5C 357.499,264.821 357.666,269.154 357.5,273.5 Z"/></g>
<g><path style="opacity:1" fill="#5a7ba2" d="M 426.5,283.5 C 415.547,278.928 404.214,275.594 392.5,273.5C 392.334,269.154 392.501,264.821 393,260.5C 393.465,259.069 394.299,257.903 395.5,257C 403.395,255.399 411.395,255.066 419.5,256C 422.573,256.739 424.74,258.572 426,261.5C 426.5,268.826 426.666,276.159 426.5,283.5 Z"/></g>
<g><path style="opacity:1" fill="#fecb4b" d="M 357.5,273.5 C 359.5,273.5 361.5,273.5 363.5,273.5C 364.833,273.5 366.167,273.5 367.5,273.5C 367.5,284.5 367.5,295.5 367.5,306.5C 349.623,308.775 333.623,315.442 319.5,326.5C 311.833,318.5 304.167,310.5 296.5,302.5C 304.669,295 313.669,288.666 323.5,283.5C 334.441,278.93 345.774,275.597 357.5,273.5 Z"/></g>
<g><path style="opacity:1" fill="#fee177" d="M 363.5,273.5 C 371.5,272.167 379.5,272.167 387.5,273.5C 386.167,273.5 384.833,273.5 383.5,273.5C 383.5,274.5 383.5,275.5 383.5,276.5C 382.506,286.319 382.173,296.319 382.5,306.5C 377.5,306.5 372.5,306.5 367.5,306.5C 367.5,295.5 367.5,284.5 367.5,273.5C 366.167,273.5 364.833,273.5 363.5,273.5 Z"/></g>
<g><path style="opacity:1" fill="#fdb54d" d="M 387.5,273.5 C 389.167,273.5 390.833,273.5 392.5,273.5C 404.214,275.594 415.547,278.928 426.5,283.5C 429.798,285.485 433.131,287.485 436.5,289.5C 442.745,293.117 448.412,297.451 453.5,302.5C 450.167,306.5 446.5,310.167 442.5,313.5C 430.404,300.932 416.404,290.766 400.5,283C 394.695,280.903 389.029,278.737 383.5,276.5C 383.5,275.5 383.5,274.5 383.5,273.5C 384.833,273.5 386.167,273.5 387.5,273.5 Z"/></g>
<g><path style="opacity:1" fill="#ffcb4a" d="M 383.5,276.5 C 389.029,278.737 394.695,280.903 400.5,283C 416.404,290.766 430.404,300.932 442.5,313.5C 438.5,317.833 434.5,322.167 430.5,326.5C 416.432,315.474 400.432,308.807 382.5,306.5C 382.173,296.319 382.506,286.319 383.5,276.5 Z"/></g>
<g><path style="opacity:1" fill="#fee178" d="M 296.5,302.5 C 304.167,310.5 311.833,318.5 319.5,326.5C 316.5,330.167 313.167,333.5 309.5,336.5C 301.5,328.833 293.5,321.167 285.5,313.5C 288.145,308.855 291.812,305.188 296.5,302.5 Z"/></g>
<g><path style="opacity:1" fill="#fee177" d="M 453.5,302.5 C 456.093,303.754 458.427,305.42 460.5,307.5C 461.833,309.167 463.167,310.833 464.5,312.5C 460.167,317.167 455.833,321.833 451.5,326.5C 447.833,329.833 444.167,333.167 440.5,336.5C 436.833,333.5 433.5,330.167 430.5,326.5C 434.5,322.167 438.5,317.833 442.5,313.5C 446.5,310.167 450.167,306.5 453.5,302.5 Z"/></g>
<g><path style="opacity:1" fill="#ffb54c" d="M 367.5,306.5 C 367.389,307.117 367.056,307.617 366.5,308C 398.089,314.917 419.922,333.417 432,363.5C 443.389,405.003 431.889,438.503 397.5,464C 388.762,469.2 379.428,473.033 369.5,475.5C 368.287,475.747 367.62,476.414 367.5,477.5C 349.61,475.217 333.61,468.551 319.5,457.5C 316.5,453.833 313.167,450.5 309.5,447.5C 298.387,433.283 291.72,417.283 289.5,399.5C 289.5,394.5 289.5,389.5 289.5,384.5C 291.715,366.726 298.381,350.726 309.5,336.5C 313.167,333.5 316.5,330.167 319.5,326.5C 333.623,315.442 349.623,308.775 367.5,306.5 Z"/></g>
<g><path style="opacity:1" fill="#ff9958" d="M 367.5,306.5 C 372.5,306.5 377.5,306.5 382.5,306.5C 400.432,308.807 416.432,315.474 430.5,326.5C 433.5,330.167 436.833,333.5 440.5,336.5C 451.533,350.58 458.2,366.58 460.5,384.5C 460.5,389.5 460.5,394.5 460.5,399.5C 458.282,417.279 451.616,433.279 440.5,447.5C 436.833,450.5 433.5,453.833 430.5,457.5C 416.426,468.529 400.426,475.196 382.5,477.5C 377.5,477.5 372.5,477.5 367.5,477.5C 367.62,476.414 368.287,475.747 369.5,475.5C 379.428,473.033 388.762,469.2 397.5,464C 431.889,438.503 443.389,405.003 432,363.5C 419.922,333.417 398.089,314.917 366.5,308C 367.056,307.617 367.389,307.117 367.5,306.5 Z"/></g>
<g><path style="opacity:1" fill="#fecc4b" d="M 285.5,313.5 C 293.5,321.167 301.5,328.833 309.5,336.5C 298.381,350.726 291.715,366.726 289.5,384.5C 278.5,384.5 267.5,384.5 256.5,384.5C 256.5,382.167 256.5,379.833 256.5,377.5C 259.249,352.873 268.916,331.54 285.5,313.5 Z"/></g>
<g><path style="opacity:1" fill="#ffb54c" d="M 464.5,312.5 C 482.847,332.836 492.847,356.836 494.5,384.5C 486.5,384.5 478.5,384.5 470.5,384.5C 469.313,363.464 462.98,344.131 451.5,326.5C 455.833,321.833 460.167,317.167 464.5,312.5 Z"/></g>
<g><path style="opacity:1" fill="#5a7ba2" d="M 56.5,323.5 C 63.8409,323.334 71.1742,323.5 78.5,324C 80.0806,324.707 81.5806,325.54 83,326.5C 84.6091,335.398 84.9424,344.398 84,353.5C 82.8333,354.667 81.6667,355.833 80.5,357C 72.1667,357.667 63.8333,357.667 55.5,357C 54.0692,356.535 52.9025,355.701 52,354.5C 50.396,346.27 50.0627,337.937 51,329.5C 52.3597,326.977 54.193,324.977 56.5,323.5 Z"/></g>
<g><path style="opacity:1" fill="#5c7da3" d="M 124.5,323.5 C 132.174,323.334 139.841,323.5 147.5,324C 149.286,324.785 150.786,325.951 152,327.5C 153.601,335.395 153.934,343.395 153,351.5C 152.293,353.081 151.46,354.581 150.5,356C 145.777,357.112 140.944,357.612 136,357.5C 131.833,357.333 127.667,357.167 123.5,357C 121.185,355.891 119.685,354.057 119,351.5C 118.333,344.167 118.333,336.833 119,329.5C 120.36,326.977 122.193,324.977 124.5,323.5 Z"/></g>
<g><path style="opacity:1" fill="#597ba2" d="M 192.5,323.5 C 200.174,323.334 207.841,323.5 215.5,324C 217.624,325.122 219.457,326.622 221,328.5C 221.667,336.5 221.667,344.5 221,352.5C 220.535,353.931 219.701,355.097 218.5,356C 209.602,357.609 200.602,357.942 191.5,357C 190.333,355.833 189.167,354.667 188,353.5C 187.333,345.167 187.333,336.833 188,328.5C 189.193,326.503 190.693,324.836 192.5,323.5 Z"/></g>
<g><path style="opacity:1" fill="#ffcb4a" d="M 451.5,326.5 C 462.98,344.131 469.313,363.464 470.5,384.5C 467.167,384.5 463.833,384.5 460.5,384.5C 458.2,366.58 451.533,350.58 440.5,336.5C 444.167,333.167 447.833,329.833 451.5,326.5 Z"/></g>
<g><path style="opacity:1" fill="#ffe177" d="M 371.5,333.5 C 379.271,332.934 383.271,336.601 383.5,344.5C 396.619,349.775 403.119,359.442 403,373.5C 397.91,381.393 392.91,381.393 388,373.5C 386.506,360.505 379.673,356.338 367.5,361C 360.894,367.928 360.894,374.928 367.5,382C 368.833,382.667 370.167,383.333 371.5,384C 390.542,384.213 401.209,393.713 403.5,412.5C 402.424,425.656 395.757,434.656 383.5,439.5C 383.34,449.409 378.674,452.576 369.5,449C 367.773,446.096 367.107,442.93 367.5,439.5C 354.837,435.552 347.837,426.885 346.5,413.5C 347.249,407.582 350.582,404.749 356.5,405C 358.286,405.785 359.786,406.951 361,408.5C 361.46,414.115 363.627,418.949 367.5,423C 381.557,427.623 388.057,422.457 387,407.5C 382.328,400.82 375.828,397.987 367.5,399C 352.529,393.351 345.695,382.518 347,366.5C 349.576,355.094 356.41,347.76 367.5,344.5C 366.656,339.862 367.989,336.195 371.5,333.5 Z"/></g>
<g><path style="opacity:0.989" fill="#bfebfe" d="M 16.5,361.5 C 19.4179,377.921 29.0845,388.088 45.5,392C 115.499,392.5 185.499,392.667 255.5,392.5C 255.182,397.032 255.515,401.366 256.5,405.5C 257.392,412.518 258.392,419.518 259.5,426.5C 186.122,426.988 112.789,426.488 39.5,425C 27.8097,420.645 20.3097,412.478 17,400.5C 16.5001,387.504 16.3334,374.504 16.5,361.5 Z"/></g>
<g><path style="opacity:1" fill="#fee178" d="M 256.5,377.5 C 256.5,379.833 256.5,382.167 256.5,384.5C 267.5,384.5 278.5,384.5 289.5,384.5C 289.5,389.5 289.5,394.5 289.5,399.5C 278.5,399.5 267.5,399.5 256.5,399.5C 256.5,401.5 256.5,403.5 256.5,405.5C 255.515,401.366 255.182,397.032 255.5,392.5C 255.179,387.305 255.513,382.305 256.5,377.5 Z"/></g>
<g><path style="opacity:1" fill="#ffe177" d="M 460.5,384.5 C 463.833,384.5 467.167,384.5 470.5,384.5C 478.5,384.5 486.5,384.5 494.5,384.5C 494.5,389.5 494.5,394.5 494.5,399.5C 486.5,399.5 478.5,399.5 470.5,399.5C 467.167,399.5 463.833,399.5 460.5,399.5C 460.5,394.5 460.5,389.5 460.5,384.5 Z"/></g>
<g><path style="opacity:0.993" fill="#fecc4a" d="M 289.5,399.5 C 291.72,417.283 298.387,433.283 309.5,447.5C 301.167,455.167 293.167,463.167 285.5,471.5C 273.495,458.497 264.828,443.497 259.5,426.5C 258.392,419.518 257.392,412.518 256.5,405.5C 256.5,403.5 256.5,401.5 256.5,399.5C 267.5,399.5 278.5,399.5 289.5,399.5 Z"/></g>
<g><path style="opacity:1" fill="#ffcb4a" d="M 460.5,399.5 C 463.833,399.5 467.167,399.5 470.5,399.5C 468.969,420.427 462.635,439.761 451.5,457.5C 447.833,454.167 444.167,450.833 440.5,447.5C 451.616,433.279 458.282,417.279 460.5,399.5 Z"/></g>
<g><path style="opacity:1" fill="#ffb54c" d="M 470.5,399.5 C 478.5,399.5 486.5,399.5 494.5,399.5C 492.847,427.161 482.847,451.161 464.5,471.5C 460.167,466.833 455.833,462.167 451.5,457.5C 462.635,439.761 468.969,420.427 470.5,399.5 Z"/></g>
<g><path style="opacity:1" fill="#ffe177" d="M 309.5,447.5 C 313.167,450.5 316.5,453.833 319.5,457.5C 311.785,465.881 303.785,473.881 295.5,481.5C 291.833,478.5 288.5,475.167 285.5,471.5C 293.167,463.167 301.167,455.167 309.5,447.5 Z"/></g>
<g><path style="opacity:1" fill="#ffe177" d="M 440.5,447.5 C 444.167,450.833 447.833,454.167 451.5,457.5C 455.833,462.167 460.167,466.833 464.5,471.5C 461.5,475.167 458.167,478.5 454.5,481.5C 450.474,477.805 446.474,474.138 442.5,470.5C 438.5,466.167 434.5,461.833 430.5,457.5C 433.5,453.833 436.833,450.5 440.5,447.5 Z"/></g>
<g><path style="opacity:0.991" fill="#ffcc4a" d="M 319.5,457.5 C 333.61,468.551 349.61,475.217 367.5,477.5C 367.5,488.833 367.5,500.167 367.5,511.5C 364.833,511.5 362.167,511.5 359.5,511.5C 335.087,507.959 313.754,497.959 295.5,481.5C 303.785,473.881 311.785,465.881 319.5,457.5 Z"/></g>
<g><path style="opacity:1" fill="#ffcb4a" d="M 430.5,457.5 C 434.5,461.833 438.5,466.167 442.5,470.5C 426.121,488.373 406.121,500.706 382.5,507.5C 382.5,497.5 382.5,487.5 382.5,477.5C 400.426,475.196 416.426,468.529 430.5,457.5 Z"/></g>
<g><path style="opacity:1" fill="#ffb64c" d="M 442.5,470.5 C 446.474,474.138 450.474,477.805 454.5,481.5C 436.251,497.957 414.917,507.957 390.5,511.5C 387.833,511.5 385.167,511.5 382.5,511.5C 382.5,510.167 382.5,508.833 382.5,507.5C 406.121,500.706 426.121,488.373 442.5,470.5 Z"/></g>
<g><path style="opacity:1" fill="#ffe177" d="M 367.5,477.5 C 372.5,477.5 377.5,477.5 382.5,477.5C 382.5,487.5 382.5,497.5 382.5,507.5C 382.5,508.833 382.5,510.167 382.5,511.5C 377.5,511.5 372.5,511.5 367.5,511.5C 367.5,500.167 367.5,488.833 367.5,477.5 Z"/></g>
</svg>
