<?xml version="1.0" encoding="UTF-8"?>
<!DOCTYPE svg PUBLIC "-//W3C//DTD SVG 1.1//EN" "http://www.w3.org/Graphics/SVG/1.1/DTD/svg11.dtd">
<svg xmlns="http://www.w3.org/2000/svg" version="1.1" width="512px" height="512px" style="shape-rendering:geometricPrecision; text-rendering:geometricPrecision; image-rendering:optimizeQuality; fill-rule:evenodd; clip-rule:evenodd" xmlns:xlink="http://www.w3.org/1999/xlink">
<g><path style="opacity:0.98" fill="#010101" d="M 511.5,386.5 C 511.5,396.167 511.5,405.833 511.5,415.5C 499.329,472.619 463.995,503.286 405.5,507.5C 367.06,506.287 337.06,489.953 315.5,458.5C 228.707,472.471 142.374,469.971 56.5,451C 38.9865,446.622 21.6532,441.622 4.5,436C 2.96252,434.293 1.29585,432.793 -0.5,431.5C -0.5,424.833 -0.5,418.167 -0.5,411.5C 2.29935,389.001 9.13269,367.667 20,347.5C 22.4476,343.385 25.2809,339.552 28.5,336C 32.1303,334.336 35.7969,334.17 39.5,335.5C 40.412,337.595 41.5787,339.595 43,341.5C 43.6667,344.167 43.6667,346.833 43,349.5C 28.8243,370.693 21.491,394.027 21,419.5C 33.1904,423.952 45.6904,427.285 58.5,429.5C 58.3334,416.496 58.5001,403.496 59,390.5C 65.754,382.382 72.0873,382.716 78,391.5C 78.1754,406.075 78.6754,420.575 79.5,435C 108.267,440.841 137.267,444.008 166.5,444.5C 163.329,436.82 160.662,428.987 158.5,421C 165.26,386.015 171.926,351.015 178.5,316C 175.08,304.406 171.246,292.906 167,281.5C 142.548,283.423 119.381,290.256 97.5,302C 94.5,302.667 91.5,302.667 88.5,302C 86.9625,300.293 85.2959,298.793 83.5,297.5C 81.6942,292.083 83.0276,287.583 87.5,284C 103.607,276.021 120.274,269.521 137.5,264.5C 111.747,247.359 95.08,223.692 87.5,193.5C 68.6389,185.953 58.6389,171.953 57.5,151.5C 57.7384,143.285 59.905,135.619 64,128.5C 65.2547,127.789 66.4214,126.956 67.5,126C 73.8246,125.5 80.1579,125.334 86.5,125.5C 83.5186,71.3704 106.852,33.8704 156.5,13C 201.007,-3.38815 243.007,1.27851 282.5,27C 312.734,52.6617 326.734,85.495 324.5,125.5C 341.222,120.592 350.722,126.592 353,143.5C 355.111,167.958 344.944,184.958 322.5,194.5C 314.605,224.227 297.939,247.727 272.5,265C 303.637,272.984 331.47,287.151 356,307.5C 389.85,290.271 423.684,290.437 457.5,308C 487.566,325.894 505.566,352.061 511.5,386.5 Z"/></g>
<g><path style="opacity:1" fill="#aca9ae" d="M 109.5,124.5 C 107.539,117.913 106.872,110.913 107.5,103.5C 110.471,76.388 123.471,55.5547 146.5,41C 179.407,22.4051 213.74,19.4051 249.5,32C 277.963,44.4731 295.463,65.9731 302,96.5C 303.324,106.116 303.824,115.783 303.5,125.5C 272.498,125.667 241.498,125.5 210.5,125C 183.534,122.026 160.534,111.026 141.5,92C 135.384,89.3057 130.55,90.8057 127,96.5C 127.095,103.471 125.762,110.138 123,116.5C 119.485,120.841 114.985,123.507 109.5,124.5 Z"/></g>
<g><path style="opacity:1" fill="#4d4b4e" d="M 107.5,103.5 C 106.872,110.913 107.539,117.913 109.5,124.5C 108.791,125.404 107.791,125.737 106.5,125.5C 106.175,117.981 106.508,110.648 107.5,103.5 Z"/></g>
<g><path style="opacity:1" fill="#fed3bd" d="M 221.5,145.5 C 248.328,146.498 275.328,146.831 302.5,146.5C 302.5,158.833 302.5,171.167 302.5,183.5C 299.604,205.24 289.937,223.406 273.5,238C 229.341,272.547 184.674,273.214 139.5,240C 111.11,214.664 100.776,183.164 108.5,145.5C 124.946,143.703 136.613,135.369 143.5,120.5C 166.838,136.84 192.838,145.174 221.5,145.5 Z"/></g>
<g><path style="opacity:1" fill="#d0ad9b" d="M 221.5,145.5 C 248.833,145.5 276.167,145.5 303.5,145.5C 303.829,158.344 303.495,171.011 302.5,183.5C 302.5,171.167 302.5,158.833 302.5,146.5C 275.328,146.831 248.328,146.498 221.5,145.5 Z"/></g>
<g><path style="opacity:1" fill="#f6b898" d="M 78.5,145.5 C 81.1667,145.5 83.8333,145.5 86.5,145.5C 86.6664,153.507 86.4997,161.507 86,169.5C 79.7785,162.709 77.2785,154.709 78.5,145.5 Z"/></g>
<g><path style="opacity:1" fill="#f8b999" d="M 323.5,145.5 C 326.5,145.5 329.5,145.5 332.5,145.5C 333.812,154.952 331.146,162.952 324.5,169.5C 323.502,161.528 323.169,153.528 323.5,145.5 Z"/></g>
<g><path style="opacity:1" fill="#51c9ee" d="M 244.5,280.5 C 271.547,284.46 296.881,293.293 320.5,307C 326.56,310.69 332.227,314.857 337.5,319.5C 301.827,352.857 291.493,392.857 306.5,439.5C 286.247,442.232 265.914,444.232 245.5,445.5C 247.83,437.51 250.163,429.51 252.5,421.5C 245.962,386.145 239.296,350.811 232.5,315.5C 236.5,303.832 240.5,292.166 244.5,280.5 Z"/></g>
<g><path style="opacity:0.999" fill="#51c9ee" d="M 39.5,335.5 C 43.1384,331.526 46.8051,327.526 50.5,323.5C 53.2709,324.633 56.1042,325.633 59,326.5C 68.8138,323.917 71.6471,317.917 67.5,308.5C 72.8564,304.801 78.1898,301.134 83.5,297.5C 85.2959,298.793 86.9625,300.293 88.5,302C 91.5,302.667 94.5,302.667 97.5,302C 119.381,290.256 142.548,283.423 167,281.5C 171.246,292.906 175.08,304.406 178.5,316C 171.926,351.015 165.26,386.015 158.5,421C 160.662,428.987 163.329,436.82 166.5,444.5C 137.267,444.008 108.267,440.841 79.5,435C 78.6754,420.575 78.1754,406.075 78,391.5C 72.0873,382.716 65.754,382.382 59,390.5C 58.5001,403.496 58.3334,416.496 58.5,429.5C 45.6904,427.285 33.1904,423.952 21,419.5C 21.491,394.027 28.8243,370.693 43,349.5C 43.6667,346.833 43.6667,344.167 43,341.5C 41.5787,339.595 40.412,337.595 39.5,335.5 Z"/></g>
<g><path style="opacity:1" fill="#c0bec2" d="M 189.5,283.5 C 200.486,284.516 211.486,284.683 222.5,284C 219.464,290.608 217.131,297.442 215.5,304.5C 209.132,304.83 202.798,304.496 196.5,303.5C 193.761,296.949 191.428,290.282 189.5,283.5 Z"/></g>
<g><path style="opacity:0.931" fill="#020304" d="M 67.5,308.5 C 71.6471,317.917 68.8138,323.917 59,326.5C 56.1042,325.633 53.2709,324.633 50.5,323.5C 46.289,313.771 49.289,307.771 59.5,305.5C 62.3913,305.948 65.058,306.948 67.5,308.5 Z"/></g>
<g><path style="opacity:1" fill="#fcc97a" d="M 393.5,315.5 C 438.455,313.01 469.621,332.343 487,373.5C 497.537,412.888 487.037,445.388 455.5,471C 430.953,487.173 404.62,490.84 376.5,482C 334.633,463.449 316.133,431.282 321,385.5C 330.652,347.013 354.819,323.679 393.5,315.5 Z"/></g>
<g><path style="opacity:1" fill="#f6f6f6" d="M 197.5,324.5 C 203.167,324.5 208.833,324.5 214.5,324.5C 220.112,356.56 226.112,388.56 232.5,420.5C 229.096,429.046 226.096,437.713 223.5,446.5C 211.829,446.667 200.162,446.5 188.5,446C 183.596,435.969 180.762,425.469 180,414.5C 186.156,384.546 191.989,354.546 197.5,324.5 Z"/></g>
<g><path style="opacity:1" fill="#030201" d="M 401.5,330.5 C 406.855,329.345 411.022,331.012 414,335.5C 414.333,341.167 414.667,346.833 415,352.5C 422.692,354.504 429.025,358.504 434,364.5C 436.314,375.183 432.147,379.683 421.5,378C 415.683,373.212 409.016,371.212 401.5,372C 394.812,375.464 393.812,380.131 398.5,386C 405.261,388.741 412.261,390.741 419.5,392C 437.063,397.618 443.229,409.451 438,427.5C 433.83,437.833 426.33,444.5 415.5,447.5C 414.672,451.796 414.172,456.129 414,460.5C 410.206,467.911 404.872,469.244 398,464.5C 395.722,459.1 394.889,453.434 395.5,447.5C 383.089,445.146 375.089,437.98 371.5,426C 374.322,416.756 379.988,414.422 388.5,419C 393.718,427.072 401.051,429.739 410.5,427C 415.426,424.647 417.26,420.814 416,415.5C 414.786,413.951 413.286,412.785 411.5,412C 402.236,409.768 393.236,406.768 384.5,403C 373.943,394.996 370.443,384.496 374,371.5C 377.792,361.874 384.625,355.541 394.5,352.5C 395.329,347.198 395.829,341.864 396,336.5C 397.36,333.977 399.193,331.977 401.5,330.5 Z"/></g>
</svg>
