<?xml version="1.0" encoding="UTF-8"?>
<!DOCTYPE svg PUBLIC "-//W3C//DTD SVG 1.1//EN" "http://www.w3.org/Graphics/SVG/1.1/DTD/svg11.dtd">
<svg xmlns="http://www.w3.org/2000/svg" version="1.1" width="512px" height="511px" style="shape-rendering:geometricPrecision; text-rendering:geometricPrecision; image-rendering:optimizeQuality; fill-rule:evenodd; clip-rule:evenodd" xmlns:xlink="http://www.w3.org/1999/xlink">
<g><path style="opacity:0.983" fill="#fe9f60" d="M 364.5,41.5 C 359.615,40.8558 356.448,42.8558 355,47.5C 354.501,53.1569 354.334,58.8236 354.5,64.5C 347.833,64.5 341.167,64.5 334.5,64.5C 334.666,58.8236 334.499,53.1569 334,47.5C 331.523,41.5497 327.357,40.0497 321.5,43C 320.54,44.4194 319.707,45.9194 319,47.5C 318.501,53.1569 318.334,58.8236 318.5,64.5C 311.833,64.5 305.167,64.5 298.5,64.5C 298.666,58.8236 298.499,53.1569 298,47.5C 295.523,41.5497 291.357,40.0497 285.5,43C 284.54,44.4194 283.707,45.9194 283,47.5C 282.501,53.1569 282.334,58.8236 282.5,64.5C 275.833,64.5 269.167,64.5 262.5,64.5C 262.666,58.8236 262.499,53.1569 262,47.5C 259.523,41.5497 255.357,40.0497 249.5,43C 248.54,44.4194 247.707,45.9194 247,47.5C 246.501,53.1569 246.334,58.8236 246.5,64.5C 239.833,64.5 233.167,64.5 226.5,64.5C 226.666,58.8236 226.499,53.1569 226,47.5C 223.523,41.5497 219.357,40.0497 213.5,43C 212.54,44.4194 211.707,45.9194 211,47.5C 210.501,53.1569 210.334,58.8236 210.5,64.5C 203.833,64.5 197.167,64.5 190.5,64.5C 190.666,58.8236 190.499,53.1569 190,47.5C 187.523,41.5497 183.357,40.0497 177.5,43C 176.54,44.4194 175.707,45.9194 175,47.5C 174.501,53.1569 174.334,58.8236 174.5,64.5C 167.833,64.5 161.167,64.5 154.5,64.5C 154.666,58.8236 154.499,53.1569 154,47.5C 151.523,41.5497 147.357,40.0497 141.5,43C 140.54,44.4194 139.707,45.9194 139,47.5C 138.501,53.1569 138.334,58.8236 138.5,64.5C 131.833,64.5 125.167,64.5 118.5,64.5C 118.713,57.7895 118.38,51.1228 117.5,44.5C 175.994,10.4207 238.327,1.25406 304.5,17C 325.663,22.5484 345.663,30.715 364.5,41.5 Z"/></g>
<g><path style="opacity:0.962" fill="#c4d6ed" d="M 82.5,64.5 C 82.6664,73.5062 82.4998,82.5062 82,91.5C 79.0553,97.7483 74.5553,99.0817 68.5,95.5C 68.2914,94.0783 67.7914,92.745 67,91.5C 66.5002,82.5062 66.3336,73.5062 66.5,64.5C 66.3338,58.4908 66.5005,52.4908 67,46.5C 69.8787,41.0402 74.0453,39.7068 79.5,42.5C 80.5836,43.6651 81.4169,44.9984 82,46.5C 82.4995,52.4908 82.6662,58.4908 82.5,64.5 Z"/></g>
<g><path style="opacity:0.982" fill="#c5d8ee" d="M 117.5,44.5 C 118.38,51.1228 118.713,57.7895 118.5,64.5C 118.666,73.5062 118.5,82.5062 118,91.5C 115.234,97.6892 110.9,99.0225 105,95.5C 104.209,94.255 103.709,92.9217 103.5,91.5C 103.829,78.9887 103.495,66.6554 102.5,54.5C 101.082,47.3219 103.748,42.6552 110.5,40.5C 113.349,41.0997 115.682,42.4331 117.5,44.5 Z"/></g>
<g><path style="opacity:0.966" fill="#c4d9f0" d="M 406.5,64.5 C 406.666,73.5062 406.5,82.5062 406,91.5C 403.234,97.6892 398.9,99.0225 393,95.5C 392.209,94.255 391.709,92.9217 391.5,91.5C 391.79,80.1159 391.457,68.7825 390.5,57.5C 390.032,52.6303 390.698,47.9636 392.5,43.5C 398.074,39.4097 402.574,40.4097 406,46.5C 406.499,52.4908 406.666,58.4908 406.5,64.5 Z"/></g>
<g><path style="opacity:0.962" fill="#c5d7ed" d="M 442.5,64.5 C 442.666,73.5062 442.5,82.5062 442,91.5C 439.523,97.4503 435.357,98.9503 429.5,96C 428.54,94.5806 427.707,93.0806 427,91.5C 426.5,82.5062 426.334,73.5062 426.5,64.5C 426.334,58.4908 426.501,52.4908 427,46.5C 429.879,41.0402 434.045,39.7068 439.5,42.5C 440.584,43.6651 441.417,44.9984 442,46.5C 442.499,52.4908 442.666,58.4908 442.5,64.5 Z"/></g>
<g><path style="opacity:1" fill="#c7d4e9" d="M 154.5,64.5 C 154.666,73.5062 154.5,82.5062 154,91.5C 151.523,97.4503 147.357,98.9503 141.5,96C 140.54,94.5806 139.707,93.0806 139,91.5C 138.5,82.5062 138.334,73.5062 138.5,64.5C 138.334,58.8236 138.501,53.1569 139,47.5C 139.707,45.9194 140.54,44.4194 141.5,43C 147.357,40.0497 151.523,41.5497 154,47.5C 154.499,53.1569 154.666,58.8236 154.5,64.5 Z"/></g>
<g><path style="opacity:1" fill="#c7d4e9" d="M 190.5,64.5 C 190.666,73.5062 190.5,82.5062 190,91.5C 187.523,97.4503 183.357,98.9503 177.5,96C 176.54,94.5806 175.707,93.0806 175,91.5C 174.5,82.5062 174.334,73.5062 174.5,64.5C 174.334,58.8236 174.501,53.1569 175,47.5C 175.707,45.9194 176.54,44.4194 177.5,43C 183.357,40.0497 187.523,41.5497 190,47.5C 190.499,53.1569 190.666,58.8236 190.5,64.5 Z"/></g>
<g><path style="opacity:1" fill="#c7d4e9" d="M 226.5,64.5 C 226.666,73.5062 226.5,82.5062 226,91.5C 223.523,97.4503 219.357,98.9503 213.5,96C 212.54,94.5806 211.707,93.0806 211,91.5C 210.5,82.5062 210.334,73.5062 210.5,64.5C 210.334,58.8236 210.501,53.1569 211,47.5C 211.707,45.9194 212.54,44.4194 213.5,43C 219.357,40.0497 223.523,41.5497 226,47.5C 226.499,53.1569 226.666,58.8236 226.5,64.5 Z"/></g>
<g><path style="opacity:1" fill="#c7d4e9" d="M 262.5,64.5 C 262.666,73.5062 262.5,82.5062 262,91.5C 259.523,97.4503 255.357,98.9503 249.5,96C 248.54,94.5806 247.707,93.0806 247,91.5C 246.5,82.5062 246.334,73.5062 246.5,64.5C 246.334,58.8236 246.501,53.1569 247,47.5C 247.707,45.9194 248.54,44.4194 249.5,43C 255.357,40.0497 259.523,41.5497 262,47.5C 262.499,53.1569 262.666,58.8236 262.5,64.5 Z"/></g>
<g><path style="opacity:1" fill="#c7d4e9" d="M 298.5,64.5 C 298.666,73.5062 298.5,82.5062 298,91.5C 295.523,97.4503 291.357,98.9503 285.5,96C 284.54,94.5806 283.707,93.0806 283,91.5C 282.5,82.5062 282.334,73.5062 282.5,64.5C 282.334,58.8236 282.501,53.1569 283,47.5C 283.707,45.9194 284.54,44.4194 285.5,43C 291.357,40.0497 295.523,41.5497 298,47.5C 298.499,53.1569 298.666,58.8236 298.5,64.5 Z"/></g>
<g><path style="opacity:1" fill="#c7d4e9" d="M 334.5,64.5 C 334.666,73.5062 334.5,82.5062 334,91.5C 331.523,97.4503 327.357,98.9503 321.5,96C 320.54,94.5806 319.707,93.0806 319,91.5C 318.5,82.5062 318.334,73.5062 318.5,64.5C 318.334,58.8236 318.501,53.1569 319,47.5C 319.707,45.9194 320.54,44.4194 321.5,43C 327.357,40.0497 331.523,41.5497 334,47.5C 334.499,53.1569 334.666,58.8236 334.5,64.5 Z"/></g>
<g><path style="opacity:1" fill="#c7d5ea" d="M 364.5,41.5 C 366.153,41.6596 367.486,42.3263 368.5,43.5C 370.335,50.3232 371.002,57.3232 370.5,64.5C 370.666,73.5062 370.5,82.5062 370,91.5C 367.523,97.4503 363.357,98.9503 357.5,96C 356.54,94.5806 355.707,93.0806 355,91.5C 354.5,82.5062 354.334,73.5062 354.5,64.5C 354.334,58.8236 354.501,53.1569 355,47.5C 356.448,42.8558 359.615,40.8558 364.5,41.5 Z"/></g>
<g><path style="opacity:0.938" fill="#fb9d66" d="M 368.5,43.5 C 375.862,48.1774 383.195,52.844 390.5,57.5C 391.457,68.7825 391.79,80.1159 391.5,91.5C 390.507,82.6822 390.173,73.6822 390.5,64.5C 383.833,64.5 377.167,64.5 370.5,64.5C 371.002,57.3232 370.335,50.3232 368.5,43.5 Z"/></g>
<g><path style="opacity:0.858" fill="#f69b6f" d="M 102.5,54.5 C 103.495,66.6554 103.829,78.9887 103.5,91.5C 102.507,82.6822 102.173,73.6822 102.5,64.5C 98.1667,64.5 93.8333,64.5 89.5,64.5C 93.2577,60.4078 97.591,57.0745 102.5,54.5 Z"/></g>
<g><path style="opacity:0.997" fill="#ea2a3d" d="M 82.5,64.5 C 84.8333,64.5 87.1667,64.5 89.5,64.5C 93.8333,64.5 98.1667,64.5 102.5,64.5C 102.173,73.6822 102.507,82.6822 103.5,91.5C 103.709,92.9217 104.209,94.255 105,95.5C 110.9,99.0225 115.234,97.6892 118,91.5C 118.5,82.5062 118.666,73.5062 118.5,64.5C 125.167,64.5 131.833,64.5 138.5,64.5C 138.334,73.5062 138.5,82.5062 139,91.5C 139.707,93.0806 140.54,94.5806 141.5,96C 147.357,98.9503 151.523,97.4503 154,91.5C 154.5,82.5062 154.666,73.5062 154.5,64.5C 161.167,64.5 167.833,64.5 174.5,64.5C 174.334,73.5062 174.5,82.5062 175,91.5C 175.707,93.0806 176.54,94.5806 177.5,96C 183.357,98.9503 187.523,97.4503 190,91.5C 190.5,82.5062 190.666,73.5062 190.5,64.5C 197.167,64.5 203.833,64.5 210.5,64.5C 210.334,73.5062 210.5,82.5062 211,91.5C 211.707,93.0806 212.54,94.5806 213.5,96C 219.357,98.9503 223.523,97.4503 226,91.5C 226.5,82.5062 226.666,73.5062 226.5,64.5C 233.167,64.5 239.833,64.5 246.5,64.5C 246.334,73.5062 246.5,82.5062 247,91.5C 247.707,93.0806 248.54,94.5806 249.5,96C 255.357,98.9503 259.523,97.4503 262,91.5C 262.5,82.5062 262.666,73.5062 262.5,64.5C 269.167,64.5 275.833,64.5 282.5,64.5C 282.334,73.5062 282.5,82.5062 283,91.5C 283.707,93.0806 284.54,94.5806 285.5,96C 291.357,98.9503 295.523,97.4503 298,91.5C 298.5,82.5062 298.666,73.5062 298.5,64.5C 305.167,64.5 311.833,64.5 318.5,64.5C 318.334,73.5062 318.5,82.5062 319,91.5C 319.707,93.0806 320.54,94.5806 321.5,96C 327.357,98.9503 331.523,97.4503 334,91.5C 334.5,82.5062 334.666,73.5062 334.5,64.5C 341.167,64.5 347.833,64.5 354.5,64.5C 354.334,73.5062 354.5,82.5062 355,91.5C 355.707,93.0806 356.54,94.5806 357.5,96C 363.357,98.9503 367.523,97.4503 370,91.5C 370.5,82.5062 370.666,73.5062 370.5,64.5C 377.167,64.5 383.833,64.5 390.5,64.5C 390.173,73.6822 390.507,82.6822 391.5,91.5C 391.709,92.9217 392.209,94.255 393,95.5C 398.9,99.0225 403.234,97.6892 406,91.5C 406.5,82.5062 406.666,73.5062 406.5,64.5C 413.167,64.5 419.833,64.5 426.5,64.5C 426.334,73.5062 426.5,82.5062 427,91.5C 427.707,93.0806 428.54,94.5806 429.5,96C 435.357,98.9503 439.523,97.4503 442,91.5C 442.5,82.5062 442.666,73.5062 442.5,64.5C 450.585,64.0989 458.585,64.5989 466.5,66C 468.378,67.5429 469.878,69.3762 471,71.5C 471.5,89.8303 471.667,108.164 471.5,126.5C 337.167,126.5 202.833,126.5 68.5,126.5C 68.5,116.167 68.5,105.833 68.5,95.5C 74.5553,99.0817 79.0553,97.7483 82,91.5C 82.4998,82.5062 82.6664,73.5062 82.5,64.5 Z"/></g>
<g><path style="opacity:1" fill="#c12c3b" d="M 66.5,64.5 C 66.3336,73.5062 66.5002,82.5062 67,91.5C 67.7914,92.745 68.2914,94.0783 68.5,95.5C 68.5,105.833 68.5,116.167 68.5,126.5C 202.833,126.5 337.167,126.5 471.5,126.5C 471.5,126.833 471.5,127.167 471.5,127.5C 337.167,127.5 202.833,127.5 68.5,127.5C 58.1667,127.5 47.8333,127.5 37.5,127.5C 37.5,125.833 37.5,124.167 37.5,122.5C 37.3334,105.497 37.5001,88.4967 38,71.5C 39.587,68.2441 42.087,66.0774 45.5,65C 52.4921,64.5004 59.4921,64.3337 66.5,64.5 Z"/></g>
<g><path style="opacity:0.98" fill="#fe9f5f" d="M 37.5,122.5 C 37.5,124.167 37.5,125.833 37.5,127.5C 37.5,214.167 37.5,300.833 37.5,387.5C 23.886,367.262 13.7194,345.262 7,321.5C 4.02743,309.794 1.52743,298.128 -0.5,286.5C -0.5,265.5 -0.5,244.5 -0.5,223.5C 3.71493,193.685 12.8816,165.352 27,138.5C 30.2751,132.93 33.7751,127.597 37.5,122.5 Z"/></g>
<g><path style="opacity:1" fill="#d9e9fb" d="M 37.5,127.5 C 47.8333,127.5 58.1667,127.5 68.5,127.5C 68.1736,136.349 68.507,145.016 69.5,153.5C 69.2172,154.289 68.7172,154.956 68,155.5C 67.1977,171.211 67.3643,186.878 68.5,202.5C 68.5,208.5 68.5,214.5 68.5,220.5C 67.3643,236.122 67.1977,251.789 68,267.5C 68.7172,268.044 69.2172,268.711 69.5,269.5C 68.5104,275.31 68.1771,281.31 68.5,287.5C 67.1802,303.47 67.1802,319.47 68.5,335.5C 68.1771,341.69 68.5104,347.69 69.5,353.5C 69.2172,354.289 68.7172,354.956 68,355.5C 67.1977,371.211 67.3643,386.878 68.5,402.5C 68.8254,410.352 68.492,418.018 67.5,425.5C 55.6019,414.276 45.6019,401.609 37.5,387.5C 37.5,300.833 37.5,214.167 37.5,127.5 Z"/></g>
<g><path style="opacity:1" fill="#edf5fe" d="M 68.5,127.5 C 202.833,127.5 337.167,127.5 471.5,127.5C 471.5,139.833 471.5,152.167 471.5,164.5C 471.5,204.167 471.5,243.833 471.5,283.5C 462.14,275.803 451.807,269.803 440.5,265.5C 441.661,251.339 441.827,237.006 441,222.5C 440.626,221.584 440.126,220.75 439.5,220C 413.921,218.352 388.254,218.019 362.5,219C 361.667,219.833 360.833,220.667 360,221.5C 359.172,237.006 359.339,252.339 360.5,267.5C 350.524,272.489 341.19,278.489 332.5,285.5C 310.164,285.333 287.831,285.5 265.5,286C 264.692,286.308 264.025,286.808 263.5,287.5C 262.167,303.5 262.167,319.5 263.5,335.5C 264.025,336.192 264.692,336.692 265.5,337C 277.162,337.5 288.829,337.667 300.5,337.5C 298.989,342.551 297.655,347.551 296.5,352.5C 285.828,352.333 275.161,352.5 264.5,353C 264,353.5 263.5,354 263,354.5C 262.333,370.167 262.333,385.833 263,401.5C 263.833,402.333 264.667,403.167 265.5,404C 278.162,404.5 290.829,404.667 303.5,404.5C 308.195,415.552 314.195,425.886 321.5,435.5C 240.167,435.5 158.833,435.5 77.5,435.5C 73.8333,432.5 70.5,429.167 67.5,425.5C 68.492,418.018 68.8254,410.352 68.5,402.5C 69.2891,402.783 69.9558,403.283 70.5,404C 95.5,404.667 120.5,404.667 145.5,404C 147.333,403.5 148.5,402.333 149,400.5C 149.667,385.5 149.667,370.5 149,355.5C 148.167,354.667 147.333,353.833 146.5,353C 120.761,352.177 95.0944,352.343 69.5,353.5C 68.5104,347.69 68.1771,341.69 68.5,335.5C 69.2891,335.783 69.9558,336.283 70.5,337C 95.8333,337.667 121.167,337.667 146.5,337C 147.701,336.097 148.535,334.931 149,333.5C 149.667,318.5 149.667,303.5 149,288.5C 146.887,286.267 144.387,284.933 141.5,284.5C 144.917,280.689 145.251,276.689 142.5,272.5C 145.028,271.492 147.195,269.826 149,267.5C 149.667,252.167 149.667,236.833 149,221.5C 148.5,221 148,220.5 147.5,220C 134.424,218.851 121.258,218.351 108,218.5C 95.5,218.667 83,218.833 70.5,219C 69.9558,219.717 69.2891,220.217 68.5,220.5C 68.5,214.5 68.5,208.5 68.5,202.5C 69.2891,202.783 69.9558,203.283 70.5,204C 83,204.167 95.5,204.333 108,204.5C 121.258,204.649 134.424,204.149 147.5,203C 148.126,202.25 148.626,201.416 149,200.5C 149.667,185.5 149.667,170.5 149,155.5C 147.195,152.961 144.695,151.961 141.5,152.5C 146.432,145.724 145.099,140.724 137.5,137.5C 135.39,138.054 133.39,138.888 131.5,140C 128.371,143.773 125.371,147.606 122.5,151.5C 105.497,151.333 88.4967,151.5 71.5,152C 70.9558,152.717 70.2891,153.217 69.5,153.5C 68.507,145.016 68.1736,136.349 68.5,127.5 Z"/></g>
<g><path style="opacity:1" fill="#09b08f" d="M 141.5,152.5 C 130.864,165.312 120.364,178.312 110,191.5C 106,195.5 102,195.5 98,191.5C 92.6667,184.833 87.3333,178.167 82,171.5C 78.7936,165.118 80.4603,160.785 87,158.5C 88.9836,158.741 90.8169,159.408 92.5,160.5C 96.1444,165.312 99.9777,169.979 104,174.5C 110.38,166.959 116.547,159.292 122.5,151.5C 125.371,147.606 128.371,143.773 131.5,140C 133.39,138.888 135.39,138.054 137.5,137.5C 145.099,140.724 146.432,145.724 141.5,152.5 Z"/></g>
<g><path style="opacity:1" fill="#92e0e8" d="M 122.5,151.5 C 116.547,159.292 110.38,166.959 104,174.5C 99.9777,169.979 96.1444,165.312 92.5,160.5C 90.8169,159.408 88.9836,158.741 87,158.5C 80.4603,160.785 78.7936,165.118 82,171.5C 87.3333,178.167 92.6667,184.833 98,191.5C 102,195.5 106,195.5 110,191.5C 120.364,178.312 130.864,165.312 141.5,152.5C 144.695,151.961 147.195,152.961 149,155.5C 149.667,170.5 149.667,185.5 149,200.5C 148.626,201.416 148.126,202.25 147.5,203C 134.424,204.149 121.258,204.649 108,204.5C 95.5,204.333 83,204.167 70.5,204C 69.9558,203.283 69.2891,202.783 68.5,202.5C 67.3643,186.878 67.1977,171.211 68,155.5C 68.7172,154.956 69.2172,154.289 69.5,153.5C 70.2891,153.217 70.9558,152.717 71.5,152C 88.4967,151.5 105.497,151.333 122.5,151.5 Z"/></g>
<g><path style="opacity:1" fill="#91e0e8" d="M 238.5,205.5 C 236.167,204.167 233.833,204.167 231.5,205.5C 210.671,204.668 189.671,204.168 168.5,204C 167.667,203.167 166.833,202.333 166,201.5C 165.333,185.833 165.333,170.167 166,154.5C 166.5,154 167,153.5 167.5,153C 193.167,152.333 218.833,152.333 244.5,153C 245,153.5 245.5,154 246,154.5C 246.667,170.167 246.667,185.833 246,201.5C 243.887,203.733 241.387,205.067 238.5,205.5 Z"/></g>
<g><path style="opacity:1" fill="#91e0e8" d="M 264.5,152.5 C 290.169,152.333 315.835,152.5 341.5,153C 342,153.5 342.5,154 343,154.5C 343.667,170.167 343.667,185.833 343,201.5C 342.167,202.333 341.333,203.167 340.5,204C 315.5,204.667 290.5,204.667 265.5,204C 264.667,203.167 263.833,202.333 263,201.5C 262.333,185.833 262.333,170.167 263,154.5C 263.717,153.956 264.217,153.289 264.5,152.5 Z"/></g>
<g><path style="opacity:1" fill="#fec988" d="M 362.5,152.5 C 387.836,152.333 413.169,152.5 438.5,153C 439.333,153.833 440.167,154.667 441,155.5C 441.968,171.259 441.635,186.926 440,202.5C 439.25,203.126 438.416,203.626 437.5,204C 412.5,204.667 387.5,204.667 362.5,204C 361.299,203.097 360.465,201.931 360,200.5C 359.333,185.5 359.333,170.5 360,155.5C 361.045,154.627 361.878,153.627 362.5,152.5 Z"/></g>
<g><path style="opacity:0.96" fill="#fe9e60" d="M 471.5,164.5 C 488.291,207.071 492.958,251.071 485.5,296.5C 480.833,292.167 476.167,287.833 471.5,283.5C 471.5,243.833 471.5,204.167 471.5,164.5 Z"/></g>
<g><path style="opacity:1" fill="#09b090" d="M 238.5,205.5 C 242.896,208.82 243.563,212.82 240.5,217.5C 229.21,231.872 217.544,246.039 205.5,260C 203.167,260.667 200.833,260.667 198.5,260C 191.642,252.443 185.142,244.61 179,236.5C 177.409,226.872 181.242,223.705 190.5,227C 194.333,231.5 198.167,236 202,240.5C 208.082,233.318 213.916,225.985 219.5,218.5C 223.5,214.167 227.5,209.833 231.5,205.5C 233.833,204.167 236.167,204.167 238.5,205.5 Z"/></g>
<g><path style="opacity:1" fill="#93e0e8" d="M 142.5,272.5 C 138.763,269.923 135.097,269.923 131.5,272.5C 111.671,271.668 91.6709,271.168 71.5,271C 70.9558,270.283 70.2891,269.783 69.5,269.5C 69.2172,268.711 68.7172,268.044 68,267.5C 67.1977,251.789 67.3643,236.122 68.5,220.5C 69.2891,220.217 69.9558,219.717 70.5,219C 83,218.833 95.5,218.667 108,218.5C 121.258,218.351 134.424,218.851 147.5,220C 148,220.5 148.5,221 149,221.5C 149.667,236.833 149.667,252.167 149,267.5C 147.195,269.826 145.028,271.492 142.5,272.5 Z"/></g>
<g><path style="opacity:1" fill="#90dfe7" d="M 240.5,217.5 C 242.667,218.198 244.5,219.531 246,221.5C 246.667,236.833 246.667,252.167 246,267.5C 245.626,268.416 245.126,269.25 244.5,270C 218.833,270.667 193.167,270.667 167.5,270C 167,269.5 166.5,269 166,268.5C 165.333,252.833 165.333,237.167 166,221.5C 166.833,220.667 167.667,219.833 168.5,219C 185.497,218.5 202.497,218.333 219.5,218.5C 213.916,225.985 208.082,233.318 202,240.5C 198.167,236 194.333,231.5 190.5,227C 181.242,223.705 177.409,226.872 179,236.5C 185.142,244.61 191.642,252.443 198.5,260C 200.833,260.667 203.167,260.667 205.5,260C 217.544,246.039 229.21,231.872 240.5,217.5 Z"/></g>
<g><path style="opacity:1" fill="#91e0e8" d="M 265.5,218.5 C 290.502,218.333 315.502,218.5 340.5,219C 341.333,219.833 342.167,220.667 343,221.5C 343.667,237.167 343.667,252.833 343,268.5C 342.5,269 342,269.5 341.5,270C 315.833,270.667 290.167,270.667 264.5,270C 263.874,269.25 263.374,268.416 263,267.5C 262.333,252.167 262.333,236.833 263,221.5C 264.045,220.627 264.878,219.627 265.5,218.5 Z"/></g>
<g><path style="opacity:1" fill="#fdc988" d="M 440.5,265.5 C 413.547,256.892 386.88,257.558 360.5,267.5C 359.339,252.339 359.172,237.006 360,221.5C 360.833,220.667 361.667,219.833 362.5,219C 388.254,218.019 413.921,218.352 439.5,220C 440.126,220.75 440.626,221.584 441,222.5C 441.827,237.006 441.661,251.339 440.5,265.5 Z"/></g>
<g><path style="opacity:0.99" fill="#1b2b63" d="M 440.5,265.5 C 451.807,269.803 462.14,275.803 471.5,283.5C 476.167,287.833 480.833,292.167 485.5,296.5C 512.438,330.819 517.938,368.485 502,409.5C 477.878,456.57 439.378,477.403 386.5,472C 380.037,470.967 373.704,469.467 367.5,467.5C 349.795,460.308 334.462,449.642 321.5,435.5C 314.195,425.886 308.195,415.552 303.5,404.5C 297.636,387.689 295.302,370.355 296.5,352.5C 297.655,347.551 298.989,342.551 300.5,337.5C 306.585,317.326 317.252,299.993 332.5,285.5C 341.19,278.489 350.524,272.489 360.5,267.5C 386.88,257.558 413.547,256.892 440.5,265.5 Z"/></g>
<g><path style="opacity:1" fill="#ecf5fe" d="M 69.5,269.5 C 70.2891,269.783 70.9558,270.283 71.5,271C 91.6709,271.168 111.671,271.668 131.5,272.5C 128.179,277.152 124.513,281.485 120.5,285.5C 103.83,285.333 87.1633,285.5 70.5,286C 69.9558,286.717 69.2891,287.217 68.5,287.5C 68.1771,281.31 68.5104,275.31 69.5,269.5 Z"/></g>
<g><path style="opacity:1" fill="#09b090" d="M 142.5,272.5 C 145.251,276.689 144.917,280.689 141.5,284.5C 130.305,298.355 118.972,312.188 107.5,326C 105.167,326.667 102.833,326.667 100.5,326C 93.6197,318.121 87.1197,309.955 81,301.5C 79.8397,292.989 83.3397,289.822 91.5,292C 95.6667,296.833 99.8333,301.667 104,306.5C 109.714,299.625 115.214,292.625 120.5,285.5C 124.513,281.485 128.179,277.152 131.5,272.5C 135.097,269.923 138.763,269.923 142.5,272.5 Z"/></g>
<g><path style="opacity:1" fill="#91e0e7" d="M 141.5,284.5 C 144.387,284.933 146.887,286.267 149,288.5C 149.667,303.5 149.667,318.5 149,333.5C 148.535,334.931 147.701,336.097 146.5,337C 121.167,337.667 95.8333,337.667 70.5,337C 69.9558,336.283 69.2891,335.783 68.5,335.5C 67.1802,319.47 67.1802,303.47 68.5,287.5C 69.2891,287.217 69.9558,286.717 70.5,286C 87.1633,285.5 103.83,285.333 120.5,285.5C 115.214,292.625 109.714,299.625 104,306.5C 99.8333,301.667 95.6667,296.833 91.5,292C 83.3397,289.822 79.8397,292.989 81,301.5C 87.1197,309.955 93.6197,318.121 100.5,326C 102.833,326.667 105.167,326.667 107.5,326C 118.972,312.188 130.305,298.355 141.5,284.5 Z"/></g>
<g><path style="opacity:1" fill="#91e0e8" d="M 167.5,285.5 C 193.211,285.176 218.878,285.509 244.5,286.5C 245.192,287.025 245.692,287.692 246,288.5C 246.817,304.211 246.651,319.878 245.5,335.5C 244.975,336.192 244.308,336.692 243.5,337C 218.167,337.667 192.833,337.667 167.5,337C 167,336.5 166.5,336 166,335.5C 165.333,319.5 165.333,303.5 166,287.5C 166.717,286.956 167.217,286.289 167.5,285.5 Z"/></g>
<g><path style="opacity:1" fill="#90dfe7" d="M 332.5,285.5 C 317.252,299.993 306.585,317.326 300.5,337.5C 288.829,337.667 277.162,337.5 265.5,337C 264.692,336.692 264.025,336.192 263.5,335.5C 262.167,319.5 262.167,303.5 263.5,287.5C 264.025,286.808 264.692,286.308 265.5,286C 287.831,285.5 310.164,285.333 332.5,285.5 Z"/></g>
<g><path style="opacity:1" fill="#eaf2fb" d="M 411.5,287.5 C 408.615,287.194 405.948,287.527 403.5,288.5C 386.117,292.187 371.451,300.521 359.5,313.5C 352.191,313.807 349.525,317.474 351.5,324.5C 344.925,334.888 340.925,346.222 339.5,358.5C 332.784,359.951 330.784,363.951 333.5,370.5C 335.071,372.415 337.071,373.415 339.5,373.5C 340.927,385.782 344.927,397.116 351.5,407.5C 349.525,414.526 352.191,418.193 359.5,418.5C 373.007,433.754 390.007,442.421 410.5,444.5C 376.159,446.41 350.325,432.41 333,402.5C 316.955,365.394 323.455,332.894 352.5,305C 369.875,290.926 389.541,285.092 411.5,287.5 Z"/></g>
<g><path style="opacity:1" fill="#fedc8d" d="M 411.5,287.5 C 450.39,293.555 473.89,315.889 482,354.5C 482.499,358.152 482.665,361.818 482.5,365.5C 473.167,365.5 463.833,365.5 454.5,365.5C 454.16,362.325 452.493,360.159 449.5,359C 439.506,358.5 429.506,358.334 419.5,358.5C 417.572,355.402 415.072,352.735 412,350.5C 411.831,336.327 411.331,322.327 410.5,308.5C 409.388,305.054 407.055,303.054 403.5,302.5C 403.5,297.833 403.5,293.167 403.5,288.5C 405.948,287.527 408.615,287.194 411.5,287.5 Z"/></g>
<g><path style="opacity:1" fill="#fefefe" d="M 403.5,288.5 C 403.5,293.167 403.5,297.833 403.5,302.5C 399.808,302.938 397.308,304.938 396,308.5C 395.5,322.496 395.333,336.496 395.5,350.5C 385.104,358.433 383.77,367.766 391.5,378.5C 402.515,386.29 411.849,384.623 419.5,373.5C 429.172,373.666 438.839,373.5 448.5,373C 452.518,372.137 454.518,369.637 454.5,365.5C 463.833,365.5 473.167,365.5 482.5,365.5C 480.364,403.62 461.364,429.12 425.5,442C 420.511,442.974 415.511,443.808 410.5,444.5C 390.007,442.421 373.007,433.754 359.5,418.5C 367.136,415.724 370.969,410.391 371,402.5C 368.398,398.788 364.898,397.622 360.5,399C 356.973,401.362 353.973,404.196 351.5,407.5C 344.927,397.116 340.927,385.782 339.5,373.5C 343.182,373.665 346.848,373.499 350.5,373C 355.833,368.333 355.833,363.667 350.5,359C 346.848,358.501 343.182,358.335 339.5,358.5C 340.925,346.222 344.925,334.888 351.5,324.5C 355.08,330.789 360.413,333.622 367.5,333C 370.792,330.588 371.959,327.421 371,323.5C 368.212,318.873 364.378,315.539 359.5,313.5C 371.451,300.521 386.117,292.187 403.5,288.5 Z"/></g>
<g><path style="opacity:1" fill="#1f9693" d="M 403.5,302.5 C 407.055,303.054 409.388,305.054 410.5,308.5C 410.5,322.167 410.5,335.833 410.5,349.5C 405.343,347.938 400.343,348.271 395.5,350.5C 395.333,336.496 395.5,322.496 396,308.5C 397.308,304.938 399.808,302.938 403.5,302.5 Z"/></g>
<g><path style="opacity:1" fill="#66d986" d="M 359.5,313.5 C 364.378,315.539 368.212,318.873 371,323.5C 371.959,327.421 370.792,330.588 367.5,333C 360.413,333.622 355.08,330.789 351.5,324.5C 349.525,317.474 352.191,313.807 359.5,313.5 Z"/></g>
<g><path style="opacity:1" fill="#34b382" d="M 410.5,308.5 C 411.331,322.327 411.831,336.327 412,350.5C 415.072,352.735 417.572,355.402 419.5,358.5C 420.769,363.486 420.769,368.486 419.5,373.5C 411.849,384.623 402.515,386.29 391.5,378.5C 383.77,367.766 385.104,358.433 395.5,350.5C 400.343,348.271 405.343,347.938 410.5,349.5C 410.5,335.833 410.5,322.167 410.5,308.5 Z"/></g>
<g><path style="opacity:1" fill="#92e0e8" d="M 68.5,402.5 C 67.3643,386.878 67.1977,371.211 68,355.5C 68.7172,354.956 69.2172,354.289 69.5,353.5C 95.0944,352.343 120.761,352.177 146.5,353C 147.333,353.833 148.167,354.667 149,355.5C 149.667,370.5 149.667,385.5 149,400.5C 148.5,402.333 147.333,403.5 145.5,404C 120.5,404.667 95.5,404.667 70.5,404C 69.9558,403.283 69.2891,402.783 68.5,402.5 Z"/></g>
<g><path style="opacity:1" fill="#91e0e8" d="M 167.5,352.5 C 193.169,352.333 218.835,352.5 244.5,353C 245,353.5 245.5,354 246,354.5C 246.667,370.167 246.667,385.833 246,401.5C 245.167,402.333 244.333,403.167 243.5,404C 218.5,404.667 193.5,404.667 168.5,404C 167.667,403.167 166.833,402.333 166,401.5C 165.333,385.833 165.333,370.167 166,354.5C 166.717,353.956 167.217,353.289 167.5,352.5 Z"/></g>
<g><path style="opacity:1" fill="#91dfe7" d="M 296.5,352.5 C 295.302,370.355 297.636,387.689 303.5,404.5C 290.829,404.667 278.162,404.5 265.5,404C 264.667,403.167 263.833,402.333 263,401.5C 262.333,385.833 262.333,370.167 263,354.5C 263.5,354 264,353.5 264.5,353C 275.161,352.5 285.828,352.333 296.5,352.5 Z"/></g>
<g><path style="opacity:1" fill="#63d884" d="M 339.5,358.5 C 343.182,358.335 346.848,358.501 350.5,359C 355.833,363.667 355.833,368.333 350.5,373C 346.848,373.499 343.182,373.665 339.5,373.5C 337.071,373.415 335.071,372.415 333.5,370.5C 330.784,363.951 332.784,359.951 339.5,358.5 Z"/></g>
<g><path style="opacity:1" fill="#159490" d="M 419.5,358.5 C 429.506,358.334 439.506,358.5 449.5,359C 452.493,360.159 454.16,362.325 454.5,365.5C 454.518,369.637 452.518,372.137 448.5,373C 438.839,373.5 429.172,373.666 419.5,373.5C 420.769,368.486 420.769,363.486 419.5,358.5 Z"/></g>
<g><path style="opacity:1" fill="#67d987" d="M 359.5,418.5 C 352.191,418.193 349.525,414.526 351.5,407.5C 353.973,404.196 356.973,401.362 360.5,399C 364.898,397.622 368.398,398.788 371,402.5C 370.969,410.391 367.136,415.724 359.5,418.5 Z"/></g>
<g><path style="opacity:1" fill="#66d986" d="M 439.5,398.5 C 447.875,398.526 453.541,402.526 456.5,410.5C 455.572,416.967 451.905,419.467 445.5,418C 440.442,415.119 437.109,410.953 435.5,405.5C 435.974,402.689 437.307,400.355 439.5,398.5 Z"/></g>
<g><path style="opacity:1" fill="#66d986" d="M 400.5,414.5 C 404.594,413.705 407.761,415.038 410,418.5C 410.667,423.5 410.667,428.5 410,433.5C 404.442,439.241 399.775,438.574 396,431.5C 395.333,427.833 395.333,424.167 396,420.5C 396.979,418.032 398.479,416.032 400.5,414.5 Z"/></g>
<g><path style="opacity:0.986" fill="#fe9e60" d="M 77.5,435.5 C 158.833,435.5 240.167,435.5 321.5,435.5C 334.462,449.642 349.795,460.308 367.5,467.5C 295.19,506.712 220.856,510.878 144.5,480C 119.545,468.835 97.2113,454.002 77.5,435.5 Z"/></g>
</svg>
