<?xml version="1.0" encoding="UTF-8"?>
<!DOCTYPE svg PUBLIC "-//W3C//DTD SVG 1.1//EN" "http://www.w3.org/Graphics/SVG/1.1/DTD/svg11.dtd">
<svg xmlns="http://www.w3.org/2000/svg" version="1.1" width="512px" height="512px" style="shape-rendering:geometricPrecision; text-rendering:geometricPrecision; image-rendering:optimizeQuality; fill-rule:evenodd; clip-rule:evenodd" xmlns:xlink="http://www.w3.org/1999/xlink">
<g><path style="opacity:0.987" fill="#303754" d="M 110.5,20.5 C 127.781,18.652 140.115,25.4853 147.5,41C 198.167,41.6667 248.833,41.6667 299.5,41C 306.868,25.3249 319.202,18.6582 336.5,21C 347.932,23.2638 355.932,29.7638 360.5,40.5C 371.819,41.3325 383.152,41.8325 394.5,42C 411.433,44.9324 421.933,54.7658 426,71.5C 426.167,142.836 426.667,214.169 427.5,285.5C 472.68,308.573 493.513,345.573 490,396.5C 482.996,441.171 458.163,471.004 415.5,486C 370.516,497.716 332.349,486.55 301,452.5C 294.831,444.838 289.665,436.504 285.5,427.5C 206.835,426.667 128.169,426.167 49.5,426C 34,422.5 24.5,413 21,397.5C 20.3333,288.833 20.3333,180.167 21,71.5C 25.0725,54.7597 35.5725,44.9263 52.5,42C 63.848,41.8325 75.1813,41.3325 86.5,40.5C 91.2368,29.7509 99.2368,23.0842 110.5,20.5 Z"/></g>
<g><path style="opacity:0.999" fill="#fdfdfd" d="M 112.5,42.5 C 119.445,40.7747 124.278,43.108 127,49.5C 127.667,58.8333 127.667,68.1667 127,77.5C 124.27,84.053 119.437,86.2196 112.5,84C 110,82.8333 108.167,81 107,78.5C 106.333,68.5 106.333,58.5 107,48.5C 108.36,45.9774 110.193,43.9774 112.5,42.5 Z"/></g>
<g><path style="opacity:0.999" fill="#fdfdfd" d="M 325.5,42.5 C 331.898,41.0526 336.731,43.0526 340,48.5C 340.667,58.5 340.667,68.5 340,78.5C 336.723,84.1088 331.89,85.9422 325.5,84C 322.619,82.7494 320.786,80.5827 320,77.5C 319.333,68.1667 319.333,58.8333 320,49.5C 320.967,46.3794 322.8,44.046 325.5,42.5 Z"/></g>
<g><path style="opacity:1" fill="#2c97f5" d="M 52.5,63.5 C 63.1667,63.5 73.8333,63.5 84.5,63.5C 83.5679,96.0872 98.9012,109.254 130.5,103C 145.221,94.0683 151.221,80.9016 148.5,63.5C 198.5,63.5 248.5,63.5 298.5,63.5C 295.241,83.6649 302.908,97.4983 321.5,105C 350.595,106.737 364.262,92.9041 362.5,63.5C 373.172,63.3335 383.839,63.5002 394.5,64C 397.902,65.3999 400.736,67.5665 403,70.5C 404.475,89.407 404.975,108.407 404.5,127.5C 283.833,127.5 163.167,127.5 42.5,127.5C 42.3334,109.164 42.5001,90.8303 43,72.5C 45.4057,68.5915 48.5724,65.5915 52.5,63.5 Z"/></g>
<g><path style="opacity:1" fill="#fefefe" d="M 404.5,148.5 C 404.832,192.003 404.499,235.337 403.5,278.5C 346.289,272.178 306.123,295.178 283,347.5C 277.511,365.811 276.011,384.478 278.5,403.5C 204.002,404.499 129.335,404.833 54.5,404.5C 49.0785,403.538 45.2452,400.538 43,395.5C 42.5,313.167 42.3333,230.834 42.5,148.5C 163.167,148.5 283.833,148.5 404.5,148.5 Z"/></g>
<g><path style="opacity:0.776" fill="#888d9c" d="M 404.5,148.5 C 405.831,192.002 405.831,235.669 404.5,279.5C 403.893,279.376 403.56,279.043 403.5,278.5C 404.499,235.337 404.832,192.003 404.5,148.5 Z"/></g>
<g><path style="opacity:1" fill="#313855" d="M 91.5,191.5 C 108.17,191.333 124.837,191.5 141.5,192C 144.583,192.786 146.749,194.619 148,197.5C 148.667,214.833 148.667,232.167 148,249.5C 146.749,252.381 144.583,254.214 141.5,255C 124.833,255.667 108.167,255.667 91.5,255C 88.2716,253.437 86.1049,250.937 85,247.5C 84.3333,231.5 84.3333,215.5 85,199.5C 86.3046,196.039 88.4713,193.372 91.5,191.5 Z"/></g>
<g><path style="opacity:1" fill="#303754" d="M 198.5,191.5 C 215.17,191.333 231.837,191.5 248.5,192C 250.624,193.122 252.457,194.622 254,196.5C 255.638,213.742 255.971,231.075 255,248.5C 253.878,250.624 252.378,252.457 250.5,254C 233.258,255.638 215.925,255.971 198.5,255C 196.376,253.878 194.543,252.378 193,250.5C 191.362,233.258 191.029,215.925 192,198.5C 193.694,195.642 195.861,193.309 198.5,191.5 Z"/></g>
<g><path style="opacity:1" fill="#313854" d="M 305.5,191.5 C 321.837,191.333 338.17,191.5 354.5,192C 358.307,193.14 360.807,195.64 362,199.5C 362.667,215.5 362.667,231.5 362,247.5C 361.117,250.102 359.617,252.269 357.5,254C 340.233,255.624 322.9,255.958 305.5,255C 302.417,254.214 300.251,252.381 299,249.5C 298.333,232.167 298.333,214.833 299,197.5C 300.494,194.686 302.66,192.686 305.5,191.5 Z"/></g>
<g><path style="opacity:1" fill="#fcfcfc" d="M 106.5,212.5 C 113.5,212.5 120.5,212.5 127.5,212.5C 127.5,219.833 127.5,227.167 127.5,234.5C 120.5,234.5 113.5,234.5 106.5,234.5C 106.5,227.167 106.5,219.833 106.5,212.5 Z"/></g>
<g><path style="opacity:0.78" fill="#dfe0e4" d="M 212.5,212.5 C 219.833,212.5 227.167,212.5 234.5,212.5C 234.5,219.833 234.5,227.167 234.5,234.5C 227.167,234.5 219.833,234.5 212.5,234.5C 212.5,227.167 212.5,219.833 212.5,212.5 Z"/></g>
<g><path style="opacity:1" fill="#fefffe" d="M 213.5,213.5 C 220.167,213.5 226.833,213.5 233.5,213.5C 233.5,220.167 233.5,226.833 233.5,233.5C 226.833,233.5 220.167,233.5 213.5,233.5C 213.5,226.833 213.5,220.167 213.5,213.5 Z"/></g>
<g><path style="opacity:1" fill="#fcfcfc" d="M 319.5,212.5 C 326.5,212.5 333.5,212.5 340.5,212.5C 340.5,219.833 340.5,227.167 340.5,234.5C 333.5,234.5 326.5,234.5 319.5,234.5C 319.5,227.167 319.5,219.833 319.5,212.5 Z"/></g>
<g><path style="opacity:1" fill="#323855" d="M 91.5,298.5 C 108.503,298.333 125.503,298.5 142.5,299C 144.286,299.785 145.786,300.951 147,302.5C 148.639,320.076 148.972,337.742 148,355.5C 146.878,357.624 145.378,359.457 143.5,361C 126.567,362.624 109.567,362.957 92.5,362C 88.5721,360.407 86.0721,357.573 85,353.5C 84.3333,337.833 84.3333,322.167 85,306.5C 86.2767,303.062 88.4433,300.395 91.5,298.5 Z"/></g>
<g><path style="opacity:1" fill="#313854" d="M 197.5,298.5 C 214.837,298.333 232.17,298.5 249.5,299C 252.381,300.251 254.214,302.417 255,305.5C 255.667,321.833 255.667,338.167 255,354.5C 253.86,358.307 251.36,360.807 247.5,362C 231.5,362.667 215.5,362.667 199.5,362C 196.898,361.117 194.731,359.617 193,357.5C 191.376,340.233 191.042,322.9 192,305.5C 192.967,302.379 194.8,300.046 197.5,298.5 Z"/></g>
<g><path style="opacity:1" fill="#2c97f5" d="M 369.5,298.5 C 414.534,294.753 446.034,313.42 464,354.5C 475.176,391.971 466.342,423.804 437.5,450C 410.418,470.022 381.085,474.022 349.5,462C 309.811,441.457 293.311,408.957 300,364.5C 310.41,328.92 333.577,306.92 369.5,298.5 Z"/></g>
<g><path style="opacity:1" fill="#fefffe" d="M 106.5,319.5 C 113.5,319.5 120.5,319.5 127.5,319.5C 127.5,326.5 127.5,333.5 127.5,340.5C 120.5,340.5 113.5,340.5 106.5,340.5C 106.5,333.5 106.5,326.5 106.5,319.5 Z"/></g>
<g><path style="opacity:1" fill="#fcfcfc" d="M 212.5,319.5 C 219.833,319.5 227.167,319.5 234.5,319.5C 234.5,326.5 234.5,333.5 234.5,340.5C 227.167,340.5 219.833,340.5 212.5,340.5C 212.5,333.5 212.5,326.5 212.5,319.5 Z"/></g>
<g><path style="opacity:0.999" fill="#303856" d="M 379.5,330.5 C 385.07,329.416 389.57,331.083 393,335.5C 394.284,350.099 394.95,364.765 395,379.5C 402.405,386.235 409.072,393.568 415,401.5C 415.833,411.333 411.333,415.833 401.5,415C 391.369,407.203 382.203,398.37 374,388.5C 372.377,371.9 372.044,355.233 373,338.5C 374.277,335.062 376.443,332.395 379.5,330.5 Z"/></g>
<g><path style="opacity:0.776" fill="#888d9c" d="M 278.5,403.5 C 279.043,403.56 279.376,403.893 279.5,404.5C 204.334,405.832 129.334,405.832 54.5,404.5C 129.335,404.833 204.002,404.499 278.5,403.5 Z"/></g>
</svg>
