<?xml version="1.0" encoding="UTF-8"?>
<!DOCTYPE svg PUBLIC "-//W3C//DTD SVG 1.1//EN" "http://www.w3.org/Graphics/SVG/1.1/DTD/svg11.dtd">
<svg xmlns="http://www.w3.org/2000/svg" version="1.1" width="512px" height="512px" style="shape-rendering:geometricPrecision; text-rendering:geometricPrecision; image-rendering:optimizeQuality; fill-rule:evenodd; clip-rule:evenodd" xmlns:xlink="http://www.w3.org/1999/xlink">
<g><path style="opacity:0.994" fill="#000000" d="M 122.5,7.5 C 238.5,7.33333 354.5,7.5 470.5,8C 477.519,10.3513 482.686,14.8513 486,21.5C 487.327,122.11 487.993,222.777 488,323.5C 504.395,353.645 508.062,385.311 499,418.5C 483.55,463.951 452.383,491.784 405.5,502C 351.582,509.384 309.749,490.55 280,445.5C 270.36,428.748 264.86,410.748 263.5,391.5C 183.833,391.667 104.166,391.5 24.5,391C 17.4808,388.649 12.3141,384.149 9,377.5C 7.34177,295.223 7.00843,212.89 8,130.5C 46.372,89.6303 84.5387,48.6303 122.5,7.5 Z"/></g>
<g><path style="opacity:1" fill="#e5e8ec" d="M 133.5,23.5 C 245.248,23.0041 356.915,23.5041 468.5,25C 469.701,25.9025 470.535,27.0692 471,28.5C 471.667,119.5 471.667,210.5 471,301.5C 466.614,296.611 461.78,292.278 456.5,288.5C 455.5,226.837 455.167,165.17 455.5,103.5C 340.833,103.5 226.167,103.5 111.5,103.5C 118.525,76.7297 125.859,50.063 133.5,23.5 Z"/></g>
<g><path style="opacity:1" fill="#000000" d="M 135.5,39.5 C 242.167,39.5 348.833,39.5 455.5,39.5C 455.5,55.5 455.5,71.5 455.5,87.5C 348.833,87.5 242.167,87.5 135.5,87.5C 135.5,71.5 135.5,55.5 135.5,39.5 Z"/></g>
<g><path style="opacity:1" fill="#b1d97c" d="M 109.5,45.5 C 110.097,45.7352 110.43,46.2352 110.5,47C 102,77.1667 93.5,107.333 85,137.5C 77.9977,122.161 66.1644,113.327 49.5,111C 70.0748,89.5963 90.0748,67.7629 109.5,45.5 Z"/></g>
<g><path style="opacity:1" fill="#fe826d" d="M 151.5,55.5 C 247.5,55.5 343.5,55.5 439.5,55.5C 439.5,60.8333 439.5,66.1667 439.5,71.5C 343.5,71.5 247.5,71.5 151.5,71.5C 151.5,66.1667 151.5,60.8333 151.5,55.5 Z"/></g>
<g><path style="opacity:1" fill="#fde8a6" d="M 106.5,119.5 C 110.833,119.5 115.167,119.5 119.5,119.5C 119.5,140.833 119.5,162.167 119.5,183.5C 98.1667,183.5 76.8333,183.5 55.5,183.5C 55.1671,165.488 55.5005,147.488 56.5,129.5C 63.6195,132.785 68.4529,138.118 71,145.5C 71.4997,152.826 71.6663,160.159 71.5,167.5C 78.8635,167.831 86.1968,167.497 93.5,166.5C 98.1523,150.879 102.486,135.213 106.5,119.5 Z"/></g>
<g><path style="opacity:1" fill="#fde8a6" d="M 135.5,119.5 C 156.833,119.5 178.167,119.5 199.5,119.5C 199.5,140.833 199.5,162.167 199.5,183.5C 178.167,183.5 156.833,183.5 135.5,183.5C 135.5,162.167 135.5,140.833 135.5,119.5 Z"/></g>
<g><path style="opacity:1" fill="#feeaa6" d="M 215.5,119.5 C 236.833,119.5 258.167,119.5 279.5,119.5C 279.5,140.833 279.5,162.167 279.5,183.5C 258.167,183.5 236.833,183.5 215.5,183.5C 215.5,162.167 215.5,140.833 215.5,119.5 Z"/></g>
<g><path style="opacity:1" fill="#feeaa6" d="M 295.5,119.5 C 316.833,119.5 338.167,119.5 359.5,119.5C 359.5,140.833 359.5,162.167 359.5,183.5C 338.167,183.5 316.833,183.5 295.5,183.5C 295.5,162.167 295.5,140.833 295.5,119.5 Z"/></g>
<g><path style="opacity:1" fill="#feeaa6" d="M 375.5,119.5 C 396.833,119.5 418.167,119.5 439.5,119.5C 439.5,140.833 439.5,162.167 439.5,183.5C 418.167,183.5 396.833,183.5 375.5,183.5C 375.5,162.167 375.5,140.833 375.5,119.5 Z"/></g>
<g><path style="opacity:1" fill="#e5e8ec" d="M 36.5,129.5 C 37.5,129.5 38.5,129.5 39.5,129.5C 39.5,206.167 39.5,282.833 39.5,359.5C 114.833,359.5 190.167,359.5 265.5,359.5C 265.02,364.822 264.687,370.155 264.5,375.5C 185.833,375.667 107.166,375.5 28.5,375C 27.0692,374.535 25.9025,373.701 25,372.5C 23.3396,296.915 23.0063,221.248 24,145.5C 26.5066,138.832 30.6733,133.498 36.5,129.5 Z"/></g>
<g><path style="opacity:1" fill="#080705" d="M 184.5,130.5 C 188.737,133.228 192.571,136.561 196,140.5C 196.667,141.167 196.667,141.833 196,142.5C 184.167,154.333 172.333,166.167 160.5,178C 159.833,178.667 159.167,178.667 158.5,178C 152,171.5 145.5,165 139,158.5C 141.446,153.867 144.946,149.867 149.5,146.5C 152.651,149.15 155.651,151.984 158.5,155C 159.167,155.667 159.833,155.667 160.5,155C 168.702,146.965 176.702,138.798 184.5,130.5 Z"/></g>
<g><path style="opacity:1" fill="#feeaa6" d="M 55.5,199.5 C 76.8333,199.5 98.1667,199.5 119.5,199.5C 119.5,220.833 119.5,242.167 119.5,263.5C 98.1667,263.5 76.8333,263.5 55.5,263.5C 55.5,242.167 55.5,220.833 55.5,199.5 Z"/></g>
<g><path style="opacity:1" fill="#feeaa6" d="M 135.5,199.5 C 156.833,199.5 178.167,199.5 199.5,199.5C 199.5,220.833 199.5,242.167 199.5,263.5C 178.167,263.5 156.833,263.5 135.5,263.5C 135.5,242.167 135.5,220.833 135.5,199.5 Z"/></g>
<g><path style="opacity:1" fill="#feeaa6" d="M 215.5,199.5 C 236.833,199.5 258.167,199.5 279.5,199.5C 279.5,220.833 279.5,242.167 279.5,263.5C 258.167,263.5 236.833,263.5 215.5,263.5C 215.5,242.167 215.5,220.833 215.5,199.5 Z"/></g>
<g><path style="opacity:1" fill="#feeaa6" d="M 295.5,199.5 C 316.833,199.5 338.167,199.5 359.5,199.5C 359.5,220.833 359.5,242.167 359.5,263.5C 338.167,263.5 316.833,263.5 295.5,263.5C 295.5,242.167 295.5,220.833 295.5,199.5 Z"/></g>
<g><path style="opacity:1" fill="#fce8a5" d="M 375.5,199.5 C 396.833,199.5 418.167,199.5 439.5,199.5C 439.667,225.502 439.5,251.502 439,277.5C 419.124,267.213 397.957,262.546 375.5,263.5C 375.5,242.167 375.5,220.833 375.5,199.5 Z"/></g>
<g><path style="opacity:1" fill="#080705" d="M 424.5,210.5 C 428.737,213.228 432.571,216.561 436,220.5C 436.667,221.167 436.667,221.833 436,222.5C 424.167,234.333 412.333,246.167 400.5,258C 399.833,258.667 399.167,258.667 398.5,258C 392,251.5 385.5,245 379,238.5C 381.446,233.867 384.946,229.867 389.5,226.5C 392.651,229.15 395.651,231.984 398.5,235C 399.167,235.667 399.833,235.667 400.5,235C 408.702,226.965 416.702,218.798 424.5,210.5 Z"/></g>
<g><path style="opacity:1" fill="#feeaa6" d="M 55.5,279.5 C 76.8333,279.5 98.1667,279.5 119.5,279.5C 119.5,300.833 119.5,322.167 119.5,343.5C 98.1667,343.5 76.8333,343.5 55.5,343.5C 55.5,322.167 55.5,300.833 55.5,279.5 Z"/></g>
<g><path style="opacity:1" fill="#feeaa6" d="M 135.5,279.5 C 156.833,279.5 178.167,279.5 199.5,279.5C 199.5,300.833 199.5,322.167 199.5,343.5C 178.167,343.5 156.833,343.5 135.5,343.5C 135.5,322.167 135.5,300.833 135.5,279.5 Z"/></g>
<g><path style="opacity:1" fill="#fde8a5" d="M 215.5,279.5 C 236.833,279.5 258.167,279.5 279.5,279.5C 279.667,294.504 279.5,309.504 279,324.5C 275.784,330.264 273.117,336.264 271,342.5C 252.576,343.493 234.076,343.826 215.5,343.5C 215.5,322.167 215.5,300.833 215.5,279.5 Z"/></g>
<g><path style="opacity:1" fill="#fbe6a4" d="M 295.5,279.5 C 304.839,279.334 314.173,279.5 323.5,280C 313.187,285.64 304.021,292.806 296,301.5C 295.5,294.174 295.334,286.841 295.5,279.5 Z"/></g>
<g><path style="opacity:1" fill="#68d4f2" d="M 370.5,279.5 C 427.047,277.329 464.88,302.663 484,355.5C 493.579,399.093 481.746,435.593 448.5,465C 412.203,491.059 373.869,494.392 333.5,475C 289.405,446.95 272.572,407.117 283,355.5C 297.506,313.153 326.673,287.82 370.5,279.5 Z"/></g>
<g><path style="opacity:1" fill="#080705" d="M 264.5,290.5 C 268.737,293.228 272.571,296.561 276,300.5C 276.667,301.167 276.667,301.833 276,302.5C 264.167,314.333 252.333,326.167 240.5,338C 239.833,338.667 239.167,338.667 238.5,338C 232,331.5 225.5,325 219,318.5C 221.446,313.867 224.946,309.867 229.5,306.5C 232.651,309.15 235.651,311.984 238.5,315C 239.167,315.667 239.833,315.667 240.5,315C 248.702,306.965 256.702,298.798 264.5,290.5 Z"/></g>
<g><path style="opacity:1" fill="#060a0c" d="M 380.5,295.5 C 391.167,296.003 393.833,300.836 388.5,310C 379.42,313.215 375.253,310.048 376,300.5C 377.025,298.313 378.525,296.646 380.5,295.5 Z"/></g>
<g><path style="opacity:1" fill="#060a0c" d="M 324.5,319.5 C 335.167,320.003 337.833,324.836 332.5,334C 323.42,337.215 319.253,334.048 320,324.5C 321.025,322.313 322.525,320.646 324.5,319.5 Z"/></g>
<g><path style="opacity:1" fill="#060a0c" d="M 436.5,319.5 C 447.167,320.003 449.833,324.836 444.5,334C 435.42,337.215 431.253,334.048 432,324.5C 433.025,322.313 434.525,320.646 436.5,319.5 Z"/></g>
<g><path style="opacity:1" fill="#010203" d="M 375.5,327.5 C 380.833,327.5 386.167,327.5 391.5,327.5C 391.168,338.853 391.501,350.186 392.5,361.5C 401.541,365.428 406.541,372.262 407.5,382C 406.853,386.212 406.353,390.379 406,394.5C 413.681,402.014 421.181,409.681 428.5,417.5C 425.167,421.5 421.5,425.167 417.5,428.5C 409.681,421.181 402.014,413.681 394.5,406C 379.093,410.867 367.926,406.034 361,391.5C 357.288,377.804 361.788,367.804 374.5,361.5C 375.499,350.186 375.832,338.853 375.5,327.5 Z"/></g>
<g><path style="opacity:1" fill="#060a0c" d="M 300.5,375.5 C 311.167,376.003 313.833,380.836 308.5,390C 299.42,393.215 295.253,390.048 296,380.5C 297.025,378.313 298.525,376.646 300.5,375.5 Z"/></g>
<g><path style="opacity:1" fill="#f37c69" d="M 380.5,375.5 C 388.658,374.823 392.158,378.49 391,386.5C 388.774,390.861 385.274,392.361 380.5,391C 376.139,388.774 374.639,385.274 376,380.5C 377.025,378.313 378.525,376.646 380.5,375.5 Z"/></g>
<g><path style="opacity:1" fill="#060a0c" d="M 460.5,375.5 C 471.167,376.003 473.833,380.836 468.5,390C 459.42,393.215 455.253,390.048 456,380.5C 457.025,378.313 458.525,376.646 460.5,375.5 Z"/></g>
<g><path style="opacity:1" fill="#060a0c" d="M 324.5,431.5 C 335.167,432.003 337.833,436.836 332.5,446C 323.42,449.215 319.253,446.048 320,436.5C 321.025,434.313 322.525,432.646 324.5,431.5 Z"/></g>
<g><path style="opacity:1" fill="#060a0c" d="M 436.5,431.5 C 447.167,432.003 449.833,436.836 444.5,446C 435.42,449.215 431.253,446.048 432,436.5C 433.025,434.313 434.525,432.646 436.5,431.5 Z"/></g>
<g><path style="opacity:1" fill="#060a0c" d="M 380.5,455.5 C 391.167,456.003 393.833,460.836 388.5,470C 379.42,473.215 375.253,470.048 376,460.5C 377.025,458.313 378.525,456.646 380.5,455.5 Z"/></g>
</svg>
