<?xml version="1.0" encoding="UTF-8"?>
<!DOCTYPE svg PUBLIC "-//W3C//DTD SVG 1.1//EN" "http://www.w3.org/Graphics/SVG/1.1/DTD/svg11.dtd">
<svg xmlns="http://www.w3.org/2000/svg" version="1.1" width="512px" height="512px" style="shape-rendering:geometricPrecision; text-rendering:geometricPrecision; image-rendering:optimizeQuality; fill-rule:evenodd; clip-rule:evenodd" xmlns:xlink="http://www.w3.org/1999/xlink">
<g><path style="opacity:0.957" fill="#000101" d="M 124.5,8.5 C 180.239,4.28861 223.405,25.2886 254,71.5C 275.249,110.073 278.249,150.073 263,191.5C 235.149,249.357 188.982,276.19 124.5,272C 72.1208,263.942 35.9541,235.442 16,186.5C -1.63897,130.32 10.5277,81.8204 52.5,41C 73.4691,23.3469 97.4691,12.5136 124.5,8.5 Z"/></g>
<g><path style="opacity:1" fill="#63ceea" d="M 126.5,22.5 C 178.052,19.5223 217.219,39.8557 244,83.5C 267.026,130.596 262.693,174.929 231,216.5C 197.204,252.985 156.038,265.485 107.5,254C 59.056,237.555 30.8893,204.055 23,153.5C 20.2664,95.112 45.4331,53.9453 98.5,30C 107.743,26.6599 117.076,24.1599 126.5,22.5 Z"/></g>
<g><path style="opacity:1" fill="#040505" d="M 127.5,35.5 C 171.357,32.1827 205.523,48.516 230,84.5C 245.024,109.345 249.357,136.012 243,164.5C 232.839,202.343 209.339,227.843 172.5,241C 127.038,253.063 88.871,241.563 58,206.5C 33.6097,172.763 28.943,136.429 44,97.5C 61.2271,62.4261 89.0605,41.7595 127.5,35.5 Z"/></g>
<g><path style="opacity:1" fill="#f2f4f6" d="M 124.5,49.5 C 170.766,45.041 204.266,63.3743 225,104.5C 239.443,144.472 231.609,179.306 201.5,209C 171.559,233.399 138.559,238.399 102.5,224C 62.8515,203.213 45.3515,170.38 50,125.5C 59.2319,84.769 84.0652,59.4356 124.5,49.5 Z"/></g>
<g><path style="opacity:1" fill="#070707" d="M 138.5,57.5 C 147.08,58.4166 149.913,63.0832 147,71.5C 142.667,78.1667 138.333,78.1667 134,71.5C 132.19,65.519 133.69,60.8523 138.5,57.5 Z"/></g>
<g><path style="opacity:1" fill="#070707" d="M 83.5,80.5 C 85.8568,80.3367 88.1902,80.5034 90.5,81C 92.6667,83.1667 94.8333,85.3333 97,87.5C 97.8333,94.6667 94.6667,97.8333 87.5,97C 85.3333,94.8333 83.1667,92.6667 81,90.5C 79.8634,86.5369 80.6967,83.2036 83.5,80.5 Z"/></g>
<g><path style="opacity:1" fill="#070707" d="M 190.5,80.5 C 198.665,79.1638 201.831,82.4971 200,90.5C 197.529,93.6517 194.529,95.985 191,97.5C 185.208,96.581 182.874,93.2477 184,87.5C 186.372,85.2968 188.539,82.9635 190.5,80.5 Z"/></g>
<g><path style="opacity:1" fill="#030404" d="M 138.5,90.5 C 142.025,90.3459 144.859,91.6792 147,94.5C 147.333,106.5 147.667,118.5 148,130.5C 150.708,133.197 152.541,136.363 153.5,140C 159.965,143.635 166.298,147.468 172.5,151.5C 175.037,159.794 172.037,163.294 163.5,162C 157.664,158.248 151.664,154.748 145.5,151.5C 132.741,153.91 127.241,148.576 129,135.5C 130.093,133.651 131.426,131.984 133,130.5C 133.333,118.5 133.667,106.5 134,94.5C 135.397,92.9297 136.897,91.5964 138.5,90.5 Z"/></g>
<g><path style="opacity:0.925" fill="#000000" d="M 295.5,96.5 C 321.835,96.3334 348.169,96.5 374.5,97C 394.264,100.764 407.097,112.264 413,131.5C 414.257,151.129 414.924,170.796 415,190.5C 420.125,183.707 425.625,177.207 431.5,171C 440.173,169.005 443.673,172.505 442,181.5C 431.5,194 421,206.5 410.5,219C 408.167,219.667 405.833,219.667 403.5,219C 393.292,207.794 383.459,196.294 374,184.5C 368.915,177.584 370.415,172.584 378.5,169.5C 379.795,170.098 381.128,170.598 382.5,171C 388.375,177.207 393.875,183.707 399,190.5C 399.667,173.167 399.667,155.833 399,138.5C 395.5,124.333 386.667,115.5 372.5,112C 346.833,111.667 321.167,111.333 295.5,111C 290.214,106.169 290.214,101.335 295.5,96.5 Z"/></g>
<g><path style="opacity:1" fill="#070707" d="M 61.5,133.5 C 65.6372,133.146 69.6372,133.646 73.5,135C 77.9191,139.819 77.2524,143.819 71.5,147C 68.1667,147.667 64.8333,147.667 61.5,147C 56.2475,142.506 56.2475,138.006 61.5,133.5 Z"/></g>
<g><path style="opacity:1" fill="#070707" d="M 208.5,133.5 C 212.637,133.146 216.637,133.646 220.5,135C 224.802,139.797 224.136,143.797 218.5,147C 213.16,148.534 208.66,147.367 205,143.5C 204.333,141.5 204.333,139.5 205,137.5C 206.376,136.295 207.542,134.962 208.5,133.5 Z"/></g>
<g><path style="opacity:1" fill="#050505" d="M 87.5,183.5 C 95.5581,183.373 98.3915,187.04 96,194.5C 93.7406,197.784 90.7406,199.784 87,200.5C 80.957,199.763 78.957,196.429 81,190.5C 83.3722,188.297 85.5389,185.963 87.5,183.5 Z"/></g>
<g><path style="opacity:1" fill="#050505" d="M 188.5,183.5 C 193.422,183.899 197.255,186.233 200,190.5C 201.5,198.333 198.333,201.5 190.5,200C 188.667,198.167 186.833,196.333 185,194.5C 182.35,189.562 183.517,185.895 188.5,183.5 Z"/></g>
<g><path style="opacity:1" fill="#070707" d="M 137.5,204.5 C 146.63,204.83 149.797,209.496 147,218.5C 142.667,225.167 138.333,225.167 134,218.5C 132.496,213.01 133.663,208.343 137.5,204.5 Z"/></g>
<g><path style="opacity:0.957" fill="#010102" d="M 354.5,238.5 C 410.239,234.289 453.405,255.289 484,301.5C 505.249,340.11 508.249,380.11 493,421.5C 465.113,479.372 418.947,506.205 354.5,502C 302.117,493.938 265.951,465.438 246,416.5C 228.361,360.32 240.528,311.82 282.5,271C 303.438,253.364 327.438,242.531 354.5,238.5 Z"/></g>
<g><path style="opacity:1" fill="#f2f4f6" d="M 356.5,252.5 C 408.052,249.522 447.219,269.856 474,313.5C 497.075,360.605 492.742,404.938 461,446.5C 428.185,481.993 388.019,494.826 340.5,485C 290.557,469.058 261.39,435.225 253,383.5C 250.266,325.112 275.433,283.945 328.5,260C 337.743,256.66 347.076,254.16 356.5,252.5 Z"/></g>
<g><path style="opacity:1" fill="#050505" d="M 362.5,280.5 C 392.996,279.496 407.496,294.162 406,324.5C 399.389,345.091 385.222,354.591 363.5,353C 341.331,345.821 331.831,330.654 335,307.5C 339.454,293.545 348.621,284.545 362.5,280.5 Z"/></g>
<g><path style="opacity:0.926" fill="#000000" d="M 100.5,291.5 C 102.857,291.337 105.19,291.503 107.5,292C 117.708,303.206 127.541,314.706 137,326.5C 142.085,333.416 140.585,338.416 132.5,341.5C 131.205,340.902 129.872,340.402 128.5,340C 122.625,333.793 117.125,327.293 112,320.5C 111.333,337.833 111.333,355.167 112,372.5C 114.631,386.464 122.798,395.297 136.5,399C 162.167,399.333 187.833,399.667 213.5,400C 219.059,401.458 220.892,404.958 219,410.5C 218.535,411.931 217.701,413.097 216.5,414C 189.167,414.667 161.833,414.667 134.5,414C 113.771,408.605 101.271,395.438 97,374.5C 96.6667,356.5 96.3333,338.5 96,320.5C 90.8755,327.293 85.3755,333.793 79.5,340C 70.8267,341.995 67.3267,338.495 69,329.5C 79.7117,316.96 90.2117,304.293 100.5,291.5 Z"/></g>
<g><path style="opacity:1" fill="#ecc4a2" d="M 363.5,294.5 C 387.564,294.057 396.397,305.39 390,328.5C 380.231,340.862 368.731,342.696 355.5,334C 347.677,324.66 346.51,314.493 352,303.5C 355.449,299.877 359.283,296.877 363.5,294.5 Z"/></g>
<g><path style="opacity:1" fill="#030405" d="M 362.5,356.5 C 395.581,354.782 419.748,368.448 435,397.5C 440.698,409.346 442.365,421.679 440,434.5C 435.594,443.799 428.427,449.965 418.5,453C 387.228,462.55 355.895,462.884 324.5,454C 312.472,450.636 304.305,443.136 300,431.5C 300.716,389.626 321.549,364.626 362.5,356.5 Z"/></g>
<g><path style="opacity:1" fill="#65d3ef" d="M 426.5,418.5 C 426.439,420.592 425.439,422.092 423.5,423C 406.227,430.862 388.06,434.362 369,433.5C 356.333,433.434 343.833,431.934 331.5,429C 326.601,427.551 321.935,425.551 317.5,423C 315.561,422.092 314.561,420.592 314.5,418.5C 320.942,389.226 339.109,373.226 369,370.5C 400.494,371.834 419.661,387.834 426.5,418.5 Z"/></g>
<g><path style="opacity:1" fill="#4dbde4" d="M 314.5,418.5 C 314.561,420.592 315.561,422.092 317.5,423C 321.935,425.551 326.601,427.551 331.5,429C 343.833,431.934 356.333,433.434 369,433.5C 388.06,434.362 406.227,430.862 423.5,423C 425.439,422.092 426.439,420.592 426.5,418.5C 429.259,426.008 427.259,432.008 420.5,436.5C 404.659,443.801 387.993,447.135 370.5,446.5C 353.809,447.426 337.809,444.593 322.5,438C 314.086,433.691 311.419,427.191 314.5,418.5 Z"/></g>
</svg>
