<?xml version="1.0" encoding="UTF-8"?>
<!DOCTYPE svg PUBLIC "-//W3C//DTD SVG 1.1//EN" "http://www.w3.org/Graphics/SVG/1.1/DTD/svg11.dtd">
<svg xmlns="http://www.w3.org/2000/svg" version="1.1" width="512px" height="512px" style="shape-rendering:geometricPrecision; text-rendering:geometricPrecision; image-rendering:optimizeQuality; fill-rule:evenodd; clip-rule:evenodd" xmlns:xlink="http://www.w3.org/1999/xlink">
<g><path style="opacity:0.995" fill="#454b53" d="M 368.5,294.5 C 340.764,317.393 313.43,340.893 286.5,365C 279.079,368.958 272.579,367.791 267,361.5C 253.581,340.994 239.914,320.661 226,300.5C 221.141,288.885 224.808,281.551 237,278.5C 243.141,278.651 247.807,281.318 251,286.5C 260.672,301.846 270.838,316.846 281.5,331.5C 305.427,310.951 329.26,290.285 353,269.5C 353.5,261.507 353.666,253.507 353.5,245.5C 303.669,244.501 253.669,244.168 203.5,244.5C 203.168,296.669 203.501,348.669 204.5,400.5C 254.167,400.5 303.833,400.5 353.5,400.5C 353.333,381.164 353.5,361.83 354,342.5C 356.689,335.974 361.523,332.307 368.5,331.5C 375.574,332.618 380.074,336.618 382,343.5C 382.667,368.167 382.667,392.833 382,417.5C 381.08,422.188 378.58,425.688 374.5,428C 342.559,429.156 310.559,429.656 278.5,429.5C 247.5,429.333 216.5,429.167 185.5,429C 181.388,427.221 178.222,424.388 176,420.5C 175.333,355.5 175.333,290.5 176,225.5C 177.5,221.333 180.333,218.5 184.5,217C 247.167,216.333 309.833,216.333 372.5,217C 376.275,218.442 379.108,220.942 381,224.5C 382.139,230.436 382.805,236.436 383,242.5C 392.297,234.871 401.297,226.871 410,218.5C 410.5,206.505 410.667,194.505 410.5,182.5C 283.833,182.5 157.167,182.5 30.5,182.5C 30.5,277.167 30.5,371.833 30.5,466.5C 148.834,466.667 267.167,466.5 385.5,466C 398.354,464.145 406.521,456.978 410,444.5C 410.333,392.5 410.667,340.5 411,288.5C 413.131,281.751 417.798,278.084 425,277.5C 431.661,278.154 436.328,281.487 439,287.5C 439.667,341.167 439.667,394.833 439,448.5C 433.297,474.869 417.13,490.369 390.5,495C 264.5,495.667 138.5,495.667 12.5,495C 7.42678,493.594 3.92678,490.428 2,485.5C 1.33333,347.833 1.33333,210.167 2,72.5C 3.70168,66.1361 7.86835,62.6361 14.5,62C 37.4976,61.5 60.4976,61.3334 83.5,61.5C 83.0796,51.7529 83.5796,42.0862 85,32.5C 92.8359,21.545 101.503,20.8783 111,30.5C 112.426,40.7544 112.926,51.0878 112.5,61.5C 143.5,61.5 174.5,61.5 205.5,61.5C 205.141,51.7761 205.641,42.1094 207,32.5C 212.27,24.0574 219.437,21.8908 228.5,26C 230.917,27.6626 232.75,29.8293 234,32.5C 235.391,42.1003 235.891,51.767 235.5,61.5C 266.5,61.5 297.5,61.5 328.5,61.5C 328.334,52.1607 328.5,42.8274 329,33.5C 334.579,23.4788 342.413,21.3121 352.5,27C 353.787,28.4095 354.954,29.9095 356,31.5C 357.423,41.4203 357.923,51.4203 357.5,61.5C 380.502,61.3334 403.502,61.5 426.5,62C 432.572,62.6233 436.739,65.79 439,71.5C 439.333,111.833 439.667,152.167 440,192.5C 455.872,178.292 472.039,164.459 488.5,151C 500.457,147.474 507.457,151.807 509.5,164C 509.582,168.761 507.915,172.761 504.5,176C 458.974,215.365 413.64,254.865 368.5,294.5 Z"/></g>
<g><path style="opacity:1" fill="#8caec6" d="M 328.5,91.5 C 297.5,91.5 266.5,91.5 235.5,91.5C 235.826,100.017 235.493,108.35 234.5,116.5C 234.5,107.833 234.5,99.1667 234.5,90.5C 266.004,90.1685 297.338,90.5018 328.5,91.5 Z"/></g>
<g><path style="opacity:1" fill="#7f9cb1" d="M 410.5,153.5 C 410.5,132.833 410.5,112.167 410.5,91.5C 392.833,91.5 375.167,91.5 357.5,91.5C 357.827,100.682 357.493,109.682 356.5,118.5C 356.5,109.167 356.5,99.8333 356.5,90.5C 374.833,90.5 393.167,90.5 411.5,90.5C 411.831,111.673 411.497,132.673 410.5,153.5 Z"/></g>
<g><path style="opacity:1" fill="#99bed9" d="M 234.5,116.5 C 235.493,108.35 235.826,100.017 235.5,91.5C 266.5,91.5 297.5,91.5 328.5,91.5C 328.334,100.839 328.5,110.173 329,119.5C 332.329,128.082 338.495,131.248 347.5,129C 352.488,127.18 355.488,123.68 356.5,118.5C 357.493,109.682 357.827,100.682 357.5,91.5C 375.167,91.5 392.833,91.5 410.5,91.5C 410.5,112.167 410.5,132.833 410.5,153.5C 283.833,153.5 157.167,153.5 30.5,153.5C 30.5,132.5 30.5,111.5 30.5,90.5C 48.5,90.5 66.5,90.5 84.5,90.5C 84.0712,101.245 84.5712,111.912 86,122.5C 90.0166,129.138 95.8499,131.304 103.5,129C 108.052,127.412 110.885,124.245 112,119.5C 112.5,109.839 112.666,100.172 112.5,90.5C 143.833,90.5 175.167,90.5 206.5,90.5C 206.334,99.8393 206.5,109.173 207,118.5C 209.695,127.771 215.861,131.271 225.5,129C 231.314,126.876 234.314,122.71 234.5,116.5 Z"/></g>
<g><path style="opacity:0.999" fill="#444b53" d="M 68.5,216.5 C 92.5023,216.333 116.502,216.5 140.5,217C 144.667,218.5 147.5,221.333 149,225.5C 149.667,249.5 149.667,273.5 149,297.5C 146.833,303.338 142.666,306.504 136.5,307C 114.833,307.667 93.1667,307.667 71.5,307C 64.2115,305.379 60.0448,300.879 59,293.5C 58.3333,272.167 58.3333,250.833 59,229.5C 59.7578,223.286 62.9245,218.953 68.5,216.5 Z"/></g>
<g><path style="opacity:1" fill="#fce496" d="M 88.5,245.5 C 99.1667,245.5 109.833,245.5 120.5,245.5C 120.5,256.167 120.5,266.833 120.5,277.5C 120.5,266.833 120.5,256.167 120.5,245.5C 109.833,245.5 99.1667,245.5 88.5,245.5 Z"/></g>
<g><path style="opacity:1" fill="#b2a67b" d="M 87.5,245.5 C 98.6544,244.505 109.988,244.172 121.5,244.5C 121.828,256.012 121.495,267.346 120.5,278.5C 120.5,278.167 120.5,277.833 120.5,277.5C 120.5,266.833 120.5,256.167 120.5,245.5C 109.833,245.5 99.1667,245.5 88.5,245.5C 88.1667,245.5 87.8333,245.5 87.5,245.5 Z"/></g>
<g><path style="opacity:1" fill="#85a5a1" d="M 353.5,245.5 C 303.833,245.5 254.167,245.5 204.5,245.5C 204.5,297.167 204.5,348.833 204.5,400.5C 203.501,348.669 203.168,296.669 203.5,244.5C 253.669,244.168 303.669,244.501 353.5,245.5 Z"/></g>
<g><path style="opacity:1" fill="#afdfd3" d="M 353.5,245.5 C 353.666,253.507 353.5,261.507 353,269.5C 329.26,290.285 305.427,310.951 281.5,331.5C 270.838,316.846 260.672,301.846 251,286.5C 247.807,281.318 243.141,278.651 237,278.5C 224.808,281.551 221.141,288.885 226,300.5C 239.914,320.661 253.581,340.994 267,361.5C 272.579,367.791 279.079,368.958 286.5,365C 313.43,340.893 340.764,317.393 368.5,294.5C 368.5,306.833 368.5,319.167 368.5,331.5C 361.523,332.307 356.689,335.974 354,342.5C 353.5,361.83 353.333,381.164 353.5,400.5C 303.833,400.5 254.167,400.5 204.5,400.5C 204.5,348.833 204.5,297.167 204.5,245.5C 254.167,245.5 303.833,245.5 353.5,245.5 Z"/></g>
<g><path style="opacity:1" fill="#dfcc8c" d="M 87.5,245.5 C 87.8333,245.5 88.1667,245.5 88.5,245.5C 88.5,256.167 88.5,266.833 88.5,277.5C 99.1667,277.5 109.833,277.5 120.5,277.5C 120.5,277.833 120.5,278.167 120.5,278.5C 109.5,278.5 98.5,278.5 87.5,278.5C 87.5,267.5 87.5,256.5 87.5,245.5 Z"/></g>
<g><path style="opacity:0.994" fill="#454b53" d="M 69.5,338.5 C 92.8357,338.333 116.169,338.5 139.5,339C 143.788,340.564 146.955,343.397 149,347.5C 149.667,371.833 149.667,396.167 149,420.5C 146.685,424.817 143.185,427.65 138.5,429C 115.5,429.667 92.5,429.667 69.5,429C 63.238,426.64 59.738,422.14 59,415.5C 58.3333,394.167 58.3333,372.833 59,351.5C 59.8304,344.851 63.3304,340.518 69.5,338.5 Z"/></g>
<g><path style="opacity:1" fill="#f9e195" d="M 87.5,367.5 C 98.8333,367.5 110.167,367.5 121.5,367.5C 121.5,378.5 121.5,389.5 121.5,400.5C 110.167,400.5 98.8333,400.5 87.5,400.5C 87.5,389.5 87.5,378.5 87.5,367.5 Z"/></g>
</svg>
