<?xml version="1.0" encoding="UTF-8"?>
<!DOCTYPE svg PUBLIC "-//W3C//DTD SVG 1.1//EN" "http://www.w3.org/Graphics/SVG/1.1/DTD/svg11.dtd">
<svg xmlns="http://www.w3.org/2000/svg" version="1.1" width="512px" height="512px" style="shape-rendering:geometricPrecision; text-rendering:geometricPrecision; image-rendering:optimizeQuality; fill-rule:evenodd; clip-rule:evenodd" xmlns:xlink="http://www.w3.org/1999/xlink">
<g><path style="opacity:0.992" fill="#000000" d="M 511.5,284.5 C 511.5,296.833 511.5,309.167 511.5,321.5C 503.509,379.997 474.509,424.83 424.5,456C 402.789,468.595 379.456,476.261 354.5,479C 303.5,479.667 252.5,479.667 201.5,479C 197,477.167 193.833,474 192,469.5C 191.333,444.167 191.333,418.833 192,393.5C 193.833,389 197,385.833 201.5,384C 246.167,383.667 290.833,383.333 335.5,383C 372.34,380.844 397.507,362.677 411,328.5C 421.667,282.335 405.501,249.502 362.5,230C 352.174,226.202 341.508,224.202 330.5,224C 284.168,223.5 237.835,223.333 191.5,223.5C 191.667,252.169 191.5,280.835 191,309.5C 186.527,318.482 179.36,321.649 169.5,319C 166.567,317.729 163.901,316.062 161.5,314C 110.122,272.287 58.4553,230.953 6.5,190C 3.54644,187.559 1.21311,184.725 -0.5,181.5C -0.5,177.5 -0.5,173.5 -0.5,169.5C 0.879222,166.614 2.87922,164.114 5.5,162C 59.8026,118.185 114.469,74.8519 169.5,32C 179.288,29.585 186.455,32.7517 191,41.5C 191.5,70.1647 191.667,98.8314 191.5,127.5C 243.168,127.333 294.834,127.5 346.5,128C 410.652,135.889 459.152,167.389 492,222.5C 502.059,242.172 508.559,262.839 511.5,284.5 Z"/></g>
</svg>
