<?xml version="1.0" encoding="UTF-8"?>
<!DOCTYPE svg PUBLIC "-//W3C//DTD SVG 1.1//EN" "http://www.w3.org/Graphics/SVG/1.1/DTD/svg11.dtd">
<svg xmlns="http://www.w3.org/2000/svg" version="1.1" width="512px" height="512px" style="shape-rendering:geometricPrecision; text-rendering:geometricPrecision; image-rendering:optimizeQuality; fill-rule:evenodd; clip-rule:evenodd" xmlns:xlink="http://www.w3.org/1999/xlink">
<g><path style="opacity:0.983" fill="#1e7ffe" d="M 172.5,-0.5 C 182.833,-0.5 193.167,-0.5 203.5,-0.5C 260.109,10.9397 294.942,44.9397 308,101.5C 315.237,144.267 304.737,181.934 276.5,214.5C 286.561,219.737 296.227,225.57 305.5,232C 309.246,231.206 313.08,230.373 317,229.5C 323.404,229.535 328.404,232.202 332,237.5C 335.303,242.969 338.803,248.302 342.5,253.5C 343.325,254.386 344.325,254.719 345.5,254.5C 346.689,245.367 348.522,236.367 351,227.5C 356.33,220.099 363.497,217.599 372.5,220C 388.5,223 404.5,226 420.5,229C 429.938,233.62 433.438,241.12 431,251.5C 430.047,257.223 428.88,262.89 427.5,268.5C 428.035,270.101 429.035,270.601 430.5,270C 437.228,264.941 444.228,260.274 451.5,256C 458.651,254.607 464.817,256.44 470,261.5C 479.667,275.833 489.333,290.167 499,304.5C 502.481,311.333 502.147,318 498,324.5C 490.885,330.298 483.719,335.965 476.5,341.5C 485.102,343.77 493.769,345.937 502.5,348C 506.811,350.505 509.811,354.005 511.5,358.5C 511.5,362.833 511.5,367.167 511.5,371.5C 508.471,386.325 505.637,401.325 503,416.5C 500.622,425.215 494.956,429.881 486,430.5C 477.832,429.099 469.665,427.766 461.5,426.5C 461.351,427.552 461.517,428.552 462,429.5C 467.487,436.319 472.154,443.652 476,451.5C 477.214,458.858 475.048,465.024 469.5,470C 454.992,479.754 440.659,489.754 426.5,500C 419.7,502.486 413.367,501.652 407.5,497.5C 402.398,490.282 397.064,483.282 391.5,476.5C 389.351,484.741 387.518,493.074 386,501.5C 383.894,506.443 380.394,509.776 375.5,511.5C 371.167,511.5 366.833,511.5 362.5,511.5C 345.935,508.123 329.269,504.623 312.5,501C 304.937,495.302 302.437,487.802 305,478.5C 305.728,474.464 306.561,470.464 307.5,466.5C 304.554,465.345 301.554,465.179 298.5,466C 293.221,471.306 286.888,474.473 279.5,475.5C 272.173,475.671 266.84,472.504 263.5,466C 176.833,465.667 90.1667,465.333 3.5,465C 2.29493,463.624 0.961599,462.458 -0.5,461.5C -0.5,426.5 -0.5,391.5 -0.5,356.5C 8.69508,292.091 42.0284,244.758 99.5,214.5C 64.565,172.558 56.7317,125.892 76,74.5C 95.286,32.7899 127.453,7.78987 172.5,-0.5 Z"/></g>
<g><path style="opacity:1" fill="#fefeff" d="M 175.5,16.5 C 221.054,13.8559 255.554,31.8559 279,70.5C 300.59,113.438 297.923,154.771 271,194.5C 240.821,231.004 202.655,243.504 156.5,232C 113.705,214.857 89.2053,183.357 83,137.5C 80.2543,91.1586 98.0876,55.3253 136.5,30C 148.796,22.9588 161.796,18.4588 175.5,16.5 Z"/></g>
<g><path style="opacity:1" fill="#fefeff" d="M 251.5,447.5 C 202.003,448.499 152.336,448.832 102.5,448.5C 102.667,432.83 102.5,417.163 102,401.5C 96.1871,394.574 91.0204,394.907 86.5,402.5C 85.5038,417.658 85.1705,432.991 85.5,448.5C 62.5,448.5 39.5,448.5 16.5,448.5C 16.5,421.167 16.5,393.833 16.5,366.5C 21.5117,306.94 49.8451,262.44 101.5,233C 105.725,231.304 109.892,229.471 114,227.5C 162.695,261.945 211.528,262.112 260.5,228C 272.167,231.167 282.834,236.5 292.5,244C 283.833,250 275.167,256 266.5,262C 260.361,268.092 258.861,275.259 262,283.5C 265.754,289.342 269.754,295.009 274,300.5C 276.368,303.427 275.702,305.094 272,305.5C 264.445,303.528 256.778,302.195 249,301.5C 240.158,302.674 234.824,307.674 233,316.5C 229.981,332.969 227.147,349.469 224.5,366C 224.267,374.878 228.267,380.878 236.5,384C 243.785,385.59 251.119,386.924 258.5,388C 259.022,388.561 259.355,389.228 259.5,390C 253.135,395.359 246.469,400.359 239.5,405C 234.467,410.426 233.3,416.592 236,423.5C 240.928,431.698 246.095,439.698 251.5,447.5 Z"/></g>
<g><path style="opacity:1" fill="#25e0bb" d="M 365.5,236.5 C 382.084,238.817 398.417,242.15 414.5,246.5C 412.662,256.854 410.662,267.187 408.5,277.5C 411.248,280.386 414.581,282.553 418.5,284C 421.5,286.333 424.5,288.667 427.5,291C 428.5,291.667 429.5,291.667 430.5,291C 438.5,285.333 446.5,279.667 454.5,274C 455.5,273.333 456.5,273.333 457.5,274C 466.252,287.506 475.252,300.839 484.5,314C 475.333,320.5 466.167,327 457,333.5C 459.266,340.576 460.933,347.909 462,355.5C 462.772,356.849 463.939,357.682 465.5,358C 475.101,359.984 484.767,361.484 494.5,362.5C 491.833,379.5 489.167,396.5 486.5,413.5C 475.668,411.547 464.834,409.547 454,407.5C 453.228,407.645 452.561,407.978 452,408.5C 449.185,415.466 445.352,421.799 440.5,427.5C 446.5,436.833 452.5,446.167 458.5,455.5C 445.638,465.521 432.471,475.188 419,484.5C 413.086,476.34 407.419,468.007 402,459.5C 400.938,458.101 399.605,457.101 398,456.5C 390.675,458.58 383.342,460.58 376,462.5C 373.878,472.858 371.712,483.191 369.5,493.5C 368.5,493.833 367.5,494.167 366.5,494.5C 351.845,491.558 337.178,488.724 322.5,486C 321.919,485.107 321.585,484.107 321.5,483C 323.352,473.369 325.019,463.703 326.5,454C 326.415,452.893 326.081,451.893 325.5,451C 318.594,448.3 312.428,444.467 307,439.5C 297.589,445.457 288.422,451.791 279.5,458.5C 269.971,444.803 260.638,430.97 251.5,417C 260.898,410.641 269.898,403.807 278.5,396.5C 276.179,389.075 274.179,381.575 272.5,374C 262.242,372.082 252.075,369.915 242,367.5C 243.78,350.758 246.28,334.091 249.5,317.5C 260.68,320.501 272.013,322.335 283.5,323C 286.494,316.008 290.494,309.675 295.5,304C 290.409,295.241 284.909,286.741 279,278.5C 278.018,277.241 277.685,275.908 278,274.5C 290.668,265.001 303.668,256.001 317,247.5C 324.148,256.451 330.814,265.784 337,275.5C 344.18,272.33 351.68,270.163 359.5,269C 361.874,258.259 363.874,247.425 365.5,236.5 Z"/></g>
<g><path style="opacity:1" fill="#1e80fe" d="M 357.5,306.5 C 392.327,303.838 414.827,319.171 425,352.5C 429.182,389.669 413.348,413.169 377.5,423C 352.447,426.22 332.947,417.387 319,396.5C 303.411,367.451 307.577,341.618 331.5,319C 339.338,312.913 348.005,308.746 357.5,306.5 Z"/></g>
<g><path style="opacity:1" fill="#fdfeff" d="M 360.5,322.5 C 385.647,321.161 401.813,332.495 409,356.5C 411.777,376.105 404.944,391.271 388.5,402C 364.143,412.879 344.976,407.046 331,384.5C 320.719,354.066 330.553,333.399 360.5,322.5 Z"/></g>
<g><path style="opacity:1" fill="#72adff" d="M 16.5,366.5 C 16.5,393.833 16.5,421.167 16.5,448.5C 39.5,448.5 62.5,448.5 85.5,448.5C 85.1705,432.991 85.5038,417.658 86.5,402.5C 86.5,418.167 86.5,433.833 86.5,449.5C 62.8333,449.5 39.1667,449.5 15.5,449.5C 15.1687,421.662 15.5021,393.995 16.5,366.5 Z"/></g>
<g><path style="opacity:1" fill="#59a1ff" d="M 251.5,447.5 C 252.043,447.56 252.376,447.893 252.5,448.5C 202.335,449.831 152.335,449.831 102.5,448.5C 152.336,448.832 202.003,448.499 251.5,447.5 Z"/></g>
</svg>
