<?xml version="1.0" encoding="UTF-8"?>
<!DOCTYPE svg PUBLIC "-//W3C//DTD SVG 1.1//EN" "http://www.w3.org/Graphics/SVG/1.1/DTD/svg11.dtd">
<svg xmlns="http://www.w3.org/2000/svg" version="1.1" width="512px" height="512px" style="shape-rendering:geometricPrecision; text-rendering:geometricPrecision; image-rendering:optimizeQuality; fill-rule:evenodd; clip-rule:evenodd" xmlns:xlink="http://www.w3.org/1999/xlink">
<g><path style="opacity:0.998" fill="#00abe9" d="M 61.5,-0.5 C 124.833,-0.5 188.167,-0.5 251.5,-0.5C 251.333,28.1686 251.5,56.8353 252,85.5C 255.21,102.376 265.044,113.209 281.5,118C 309.498,118.5 337.498,118.667 365.5,118.5C 365.5,155.167 365.5,191.833 365.5,228.5C 324.354,223.615 287.688,233.948 255.5,259.5C 254.781,257.112 253.115,255.612 250.5,255C 199.833,254.333 149.167,254.333 98.5,255C 91.5771,258.741 89.7437,264.241 93,271.5C 94.6374,273.81 96.804,275.31 99.5,276C 145.499,276.5 191.499,276.667 237.5,276.5C 228.821,287.858 221.155,299.858 214.5,312.5C 175.669,311.335 136.669,311.169 97.5,312C 91.3986,316.195 89.8986,321.695 93,328.5C 94.9522,330.894 97.4522,332.394 100.5,333C 136.165,333.5 171.832,333.667 207.5,333.5C 199.366,369.761 203.699,404.427 220.5,437.5C 168.499,437.667 116.499,437.5 64.5,437C 43.0975,432.398 29.5975,419.564 24,398.5C 23.3333,278.5 23.3333,158.5 24,38.5C 28.9059,18.0958 41.4059,5.09581 61.5,-0.5 Z"/></g>
<g><path style="opacity:0.984" fill="#00eed1" d="M 251.5,-0.5 C 251.833,-0.5 252.167,-0.5 252.5,-0.5C 290.532,38.8641 328.199,78.5308 365.5,118.5C 337.498,118.667 309.498,118.5 281.5,118C 265.044,113.209 255.21,102.376 252,85.5C 251.5,56.8353 251.333,28.1686 251.5,-0.5 Z"/></g>
<g><path style="opacity:1" fill="#083b67" d="M 99.5,198.5 C 138.501,198.333 177.501,198.5 216.5,199C 225.489,202.138 227.989,207.972 224,216.5C 222.048,218.894 219.548,220.394 216.5,221C 177.833,221.667 139.167,221.667 100.5,221C 91.2026,217.433 89.036,211.266 94,202.5C 96.0153,201.303 97.8487,199.97 99.5,198.5 Z"/></g>
<g><path style="opacity:0.992" fill="#fdda41" d="M 365.5,228.5 C 429.911,240.744 469.744,278.744 485,342.5C 494.202,407.576 471.369,457.743 416.5,493C 399.222,502.704 380.888,508.87 361.5,511.5C 350.5,511.5 339.5,511.5 328.5,511.5C 280.218,504.52 244.218,479.854 220.5,437.5C 203.699,404.427 199.366,369.761 207.5,333.5C 209.63,326.442 211.964,319.442 214.5,312.5C 221.155,299.858 228.821,287.858 237.5,276.5C 243.034,270.389 249.034,264.722 255.5,259.5C 287.688,233.948 324.354,223.615 365.5,228.5 Z"/></g>
<g><path style="opacity:1" fill="#083863" d="M 255.5,259.5 C 249.034,264.722 243.034,270.389 237.5,276.5C 191.499,276.667 145.499,276.5 99.5,276C 96.804,275.31 94.6374,273.81 93,271.5C 89.7437,264.241 91.5771,258.741 98.5,255C 149.167,254.333 199.833,254.333 250.5,255C 253.115,255.612 254.781,257.112 255.5,259.5 Z"/></g>
<g><path style="opacity:1" fill="#0e3962" d="M 319.5,280.5 C 366.313,279.5 395.813,301.5 408,346.5C 410.785,368.593 405.952,388.76 393.5,407C 404.987,419.155 416.487,431.321 428,443.5C 429.626,455.453 424.459,460.286 412.5,458C 400.362,446.863 388.529,435.363 377,423.5C 343.568,445.566 310.734,444.733 278.5,421C 251.473,395.391 243.973,364.891 256,329.5C 268.938,302.384 290.104,286.051 319.5,280.5 Z"/></g>
<g><path style="opacity:1" fill="#fcda41" d="M 317.5,303.5 C 352.922,300.465 375.755,315.798 386,349.5C 388.784,384.135 373.617,406.301 340.5,416C 315.278,419.714 295.445,411.214 281,390.5C 266.608,363.3 270.108,338.8 291.5,317C 299.264,310.619 307.931,306.119 317.5,303.5 Z"/></g>
<g><path style="opacity:1" fill="#083863" d="M 214.5,312.5 C 211.964,319.442 209.63,326.442 207.5,333.5C 171.832,333.667 136.165,333.5 100.5,333C 97.4522,332.394 94.9522,330.894 93,328.5C 89.8986,321.695 91.3986,316.195 97.5,312C 136.669,311.169 175.669,311.335 214.5,312.5 Z"/></g>
</svg>
